<svg xmlns="http://www.w3.org/2000/svg" viewBox="0 0 680 280" fill="none">
  <defs>
    <linearGradient id="bg2" x1="0" y1="0" x2="680" y2="280">
      <stop offset="0%" stop-color="#0d0d14"/>
      <stop offset="100%" stop-color="#111827"/>
    </linearGradient>
  </defs>

  <!-- Background -->
  <rect width="680" height="280" rx="16" fill="url(#bg2)"/>
  <rect width="680" height="280" rx="16" stroke="#5B8AEF" stroke-width="1" stroke-opacity="0.2" fill="none"/>

  <!-- Title -->
  <text x="340" y="32" text-anchor="middle" fill="#e2e8f0" font-family="system-ui, -apple-system, sans-serif" font-size="15" font-weight="600">SEO Services Across Berkshire</text>
  <text x="340" y="50" text-anchor="middle" fill="#94a3b8" font-family="system-ui, sans-serif" font-size="11">Local expertise covering all Thames Valley business hubs</text>

  <!-- Reading (central, largest) -->
  <rect x="240" y="72" width="200" height="64" rx="12" fill="#1a2744"/>
  <rect x="240" y="72" width="200" height="64" rx="12" stroke="#5B8AEF" stroke-width="1.5" stroke-opacity="0.5" fill="none"/>
  <circle cx="268" cy="94" r="8" fill="#5B8AEF" fill-opacity="0.2"/>
  <circle cx="268" cy="94" r="3" fill="#5B8AEF"/>
  <text x="286" y="98" fill="#e2e8f0" font-family="system-ui, sans-serif" font-size="14" font-weight="600">Reading</text>
  <text x="412" y="98" text-anchor="end" fill="#5B8AEF" font-family="system-ui, sans-serif" font-size="11" font-weight="600">HQ</text>
  <text x="268" y="122" fill="#94a3b8" font-family="system-ui, sans-serif" font-size="10">Tech, professional services, healthcare</text>

  <!-- Row 2: Bracknell + Wokingham -->
  <rect x="40" y="150" width="190" height="52" rx="10" fill="#1e293b"/>
  <rect x="40" y="150" width="190" height="52" rx="10" stroke="#334155" stroke-width="1" fill="none"/>
  <circle cx="62" cy="172" r="3" fill="#7ba3f5"/>
  <text x="76" y="176" fill="#cbd5e1" font-family="system-ui, sans-serif" font-size="13" font-weight="500">Bracknell Forest</text>
  <text x="62" y="192" fill="#64748b" font-family="system-ui, sans-serif" font-size="9">Tech parks, B2B services</text>

  <rect x="245" y="150" width="190" height="52" rx="10" fill="#1e293b"/>
  <rect x="245" y="150" width="190" height="52" rx="10" stroke="#334155" stroke-width="1" fill="none"/>
  <circle cx="267" cy="172" r="3" fill="#7ba3f5"/>
  <text x="281" y="176" fill="#cbd5e1" font-family="system-ui, sans-serif" font-size="13" font-weight="500">Wokingham</text>
  <text x="267" y="192" fill="#64748b" font-family="system-ui, sans-serif" font-size="9">Growth-stage companies</text>

  <rect x="450" y="150" width="190" height="52" rx="10" fill="#1e293b"/>
  <rect x="450" y="150" width="190" height="52" rx="10" stroke="#334155" stroke-width="1" fill="none"/>
  <circle cx="472" cy="172" r="3" fill="#7ba3f5"/>
  <text x="486" y="176" fill="#cbd5e1" font-family="system-ui, sans-serif" font-size="13" font-weight="500">Slough</text>
  <text x="472" y="192" fill="#64748b" font-family="system-ui, sans-serif" font-size="9">Manufacturing, professional</text>

  <!-- Row 3: Windsor + Maidenhead -->
  <rect x="140" y="216" width="200" height="52" rx="10" fill="#1e293b"/>
  <rect x="140" y="216" width="200" height="52" rx="10" stroke="#334155" stroke-width="1" fill="none"/>
  <circle cx="162" cy="238" r="3" fill="#7ba3f5"/>
  <text x="176" y="242" fill="#cbd5e1" font-family="system-ui, sans-serif" font-size="13" font-weight="500">Windsor</text>
  <text x="162" y="258" fill="#64748b" font-family="system-ui, sans-serif" font-size="9">Hospitality, tourism, retail</text>

  <rect x="355" y="216" width="200" height="52" rx="10" fill="#1e293b"/>
  <rect x="355" y="216" width="200" height="52" rx="10" stroke="#334155" stroke-width="1" fill="none"/>
  <circle cx="377" cy="238" r="3" fill="#7ba3f5"/>
  <text x="391" y="242" fill="#cbd5e1" font-family="system-ui, sans-serif" font-size="13" font-weight="500">Maidenhead</text>
  <text x="377" y="258" fill="#64748b" font-family="system-ui, sans-serif" font-size="9">Corporate, professional services</text>

  <!-- Connection lines from Reading to others -->
  <line x1="290" y1="136" x2="135" y2="150" stroke="#5B8AEF" stroke-width="0.5" stroke-opacity="0.3"/>
  <line x1="340" y1="136" x2="340" y2="150" stroke="#5B8AEF" stroke-width="0.5" stroke-opacity="0.3"/>
  <line x1="390" y1="136" x2="545" y2="150" stroke="#5B8AEF" stroke-width="0.5" stroke-opacity="0.3"/>
  <line x1="290" y1="136" x2="240" y2="216" stroke="#5B8AEF" stroke-width="0.5" stroke-opacity="0.15"/>
  <line x1="390" y1="136" x2="455" y2="216" stroke="#5B8AEF" stroke-width="0.5" stroke-opacity="0.15"/>
</svg>
