<svg xmlns="http://www.w3.org/2000/svg" viewBox="0 0 100 100">
  <defs>
    <linearGradient id="r" gradientUnits="userSpaceOnUse" x1="0" y1="0" x2="0" y2="100">
      <stop offset="0%" stop-color="#5B8AEF"/>
      <stop offset="100%" stop-color="#D79F1E"/>
    </linearGradient>
    <linearGradient id="t" x1="0" y1="0" x2="0" y2="1">
      <stop offset="0%" stop-color="#11141C"/>
      <stop offset="100%" stop-color="#07070B"/>
    </linearGradient>
  </defs>
  <rect width="100" height="100" rx="24" fill="url(#t)"/>
  <rect x="2" y="2" width="96" height="96"
    rx="22" fill="none" stroke="url(#r)" stroke-width="4"/>
  <g>
    <path d="M33.710 72.260Q28.610 72.260 24.860 70.400Q21.110 68.540 18.950 65.240Q16.790 61.940 16.430 57.560L23.090 57.140Q23.510 60.140 24.830 62.210Q26.150 64.280 28.400 65.330Q30.650 66.380 33.830 66.380Q36.590 66.380 38.540 65.690Q40.490 65 41.510 63.620Q42.530 62.240 42.530 60.260Q42.530 58.460 41.660 57.050Q40.790 55.640 38.360 54.470Q35.930 53.300 31.250 52.160Q26.150 50.900 23.090 49.400Q20.030 47.900 18.680 45.650Q17.330 43.400 17.330 40.100Q17.330 36.440 19.100 33.650Q20.870 30.860 24.170 29.300Q27.470 27.740 32.090 27.740Q36.950 27.740 40.400 29.540Q43.850 31.340 45.860 34.460Q47.870 37.580 48.350 41.600L41.690 41.960Q41.390 39.500 40.190 37.610Q38.990 35.720 36.950 34.670Q34.910 33.620 31.970 33.620Q28.250 33.620 26.120 35.330Q23.990 37.040 23.990 39.860Q23.990 41.660 24.860 42.890Q25.730 44.120 27.980 45.020Q30.230 45.920 34.370 46.940Q39.890 48.200 43.160 50.030Q46.430 51.860 47.810 54.320Q49.190 56.780 49.190 59.900Q49.190 63.680 47.240 66.470Q45.290 69.260 41.810 70.760Q38.330 72.260 33.710 72.260" fill="#F2F4F8"/>
    <path d="M58.670 71.300L52.190 71.300L52.190 28.700L68.090 28.700Q75.410 28.700 79.490 32.210Q83.570 35.720 83.570 41.960Q83.570 46.100 81.710 49.130Q79.850 52.160 76.400 53.750Q72.950 55.340 68.090 55.340L58.670 55.340L58.670 71.300M58.670 34.640L58.670 49.460L67.910 49.460Q72.290 49.460 74.570 47.570Q76.850 45.680 76.850 41.960Q76.850 38.300 74.570 36.470Q72.290 34.640 67.910 34.640" fill="#5B8AEF"/>
  </g>
</svg>