<svg xmlns="http://www.w3.org/2000/svg" viewBox="0 0 1200 600" width="1200" height="600">
  <defs>
    <radialGradient id="glow-1624095316" cx="44.11609044955861%" cy="39.13218573161037%" r="50%">
      <stop offset="0%" stop-color="#5B8AEF" stop-opacity="0.15"/>
      <stop offset="100%" stop-color="#050507" stop-opacity="0"/>
    </radialGradient>
    <radialGradient id="glow2-1624095316" cx="53.48419338161321%" cy="78.83816477322866%" r="40%">
      <stop offset="0%" stop-color="#d79f1e" stop-opacity="0.08"/>
      <stop offset="100%" stop-color="#050507" stop-opacity="0"/>
    </radialGradient>
    <filter id="blur-1624095316">
      <feGaussianBlur stdDeviation="2"/>
    </filter>
  </defs>
  <rect width="1200" height="600" fill="#050507"/>
  <rect width="1200" height="600" fill="url(#glow-1624095316)"/>
  <rect width="1200" height="600" fill="url(#glow2-1624095316)"/>
  <polygon points="32.24720609080739,-18.617933117140982 32.24720609080739,18.617933117140982 2.2800392198646212e-15,37.23586623428197 -32.24720609080739,18.617933117140982 -32.247206090807396,-18.617933117140975 -3.991221048772368e-14,-37.23586623428197 " fill="none" stroke="#5B8AEF" stroke-width="0.5" opacity="0.1527587269399123"/><polygon points="112.86522131782584,-18.617933117140982 112.86522131782584,18.617933117140982 80.61801522701846,37.23586623428197 48.37080913621107,18.617933117140982 48.370809136211065,-18.617933117140975 80.61801522701842,-37.23586623428197 " fill="#5B8AEF" opacity="0.14362035968509518"/><polygon points="274.1012517718628,-18.617933117140982 274.1012517718628,18.617933117140982 241.85404568105542,37.23586623428197 209.60683959024803,18.617933117140982 209.60683959024803,-18.617933117140975 241.8540456810554,-37.23586623428197 " fill="none" stroke="#d79f1e" stroke-width="0.5" opacity="0.08552940001968731"/><polygon points="435.3372822258996,-18.617933117140982 435.3372822258996,18.617933117140982 403.09007613509226,37.23586623428197 370.8428700442849,18.617933117140982 370.84287004428484,-18.617933117140975 403.0900761350922,-37.23586623428197 " fill="none" stroke="#5B8AEF" stroke-width="0.5" opacity="0.06006643981675917"/><polygon points="515.9552974529182,-18.617933117140982 515.9552974529182,18.617933117140982 483.70809136211085,37.23586623428197 451.4608852713035,18.617933117140982 451.4608852713035,-18.617933117140975 483.7080913621108,-37.23586623428197 " fill="#5B8AEF" opacity="0.07615562930524146"/><polygon points="596.5733126799366,-18.617933117140982 596.5733126799366,18.617933117140982 564.3261065891293,37.23586623428197 532.0789004983219,18.617933117140982 532.0789004983219,-18.617933117140975 564.3261065891293,-37.23586623428197 " fill="none" stroke="#5B8AEF" stroke-width="0.5" opacity="0.10519651909600783"/><polygon points="677.191327906955,-18.617933117140982 677.191327906955,18.617933117140982 644.9441218161477,37.23586623428197 612.6969157253403,18.617933117140982 612.6969157253403,-18.617933117140975 644.9441218161477,-37.23586623428197 " fill="#d79f1e" opacity="0.04728878788989446"/><polygon points="838.4273583609919,-18.617933117140982 838.4273583609919,18.617933117140982 806.1801522701845,37.23586623428197 773.9329461793772,18.617933117140982 773.9329461793772,-18.617933117140975 806.1801522701845,-37.23586623428197 " fill="none" stroke="#5B8AEF" stroke-width="0.5" opacity="0.15370411408771953"/><polygon points="919.0453735880104,-18.617933117140982 919.0453735880104,18.617933117140982 886.798167497203,37.23586623428197 854.5509614063957,18.617933117140982 854.5509614063957,-18.617933117140975 886.798167497203,-37.23586623428197 " fill="#5B8AEF" opacity="0.1392078002445436"/><polygon points="999.6633888150291,-18.617933117140982 999.6633888150291,18.617933117140982 967.4161827242217,37.23586623428197 935.1689766334143,18.617933117140982 935.1689766334143,-18.617933117140975 967.4161827242217,-37.23586623428197 " fill="#5B8AEF" opacity="0.15499407619004793"/><polygon points="72.55621370431662,51.19931607213772 72.55621370431662,88.43518230641968 40.30900761350923,107.05311542356067 8.061801522701842,88.43518230641968 8.061801522701835,51.19931607213772 40.30900761350919,32.58138295499673 " fill="none" stroke="#5B8AEF" stroke-width="0.5" opacity="0.13202941990086314"/><polygon points="153.17422893133508,51.19931607213772 153.17422893133508,88.43518230641968 120.92702284052768,107.05311542356067 88.67981674972029,88.43518230641968 88.67981674972029,51.19931607213772 120.92702284052764,32.58138295499673 " fill="none" stroke="#5B8AEF" stroke-width="0.5" opacity="0.12077415941319156"/><polygon points="314.410259385372,51.19931607213772 314.410259385372,88.43518230641968 282.16305329456463,107.05311542356067 249.91584720375724,88.43518230641968 249.91584720375724,51.19931607213772 282.1630532945646,32.58138295499673 " fill="none" stroke="#5B8AEF" stroke-width="0.5" opacity="0.05787602829647997"/><polygon points="395.0282746123904,51.19931607213772 395.0282746123904,88.43518230641968 362.78106852158305,107.05311542356067 330.5338624307757,88.43518230641968 330.5338624307757,51.19931607213772 362.781068521583,32.58138295499673 " fill="none" stroke="#5B8AEF" stroke-width="0.5" opacity="0.14084648869039793"/><polygon points="475.64628983940884,51.19931607213772 475.64628983940884,88.43518230641968 443.39908374860147,107.05311542356067 411.1518776577941,88.43518230641968 411.1518776577941,51.19931607213772 443.3990837486014,32.58138295499673 " fill="none" stroke="#5B8AEF" stroke-width="0.5" opacity="0.10717616637571536"/><polygon points="636.8823202934459,51.19931607213772 636.8823202934459,88.43518230641968 604.6351142026385,107.05311542356067 572.3879081118312,88.43518230641968 572.3879081118312,51.19931607213772 604.6351142026385,32.58138295499673 " fill="#5B8AEF" opacity="0.0736216819629174"/><polygon points="798.1183507474827,51.19931607213772 798.1183507474827,88.43518230641968 765.8711446566754,107.05311542356067 733.623938565868,88.43518230641968 733.623938565868,51.19931607213772 765.8711446566754,32.58138295499673 " fill="none" stroke="#5B8AEF" stroke-width="0.5" opacity="0.095393738493041"/><polygon points="959.3543812015197,51.19931607213772 959.3543812015197,88.43518230641968 927.1071751107123,107.05311542356067 894.859969019905,88.43518230641968 894.859969019905,51.19931607213772 927.1071751107123,32.58138295499673 " fill="none" stroke="#5B8AEF" stroke-width="0.5" opacity="0.07597296651265256"/><polygon points="1039.9723964285383,51.19931607213772 1039.9723964285383,88.43518230641968 1007.725190337731,107.05311542356067 975.4779842469236,88.43518230641968 975.4779842469236,51.19931607213772 1007.725190337731,32.58138295499673 " fill="none" stroke="#5B8AEF" stroke-width="0.5" opacity="0.06608351976894006"/><polygon points="1120.5904116555566,51.19931607213772 1120.5904116555566,88.43518230641968 1088.3432055647493,107.05311542356067 1056.095999473942,88.43518230641968 1056.095999473942,51.19931607213772 1088.3432055647493,32.58138295499673 " fill="none" stroke="#5B8AEF" stroke-width="0.5" opacity="0.054735138683922185"/><polygon points="32.24720609080739,121.01656526141642 32.24720609080739,158.25243149569837 2.2800392198646212e-15,176.87036461283935 -32.24720609080739,158.25243149569837 -32.247206090807396,121.01656526141642 -3.991221048772368e-14,102.39863214427542 " fill="none" stroke="#5B8AEF" stroke-width="0.5" opacity="0.06366345784797495"/><polygon points="112.86522131782584,121.01656526141642 112.86522131782584,158.25243149569837 80.61801522701846,176.87036461283935 48.37080913621107,158.25243149569837 48.370809136211065,121.01656526141642 80.61801522701842,102.39863214427542 " fill="#5B8AEF" opacity="0.09371324726087657"/><polygon points="354.7192669988812,121.01656526141642 354.7192669988812,158.25243149569837 322.47206090807384,176.87036461283935 290.2248548172665,158.25243149569837 290.2248548172664,121.01656526141642 322.4720609080738,102.39863214427542 " fill="none" stroke="#5B8AEF" stroke-width="0.5" opacity="0.117787292859418"/><polygon points="435.3372822258996,121.01656526141642 435.3372822258996,158.25243149569837 403.09007613509226,176.87036461283935 370.8428700442849,158.25243149569837 370.84287004428484,121.01656526141642 403.0900761350922,102.39863214427542 " fill="none" stroke="#5B8AEF" stroke-width="0.5" opacity="0.0948724332334811"/><polygon points="838.4273583609919,121.01656526141642 838.4273583609919,158.25243149569837 806.1801522701845,176.87036461283935 773.9329461793772,158.25243149569837 773.9329461793772,121.01656526141642 806.1801522701845,102.39863214427542 " fill="#5B8AEF" opacity="0.12742680393505226"/><polygon points="999.6633888150291,121.01656526141642 999.6633888150291,158.25243149569837 967.4161827242217,176.87036461283935 935.1689766334143,158.25243149569837 935.1689766334143,121.01656526141642 967.4161827242217,102.39863214427542 " fill="none" stroke="#5B8AEF" stroke-width="0.5" opacity="0.14345244216893446"/><polygon points="1160.899419269066,121.01656526141642 1160.899419269066,158.25243149569837 1128.6522131782585,176.87036461283935 1096.4050070874512,158.25243149569837 1096.4050070874512,121.01656526141642 1128.6522131782585,102.39863214427542 " fill="none" stroke="#5B8AEF" stroke-width="0.5" opacity="0.07578650330928458"/><polygon points="1241.5174344960842,121.01656526141642 1241.5174344960842,158.25243149569837 1209.2702284052768,176.87036461283935 1177.0230223144695,158.25243149569837 1177.0230223144695,121.01656526141642 1209.2702284052768,102.39863214427542 " fill="none" stroke="#5B8AEF" stroke-width="0.5" opacity="0.11647585095673607"/><polygon points="233.79224415835355,190.83381445069512 233.79224415835355,228.06968068497707 201.54503806754616,246.68761380211805 169.29783197673876,228.06968068497707 169.29783197673876,190.83381445069512 201.54503806754613,172.21588133355414 " fill="none" stroke="#5B8AEF" stroke-width="0.5" opacity="0.11564928119799553"/><polygon points="314.410259385372,190.83381445069512 314.410259385372,228.06968068497707 282.16305329456463,246.68761380211805 249.91584720375724,228.06968068497707 249.91584720375724,190.83381445069512 282.1630532945646,172.21588133355414 " fill="none" stroke="#5B8AEF" stroke-width="0.5" opacity="0.1482243534122707"/><polygon points="798.1183507474827,190.83381445069512 798.1183507474827,228.06968068497707 765.8711446566754,246.68761380211805 733.623938565868,228.06968068497707 733.623938565868,190.83381445069512 765.8711446566754,172.21588133355414 " fill="none" stroke="#5B8AEF" stroke-width="0.5" opacity="0.048770229820520726"/><polygon points="878.7363659745012,190.83381445069512 878.7363659745012,228.06968068497707 846.4891598836938,246.68761380211805 814.2419537928864,228.06968068497707 814.2419537928864,190.83381445069512 846.4891598836938,172.21588133355414 " fill="none" stroke="#5B8AEF" stroke-width="0.5" opacity="0.040924365446401934"/><polygon points="959.3543812015197,190.83381445069512 959.3543812015197,228.06968068497707 927.1071751107123,246.68761380211805 894.859969019905,228.06968068497707 894.859969019905,190.83381445069512 927.1071751107123,172.21588133355414 " fill="none" stroke="#5B8AEF" stroke-width="0.5" opacity="0.1241079200264569"/><polygon points="1039.9723964285383,190.83381445069512 1039.9723964285383,228.06968068497707 1007.725190337731,246.68761380211805 975.4779842469236,228.06968068497707 975.4779842469236,190.83381445069512 1007.725190337731,172.21588133355414 " fill="none" stroke="#5B8AEF" stroke-width="0.5" opacity="0.09762991581933103"/><polygon points="1281.8264421095935,190.83381445069512 1281.8264421095935,228.06968068497707 1249.579236018786,246.68761380211805 1217.3320299279787,228.06968068497707 1217.3320299279787,190.83381445069512 1249.579236018786,172.21588133355414 " fill="none" stroke="#5B8AEF" stroke-width="0.5" opacity="0.10266056724947903"/><polygon points="193.48323654484432,260.6510636399738 193.48323654484432,297.88692987425577 161.23603045403692,316.50486299139675 128.98882436322953,297.88692987425577 128.98882436322953,260.6510636399738 161.2360304540369,242.03313052283283 " fill="none" stroke="#5B8AEF" stroke-width="0.5" opacity="0.0706190790564842"/><polygon points="274.1012517718628,260.6510636399738 274.1012517718628,297.88692987425577 241.85404568105542,316.50486299139675 209.60683959024803,297.88692987425577 209.60683959024803,260.6510636399738 241.8540456810554,242.03313052283283 " fill="none" stroke="#5B8AEF" stroke-width="0.5" opacity="0.050484732524717565"/><polygon points="515.9552974529182,260.6510636399738 515.9552974529182,297.88692987425577 483.70809136211085,316.50486299139675 451.4608852713035,297.88692987425577 451.4608852713035,260.6510636399738 483.7080913621108,242.03313052283283 " fill="none" stroke="#5B8AEF" stroke-width="0.5" opacity="0.1370272189644292"/><polygon points="596.5733126799366,260.6510636399738 596.5733126799366,297.88692987425577 564.3261065891293,316.50486299139675 532.0789004983219,297.88692987425577 532.0789004983219,260.6510636399738 564.3261065891293,242.03313052283283 " fill="none" stroke="#5B8AEF" stroke-width="0.5" opacity="0.13239187652822204"/><polygon points="757.8093431339735,260.6510636399738 757.8093431339735,297.88692987425577 725.5621370431661,316.50486299139675 693.3149309523587,297.88692987425577 693.3149309523587,260.6510636399738 725.5621370431661,242.03313052283283 " fill="none" stroke="#5B8AEF" stroke-width="0.5" opacity="0.15539625169494944"/><polygon points="838.4273583609919,260.6510636399738 838.4273583609919,297.88692987425577 806.1801522701845,316.50486299139675 773.9329461793772,297.88692987425577 773.9329461793772,260.6510636399738 806.1801522701845,242.03313052283283 " fill="none" stroke="#d79f1e" stroke-width="0.5" opacity="0.14391222224752986"/><polygon points="999.6633888150291,260.6510636399738 999.6633888150291,297.88692987425577 967.4161827242217,316.50486299139675 935.1689766334143,297.88692987425577 935.1689766334143,260.6510636399738 967.4161827242217,242.03313052283283 " fill="#5B8AEF" opacity="0.08954360431504604"/><polygon points="72.55621370431662,330.46831282925245 72.55621370431662,367.7041790635344 40.30900761350923,386.3221121806754 8.061801522701842,367.7041790635344 8.061801522701835,330.46831282925245 40.30900761350919,311.8503797121115 " fill="none" stroke="#5B8AEF" stroke-width="0.5" opacity="0.06485690334106652"/><polygon points="475.64628983940884,330.46831282925245 475.64628983940884,367.7041790635344 443.39908374860147,386.3221121806754 411.1518776577941,367.7041790635344 411.1518776577941,330.46831282925245 443.3990837486014,311.8503797121115 " fill="none" stroke="#5B8AEF" stroke-width="0.5" opacity="0.08013494929305043"/><polygon points="556.2643050664275,330.46831282925245 556.2643050664275,367.7041790635344 524.0170989756201,386.3221121806754 491.76989288481275,367.7041790635344 491.76989288481275,330.46831282925245 524.0170989756201,311.8503797121115 " fill="none" stroke="#5B8AEF" stroke-width="0.5" opacity="0.05034160029624663"/><polygon points="636.8823202934459,330.46831282925245 636.8823202934459,367.7041790635344 604.6351142026385,386.3221121806754 572.3879081118312,367.7041790635344 572.3879081118312,330.46831282925245 604.6351142026385,311.8503797121115 " fill="none" stroke="#5B8AEF" stroke-width="0.5" opacity="0.14535904244769318"/><polygon points="717.5003355204643,330.46831282925245 717.5003355204643,367.7041790635344 685.253129429657,386.3221121806754 653.0059233388496,367.7041790635344 653.0059233388496,330.46831282925245 685.253129429657,311.8503797121115 " fill="none" stroke="#d79f1e" stroke-width="0.5" opacity="0.07180821412792812"/><polygon points="798.1183507474827,330.46831282925245 798.1183507474827,367.7041790635344 765.8711446566754,386.3221121806754 733.623938565868,367.7041790635344 733.623938565868,330.46831282925245 765.8711446566754,311.8503797121115 " fill="#5B8AEF" opacity="0.13760880078077725"/><polygon points="959.3543812015197,330.46831282925245 959.3543812015197,367.7041790635344 927.1071751107123,386.3221121806754 894.859969019905,367.7041790635344 894.859969019905,330.46831282925245 927.1071751107123,311.8503797121115 " fill="none" stroke="#5B8AEF" stroke-width="0.5" opacity="0.09987823667930357"/><polygon points="1120.5904116555566,330.46831282925245 1120.5904116555566,367.7041790635344 1088.3432055647493,386.3221121806754 1056.095999473942,367.7041790635344 1056.095999473942,330.46831282925245 1088.3432055647493,311.8503797121115 " fill="none" stroke="#5B8AEF" stroke-width="0.5" opacity="0.057444760658519695"/><polygon points="1201.2084268825752,330.46831282925245 1201.2084268825752,367.7041790635344 1168.9612207917678,386.3221121806754 1136.7140147009604,367.7041790635344 1136.7140147009604,330.46831282925245 1168.9612207917678,311.8503797121115 " fill="none" stroke="#d79f1e" stroke-width="0.5" opacity="0.135936878982902"/><polygon points="1281.8264421095935,330.46831282925245 1281.8264421095935,367.7041790635344 1249.579236018786,386.3221121806754 1217.3320299279787,367.7041790635344 1217.3320299279787,330.46831282925245 1249.579236018786,311.8503797121115 " fill="none" stroke="#5B8AEF" stroke-width="0.5" opacity="0.12252279808862265"/><polygon points="112.86522131782584,400.2855620185312 112.86522131782584,437.52142825281317 80.61801522701846,456.13936136995414 48.37080913621107,437.52142825281317 48.370809136211065,400.2855620185312 80.61801522701842,381.66762890139023 " fill="none" stroke="#5B8AEF" stroke-width="0.5" opacity="0.14178010652855974"/><polygon points="354.7192669988812,400.2855620185312 354.7192669988812,437.52142825281317 322.47206090807384,456.13936136995414 290.2248548172665,437.52142825281317 290.2248548172664,400.2855620185312 322.4720609080738,381.66762890139023 " fill="#5B8AEF" opacity="0.11508958402792438"/><polygon points="435.3372822258996,400.2855620185312 435.3372822258996,437.52142825281317 403.09007613509226,456.13936136995414 370.8428700442849,437.52142825281317 370.84287004428484,400.2855620185312 403.0900761350922,381.66762890139023 " fill="#5B8AEF" opacity="0.13016221417587354"/><polygon points="757.8093431339735,400.2855620185312 757.8093431339735,437.52142825281317 725.5621370431661,456.13936136995414 693.3149309523587,437.52142825281317 693.3149309523587,400.2855620185312 725.5621370431661,381.66762890139023 " fill="none" stroke="#5B8AEF" stroke-width="0.5" opacity="0.09979048737315019"/><polygon points="999.6633888150291,400.2855620185312 999.6633888150291,437.52142825281317 967.4161827242217,456.13936136995414 935.1689766334143,437.52142825281317 935.1689766334143,400.2855620185312 967.4161827242217,381.66762890139023 " fill="none" stroke="#5B8AEF" stroke-width="0.5" opacity="0.04122888512966637"/><polygon points="1080.2814040420474,400.2855620185312 1080.2814040420474,437.52142825281317 1048.03419795124,456.13936136995414 1015.7869918604326,437.52142825281317 1015.7869918604326,400.2855620185312 1048.03419795124,381.66762890139023 " fill="none" stroke="#5B8AEF" stroke-width="0.5" opacity="0.13487539688817943"/><polygon points="1160.899419269066,400.2855620185312 1160.899419269066,437.52142825281317 1128.6522131782585,456.13936136995414 1096.4050070874512,437.52142825281317 1096.4050070874512,400.2855620185312 1128.6522131782585,381.66762890139023 " fill="none" stroke="#5B8AEF" stroke-width="0.5" opacity="0.06524525854049495"/><polygon points="636.8823202934459,470.10281120780985 636.8823202934459,507.3386774420918 604.6351142026385,525.9566105592328 572.3879081118312,507.3386774420918 572.3879081118312,470.10281120780985 604.6351142026385,451.4848780906689 " fill="none" stroke="#5B8AEF" stroke-width="0.5" opacity="0.061360269161574665"/><polygon points="717.5003355204643,470.10281120780985 717.5003355204643,507.3386774420918 685.253129429657,525.9566105592328 653.0059233388496,507.3386774420918 653.0059233388496,470.10281120780985 685.253129429657,451.4848780906689 " fill="none" stroke="#5B8AEF" stroke-width="0.5" opacity="0.08386594640271083"/><polygon points="1201.2084268825752,470.10281120780985 1201.2084268825752,507.3386774420918 1168.9612207917678,525.9566105592328 1136.7140147009604,507.3386774420918 1136.7140147009604,470.10281120780985 1168.9612207917678,451.4848780906689 " fill="none" stroke="#5B8AEF" stroke-width="0.5" opacity="0.0637758370972126"/><polygon points="193.48323654484432,539.9200603970886 193.48323654484432,577.1559266313706 161.23603045403692,595.7738597485115 128.98882436322953,577.1559266313706 128.98882436322953,539.9200603970886 161.2360304540369,521.3021272799476 " fill="#5B8AEF" opacity="0.14847547785773663"/><polygon points="435.3372822258996,539.9200603970886 435.3372822258996,577.1559266313706 403.09007613509226,595.7738597485115 370.8428700442849,577.1559266313706 370.84287004428484,539.9200603970886 403.0900761350922,521.3021272799476 " fill="none" stroke="#5B8AEF" stroke-width="0.5" opacity="0.0642941746601342"/><polygon points="1080.2814040420474,539.9200603970886 1080.2814040420474,577.1559266313706 1048.03419795124,595.7738597485115 1015.7869918604326,577.1559266313706 1015.7869918604326,539.9200603970886 1048.03419795124,521.3021272799476 " fill="none" stroke="#5B8AEF" stroke-width="0.5" opacity="0.1092356214435937"/><polygon points="1160.899419269066,539.9200603970886 1160.899419269066,577.1559266313706 1128.6522131782585,595.7738597485115 1096.4050070874512,577.1559266313706 1096.4050070874512,539.9200603970886 1128.6522131782585,521.3021272799476 " fill="none" stroke="#d79f1e" stroke-width="0.5" opacity="0.04855641786407513"/><polygon points="1241.5174344960842,539.9200603970886 1241.5174344960842,577.1559266313706 1209.2702284052768,595.7738597485115 1177.0230223144695,577.1559266313706 1177.0230223144695,539.9200603970886 1209.2702284052768,521.3021272799476 " fill="none" stroke="#5B8AEF" stroke-width="0.5" opacity="0.11041870053411401"/><polygon points="153.17422893133508,609.7373095863672 153.17422893133508,646.9731758206492 120.92702284052768,665.5911089377902 88.67981674972029,646.9731758206492 88.67981674972029,609.7373095863672 120.92702284052764,591.1193764692263 " fill="none" stroke="#5B8AEF" stroke-width="0.5" opacity="0.12007560735571923"/><polygon points="717.5003355204643,609.7373095863672 717.5003355204643,646.9731758206492 685.253129429657,665.5911089377902 653.0059233388496,646.9731758206492 653.0059233388496,609.7373095863672 685.253129429657,591.1193764692263 " fill="none" stroke="#5B8AEF" stroke-width="0.5" opacity="0.09547745420386897"/><polygon points="798.1183507474827,609.7373095863672 798.1183507474827,646.9731758206492 765.8711446566754,665.5911089377902 733.623938565868,646.9731758206492 733.623938565868,609.7373095863672 765.8711446566754,591.1193764692263 " fill="none" stroke="#5B8AEF" stroke-width="0.5" opacity="0.04008617317308028"/><polygon points="959.3543812015197,609.7373095863672 959.3543812015197,646.9731758206492 927.1071751107123,665.5911089377902 894.859969019905,646.9731758206492 894.859969019905,609.7373095863672 927.1071751107123,591.1193764692263 " fill="none" stroke="#5B8AEF" stroke-width="0.5" opacity="0.13684758293295632"/><polygon points="1039.9723964285383,609.7373095863672 1039.9723964285383,646.9731758206492 1007.725190337731,665.5911089377902 975.4779842469236,646.9731758206492 975.4779842469236,609.7373095863672 1007.725190337731,591.1193764692263 " fill="none" stroke="#d79f1e" stroke-width="0.5" opacity="0.12244436906764489"/><polygon points="1120.5904116555566,609.7373095863672 1120.5904116555566,646.9731758206492 1088.3432055647493,665.5911089377902 1056.095999473942,646.9731758206492 1056.095999473942,609.7373095863672 1088.3432055647493,591.1193764692263 " fill="none" stroke="#5B8AEF" stroke-width="0.5" opacity="0.1309881899370757"/><polygon points="1201.2084268825752,609.7373095863672 1201.2084268825752,646.9731758206492 1168.9612207917678,665.5911089377902 1136.7140147009604,646.9731758206492 1136.7140147009604,609.7373095863672 1168.9612207917678,591.1193764692263 " fill="none" stroke="#5B8AEF" stroke-width="0.5" opacity="0.15142211842882544"/>
</svg>