<svg xmlns="http://www.w3.org/2000/svg" viewBox="0 0 1200 630">
<defs>
    <pattern id="dots" x="0" y="0" width="30" height="30" patternUnits="userSpaceOnUse">
      <circle cx="15" cy="15" r="0.6" fill="#ffffff12"/>
    </pattern>
    <radialGradient id="glow" cx="50%" cy="50%" r="45%">
      <stop offset="0%" stop-color="#5B8AEF" stop-opacity="0.06"/>
      <stop offset="100%" stop-color="#050507" stop-opacity="0"/>
    </radialGradient>
  </defs>
  <rect width="1200" height="630" fill="#050507"/>
  <rect width="1200" height="630" fill="url(#glow)"/>
  <rect width="1200" height="630" fill="url(#dots)"/>

  <!-- Search magnifying glass -->
  <circle cx="570" cy="300" r="70" fill="none" stroke="#5B8AEF" stroke-width="2.5" opacity="0.8"/>
  <line x1="619" y1="349" x2="670" y2="400" stroke="#5B8AEF" stroke-width="3" stroke-linecap="round" opacity="0.8"/>
  <!-- AI sparkle inside lens -->
  <path d="M570,260 L575,285 L600,290 L575,295 L570,320 L565,295 L540,290 L565,285 Z" fill="#d79f1e" opacity="0.8"/>
  <!-- Small sparkles around -->
  <path d="M500,240 L503,250 L513,253 L503,256 L500,266 L497,256 L487,253 L497,250 Z" fill="#5B8AEF" opacity="0.3"/>
  <path d="M660,270 L662,277 L669,279 L662,281 L660,288 L658,281 L651,279 L658,277 Z" fill="#5B8AEF" opacity="0.25"/>
  <path d="M530,370 L532,377 L539,379 L532,381 L530,388 L528,381 L521,379 L528,377 Z" fill="#d79f1e" opacity="0.25"/>

</svg>