<svg xmlns="http://www.w3.org/2000/svg" viewBox="0 0 1200 600" width="1200" height="600">
  <defs>
    <radialGradient id="glow-917239423" cx="31.167941466517718%" cy="59.592227763306454%" r="50%">
      <stop offset="0%" stop-color="#5B8AEF" stop-opacity="0.15"/>
      <stop offset="100%" stop-color="#050507" stop-opacity="0"/>
    </radialGradient>
    <radialGradient id="glow2-917239423" cx="77.42901341869916%" cy="69.42852807670297%" r="40%">
      <stop offset="0%" stop-color="#d79f1e" stop-opacity="0.08"/>
      <stop offset="100%" stop-color="#050507" stop-opacity="0"/>
    </radialGradient>
    <filter id="blur-917239423">
      <feGaussianBlur stdDeviation="2"/>
    </filter>
  </defs>
  <rect width="1200" height="600" fill="#050507"/>
  <rect width="1200" height="600" fill="url(#glow-917239423)"/>
  <rect width="1200" height="600" fill="url(#glow2-917239423)"/>
  <path d="M 1078.9608545037736 447.5408224610336 L 998.6950964474563 447.5408224610336 L 909.2114210637341 447.5408224610336 L 982.9166467408263 447.5408224610336" fill="none" stroke="#5B8AEF" stroke-width="0.5" opacity="0.24562541597784748"/><circle cx="982.9166467408263" cy="447.5408224610336" r="3.3954659148098276" fill="#5B8AEF" opacity="0.34562541597784746"/><rect x="1076.9608545037736" y="445.5408224610336" width="4" height="4" fill="#5B8AEF" opacity="0.34562541597784746" rx="0.5"/><path d="M 957.3781252640198 527.0756561900841 L 957.3781252640198 442.0924383039086 L 957.3781252640198 508.8701750099986 L 886.0104578761433 508.8701750099986" fill="none" stroke="#5B8AEF" stroke-width="0.5" opacity="0.16445430697149332"/><circle cx="886.0104578761433" cy="508.8701750099986" r="2.606429800673588" fill="#5B8AEF" opacity="0.2644543069714933"/><rect x="955.3781252640198" y="525.0756561900841" width="4" height="4" fill="#5B8AEF" opacity="0.2644543069714933" rx="0.5"/><path d="M 159.39595259697919 283.887648714654 L 280.83727557251103 283.887648714654 L 392.3005872742741 283.887648714654" fill="none" stroke="#5B8AEF" stroke-width="0.5" opacity="0.13687721446011086"/><circle cx="392.3005872742741" cy="283.887648714654" r="2.0646628588739144" fill="#5B8AEF" opacity="0.23687721446011087"/><rect x="157.39595259697919" y="281.887648714654" width="4" height="4" fill="#5B8AEF" opacity="0.23687721446011087" rx="0.5"/><path d="M 473.2014563275508 348.43824857307516 L 608.2010279261511 348.43824857307516 L 608.2010279261511 262.1464749715042 L 608.2010279261511 168.25783100363697" fill="none" stroke="#5B8AEF" stroke-width="0.5" opacity="0.12769752043657823"/><circle cx="608.2010279261511" cy="168.25783100363697" r="2.6609791985996902" fill="#5B8AEF" opacity="0.22769752043657823"/><rect x="471.2014563275508" y="346.43824857307516" width="4" height="4" fill="#5B8AEF" opacity="0.22769752043657823" rx="0.5"/><path d="M 646.4345189958971 512.4803820217403 L 747.532202558374 512.4803820217403 L 747.532202558374 410.624276330054 L 747.532202558374 466.73480195306934" fill="none" stroke="#d79f1e" stroke-width="0.5" opacity="0.2662149051047"/><circle cx="747.532202558374" cy="466.73480195306934" r="3.2401036504842824" fill="#d79f1e" opacity="0.3662149051047"/><rect x="644.4345189958971" y="510.4803820217403" width="4" height="4" fill="#d79f1e" opacity="0.3662149051047" rx="0.5"/><path d="M 253.23221360018115 436.90698912223195 L 253.23221360018115 330.1263425360091 L 186.04958973175363 330.1263425360091 L 186.04958973175363 233.83602671038176" fill="none" stroke="#d79f1e" stroke-width="0.5" opacity="0.1644666273447064"/><circle cx="186.04958973175363" cy="233.83602671038176" r="3.7834520329644215" fill="#d79f1e" opacity="0.2644666273447064"/><rect x="251.23221360018115" y="434.90698912223195" width="4" height="4" fill="#d79f1e" opacity="0.2644666273447064" rx="0.5"/><path d="M 286.99081981880164 327.3543472994838 L 286.99081981880164 282.2316770638487 L 286.99081981880164 210.42346535735925 L 338.2925953987486 210.42346535735925 L 288.46207192561684 210.42346535735925" fill="none" stroke="#5B8AEF" stroke-width="0.5" opacity="0.21412489549914604"/><circle cx="288.46207192561684" cy="210.42346535735925" r="3.69346688207866" fill="#5B8AEF" opacity="0.314124895499146"/><rect x="284.99081981880164" y="325.3543472994838" width="4" height="4" fill="#5B8AEF" opacity="0.314124895499146" rx="0.5"/><path d="M 58.732257624497755 356.52694746690196 L 58.732257624497755 432.6188329759142 L 58.732257624497755 376.7125222909789 L -32.37424306216382 376.7125222909789 L -102.36019534168776 376.7125222909789 L -237.70420722556497 376.7125222909789" fill="none" stroke="#5B8AEF" stroke-width="0.5" opacity="0.14454520188483652"/><circle cx="-237.70420722556497" cy="376.7125222909789" r="3.4467955387415343" fill="#5B8AEF" opacity="0.24454520188483653"/><rect x="56.732257624497755" y="354.52694746690196" width="4" height="4" fill="#5B8AEF" opacity="0.24454520188483653" rx="0.5"/><path d="M 175.5717773808035 17.43121958218106 L 175.5717773808035 75.06437491395714 L 36.08157433386964 75.06437491395714 L 36.08157433386964 192.99238942237216" fill="none" stroke="#5B8AEF" stroke-width="0.5" opacity="0.2758350424355991"/><circle cx="36.08157433386964" cy="192.99238942237216" r="3.4034960732811577" fill="#5B8AEF" opacity="0.37583504243559906"/><rect x="173.5717773808035" y="15.431219582181061" width="4" height="4" fill="#5B8AEF" opacity="0.37583504243559906" rx="0.5"/><path d="M 335.1021818514458 231.18518862462844 L 417.25147587119204 231.18518862462844 L 417.25147587119204 125.82536131414834 L 417.25147587119204 242.4432843562417 L 417.25147587119204 185.08209902098497 L 417.25147587119204 133.46126700446996" fill="none" stroke="#5B8AEF" stroke-width="0.5" opacity="0.16609070350699626"/><circle cx="417.25147587119204" cy="133.46126700446996" r="2.7830925391908234" fill="#5B8AEF" opacity="0.26609070350699626"/><rect x="333.1021818514458" y="229.18518862462844" width="4" height="4" fill="#5B8AEF" opacity="0.26609070350699626" rx="0.5"/><path d="M 861.7837081019691 599.3910348971333 L 861.7837081019691 711.9746907204272 L 791.3715933781916 711.9746907204272 L 791.3715933781916 763.0559288165794 L 791.3715933781916 848.7074783484953 L 720.5818033966151 848.7074783484953" fill="none" stroke="#5B8AEF" stroke-width="0.5" opacity="0.21045960984679854"/><circle cx="720.5818033966151" cy="848.7074783484953" r="2.73333700594182" fill="#5B8AEF" opacity="0.31045960984679855"/><rect x="859.7837081019691" y="597.3910348971333" width="4" height="4" fill="#5B8AEF" opacity="0.31045960984679855" rx="0.5"/><path d="M 717.0353184999132 406.2990140199191 L 717.0353184999132 287.0120815592875 L 717.0353184999132 352.20214364687087" fill="none" stroke="#5B8AEF" stroke-width="0.5" opacity="0.21974991714570202"/><circle cx="717.0353184999132" cy="352.20214364687087" r="2.2343376503485897" fill="#5B8AEF" opacity="0.319749917145702"/><rect x="715.0353184999132" y="404.2990140199191" width="4" height="4" fill="#5B8AEF" opacity="0.319749917145702" rx="0.5"/><path d="M 307.73364524717147 39.687834605429245 L 307.73364524717147 132.05376836101235 L 307.73364524717147 20.843688650449593 L 307.73364524717147 -19.83677742063849 L 147.84599108055514 -19.83677742063849" fill="none" stroke="#5B8AEF" stroke-width="0.5" opacity="0.13990389659996327"/><circle cx="147.84599108055514" cy="-19.83677742063849" r="2.5300596386799867" fill="#5B8AEF" opacity="0.23990389659996328"/><rect x="305.73364524717147" y="37.687834605429245" width="4" height="4" fill="#5B8AEF" opacity="0.23990389659996328" rx="0.5"/><path d="M 427.40837672138974 126.29377819890799 L 427.40837672138974 231.9730302281552 L 427.40837672138974 132.12960839836373 L 427.40837672138974 172.81053133905422 L 427.40837672138974 73.39171657031014" fill="none" stroke="#5B8AEF" stroke-width="0.5" opacity="0.1046346140115683"/><circle cx="427.40837672138974" cy="73.39171657031014" r="2.300495457044102" fill="#5B8AEF" opacity="0.2046346140115683"/><rect x="425.40837672138974" y="124.29377819890799" width="4" height="4" fill="#5B8AEF" opacity="0.2046346140115683" rx="0.5"/><path d="M 256.28792413337527 315.5704548189279 L 103.08260112213094 315.5704548189279 L 103.08260112213094 243.44765810456482 L 193.37066875461989 243.44765810456482 L 193.37066875461989 140.18958329231924" fill="none" stroke="#5B8AEF" stroke-width="0.5" opacity="0.28285885005391154"/><circle cx="193.37066875461989" cy="140.18958329231924" r="3.461584235290803" fill="#5B8AEF" opacity="0.3828588500539115"/><rect x="254.28792413337527" y="313.5704548189279" width="4" height="4" fill="#5B8AEF" opacity="0.3828588500539115" rx="0.5"/><path d="M 507.74551951687107 239.47326002617984 L 507.74551951687107 307.0594968586506 L 562.7514302743373 307.0594968586506" fill="none" stroke="#5B8AEF" stroke-width="0.5" opacity="0.2543429001953187"/><circle cx="562.7514302743373" cy="307.0594968586506" r="3.4057016789008405" fill="#5B8AEF" opacity="0.35434290019531867"/><rect x="505.74551951687107" y="237.47326002617984" width="4" height="4" fill="#5B8AEF" opacity="0.35434290019531867" rx="0.5"/><path d="M 976.8703718562007 530.1698935824306 L 976.8703718562007 458.50331517798054 L 1136.3322052808162 458.50331517798054 L 1049.1658681860033 458.50331517798054 L 1049.1658681860033 385.14290479251326 L 1130.0985846156711 385.14290479251326" fill="none" stroke="#d79f1e" stroke-width="0.5" opacity="0.2746444249407595"/><circle cx="1130.0985846156711" cy="385.14290479251326" r="3.936083890467921" fill="#d79f1e" opacity="0.37464442494075956"/><rect x="974.8703718562007" y="528.1698935824306" width="4" height="4" fill="#d79f1e" opacity="0.37464442494075956" rx="0.5"/><path d="M 1057.168256611176 313.44443201713466 L 1057.168256611176 209.43184070728336 L 1057.168256611176 127.58244557659252" fill="none" stroke="#5B8AEF" stroke-width="0.5" opacity="0.13134905473857608"/><circle cx="1057.168256611176" cy="127.58244557659252" r="2.0695990380223837" fill="#5B8AEF" opacity="0.2313490547385761"/><rect x="1055.168256611176" y="311.44443201713466" width="4" height="4" fill="#5B8AEF" opacity="0.2313490547385761" rx="0.5"/><path d="M 1050.6192253206946 478.659982457133 L 1050.6192253206946 546.2154750275498 L 1050.6192253206946 617.1531972927755" fill="none" stroke="#5B8AEF" stroke-width="0.5" opacity="0.19208186161335644"/><circle cx="1050.6192253206946" cy="617.1531972927755" r="3.2574527912109406" fill="#5B8AEF" opacity="0.2920818616133565"/><rect x="1048.6192253206946" y="476.659982457133" width="4" height="4" fill="#5B8AEF" opacity="0.2920818616133565" rx="0.5"/><path d="M 5.437129365949486 90.91662675650633 L 5.437129365949486 199.33343701033547 L 154.6416362722598 199.33343701033547 L 154.6416362722598 254.96908039551653 L 54.09267003372899 254.96908039551653" fill="none" stroke="#d79f1e" stroke-width="0.5" opacity="0.247786251244967"/><circle cx="54.09267003372899" cy="254.96908039551653" r="2.7745928497866696" fill="#d79f1e" opacity="0.347786251244967"/><rect x="3.4371293659494864" y="88.91662675650633" width="4" height="4" fill="#d79f1e" opacity="0.347786251244967" rx="0.5"/><path d="M 349.2158187316805 35.13271167647685 L 398.45690559523973 35.13271167647685 L 398.45690559523973 97.63521221356243" fill="none" stroke="#5B8AEF" stroke-width="0.5" opacity="0.15550770687661494"/><circle cx="398.45690559523973" cy="97.63521221356243" r="2.988163169933559" fill="#5B8AEF" opacity="0.25550770687661495"/><rect x="347.2158187316805" y="33.13271167647685" width="4" height="4" fill="#5B8AEF" opacity="0.25550770687661495" rx="0.5"/>
</svg>