<svg xmlns="http://www.w3.org/2000/svg" viewBox="0 0 1200 600" width="1200" height="600">
  <defs>
    <radialGradient id="glow-929153942" cx="65.48332750586948%" cy="38.28539114831267%" r="50%">
      <stop offset="0%" stop-color="#5B8AEF" stop-opacity="0.15"/>
      <stop offset="100%" stop-color="#050507" stop-opacity="0"/>
    </radialGradient>
    <radialGradient id="glow2-929153942" cx="59.426772268222074%" cy="55.76151200838457%" r="40%">
      <stop offset="0%" stop-color="#d79f1e" stop-opacity="0.08"/>
      <stop offset="100%" stop-color="#050507" stop-opacity="0"/>
    </radialGradient>
    <filter id="blur-929153942">
      <feGaussianBlur stdDeviation="2"/>
    </filter>
  </defs>
  <rect width="1200" height="600" fill="#050507"/>
  <rect width="1200" height="600" fill="url(#glow-929153942)"/>
  <rect width="1200" height="600" fill="url(#glow2-929153942)"/>
  <circle cx="580.6554699226541" cy="308.249616859597" r="2.8167007043104157" fill="#5B8AEF" opacity="0.43476000522950664"/><circle cx="580.6554699226541" cy="308.249616859597" r="11.266802817241663" fill="#5B8AEF" opacity="0.0260856003137704"/><circle cx="584.5101322906605" cy="298.45656291509823" r="2.9388360264426265" fill="#5B8AEF" opacity="0.6899252509651357"/><circle cx="584.5101322906605" cy="298.45656291509823" r="11.755344105770506" fill="#5B8AEF" opacity="0.04139551505790814"/><circle cx="621.8811795217364" cy="428.58377137621113" r="3.6587251153116696" fill="#5B8AEF" opacity="0.46170293542635765"/><circle cx="621.8811795217364" cy="428.58377137621113" r="14.634900461246678" fill="#5B8AEF" opacity="0.027702176125581457"/><circle cx="482.4068233754518" cy="464.91460430664694" r="3.843361042832658" fill="#5B8AEF" opacity="0.7285091308078305"/><circle cx="482.4068233754518" cy="464.91460430664694" r="15.373444171330632" fill="#5B8AEF" opacity="0.04371054784846983"/><circle cx="609.4422892245661" cy="454.96428834971243" r="3.3189567198599486" fill="#5B8AEF" opacity="0.44377704315994726"/><circle cx="609.4422892245661" cy="454.96428834971243" r="13.275826879439794" fill="#5B8AEF" opacity="0.026626622589596836"/><line x1="580.6554699226541" y1="308.249616859597" x2="621.8811795217364" y2="428.58377137621113" stroke="#5B8AEF" stroke-width="0.3" opacity="0.12"/><line x1="584.5101322906605" y1="298.45656291509823" x2="621.8811795217364" y2="428.58377137621113" stroke="#5B8AEF" stroke-width="0.3" opacity="0.12"/><line x1="621.8811795217364" y1="428.58377137621113" x2="482.4068233754518" y2="464.91460430664694" stroke="#5B8AEF" stroke-width="0.3" opacity="0.12"/><line x1="482.4068233754518" y1="464.91460430664694" x2="609.4422892245661" y2="454.96428834971243" stroke="#5B8AEF" stroke-width="0.3" opacity="0.12"/><circle cx="79.10781920845986" cy="437.2898727829055" r="2.315000253876206" fill="#5B8AEF" opacity="0.4914574011189199"/><circle cx="79.10781920845986" cy="437.2898727829055" r="9.260001015504823" fill="#5B8AEF" opacity="0.02948744406713519"/><circle cx="209.6483562652247" cy="300.4940814806587" r="3.4120340009275982" fill="#5B8AEF" opacity="0.6347482561761273"/><circle cx="209.6483562652247" cy="300.4940814806587" r="13.648136003710393" fill="#5B8AEF" opacity="0.03808489537056763"/><circle cx="83.28892415542572" cy="285.17710188644804" r="2.924893402459516" fill="#d79f1e" opacity="0.4930348282647481"/><circle cx="83.28892415542572" cy="285.17710188644804" r="11.699573609838064" fill="#d79f1e" opacity="0.029582089695884883"/><circle cx="216.73918022622317" cy="350.81295648161927" r="2.0520161180999206" fill="#5B8AEF" opacity="0.6187147419986849"/><circle cx="216.73918022622317" cy="350.81295648161927" r="8.208064472399682" fill="#5B8AEF" opacity="0.037122884519921094"/><circle cx="98.1252559917631" cy="321.32988410132464" r="3.2220536839319642" fill="#5B8AEF" opacity="0.7433414858967724"/><circle cx="98.1252559917631" cy="321.32988410132464" r="12.888214735727857" fill="#5B8AEF" opacity="0.04460048915380634"/><line x1="79.10781920845986" y1="437.2898727829055" x2="209.6483562652247" y2="300.4940814806587" stroke="#5B8AEF" stroke-width="0.3" opacity="0.12"/><line x1="209.6483562652247" y1="300.4940814806587" x2="83.28892415542572" y2="285.17710188644804" stroke="#5B8AEF" stroke-width="0.3" opacity="0.12"/><line x1="83.28892415542572" y1="285.17710188644804" x2="98.1252559917631" y2="321.32988410132464" stroke="#5B8AEF" stroke-width="0.3" opacity="0.12"/><line x1="216.73918022622317" y1="350.81295648161927" x2="98.1252559917631" y2="321.32988410132464" stroke="#5B8AEF" stroke-width="0.3" opacity="0.12"/><circle cx="378.2001987929457" cy="201.6041653238256" r="3.73656024631884" fill="#5B8AEF" opacity="0.7970692584743114"/><circle cx="378.2001987929457" cy="201.6041653238256" r="14.94624098527536" fill="#5B8AEF" opacity="0.047824155508458685"/><circle cx="242.9558916217442" cy="34.223747735015934" r="1.296384019449532" fill="#5B8AEF" opacity="0.7489379010391133"/><circle cx="242.9558916217442" cy="34.223747735015934" r="5.185536077798128" fill="#5B8AEF" opacity="0.04493627406234679"/><circle cx="276.7212435960403" cy="163.73750239784715" r="3.3615032925091235" fill="#d79f1e" opacity="0.39430574234309873"/><circle cx="276.7212435960403" cy="163.73750239784715" r="13.446013170036494" fill="#d79f1e" opacity="0.023658344540585925"/><circle cx="395.10652124653876" cy="31.311817016132096" r="2.1840901352391064" fill="#5B8AEF" opacity="0.7650183883332733"/><circle cx="395.10652124653876" cy="31.311817016132096" r="8.736360540956426" fill="#5B8AEF" opacity="0.045901103299996394"/><circle cx="135.57121536488233" cy="24.721181683578152" r="2.651969621727229" fill="#d79f1e" opacity="0.5063057998690316"/><circle cx="135.57121536488233" cy="24.721181683578152" r="10.607878486908916" fill="#d79f1e" opacity="0.030378347992141893"/><circle cx="326.0866242582382" cy="86.37269543780606" r="2.3068446313528552" fill="#5B8AEF" opacity="0.7409518292830102"/><circle cx="326.0866242582382" cy="86.37269543780606" r="9.227378525411421" fill="#5B8AEF" opacity="0.04445710975698061"/><circle cx="143.57644070106392" cy="120.60266515268137" r="3.8533595999951284" fill="#5B8AEF" opacity="0.3825273928151128"/><circle cx="143.57644070106392" cy="120.60266515268137" r="15.413438399980514" fill="#5B8AEF" opacity="0.022951643568906766"/><circle cx="119.87421113060518" cy="145.0210713525401" r="3.855654615375984" fill="#5B8AEF" opacity="0.38938837614347616"/><circle cx="119.87421113060518" cy="145.0210713525401" r="15.422618461503935" fill="#5B8AEF" opacity="0.02336330256860857"/><circle cx="307.4022910126496" cy="134.64678969916272" r="1.4473783906769837" fill="#5B8AEF" opacity="0.683950046908087"/><circle cx="307.4022910126496" cy="134.64678969916272" r="5.789513562707935" fill="#5B8AEF" opacity="0.04103700281448522"/><circle cx="126.20261550238477" cy="52.68258901903526" r="1.8625659271434722" fill="#5B8AEF" opacity="0.6414613620105485"/><circle cx="126.20261550238477" cy="52.68258901903526" r="7.450263708573889" fill="#5B8AEF" opacity="0.03848768172063291"/><circle cx="361.80637174370065" cy="114.23668754950012" r="3.958575949984871" fill="#d79f1e" opacity="0.32623132221690904"/><circle cx="361.80637174370065" cy="114.23668754950012" r="15.834303799939484" fill="#d79f1e" opacity="0.019573879333014542"/><circle cx="319.03908472463445" cy="121.04140125263547" r="3.4609240789250117" fill="#d79f1e" opacity="0.7940730561474678"/><circle cx="319.03908472463445" cy="121.04140125263547" r="13.843696315700047" fill="#d79f1e" opacity="0.04764438336884807"/><line x1="378.2001987929457" y1="201.6041653238256" x2="276.7212435960403" y2="163.73750239784715" stroke="#5B8AEF" stroke-width="0.3" opacity="0.12"/><line x1="242.9558916217442" y1="34.223747735015934" x2="276.7212435960403" y2="163.73750239784715" stroke="#5B8AEF" stroke-width="0.3" opacity="0.12"/><line x1="276.7212435960403" y1="163.73750239784715" x2="395.10652124653876" y2="31.311817016132096" stroke="#5B8AEF" stroke-width="0.3" opacity="0.12"/><line x1="395.10652124653876" y1="31.311817016132096" x2="135.57121536488233" y2="24.721181683578152" stroke="#5B8AEF" stroke-width="0.3" opacity="0.12"/><line x1="135.57121536488233" y1="24.721181683578152" x2="326.0866242582382" y2="86.37269543780606" stroke="#5B8AEF" stroke-width="0.3" opacity="0.12"/><line x1="326.0866242582382" y1="86.37269543780606" x2="143.57644070106392" y2="120.60266515268137" stroke="#5B8AEF" stroke-width="0.3" opacity="0.12"/><line x1="143.57644070106392" y1="120.60266515268137" x2="307.4022910126496" y2="134.64678969916272" stroke="#5B8AEF" stroke-width="0.3" opacity="0.12"/><line x1="119.87421113060518" y1="145.0210713525401" x2="307.4022910126496" y2="134.64678969916272" stroke="#5B8AEF" stroke-width="0.3" opacity="0.12"/><line x1="307.4022910126496" y1="134.64678969916272" x2="126.20261550238477" y2="52.68258901903526" stroke="#5B8AEF" stroke-width="0.3" opacity="0.12"/><line x1="126.20261550238477" y1="52.68258901903526" x2="319.03908472463445" y2="121.04140125263547" stroke="#5B8AEF" stroke-width="0.3" opacity="0.12"/><line x1="361.80637174370065" y1="114.23668754950012" x2="319.03908472463445" y2="121.04140125263547" stroke="#5B8AEF" stroke-width="0.3" opacity="0.12"/><circle cx="229.46954240532105" cy="285.6521562140678" r="1.4333445939390663" fill="#5B8AEF" opacity="0.6459569364068829"/><circle cx="229.46954240532105" cy="285.6521562140678" r="5.733378375756265" fill="#5B8AEF" opacity="0.038757416184412974"/><circle cx="524.0704021994352" cy="190.08586266547715" r="1.6929095264956864" fill="#d79f1e" opacity="0.6385568574716136"/><circle cx="524.0704021994352" cy="190.08586266547715" r="6.7716381059827455" fill="#d79f1e" opacity="0.038313411448296815"/><circle cx="300.1944031567287" cy="134.1419221526673" r="3.945786544562218" fill="#5B8AEF" opacity="0.7460103558125022"/><circle cx="300.1944031567287" cy="134.1419221526673" r="15.783146178248872" fill="#5B8AEF" opacity="0.044760621348750126"/><circle cx="282.76237234601865" cy="214.04736508338124" r="3.507476592207084" fill="#5B8AEF" opacity="0.757561240511742"/><circle cx="282.76237234601865" cy="214.04736508338124" r="14.029906368828335" fill="#5B8AEF" opacity="0.04545367443070452"/><circle cx="364.1938564200857" cy="226.68258698037016" r="2.9100929325959144" fill="#d79f1e" opacity="0.5913618685171762"/><circle cx="364.1938564200857" cy="226.68258698037016" r="11.640371730383658" fill="#d79f1e" opacity="0.03548171211103057"/><circle cx="476.4867888188394" cy="231.55913754904606" r="2.31287404862832" fill="#5B8AEF" opacity="0.4319871338233292"/><circle cx="476.4867888188394" cy="231.55913754904606" r="9.25149619451328" fill="#5B8AEF" opacity="0.025919228029399752"/><circle cx="409.78718912684695" cy="284.7777886710958" r="3.0009151729759367" fill="#5B8AEF" opacity="0.7523759565560035"/><circle cx="409.78718912684695" cy="284.7777886710958" r="12.003660691903747" fill="#5B8AEF" opacity="0.04514255739336021"/><line x1="229.46954240532105" y1="285.6521562140678" x2="524.0704021994352" y2="190.08586266547715" stroke="#5B8AEF" stroke-width="0.3" opacity="0.12"/><line x1="524.0704021994352" y1="190.08586266547715" x2="282.76237234601865" y2="214.04736508338124" stroke="#5B8AEF" stroke-width="0.3" opacity="0.12"/><line x1="300.1944031567287" y1="134.1419221526673" x2="364.1938564200857" y2="226.68258698037016" stroke="#5B8AEF" stroke-width="0.3" opacity="0.12"/><line x1="282.76237234601865" y1="214.04736508338124" x2="476.4867888188394" y2="231.55913754904606" stroke="#5B8AEF" stroke-width="0.3" opacity="0.12"/><line x1="364.1938564200857" y1="226.68258698037016" x2="476.4867888188394" y2="231.55913754904606" stroke="#5B8AEF" stroke-width="0.3" opacity="0.12"/><line x1="476.4867888188394" y1="231.55913754904606" x2="409.78718912684695" y2="284.7777886710958" stroke="#5B8AEF" stroke-width="0.3" opacity="0.12"/><circle cx="726.4003434807064" cy="493.21141806114997" r="3.2256897200018586" fill="#5B8AEF" opacity="0.4423775447264209"/><circle cx="726.4003434807064" cy="493.21141806114997" r="12.902758880007434" fill="#5B8AEF" opacity="0.02654265268358525"/><circle cx="903.543251614805" cy="520.4494245911247" r="3.06332595928727" fill="#5B8AEF" opacity="0.6529725737650751"/><circle cx="903.543251614805" cy="520.4494245911247" r="12.25330383714908" fill="#5B8AEF" opacity="0.039178354425904505"/><circle cx="885.9350832113694" cy="426.7918535632975" r="1.5213819888985631" fill="#d79f1e" opacity="0.48970614564125714"/><circle cx="885.9350832113694" cy="426.7918535632975" r="6.0855279555942525" fill="#d79f1e" opacity="0.029382368738475426"/><circle cx="874.6205970061108" cy="451.74541904206643" r="1.4400070139393244" fill="#5B8AEF" opacity="0.6040428507626256"/><circle cx="874.6205970061108" cy="451.74541904206643" r="5.760028055757298" fill="#5B8AEF" opacity="0.03624257104575754"/><circle cx="668.8223819103196" cy="551.344675734334" r="3.9106154180646944" fill="#5B8AEF" opacity="0.46017728329644414"/><circle cx="668.8223819103196" cy="551.344675734334" r="15.642461672258777" fill="#5B8AEF" opacity="0.027610636997786646"/><circle cx="699.6669394428222" cy="554.3303082484427" r="3.603500387446722" fill="#5B8AEF" opacity="0.5026015544322326"/><circle cx="699.6669394428222" cy="554.3303082484427" r="14.414001549786889" fill="#5B8AEF" opacity="0.030156093265933957"/><circle cx="714.5019269615887" cy="375.4204601866288" r="1.5362547638529236" fill="#5B8AEF" opacity="0.4577984623880118"/><circle cx="714.5019269615887" cy="375.4204601866288" r="6.145019055411694" fill="#5B8AEF" opacity="0.027467907743280708"/><circle cx="711.161134630051" cy="542.9559827516582" r="1.0791710205744818" fill="#5B8AEF" opacity="0.758393473624435"/><circle cx="711.161134630051" cy="542.9559827516582" r="4.316684082297927" fill="#5B8AEF" opacity="0.0455036084174661"/><circle cx="771.3734449685428" cy="401.82255543853273" r="3.6364782450890534" fill="#5B8AEF" opacity="0.4274355592333877"/><circle cx="771.3734449685428" cy="401.82255543853273" r="14.545912980356213" fill="#5B8AEF" opacity="0.02564613355400326"/><circle cx="825.5731427695478" cy="491.36984976537985" r="3.9571145148748137" fill="#5B8AEF" opacity="0.6184628525369162"/><circle cx="825.5731427695478" cy="491.36984976537985" r="15.828458059499255" fill="#5B8AEF" opacity="0.037107771152214974"/><line x1="726.4003434807064" y1="493.21141806114997" x2="885.9350832113694" y2="426.7918535632975" stroke="#5B8AEF" stroke-width="0.3" opacity="0.12"/><line x1="903.543251614805" y1="520.4494245911247" x2="885.9350832113694" y2="426.7918535632975" stroke="#5B8AEF" stroke-width="0.3" opacity="0.12"/><line x1="885.9350832113694" y1="426.7918535632975" x2="668.8223819103196" y2="551.344675734334" stroke="#5B8AEF" stroke-width="0.3" opacity="0.12"/><line x1="874.6205970061108" y1="451.74541904206643" x2="699.6669394428222" y2="554.3303082484427" stroke="#5B8AEF" stroke-width="0.3" opacity="0.12"/><line x1="668.8223819103196" y1="551.344675734334" x2="714.5019269615887" y2="375.4204601866288" stroke="#5B8AEF" stroke-width="0.3" opacity="0.12"/><line x1="699.6669394428222" y1="554.3303082484427" x2="711.161134630051" y2="542.9559827516582" stroke="#5B8AEF" stroke-width="0.3" opacity="0.12"/><line x1="714.5019269615887" y1="375.4204601866288" x2="771.3734449685428" y2="401.82255543853273" stroke="#5B8AEF" stroke-width="0.3" opacity="0.12"/><line x1="711.161134630051" y1="542.9559827516582" x2="771.3734449685428" y2="401.82255543853273" stroke="#5B8AEF" stroke-width="0.3" opacity="0.12"/><line x1="771.3734449685428" y1="401.82255543853273" x2="825.5731427695478" y2="491.36984976537985" stroke="#5B8AEF" stroke-width="0.3" opacity="0.12"/><circle cx="66.73081948735324" cy="372.441561972928" r="0.8671094386685219" fill="white" opacity="0.08906294409607673"/><circle cx="1047.2113820944035" cy="40.84943031931736" r="0.5085005023556298" fill="white" opacity="0.10023932957567244"/><circle cx="179.29742661272056" cy="125.92453999720725" r="0.5849916440830527" fill="white" opacity="0.09773039447503648"/><circle cx="37.919535505547906" cy="56.81662087180494" r="0.7225959899009187" fill="white" opacity="0.08202542463877491"/><circle cx="410.49523111921513" cy="196.6747103243483" r="0.44914189509541813" fill="white" opacity="0.09271828787993561"/><circle cx="530.1151846210078" cy="422.95396263848704" r="0.8163334200700434" fill="white" opacity="0.1279608344789412"/><circle cx="301.9607005184333" cy="126.74680665449557" r="0.6114392561425638" fill="white" opacity="0.19242087276299524"/><circle cx="940.8682212889512" cy="386.09760170155096" r="0.4898557306220083" fill="white" opacity="0.14473710576758586"/><circle cx="1172.2930865233266" cy="564.9525987752493" r="0.5111034874856023" fill="white" opacity="0.05305890697197007"/><circle cx="888.3958232069368" cy="434.3003194938881" r="0.6806263117029454" fill="white" opacity="0.12245389838817246"/><circle cx="261.3616801152759" cy="352.8788487207512" r="0.8797472662198111" fill="white" opacity="0.16480687931869498"/><circle cx="873.7656744540509" cy="489.84527461689214" r="0.6060406481409635" fill="white" opacity="0.12971999471994117"/><circle cx="431.61006440949166" cy="35.176265162963546" r="0.5766514585710371" fill="white" opacity="0.06519953814111629"/><circle cx="69.10030193119324" cy="484.38727878238416" r="0.6959926607068594" fill="white" opacity="0.09662159378483035"/><circle cx="953.0139331487072" cy="452.5872151612245" r="0.8777669529327037" fill="white" opacity="0.07422086374099407"/><circle cx="1040.4551590981218" cy="264.92948106719626" r="0.3930510618225909" fill="white" opacity="0.18297425980352527"/><circle cx="387.0761427968163" cy="194.3659930463722" r="0.7123268405032934" fill="white" opacity="0.12072656353503772"/><circle cx="810.8266670307269" cy="181.89639271325265" r="0.4768964421827795" fill="white" opacity="0.10596945612037995"/><circle cx="229.1921218061783" cy="15.99559821933303" r="0.35069236310696805" fill="white" opacity="0.19747751352725434"/><circle cx="436.5588205105433" cy="222.04816035090394" r="1.0512413568567678" fill="white" opacity="0.14627837969282567"/><circle cx="805.8199785676878" cy="108.18989356429778" r="0.763388180203451" fill="white" opacity="0.0809646273874513"/><circle cx="579.9400071520079" cy="325.8501018983545" r="0.7835501408593497" fill="white" opacity="0.16760326682944005"/><circle cx="64.84481918851138" cy="123.43805065538643" r="0.8644231534397337" fill="white" opacity="0.17373872405092172"/><circle cx="613.8809907314745" cy="548.9056119457379" r="0.9088266293559348" fill="white" opacity="0.15296742222410042"/><circle cx="187.72256364474194" cy="126.56358858876096" r="0.5056445484075902" fill="white" opacity="0.10023595369431934"/><circle cx="925.3899233999615" cy="514.2212915766152" r="0.45633003756233026" fill="white" opacity="0.09480149564091186"/><circle cx="1029.897894444828" cy="346.95596711102684" r="0.9519189800377559" fill="white" opacity="0.05043078023029062"/><circle cx="320.9866439555709" cy="411.26248064044046" r="0.41801616517734536" fill="white" opacity="0.10581652543312708"/><circle cx="66.74363653489559" cy="480.1496209949952" r="0.9329067505118003" fill="white" opacity="0.13695422221764653"/><circle cx="1116.9024958819627" cy="90.12414407456487" r="0.7219859482822875" fill="white" opacity="0.10959364632591309"/><circle cx="323.31039697085987" cy="138.920944621284" r="0.6257549998936034" fill="white" opacity="0.15580310221100369"/><circle cx="1061.910882714163" cy="568.1028884687008" r="0.7069953246074707" fill="white" opacity="0.1194538770799776"/><circle cx="90.49666546773942" cy="288.72825814817486" r="0.9077795951663421" fill="white" opacity="0.15343549263357906"/><circle cx="722.5975405064399" cy="348.4316458685471" r="0.4208961502280534" fill="white" opacity="0.1815494155425343"/><circle cx="808.2161869891994" cy="444.72736373763877" r="0.7437364513258153" fill="white" opacity="0.10222576868358338"/><circle cx="867.9541198853191" cy="252.44645627795086" r="0.6567875513605717" fill="white" opacity="0.14907044696112648"/><circle cx="616.0166052244681" cy="495.54200381764304" r="1.0659442175021137" fill="white" opacity="0.12958691712915288"/><circle cx="538.529517379836" cy="332.7993014514443" r="0.5104793258991462" fill="white" opacity="0.1861306975531069"/><circle cx="1189.0702005424864" cy="551.4302587841778" r="0.6844791809024657" fill="white" opacity="0.1140487677017454"/><circle cx="541.1101058782591" cy="418.7747479503857" r="0.7629184028426736" fill="white" opacity="0.10054935815304022"/>
</svg>