<svg xmlns="http://www.w3.org/2000/svg" viewBox="0 0 1200 600" width="1200" height="600">
  <defs>
    <radialGradient id="glow-927162642" cx="59.96808444613967%" cy="63.59528626948376%" r="50%">
      <stop offset="0%" stop-color="#5B8AEF" stop-opacity="0.15"/>
      <stop offset="100%" stop-color="#050507" stop-opacity="0"/>
    </radialGradient>
    <radialGradient id="glow2-927162642" cx="76.98224841010861%" cy="60.64902869549069%" r="40%">
      <stop offset="0%" stop-color="#d79f1e" stop-opacity="0.08"/>
      <stop offset="100%" stop-color="#050507" stop-opacity="0"/>
    </radialGradient>
    <filter id="blur-927162642">
      <feGaussianBlur stdDeviation="2"/>
    </filter>
  </defs>
  <rect width="1200" height="600" fill="#050507"/>
  <rect width="1200" height="600" fill="url(#glow-927162642)"/>
  <rect width="1200" height="600" fill="url(#glow2-927162642)"/>
  <circle cx="264.7604588907028" cy="461.0919581731278" r="2.27117513132802" fill="#5B8AEF" opacity="0.6430612631342658"/><circle cx="264.7604588907028" cy="461.0919581731278" r="6.81352539398406" fill="#5B8AEF" opacity="0.06430612631342658"/><circle cx="767.7509550227555" cy="277.0620311317323" r="3.3463102585386064" fill="#d79f1e" opacity="0.48899341285647513"/><circle cx="767.7509550227555" cy="277.0620311317323" r="10.03893077561582" fill="#d79f1e" opacity="0.04889934128564752"/><circle cx="937.5629478588528" cy="401.75292172550826" r="3.344628671810324" fill="#d79f1e" opacity="0.6602700579726464"/><circle cx="937.5629478588528" cy="401.75292172550826" r="10.033886015430973" fill="#d79f1e" opacity="0.06602700579726464"/><circle cx="202.43784023562347" cy="379.7450031338935" r="4.952230594564337" fill="#5B8AEF" opacity="0.3381223794716049"/><circle cx="202.43784023562347" cy="379.7450031338935" r="14.856691783693009" fill="#5B8AEF" opacity="0.03381223794716049"/><circle cx="543.4901008678089" cy="188.36551627533768" r="4.660266996668776" fill="#d79f1e" opacity="0.5863118349510765"/><circle cx="543.4901008678089" cy="188.36551627533768" r="13.980800990006328" fill="#d79f1e" opacity="0.05863118349510765"/><circle cx="169.46084730767683" cy="414.6741692883308" r="5.073026908129932" fill="#5B8AEF" opacity="0.43221282797502947"/><circle cx="169.46084730767683" cy="414.6741692883308" r="15.219080724389794" fill="#5B8AEF" opacity="0.04322128279750295"/><circle cx="290.07953474767487" cy="63.11100192512898" r="5.7217446303562" fill="#d79f1e" opacity="0.4467850809669053"/><circle cx="290.07953474767487" cy="63.11100192512898" r="17.165233891068603" fill="#d79f1e" opacity="0.04467850809669053"/><circle cx="115.06008641564291" cy="343.787255866354" r="4.770077881761862" fill="#5B8AEF" opacity="0.7250093456008515"/><circle cx="115.06008641564291" cy="343.787255866354" r="14.310233645285587" fill="#5B8AEF" opacity="0.07250093456008515"/><circle cx="354.70874810344947" cy="276.8904806193386" r="3.3192314101938303" fill="#5B8AEF" opacity="0.4353904244654767"/><circle cx="354.70874810344947" cy="276.8904806193386" r="9.957694230581492" fill="#5B8AEF" opacity="0.043539042446547674"/><circle cx="94.27710183629631" cy="408.57718275328034" r="3.1392544531911866" fill="#d79f1e" opacity="0.46744240683850014"/><circle cx="94.27710183629631" cy="408.57718275328034" r="9.41776335957356" fill="#d79f1e" opacity="0.04674424068385002"/><circle cx="505.42600811711793" cy="122.27004203119783" r="3.4383034861824955" fill="#5B8AEF" opacity="0.7246210669747652"/><circle cx="505.42600811711793" cy="122.27004203119783" r="10.314910458547487" fill="#5B8AEF" opacity="0.07246210669747653"/><circle cx="301.0471013472635" cy="179.3687739034038" r="4.591524954229373" fill="#d79f1e" opacity="0.3919569347016313"/><circle cx="301.0471013472635" cy="179.3687739034038" r="13.774574862688118" fill="#d79f1e" opacity="0.039195693470163134"/><circle cx="122.01918305923193" cy="86.03523531278374" r="4.451665849635222" fill="#5B8AEF" opacity="0.46756323406824996"/><circle cx="122.01918305923193" cy="86.03523531278374" r="13.354997548905665" fill="#5B8AEF" opacity="0.046756323406825"/><circle cx="569.3719689591658" cy="316.00721386075355" r="5.943694647375352" fill="#5B8AEF" opacity="0.7371649708771915"/><circle cx="569.3719689591658" cy="316.00721386075355" r="17.831083942126057" fill="#5B8AEF" opacity="0.07371649708771914"/><circle cx="977.864308551822" cy="62.507921756481714" r="5.255341343234917" fill="#5B8AEF" opacity="0.36378473297869074"/><circle cx="977.864308551822" cy="62.507921756481714" r="15.766024029704752" fill="#5B8AEF" opacity="0.03637847329786908"/><line x1="264.7604588907028" y1="461.0919581731278" x2="169.46084730767683" y2="414.6741692883308" stroke="#5B8AEF" stroke-width="0.5" opacity="0.07049778154217061"/><line x1="264.7604588907028" y1="461.0919581731278" x2="94.27710183629631" y2="408.57718275328034" stroke="#5B8AEF" stroke-width="0.5" opacity="0.016208793723803683"/><line x1="202.43784023562347" y1="379.7450031338935" x2="115.06008641564291" y2="343.787255866354" stroke="#5B8AEF" stroke-width="0.5" opacity="0.07913459806584372"/><line x1="202.43784023562347" y1="379.7450031338935" x2="354.70874810344947" y2="276.8904806193386" stroke="#5B8AEF" stroke-width="0.5" opacity="0.012184602714967551"/><line x1="202.43784023562347" y1="379.7450031338935" x2="94.27710183629631" y2="408.57718275328034" stroke="#5B8AEF" stroke-width="0.5" opacity="0.06604675437548943"/><line x1="543.4901008678089" y1="188.36551627533768" x2="505.42600811711793" y2="122.27004203119783" stroke="#5B8AEF" stroke-width="0.5" opacity="0.09279566130286825"/><line x1="543.4901008678089" y1="188.36551627533768" x2="569.3719689591658" y2="316.00721386075355" stroke="#5B8AEF" stroke-width="0.5" opacity="0.0523205284727561"/><line x1="169.46084730767683" y1="414.6741692883308" x2="115.06008641564291" y2="343.787255866354" stroke="#5B8AEF" stroke-width="0.5" opacity="0.0829834089939552"/><line x1="290.07953474767487" y1="63.11100192512898" x2="301.0471013472635" y2="179.3687739034038" stroke="#5B8AEF" stroke-width="0.5" opacity="0.06241953215677148"/><line x1="115.06008641564291" y1="343.787255866354" x2="94.27710183629631" y2="408.57718275328034" stroke="#5B8AEF" stroke-width="0.5" opacity="0.09896875732311895"/>
</svg>