<svg xmlns="http://www.w3.org/2000/svg" viewBox="0 0 1200 600" width="1200" height="600">
  <defs>
    <radialGradient id="glow-192664617" cx="65.91042708415092%" cy="56.548003324562686%" r="50%">
      <stop offset="0%" stop-color="#5B8AEF" stop-opacity="0.15"/>
      <stop offset="100%" stop-color="#050507" stop-opacity="0"/>
    </radialGradient>
    <radialGradient id="glow2-192664617" cx="74.21890694378824%" cy="57.16900424899953%" r="40%">
      <stop offset="0%" stop-color="#d79f1e" stop-opacity="0.08"/>
      <stop offset="100%" stop-color="#050507" stop-opacity="0"/>
    </radialGradient>
    <filter id="blur-192664617">
      <feGaussianBlur stdDeviation="2"/>
    </filter>
  </defs>
  <rect width="1200" height="600" fill="#050507"/>
  <rect width="1200" height="600" fill="url(#glow-192664617)"/>
  <rect width="1200" height="600" fill="url(#glow2-192664617)"/>
  <path d="M 4.6412112212931795 2.4184981372293546 L -1.923220385789394 -2.1540545060909286 L -9.284782616754196 -5.28573161582503 L -17.167900231046747 -6.648250121838991 L -25.144957021656033 -6.042804038860282 L -32.72646808446272 -3.489239862157475 L -39.501269078728505 0.7654130600084792 L -45.243022997942134 6.336073876392382 L -49.92299755608123 12.82435855997176 L -53.64896825670385 19.903704740100387 L -56.589393071774225 27.34372502951616 L -58.92003088444026 34.99670663057671 L -60.797706709190955 42.773231143310326 L -62.35208995990061 50.620771694968106 L -63.686314975127964 58.50872729884555 L -64.88088771029877 66.41903677322053 L -65.99822773180637 74.340624447187 L -67.08680286265589 82.26621617175216 L -68.18455709862187 90.19054173532025 L -69.32163163093854 98.10932077681123" fill="none" stroke="#5B8AEF" stroke-width="0.8361984881275326" opacity="0.19508263430329165" stroke-linecap="round"/><path d="M 1031.984939161681 485.43624518692314 L 1031.7483817091054 493.4327469577996 L 1030.339727252517 501.30775125125456 L 1027.7613344149938 508.8808543388541 L 1024.062294168076 515.9743091566197 L 1019.3386821559809 522.4308941331526 L 1013.7258262639351 528.1314071570065 L 1007.3833026108454 533.0071013342491 L 1000.476292886556 537.0435870171882 L 993.1583060193337 540.2757794946193 L 985.5592192777772 542.7765555130381 L 977.7800298040676 544.6431596842874 L 969.8933311542473 545.9847946595786 L 961.9473867714202 546.9132169045816 L 953.9717159639038 547.5366550892726 L 945.9827400148553 547.9564923023986 L 937.9887245815645 548.2658743515049 L 929.9937530632666 548.5494769283712 L 922.0007444806448 548.883862631018 L 914.013648309655 549.3380594554883 L 906.0389764368302 549.9741479090685 L 898.0868180964927 550.8477483498879" fill="none" stroke="#5B8AEF" stroke-width="0.6469240220016446" opacity="0.08086158813017494" stroke-linecap="round"/><path d="M 528.0566724613573 524.2470290159094 L 532.4839078827046 530.9103304892009 L 536.5044510004736 537.8266324662808 L 540.1317187964698 544.9570551982181 L 543.3832592517027 552.2664658904685 L 546.279767394309 559.7236932961343 L 548.8440268463919 567.3015936294987 L 551.0998737806892 574.9769538561604 L 553.0712632032964 582.7302514606919" fill="none" stroke="#5B8AEF" stroke-width="0.3727492966096612" opacity="0.1306296621126261" stroke-linecap="round"/><path d="M 446.1421778640441 355.79168049422634 L 439.37792760953334 360.06308758022874 L 433.237137953889 365.1905335726436 L 427.95934536065573 371.2025968909073 L 423.81813201898126 378.0473285919119 L 421.0785521266403 385.56362435601545 L 419.93108851522015 393.48090465043896 L 420.42778519430317 401.46547053776106 L 422.45991561123026 409.2030700342845 L 425.7953050085439 416.4746020302457 L 430.15037757995145 423.18529073542146 L 435.25413721350185 429.34578078110303 L 440.88146784788086 435.0320053573381" fill="none" stroke="#d79f1e" stroke-width="0.39593408708271294" opacity="0.18290812092968642" stroke-linecap="round"/><path d="M 546.3023987348669 252.20776845338185 L 543.6000622321831 244.67800235965336 L 541.7849533872941 236.88663663333776 L 540.8636081858738 228.9398685468878 L 540.7962390671044 220.94015221430223 L 541.5028788372294 212.97142206230953 L 542.8759776119296 205.09014045619261 L 544.794909067917 197.32369325897164 L 547.1383736144285 189.67462966142955 L 549.7927758483231 182.1278324082436 L 552.6566346946217 174.65800560245503 L 555.6421014985989 167.23594470521428 L 558.6748005799024 159.83305768174424 L 561.6929107711215 152.42421088391808 L 564.646029363473 144.9892199236338 L 567.4940640398304 137.5133454943603 L 570.2062169730904 129.98710961800023 L 572.7600379507454 122.4056850543652 L 575.1404985237815 114.76805404336311 L 577.3390492084436 107.0760858370474" fill="none" stroke="#5B8AEF" stroke-width="0.6153212261923222" opacity="0.08147766890073087" stroke-linecap="round"/><path d="M 605.772921538806 212.74615135637399 L 600.2329976973008 206.97473525368983 L 595.3337949778038 200.65035285591583 L 591.1275141048201 193.84541338391674 L 587.6425121365223 186.64438836792345 L 584.8787174588072 179.13696277858637 L 582.8071045162247 171.409840428311 L 581.3734235772662 163.5393538508962 L 580.50503345546 155.58662484782124 L 580.1189494127924 147.59594658424453 L 580.1293374421144 139.59595332869443 L 580.4533678478749 131.60251825382565 L 581.0151040713641 123.62226434713696 L 581.7476288071629 115.65587196969012" fill="none" stroke="#5B8AEF" stroke-width="0.7564915379772389" opacity="0.11340750199435629" stroke-linecap="round"/><path d="M 379.91817518133587 42.3851363558253 L 371.9183702202213 42.44099854452677 L 363.93649593216736 41.9027766110238 L 356.01021968597325 40.819196955890185 L 348.1665334331132 39.245479711054216 L 340.42156588797684 37.24161401575811 L 332.78091099727027 34.87087724396712 L 325.24039284699086 32.19868974581013 L 317.7871819454826 29.291862049224363 L 310.40118584904627 26.21825477707204 L 303.05665739981583 23.04683524341769 L 295.723993013071 19.848080330742455 L 288.37172610347505 16.694642319609073" fill="none" stroke="#5B8AEF" stroke-width="0.6295138111009793" opacity="0.10710880376729592" stroke-linecap="round"/><path d="M 807.9347612373227 479.76605784137087 L 812.6471371027715 486.2308481475398 L 816.1661744928401 493.4153019087731 L 818.4468342318828 501.08332584944446 L 819.5381922896734 509.00853484288405 L 819.5646485049347 517.0084910970565 L 818.6942176305205 524.9609969972661 L 817.1078064405327 532.8021257129728 L 814.9778562855997 540.5133715486015" fill="none" stroke="#5B8AEF" stroke-width="0.5593591724798824" opacity="0.10181861057030904" stroke-linecap="round"/><path d="M 974.4178040765308 320.01655712724505 L 968.0215318622965 315.2115907630117 L 960.9833901557972 311.4083603835533 L 953.5439763047946 308.46640158820804 L 945.8646255878324 306.22417667400055 L 938.0461708054153 304.5295484506727 L 930.1487317262438 303.25265534990984 L 922.2070425792195 302.2885114332475 L 914.240752454277 301.55487552542814 L 906.2608249287738 300.9885216716257 L 898.2733303982045 300.54138508832517" fill="none" stroke="#5B8AEF" stroke-width="1.0966329216941413" opacity="0.14953765756894727" stroke-linecap="round"/><path d="M 314.2723701495083 387.86255139292336 L 316.0959897762761 395.65192951038995 L 319.62149473173326 402.8332117642111 L 324.53251486989143 409.1484220697041 L 330.46796670843696 414.5122277589798 L 337.10559034321034 418.9778690884081 L 344.199274382712 422.67646973564206 L 351.5788822895342 425.7653833216084 L 359.13353945036397 428.3973322539252 L 366.79294575241386 430.70676835395454 L 374.51250757898146 432.8063790811611 L 382.26310417485996 434.788361020523 L 390.02455086887335 436.72741883708983 L 397.78158739749 438.68404457894917 L 405.52146189660783 440.7074928085576 L 413.23247872754393 442.83827187571126 L 420.9031116867758 445.1101411511639 L 428.5214425869493 447.5516640970853 L 436.07478618679545 450.1873804063005" fill="none" stroke="#d79f1e" stroke-width="0.5268785805566603" opacity="0.1373951153538167" stroke-linecap="round"/><path d="M 522.4551236827183 251.63186772336803 L 521.3993852354047 243.7018351678949 L 521.3706612495267 235.7018867347714 L 522.2963872094388 227.75562777554129 L 524.0581737059706 219.95203191589826 L 526.5127036871991 212.33788176166237 L 529.5115365880199 204.92121126655783 L 532.914922500566 197.68125516653328 L 536.5988291679621 190.57992911670885 L 540.4568844816627 183.57169045093647 L 544.3994823154376 176.61066162459812 L 548.3517890625033 169.6551406967956 L 552.2516599320675 162.670084705558 L 556.047906788521 155.62817375718134 L 559.699015908143 148.5099294373639 L 563.1722414205502 141.3032169732813 L 566.4429342109745 134.00235615618126 L 569.4939613643538 126.60700401383251" fill="none" stroke="#5B8AEF" stroke-width="0.6531016746317511" opacity="0.13710488444059382" stroke-linecap="round"/><path d="M 269.76830375835686 197.94063335188696 L 275.9610755411262 203.00517455978883 L 282.6713152132131 207.36093896378853 L 289.7692652565214 211.0513461476505 L 297.1511653709247 214.134777791286 L 304.737093388465 216.67519037838625 L 312.4671968493101 218.7356516094291 L 320.29754897581046 220.37442724233648 L 328.1963299062513 221.6429932882733 L 336.14063362812885 222.58535116857277 L 344.1139558293122 223.2381398603536 L 352.104294946354 223.63118030950847 L 360.10275362728197 223.7882112920814 L 368.10252454279606 223.72766957675253 L 376.09815950630593 223.46343193693116 L 384.08504116204085 223.0054784269707 L 392.0589958755358 222.3604619720399 L 400.0160025903159 221.53218415575822" fill="none" stroke="#5B8AEF" stroke-width="0.6739257650328454" opacity="0.1902246347955543" stroke-linecap="round"/><path d="M 855.4993605499618 588.8763816044091 L 847.7149558333427 590.721115516896 L 840.1415973174628 593.2987580037333 L 832.8561611352638 596.603666419273 L 825.9338270520992 600.6138149004464 L 819.4439786255261 605.2916207322554 L 813.4464417258905 610.5859149380499 L 807.9885127936669 616.4349329557001 L 803.1031548477563 622.7700160443682 L 798.8085663138547 629.5195722760386 L 795.1090933020139 636.6128014020899 L 791.9972297466451 643.982761050064 L 789.4563004687751 651.5685160161081 L 787.4633843134098 659.3163082950534 L 785.992097247366 667.1798516674329" fill="none" stroke="#5B8AEF" stroke-width="0.30966737606081524" opacity="0.1529530369364438" stroke-linecap="round"/><path d="M 119.38418118254476 44.96656751491435 L 125.16122378698346 50.50062378012346 L 130.22929561625094 56.690506487686285 L 134.70336404997263 63.32245278197841 L 138.71642650513314 70.24309796367795 L 142.39751115067912 77.34588726312403 L 145.86188345273465 84.55685977400982 L 149.2083016605968 91.82332281857894 L 152.51963535559148 99.10584086939028 L 155.86475916380022 106.37289988303226 L 159.30069493999548 113.5974652915438 L 162.87455847422586 120.75480414328878 L 166.6251542732128 127.82113495585493 L 170.58419337039106 134.77282607579212 L 174.77716550535993 141.58597400280607 L 179.2239203290388 148.23626508952466 L 183.93902250396542 154.69906722791652" fill="none" stroke="#d79f1e" stroke-width="0.69445828217755" opacity="0.07414821385133463" stroke-linecap="round"/><path d="M 90.52283712221441 508.6617565288496 L 92.40149648382851 516.4380434964852 L 95.07219218716628 523.9790901387075 L 98.62096453478966 531.1489028855472 L 103.11575600981692 537.7668217121891 L 108.58228776999532 543.6078002701844 L 114.97517981488157 548.4172629535234 L 122.15460141232914 551.9465554500591 L 129.88498997267428 554.0059467936568 L 137.86866975931378 554.5166884743563 L 145.80816838147612 553.5346693153365 L 153.46921426388448 551.230677998592 L 160.7150032660486 547.8397280231253 L 167.50400637398798 543.6077737700184 L 173.86506485055943 538.7562858479847" fill="none" stroke="#5B8AEF" stroke-width="0.5136406769108217" opacity="0.19156407372633186" stroke-linecap="round"/><path d="M 388.2852602695512 155.1846751734543 L 388.8407925827551 163.1653633548699 L 390.74866331056194 170.9345350794476 L 394.03865700941526 178.22671866610432 L 398.63076234533384 184.77748721520055 L 404.3445923707698 190.37678596061735 L 410.93882762956923 194.90625186198 L 418.16211145968197 198.34488105246163 L 425.79294857271043 200.7470311215513 L 433.6581327672291 202.2095213219607 L 441.63303065199347 202.84276987314823 L 449.63251682177105 202.75210003507223 L 457.59972893070375 202.0285454681764 L 465.4962577224801 200.74603502352213 L 473.2948063411751 198.96203966426523 L 480.9741370040628 196.7197460684057 L 488.51576624475183 194.0506959759599 L 495.901889859868 190.97739515400585 L 503.11414985359943 187.51570398019774 L 510.1329889073206 183.67696742529347 L 516.9374404092912 179.46989721464436 L 523.5052700561298 174.9022267219197 L 529.8134226362131 169.98214430122914" fill="none" stroke="#5B8AEF" stroke-width="0.3411784850252692" opacity="0.1763602788263747" stroke-linecap="round"/><path d="M 130.1967295492984 308.21676752912657 L 123.48642894084975 303.8610970016126 L 117.11704863123826 299.0205397535746 L 111.13031654425548 293.71403064506546 L 105.56158460211157 287.97040595707045 L 100.4386376292444 281.82586249858707 L 95.78160839453223 275.3210889662467 L 91.60393769121423 268.49854783448075 L 87.91414538580753 261.4002781338451 L 84.7181064620429 254.066429539977 L 82.02154682177304 246.5345927051493 L 79.83254729877146 238.83990095769775 L 78.16392555384148 231.01585459584976 L 77.03541875427521 223.0958500249336 L 76.47559162917476 215.11546196482013 L 76.5233265471735 207.11560437998753 L 77.22859485224755 199.1467527301036 L 78.65194016179846 191.2743904334496" fill="none" stroke="#5B8AEF" stroke-width="0.922764785132727" opacity="0.1372243103372046" stroke-linecap="round"/><path d="M 611.6155886145381 111.59892227109471 L 606.6883394959019 105.29636595457521 L 602.7008222918578 98.3609707569349 L 599.5804530480939 90.99460830436902 L 597.2165902739167 83.35182394362332 L 595.4840423583843 75.54168452614913 L 594.2596799538195 67.63593113369573 L 593.4319710163771 59.67886522251478 L 592.9050999153136 51.696233648725084 L 592.5996610724992 43.7020665805872" fill="none" stroke="#d79f1e" stroke-width="0.4740662609106238" opacity="0.1929797382992598" stroke-linecap="round"/><path d="M 1097.4706872820252 594.9205744987916 L 1096.0636775066532 602.7958728100942 L 1094.214136211344 610.5791367139425 L 1091.9088945211865 618.2398064464111 L 1089.1364795240038 625.7440529164703 L 1085.8882754655888 633.0549468696676 L 1082.1597280672956 640.1329362945454 L 1077.9514825243057 646.9366609693029 L 1073.270326498443 653.4240933012452 L 1068.1298095381756 659.5539452881371 L 1062.5504355594396 665.2872328271851 L 1056.559374397694 670.5888539147604 L 1050.189702934706 675.4290280287357 L 1043.479250694036 679.784464944326 L 1036.4691729779909 683.6391776982168 L 1029.2023957503845 686.9849135999792 L 1021.7220688503743 689.8212333049812 L 1014.0701348451895 692.1553082781338 L 1006.2860818628137 694.0015258079952" fill="none" stroke="#5B8AEF" stroke-width="0.6550683086528761" opacity="0.11592206443470068" stroke-linecap="round"/><path d="M 649.5952933326341 74.04752079120256 L 641.6966229589609 75.31677503210827 L 633.7174016872643 74.74055641274103 L 626.0860195443429 72.3401384098298 L 619.1764136885972 68.30809836560348 L 613.2318919693064 62.954346267412966 L 608.3401300106208 56.62420685824068 L 604.4590820938357 49.628674922239085 L 601.467377541032 42.20912615774314 L 599.2119617518567 34.533639227395405 L 597.5401532968906 26.710273168600526" fill="none" stroke="#5B8AEF" stroke-width="0.5585574721258867" opacity="0.11070656557134659" stroke-linecap="round"/><path d="M 1163.1510296664906 539.6778023520847 L 1171.0922112675603 538.7094869185446 L 1178.6607106514462 536.1176117139642 L 1185.5217347114017 532.0034472971341 L 1191.4275065788374 526.606980059227 L 1196.2668439818613 520.2366728845536 L 1200.0570341471928 513.191500174774 L 1202.8983392497419 505.7130654913507 L 1204.9249632117367 497.97402192533633 L 1206.2713407912308 490.088131524536 L 1207.0553717823848 482.126643258834 L 1207.3730545896972 474.1329533953268 L 1207.2989480265771 466.1332966391089" fill="none" stroke="#d79f1e" stroke-width="0.5534177263516084" opacity="0.19605428381639267" stroke-linecap="round"/><path d="M 1187.5901872234374 114.13833215559755 L 1185.657057563319 121.90125748804608 L 1183.7305497659283 129.66582880310222 L 1181.7675152644215 137.42124597730333 L 1179.7322744378102 145.15802791669486 L 1177.5945692746427 152.86712751621798 L 1175.328010865015 160.53933143528488 L 1172.9089243842188 168.16481637713804 L 1170.3155135415961 175.73278969906292 L 1167.5272869414327 183.2311756871367 L 1164.5247069125087 190.64632997884945 L 1161.2890359922512 197.96277950685146" fill="none" stroke="#d79f1e" stroke-width="0.555137702568964" opacity="0.1543550097636669" stroke-linecap="round"/><path d="M 149.05061486598598 346.84202631322756 L 141.26233789292576 348.67034296821384 L 133.4870167005005 350.5529954466662 L 125.71853759783149 352.4636844405621 L 117.94905020430744 354.3702692516499 L 110.16932337046512 356.2346325185037 L 102.36943161964798 358.0127463156311 L 94.53981202470982 359.65501821716276 L 86.672686664932 361.1070301226032 L 78.76377365226432 362.31081372361115 L 70.8141080888921 363.2068145218998 L 62.83167290595817 363.7366527521726 L 54.83242937124622 363.84666580762104 L 46.84029481855973 363.4920035855637 L 38.885709840910856 362.64078220815185 L 31.002710346872878 361.27758047069807 L 23.224831900831475 359.4055209421027 L 15.58058026219926 357.04640736169404" fill="none" stroke="#5B8AEF" stroke-width="0.7601102127042181" opacity="0.18054623188476368" stroke-linecap="round"/><path d="M 408.5173796902026 375.80022661751144 L 405.8822963989756 383.3537910773077 L 404.9015734986149 391.2934499234237 L 405.62896797398247 399.2603123721675 L 407.9441634335789 406.91797977052477 L 411.59512009748147 414.0363022862798 L 416.27869829796646 420.5219861546118 L 421.71051442408327 426.3952623759433 L 427.65935010682074 431.744220594119 L 433.95166061021837 436.6845473574851 L 440.4616828359828 441.3342366610895 L 447.09840033031696 445.80122456127447 L 453.79430547436556 450.1789927485936 L 460.49711864586044 454.54617669114 L 467.16413599537316 458.96781435848635 L 473.75854059266203 463.4970337180731 L 480.2470872563266 468.17664504738747 L 486.5987353395424 473.0404467114134 L 492.78394737657976 478.1142177012086 L 498.7744712282106 483.4164459104657" fill="none" stroke="#d79f1e" stroke-width="0.6758409486971055" opacity="0.18934168930600476" stroke-linecap="round"/><path d="M 1138.2371283780026 575.7083245439959 L 1144.3217971244487 580.9022446671805 L 1151.0423969429178 585.2420071122914 L 1158.3688987661574 588.4548518072721 L 1166.1640097966022 590.2538081777935 L 1174.1627435135867 590.3961420274995 L 1181.99376715043 588.7605782717249 L 1189.2564670528925 585.4060007831622 L 1195.6271669802288 580.5671804273484 L 1200.93463786368 574.5813009747268 L 1205.165573995226 567.7916633223347 L 1208.415907829067 560.4817159922517 L 1210.830745367699 552.8548844311108 L 1212.5608897190923 545.044212211427 L 1213.7405651491356 537.1316673692316 L 1214.4799331642791 529.1659072085073 L 1214.8652523945045 521.1751920283235" fill="none" stroke="#5B8AEF" stroke-width="0.45655271604496644" opacity="0.07120529521778472" stroke-linecap="round"/><path d="M 1172.2478516270628 184.8211480233917 L 1168.5326694925998 191.9061619053659 L 1164.7267073098833 198.9428267306743 L 1160.7843805701837 205.9040090927051 L 1156.6669524233519 212.76307502442478 L 1152.341635462119 219.49298090674372 L 1147.7810994075576 226.0657665334811 L 1142.9633222414009 232.4523950006193 L 1137.8717046087236 238.62292414183634 L 1132.4953489406498 244.547010546538 L 1126.8293857273866 250.19474114085185" fill="none" stroke="#5B8AEF" stroke-width="0.8465584906500572" opacity="0.1374900724540884" stroke-linecap="round"/><path d="M 612.8285332642629 104.57928623286043 L 607.7549040528497 98.39395789678194 L 603.6434834688151 91.53128926270259 L 600.4215405787165 84.20878395284154 L 597.9743046398524 76.59228631550637 L 596.1714074738254 68.79808579148009 L 594.8851255411859 60.902170468367444 L 594.0004985332356 52.951231212103124 L 593.4194442526803 44.97236062015539 L 593.0612136165563 36.980385219083246 L 592.8609669205713 28.982891782965456 L 592.7675886519896 20.983436770343864 L 592.741354321503 12.983479785465512 L 592.751746888026 4.983486535808294 L 592.7755436423677 -3.0164780712685904" fill="none" stroke="#d79f1e" stroke-width="1.0109634510758163" opacity="0.11600906875729984" stroke-linecap="round"/><path d="M 544.08334686611 204.40538935568432 L 545.921249426495 196.61936892297737 L 548.1844401399333 188.94617090685614 L 550.7603672250451 181.37222875945452 L 553.5481869812781 173.87369150164503 L 556.460421891129 166.42259172846752 L 559.4229209460821 158.991333466948 L 562.3740239566059 151.55554225005136 L 565.2634716703215 144.09557630443845 L 568.0513148668026 136.59704776132858 L 570.7068959133348 129.0506652302546 L 573.2078883342755 121.4516497078071 L 575.5393536111518 113.79892015145141 L 577.6927826533648 106.0941980046019 L 579.6651119334921 98.34113943325391 L 581.4577276049456 90.54456781141529 L 583.0754872972153 82.70984678395891 L 584.5257958640631 74.84240723472003 L 585.8177688781644 66.94742112131655 L 586.961508922928 59.02960205859453" fill="none" stroke="#5B8AEF" stroke-width="0.9758693374115366" opacity="0.14390541305016047" stroke-linecap="round"/><path d="M 203.93081354160364 132.591596866302 L 204.17717964888686 140.58780245027634 L 205.473527919812 148.48207133095613 L 207.73813024149237 156.154852855582 L 210.87911022340154 163.51245061254357 L 214.80169807901945 170.48477479569505 L 219.41280590594994 177.02218136163694 L 224.6236499457334 183.09236293989744 L 230.35118403545127 188.67764299116791 L 236.5189031804441 193.77266414406697" fill="none" stroke="#d79f1e" stroke-width="0.3500757776433955" opacity="0.13800135439168726" stroke-linecap="round"/><path d="M 35.39227882185591 419.01507946616744 L 27.425425425038874 419.7425730768781 L 19.429019448494323 419.5027993120859 L 11.52651139832789 418.2576621641963 L 3.8439523377134694 416.0264548049015 L -3.512790925669199 412.88347396552723 L -10.475450683727967 408.9437570856602 L -17.019975941043338 404.34275837273265 L -23.162517688138923 399.2174114688453 L -28.949128007927886 393.6933603279785 L -34.44414171849891 387.87916869709494 L -39.72041819106104 381.86577476478953 L -44.85250590369591 375.7288638391021" fill="none" stroke="#5B8AEF" stroke-width="1.0020901530525135" opacity="0.1262380475859335" stroke-linecap="round"/><path d="M 43.80353039307684 302.9676582212409 L 36.93768566693258 298.8615437322773 L 30.120847887730804 294.67457314579747 L 23.318815592994376 290.46359265886065 L 16.494561419426528 286.28872080758885 L 9.610492070826059 282.21323443125783 L 2.6310190858225155 278.3033806166497 L -4.474626340366872 274.6278122147187 L -11.729485888453926 271.25631211275663 L -19.14616871746438 268.25750971615537 L -26.72481124556392 265.6954446445225 L -34.45228000869214 263.62512425509544 L -42.30314500477752 262.0876201694939 L -50.242646633228524 261.10562531623657 L -58.23134527741005 260.6805441799199 L -66.23056952368594 260.7919509023018 L -74.20745538988601 261.39964480355286 L -82.13849216721813 262.4478125556829" fill="none" stroke="#5B8AEF" stroke-width="1.025497083331224" opacity="0.0901783162961613" stroke-linecap="round"/><path d="M 944.2193218247124 347.0709539703424 L 943.588683053175 339.09584928514647 L 941.0205851654405 331.5192489103733 L 936.747514881051 324.75604919835325 L 931.1466536537188 319.04375075445466 L 924.6162614088486 314.42271438496573 L 917.4868920635032 310.7933766027181 L 909.9933099965126 307.9922647153998 L 902.2862896393669 305.84707539635554" fill="none" stroke="#d79f1e" stroke-width="1.0854648727855947" opacity="0.1524363334534859" stroke-linecap="round"/><path d="M 762.1753612357077 540.6481442696639 L 767.4509338978442 546.662155666936 L 771.6589448262537 553.4660254501099 L 774.8333798329519 560.809251062077 L 777.080923046518 568.4870469374017 L 778.5476164046537 576.3514484145137 L 779.390634308714 584.3069069690807 L 779.7599936546779 592.2983757748478 L 779.7894133451481 600.2983216797783 L 779.5933789777683 608.2959194770425 L 779.2676094497551 616.2892838634957 L 778.8910260448156 624.2804155067065 L 778.5281678318671 632.2721821397668 L 778.2315556749901 640.2666815755284 L 778.0438148993067 648.264478359715" fill="none" stroke="#5B8AEF" stroke-width="0.4438326769246872" opacity="0.19217975669176307" stroke-linecap="round"/><path d="M 893.7016098265078 21.478177058267487 L 887.4996277303219 16.424918893618763 L 881.4794734285995 11.156357212908084 L 875.69141525842 5.633823137085863 L 870.1874043033873 -0.17185196636942912 L 865.0204006394486 -6.279394281969296 L 860.2431861543205 -12.696420210160843 L 855.9067828186783 -19.41918795199387 L 852.0586623489777 -26.43288660895594 L 848.7409829791247 -33.71251596757388 L 845.9891001656612 -41.224316083455804 L 843.8305575513617 -48.927607184164195 L 842.2846761667469 -56.776826938044266 L 841.3627453360895 -64.7235271049993 L 841.0687097887212 -72.7181217224195 L 841.4001726995184 -80.71125204406232 L 842.349508490339 -88.65472493419465 L 843.9048999277484 -96.50206572432437" fill="none" stroke="#5B8AEF" stroke-width="0.6719222137573744" opacity="0.146684422347082" stroke-linecap="round"/><path d="M 744.9699302879022 554.8091743862299 L 751.7886268963763 558.9931170915719 L 757.6860937468666 564.3986591316792 L 762.5583873381345 570.7437954706786 L 766.4140275395658 577.7533631204774 L 769.3455570169323 585.1968928559813 L 771.4923798714477 592.9034583446623 L 773.0091176985308 600.7583616772245 L 774.0451014037795 608.6909991807574 L 774.7340559661932 616.6612778214908" fill="none" stroke="#5B8AEF" stroke-width="0.7159109270274224" opacity="0.1344066629625888" stroke-linecap="round"/><path d="M 922.4258248333008 205.418986643394 L 929.8838331453953 208.31348349375125 L 937.1275138868513 211.70893476211896 L 944.0473787189292 215.72334265192939 L 950.4869528541343 220.47011892190437 L 956.2322346363628 226.03714121778157 L 961.0095660694047 232.45408008135735 L 964.5029921184056 239.65102210142132 L 966.4022273778522 247.4223093454546 L 966.4804362415673 255.42192704717237" fill="none" stroke="#5B8AEF" stroke-width="0.736263482103247" opacity="0.07691416350980948" stroke-linecap="round"/><path d="M 420.51556390734186 402.54129534705606 L 422.7464315072743 410.2239530741432 L 426.24284367247475 417.41944485518485 L 430.71960407934404 424.04957428525535 L 435.9107296264326 430.1366273944671 L 441.5983714933664 435.7625255444074 L 447.6163198221286 441.0336068293383 L 453.84136626689974 446.0584249116615 L 460.1819499484345 450.9366416532029 L 466.5682743245001 455.7548219075801 L 472.94494585542026 460.58577007401203 L 479.26591563879236 465.4893749722167 L 485.49119002734176 470.5139106509905 L 491.58481591671455 475.69731913579716 L 497.513769371763 481.0683070270392 L 503.2474867950874 486.6472392285869 L 508.7578530517246 492.44688264156616 L 514.0195033044882 498.4730785077485 L 519.0103145421715 504.72542232345586 L 523.7119700118539 511.19801344636835 L 528.1104853515067 517.8803081724964" fill="none" stroke="#5B8AEF" stroke-width="0.7469169857198917" opacity="0.07876350392529904" stroke-linecap="round"/><path d="M 200.66849133030908 317.66689425225695 L 193.20904154883485 314.7761142610325 L 185.9939887926108 311.32024769461185 L 179.10827503909113 307.2475402284918 L 172.6538988197787 302.52091060268293 L 166.7480063848945 297.12457531402845 L 161.5188943519701 291.070123452206 L 157.10024528162936 284.4011249971772 L 153.6243203350962 277.1957141299144 L 151.21485334176683 269.5671842054757 L 149.97989457383215 261.6630791428199 L 150.00407058328994 253.66311567286792 L 151.33925587968238 245.77532255791508 L 153.99322618857465 238.22837339951218" fill="none" stroke="#5B8AEF" stroke-width="0.6337561232660693" opacity="0.18789185502002567" stroke-linecap="round"/><path d="M 958.7455992394805 18.643208974340563 L 951.7659646522402 14.73364364957641 L 944.6939071344269 10.993857229907366 L 937.5704701494609 7.3528895671535555 L 930.4334670108537 3.738586563874593 L 923.3195582422134 0.07903713375880095 L 916.2663173383454 -3.69611753221229 L 909.3141616925693 -7.654340855485456 L 902.5080241161645 -11.858682812444972 L 895.8986219136609 -16.365988274197143 L 889.5431559026737 -21.224800040790424 L 883.5052583267183 -26.47301810621719" fill="none" stroke="#5B8AEF" stroke-width="0.358727228668857" opacity="0.10740585930059006" stroke-linecap="round"/><path d="M 942.7983562195666 405.98649112786467 L 950.7538091597714 406.829562012302 L 958.6894835760963 407.8420201882709 L 966.6015490762214 409.0249062866466 L 974.4862583630126 410.3781835911149 L 982.3401299958571 411.9002546718465 L 990.1602010661709 413.5874086231032 L 997.9443552992423 415.4331992059583 L 1005.6917257122633 417.4277547162025 L 1013.4031609793261 419.55701893698387 L 1021.0817303127507 421.8019182647471 L 1028.7332220573112 424.13744263475957 L 1036.3665650210119 426.53161789954726 L 1043.9940668545191 428.9443374812317" fill="none" stroke="#5B8AEF" stroke-width="0.39341811989127573" opacity="0.12198347998875356" stroke-linecap="round"/><path d="M 717.5115190062261 208.0499688200885 L 712.5933460246032 214.3596102142435 L 706.8344375871419 219.91253499393727 L 700.3638515132169 224.6169495016022 L 693.3284209723939 228.42519281122094 L 685.8739242800627 231.32872153744768 L 678.1326054248235 233.34663689283747 L 670.2180670315431 234.51286243761416 L 662.2258427916763 234.8654978012474 L 654.2371813082935 234.43971886339696 L 646.3240266402712 233.2641410480416 L 638.5539421286045 231.35999119008457 L 630.9942954747513 228.7424078640209 L 623.7152957458733 225.42334731214876 L 616.7915229781806 221.415683321573 L 610.3015528163005 216.73804638633473 L 604.3253054059289 211.4197320960706 L 598.9389913672541 205.50469861545753 L 594.208078271938 199.05346142523064 L 590.1794767903825 192.1418501729387 L 586.8748148193769 184.85630220059036" fill="none" stroke="#d79f1e" stroke-width="0.48192525216467924" opacity="0.12849835407384597" stroke-linecap="round"/><path d="M 26.569697645758136 78.45416612851162 L 23.90843331902092 70.90978595627507 L 20.75296758133048 63.55838908368945 L 16.988337024806636 56.49952538101839 L 12.49611897747305 49.879859451742924 L 7.173214534082456 43.90770001929869 L 0.9653780141728783 38.86163563781514 L -6.084266346309155 35.0797691157491 L -13.784858390137517 32.91161732804434 L -21.779744682034316 32.625622258785015 L -29.602017281632726 34.30253948320963 L -36.80435716617766 37.784823243544686 L -43.09159555813056 42.73160334809285 L -48.37064620696368 48.74256202762597 L -52.70830049230195 55.46452270148345 L -56.25406715827239 62.635822357089324 L -59.17828189786598 70.08222874921859 L -61.63880931953554 77.69444293480298" fill="none" stroke="#5B8AEF" stroke-width="0.5292745747739797" opacity="0.1989694843250185" stroke-linecap="round"/><path d="M 926.6673394137375 448.9867633436745 L 929.334420637989 456.5290890952743 L 930.5632938995846 464.43414257434296 L 930.3088401420994 472.4300948806853 L 928.6314673096075 480.2522697944045 L 925.6814762921279 487.6885022407976 L 921.6633149557224 494.6061882321257 L 916.7959436838187 500.95510128094327 L 911.2829110467561 506.75221014163264 L 905.2968885147493 512.0595196527039 L 898.9762020147858 516.9634896943314 L 892.4283790104184 521.5597940688781 L 885.7364644597103 525.9436599023659 L 878.9655562638299 530.2045051474972 L 872.168413584135 534.4233736441289 L 865.389817098439 538.6719769068625 L 858.669740224962 543.0125490828042 L 852.0455165595737 547.4980435740403 L 845.5531983332688 552.1724209709124 L 839.2282697894432 557.0709185891112 L 833.1058442636868 562.2202783242207 L 827.2204491412215 567.6389612133056" fill="none" stroke="#d79f1e" stroke-width="0.9417320794620234" opacity="0.1336509967938303" stroke-linecap="round"/><path d="M 1186.5892773431676 102.99215330881631 L 1185.337461407991 110.89360614132994 L 1183.9906663754612 118.7794252579692 L 1182.5325195268626 126.64541583563467 L 1180.9480779004093 134.48694277446245 L 1179.2232196415607 142.29878404185146 L 1177.3441871870689 150.07498086516853 L 1175.2972518902552 157.80867699901412 L 1173.0684800379574 165.49194297322097 L 1170.6435888366236 173.11558401026448 L 1168.0078882203618 180.6689330861008 L 1165.146310442478 188.1396340318703 L 1162.043534302961 195.51342411757548 L 1158.6842141907177 202.77393156426803 L 1155.0533251867553 209.90251101889328 L 1151.1366332297812 216.8781489190551 L 1146.9212924692972 223.67747993563336 L 1142.396559123262 230.27496340641804 L 1137.5545917088095 236.6432717812834 L 1132.3912821905383 242.75393744212005 L 1126.9070346685257 248.57828539852682 L 1121.107384220335 254.0886442506164 L 1115.0033377859904 259.2597773109202" fill="none" stroke="#5B8AEF" stroke-width="0.8670431404221073" opacity="0.1264948671713913" stroke-linecap="round"/><path d="M 1041.0916115348655 213.35753324132298 L 1045.866130472422 219.776565015268 L 1049.343237077743 226.98140572518193 L 1051.3198161539556 234.7333819348641 L 1051.685016527041 242.72504188055112 L 1050.441281385596 250.62777070659186 L 1047.698183990608 258.14278345984843 L 1043.6441512576814 265.03950866826153 L 1038.5084141364316 271.1733658740838 L 1032.525231511428 276.48387674177394 L 1025.9078088030938 280.9793985912616 L 1018.83411123272 284.7160819713313 L 1011.4429501956862 287.7772481746976 L 1003.8369113897555 290.2567992797722 L 996.0886282259523 292.2478060636692 L 988.2478194030991 293.8357975634786" fill="none" stroke="#5B8AEF" stroke-width="0.6367536676753096" opacity="0.17413095328683545" stroke-linecap="round"/><path d="M 928.3389283941775 96.18476047002932 L 925.3601626416997 88.76000763967428 L 921.6750242057481 81.65932072164503 L 917.4220793709496 74.8834473290733 L 912.7280769490486 68.40530397907035 L 907.7048407937333 62.17898094473193 L 902.4492647717777 56.147486877964894 L 897.045089233311 50.2487678009586 L 891.5654375970571 44.4200957441948 L 886.0754463705871 38.601161448872105 L 880.6346078133987 32.73624237060578 L 875.2986353620238 26.775755981210338 L 870.1207758005398 20.677414373728123" fill="none" stroke="#5B8AEF" stroke-width="0.3282726381105709" opacity="0.19957547139356635" stroke-linecap="round"/><path d="M 1167.3430865478438 367.62780480442 L 1164.2906515342654 360.23303364583234 L 1160.6745960219441 353.09691827878487 L 1156.5132313238335 346.2644191862625 L 1151.8250776769428 339.7820418921562 L 1146.6319069669469 333.69673352060744 L 1140.9612491591413 328.05371659463844 L 1134.8480031464953 322.893462415931 L 1128.3348202222273 318.24820158417754 L 1121.4710837036819 314.13856400843116 L 1114.310586506202 310.57103266520744 L 1106.9083290351832 307.5367972866079 L 1099.317090909448 305.01229659966316 L 1091.5844613901643 302.96133567426693 L 1083.7508286999139 301.33831414814966 L 1075.848517574672 300.0919278196462 L 1067.9019633518549 299.16873987354455 L 1059.9286211791907 298.51619516425916 L 1051.9402571415217 298.08487161786286 L 1043.944319789999 297.82994835386563 L 1035.945189518482 297.71198692245974 L 1027.94520323383 297.69717323359896" fill="none" stroke="#5B8AEF" stroke-width="0.6287672226916846" opacity="0.08396843780948242" stroke-linecap="round"/><path d="M 1186.0676687145922 519.6540430745362 L 1191.5233960557578 513.8029714479999 L 1195.9140746872918 507.115524913291 L 1199.2912839783683 499.8633212892698 L 1201.7677658662255 492.2562826105779 L 1203.4753948575476 484.44065702921864 L 1204.5392355562753 476.51170735301747 L 1205.0659080825565 468.5290626753395 L 1205.1407208479943 460.52941249235477 L 1204.828998061564 452.5354879928101 L 1204.1789041406305 444.5619456248305 L 1203.224457738668 436.61908517875816 L 1201.9882124402654 428.715181234366 L 1200.483461731234 420.8579727412898" fill="none" stroke="#5B8AEF" stroke-width="0.6737642792862675" opacity="0.0902496227017835" stroke-linecap="round"/><path d="M 384.36294644342877 194.0204373533001 L 390.70322785129406 198.89904695738585 L 397.7345878605373 202.71480067328713 L 405.22775197670444 205.51703041550766 L 413.0025567694501 207.4018143380567 L 420.92936527339657 208.4814934300847 L 428.9201894741359 208.8645451144288 L 436.91718827287764 208.64543278496504 L 444.8824998431483 207.9012476006782 L 452.79058933960187 206.69206584590296 L 460.6229572937136 205.06295190531947 L 468.36464743272995 203.0464614413059 L 476.0019992155149 200.66510515843026 L 483.52122216317366 197.93356964458425 L 490.907507264419 194.86065695413546 L 498.1445002545198 191.45097478988154 L 505.2140394964079 187.70643010362065 L 512.0961134426286 183.6275750928671 L 518.769025267464 179.21483809889486 L 525.2097690291316 174.46964897763317 L 531.3946243070286 169.3954431095716" fill="none" stroke="#5B8AEF" stroke-width="0.6913590302650626" opacity="0.06812569095200192" stroke-linecap="round"/><path d="M 1156.8324973605725 241.89156957058773 L 1150.231606641694 246.41133081620953 L 1143.613229871621 250.90544796303107 L 1136.9385954110562 255.3155788928155 L 1130.1772597669085 259.5915981054918 L 1123.3073503968446 263.69090844347653 L 1116.315282201616 267.5781931453307 L 1109.1950620882938 271.2254476659039 L 1101.9472664290086 274.6121065033491 L 1094.5777797468202 277.725089966371 L 1087.0964010207483 280.55863409997454 L 1079.5154384789523 283.1138262531965 L 1071.8484119030143 285.3978366480633 L 1064.108959265509 287.4228978500552 L 1056.3100067036153 289.205126493449 L 1048.4632175789388 290.7632986382578 L 1040.578698397888 292.1176831049592 L 1032.6649138583366 293.2890132298844 L 1024.728752331844 294.29764607954564 L 1016.7756844910002 295.1629274898039" fill="none" stroke="#5B8AEF" stroke-width="0.5296215803500366" opacity="0.15841971700937474" stroke-linecap="round"/><path d="M 74.85141459612707 213.86255855386264 L 74.8199967629657 205.86262024661556 L 75.42151827638318 197.88526655827405 L 76.71529783477922 189.99057628858793 L 78.76966307794004 182.25885051437083 L 81.6566078075063 174.797915577754 L 85.44154570595973 167.74991975590143 L 90.16683259626552 161.2945604472104 L 95.82963243175456 155.64365803934797 L 102.35904626564279 151.0212393017357 L 109.60323216386355 147.62686591743937 L 117.33954340857937 145.58983662828237 L 125.31256446716218 144.9333800802952 L 133.2872966919562 145.5687114448853 L 141.09268816486212 147.3225255612293 L 148.63792177694955 149.98136924580837 L 155.90279118082094 153.33124574273975 L 162.91548706411592 157.18119333308664" fill="none" stroke="#5B8AEF" stroke-width="0.4750408855150644" opacity="0.16485813245403494" stroke-linecap="round"/><path d="M 468.24427753139486 90.78623507674142 L 469.81376021639454 98.6307697411741 L 472.24266174714785 106.25313403015323 L 475.6394914330117 113.49616848300752 L 480.06772078443413 120.15880946171866 L 485.52188716628257 126.01133618776737 L 491.9119730855847 130.82452659995104 L 499.06535129217326 134.40631110400815 L 506.7491793606021 136.63314432965063 L 514.7058925332167 137.46423727796747" fill="none" stroke="#5B8AEF" stroke-width="0.9300448130024805" opacity="0.10075624786352563" stroke-linecap="round"/><path d="M 544.7581990364745 475.52560301289225 L 543.2277077892801 483.3778381432396 L 542.4939788629745 491.3441197013257 L 542.4245364603745 499.34381830519334 L 542.8835955246514 507.3306364936527 L 543.7438540201872 515.2842492149799 L 544.8927757113337 523.201318050579 L 546.2347967518695 531.0879510157142 L 547.6910857094015 538.9542857703614 L 549.1980933517083 546.811061697294 L 550.7056473519049 554.667732807662 L 552.1749839278854 562.5316408708635" fill="none" stroke="#5B8AEF" stroke-width="0.43889852917701866" opacity="0.06985567366231962" stroke-linecap="round"/><path d="M 101.3698172296257 461.25908915943427 L 101.47381969702083 469.2584130987916 L 102.30268719353785 477.21535840922434 L 103.93402958007154 485.0472625211181 L 106.44926818049635 492.6415745230662 L 109.92265010106807 499.848211605218 L 114.40332787069138 506.47569428907343 L 119.8911386709253 512.2966849797408 L 126.31155379951214 517.0693435236358 L 133.50163102070408 520.5768767812539 L 141.22111425081974 522.6767764598012 L 149.1936598263613 523.3389826557195 L 157.164102342167 522.6519265428459 L 164.9451761830786 520.7931931347742 L 172.4352384205215 517.9826829178862 L 179.60857403703412 514.4410369540904 L 186.49230043217185 510.36497133674754 L 193.1428603815897 505.91861863377864" fill="none" stroke="#5B8AEF" stroke-width="0.783255070300426" opacity="0.1291762104859465" stroke-linecap="round"/><path d="M 701.9498088871826 235.21898343936493 L 694.603018173431 238.38515876747516 L 686.9452603332408 240.70005506342568 L 679.0881988355816 242.20557312110583 L 671.1226804420354 242.94754126198305 L 663.1227064011738 242.96792128997387 L 655.1505892071721 242.30057771646628 L 647.2620557402015 240.96977354586676 L 639.5107437019304 238.99059147103037 L 631.951884947278 236.3707337788619 L 624.6450544664121 233.11339923603566 L 617.6557933231969 229.2210697700292 L 611.0557838562652 224.70002176802657 L 604.9211659344153 219.5651933431502 L 599.3286531854444 213.84472123390978 L 594.3494540152327 207.58312594010778 L 590.0416537750563 200.84199420346775 L 586.4424990757782 193.6973398765836 L 583.5625371810737 186.2337067475338 L 581.3833599730298 178.53622750456458 L 579.8596804870375 170.68266774965304 L 578.9250797480702 162.73744771124493" fill="none" stroke="#d79f1e" stroke-width="0.8064126851532667" opacity="0.16473663486760887" stroke-linecap="round"/><path d="M 116.99905643099875 401.5707178979976 L 112.71670233492912 408.3280430637622 L 108.80606653951412 415.30707793082075 L 105.26930600663388 422.4828235320152 L 102.10859824828594 429.83196813981266 L 99.32754391943311 437.33301718777716 L 96.93261463820303 444.9661236155631 L 94.93464120255801 452.7126132818866 L 93.35035105337889 460.5541708263553 L 92.20396014139438 468.4716065145639 L 91.5287942990632 476.4430650439266 L 91.36884367143678 484.44146587138715 L 91.78001588171205 492.4308924724329 L 92.83061354496797 500.3616077333637 L 94.60018096287891 508.1634428478395 L 97.17533823969127 515.737646766383 L 100.64067463911763 522.9481560159999 L 105.06265472098548 529.6149462598552" fill="none" stroke="#5B8AEF" stroke-width="0.34285306597261367" opacity="0.08609790559210717" stroke-linecap="round"/><path d="M 347.21970257685507 60.770604601488735 L 339.25433307968643 60.02703969270429 L 331.3266537597957 58.9537733692891 L 323.44129890851684 57.60426276562088 L 315.5965469637111 56.03586647498939 L 307.7849741767961 54.309792723746654 L 299.9944068401512 52.491260190850376 L 292.2092103777621 50.64987048684873 L 284.4119714774777 48.8601594677476 L 276.5856488368878 47.20224694732021 L 268.7162812934659 45.76243638112133 L 260.7963345646786 44.63352371258941 L 252.82871600211695 43.9144587353288" fill="none" stroke="#5B8AEF" stroke-width="0.5600825895835099" opacity="0.10500062559964166" stroke-linecap="round"/><path d="M 12.12469507573391 489.87506892991956 L 4.2394442347742185 488.5249507220783 L -3.245796975720233 485.70162572826064 L -10.108478962805645 481.59022743277364 L -16.235442214153277 476.44626774041257 L -21.621717019882503 470.53119853395634 L -26.338005009638586 464.06926170374186 L -30.492557511586895 457.2326182649954 L -34.20295903339455 450.1450996197312 L -37.58049440810902 442.89304785539906 L -40.72375755388447 435.5364252066281 L -43.71749400232125 428.1176960649691" fill="none" stroke="#5B8AEF" stroke-width="0.7731161291120183" opacity="0.14400326026789995" stroke-linecap="round"/><path d="M 694.172978538169 282.6251455036109 L 686.2553430697184 281.48013520290067 L 678.3715805058322 280.1213534557955 L 670.5295847034151 278.53923404346494 L 662.7392351847612 276.7197686337338 L 655.013026372542 274.64475119043715 L 647.3668110308478 272.2920100341601 L 639.8206809065168 269.63571183051926 L 632.3999892931943 266.6468431515767 L 625.1364877041592 263.29400186900983 L 618.0694934415504 259.54465631381555 L 611.2469182690828 255.3670412027709 L 604.7258679665866 250.73283113499082 L 598.5723822130861 245.6206287640487 L 592.8597707878472 240.02008676311436 L 587.6650083702467 233.93613710646162 L 583.0629030624877 227.39238995851215 L 579.1183445092187 220.4324720121688 L 575.8777911092282 213.11818368986363 L 573.3619244598067 205.52407972676642 L 571.5615565360781 197.72929458930372" fill="none" stroke="#5B8AEF" stroke-width="0.3734783705666095" opacity="0.102716300274579" stroke-linecap="round"/><path d="M 826.4611695085006 166.43796468453385 L 834.4437472822124 166.96565027903293 L 842.4430541487161 166.86034284574555 L 850.4037558515718 166.06836532197948 L 858.2548362135809 164.5319613551548 L 865.9054411695881 162.1935337195162 L 873.2415243511202 159.0026273351731 L 880.1248628143912 154.92590664323774 L 886.3965570570743 149.95943391842633 L 891.887063378362 144.14098564282048 L 896.433454072914 137.55840775475176 L 899.901708251646 130.34930150281542" fill="none" stroke="#d79f1e" stroke-width="0.7886128081421427" opacity="0.18724373815918516" stroke-linecap="round"/><path d="M 173.19966748971478 483.4057498180334 L 181.19800343080482 483.5689128453023 L 189.15700969518744 482.7600746145552 L 196.99719008435852 481.1689833333092 L 204.6921363126537 478.98087854979315 L 212.2511050275205 476.3613381382582 L 219.702974909778 473.4510743601955 L 227.08439826355254 470.3665015741598 L 234.43222504337066 467.2027314159802" fill="none" stroke="#5B8AEF" stroke-width="0.7320088977143211" opacity="0.11386538951372047" stroke-linecap="round"/><path d="M 1160.3158268892746 114.05126401877554 L 1163.551813074442 121.3675741139947 L 1165.7857688608428 129.04933442946967 L 1167.1337151803812 136.93495683481237 L 1167.7148583942849 144.91382094976842 L 1167.6358049003604 152.91343034930154 L 1166.984460424752 160.886870659111 L 1165.8294577953181 168.80305464674046 L 1164.2221184409684 176.6399201043044 L 1162.1992595967342 184.37994866344442 L 1159.7860506890809 192.00729569685143 L 1156.998617164257 199.5059765371518 L 1153.8463296558157 206.8587367987219 L 1150.3338160451167 214.04638231965947 L 1146.462762513678 221.04744970661807 L 1142.2335627918662 227.8381690877313 L 1137.6468495443537 234.3927141966685 L 1132.704906694991 240.68375551537184 L 1127.4129225608774 246.6833308273661 L 1121.7800081042287 252.36402398261393" fill="none" stroke="#5B8AEF" stroke-width="0.8095687645066385" opacity="0.0800219655223293" stroke-linecap="round"/><path d="M 483.3375946075365 327.4762844329124 L 475.4747436186059 326.0013016106828 L 467.6428248437525 324.37002962106885 L 459.856909012657 322.53168398678343 L 452.1391600125205 320.42541943291275 L 444.5224943185041 317.97870659614716 L 437.05594053247364 315.1063252565067 L 429.81222150452874 311.71095566775955 L 422.8978295170599 307.6871287028384 L 416.46491077994636 302.9313368106617 L 410.721935941358 297.36193468805095" fill="none" stroke="#5B8AEF" stroke-width="0.43013489736716026" opacity="0.11619460781858984" stroke-linecap="round"/><path d="M 1165.83007479358 253.03352784972336 L 1158.3615492326387 255.9007784396729 L 1150.958603642355 258.93333455412466 L 1143.593152399308 262.0558540474663 L 1136.2378054744836 265.202101274795 L 1128.868281565546 268.3149966080174 L 1121.4648661061424 271.3464054447567 L 1114.0130673351778 274.2568513001283 L 1106.5036416686937 277.0152069986473 L 1098.9321545180042 279.5983412047895 L 1091.2982321215252 281.99066828203786 L 1083.6046474093082 284.1835554829538 L 1075.8563658654314 286.1745685710119 L 1068.0596533260614 287.9665712435634 L 1060.2213172449722 289.566723573779 L 1052.3481199247135 290.98544269900094 L 1044.4463717039412 292.23539272021094 L 1036.5216884975184 293.33056214904053 L 1028.5788836043043 294.28547074588903 L 1020.6219580963401 295.1145283197094 L 1012.6541554077456 295.8315501573318 L 1004.6780512721905 296.44941973805226" fill="none" stroke="#5B8AEF" stroke-width="0.7226018739969479" opacity="0.16192026865758014" stroke-linecap="round"/><path d="M 404.54440005335226 588.8658483460853 L 401.66817823603776 581.4007731249235 L 398.84720695835665 573.9146445493179 L 396.159616820478 566.3796024624562 L 393.6942029680168 558.7689694706419 L 391.5518481171728 551.0611607228158 L 389.8463646034498 543.2450666865071 L 388.7039271019298 535.3270595789629 L 388.2598831845373 527.3393925228428 L 388.6514683231924 519.3489819527166" fill="none" stroke="#5B8AEF" stroke-width="1.0216885648303147" opacity="0.1080624915510707" stroke-linecap="round"/><path d="M 929.5636546470055 188.17182611123278 L 937.5316721901295 187.45719583446882 L 945.4796149752538 186.54603970932294 L 953.4036811762851 185.44641484525636 L 961.301016039824 184.1688773494731 L 969.1700337190139 182.7271558907306 L 977.010789264504 181.13890135323769 L 984.8253751973352 179.42652093452335 L 992.6182986223098 177.61811155264016" fill="none" stroke="#5B8AEF" stroke-width="0.7567167068164409" opacity="0.14771820821227422" stroke-linecap="round"/><path d="M 56.53719588021617 510.32557939660063 L 52.17254712582487 517.0300436742883 L 47.284192754560934 523.3628149113491 L 41.77404858775362 529.1626693285737 L 35.57035809893104 534.21383001884 L 28.660494208212327 538.2454278425001 L 21.132463202311076 540.9525941052534 L 13.208301841737068 542.051533016925 L 5.237841182066586 541.3646874209974 L -2.372469203267351 538.8982779175129" fill="none" stroke="#d79f1e" stroke-width="0.7558096884078391" opacity="0.12105430872228662" stroke-linecap="round"/><path d="M 1190.149605828407 22.21257901853536 L 1190.1851378742167 30.21250011025374 L 1190.126579479682 38.21228578953475 L 1189.9700594022106 46.21075448456308 L 1189.712291216943 54.20660062882223 L 1189.3502442126176 62.19840405274721 L 1188.8808874890467 70.18462370074329 L 1188.3009904407245 78.16357848275247 L 1187.6069659112206 86.13341724852728 L 1186.794745086417 94.09207902873602 L 1185.859675653355 102.0372439203763 L 1184.7964369093183 109.96627433860394" fill="none" stroke="#5B8AEF" stroke-width="0.8761736924649095" opacity="0.1453870905215792" stroke-linecap="round"/><path d="M 826.8738865977498 34.70602418980842 L 826.8066673795167 26.706306596249245 L 826.491176609875 18.712529918466032 L 826.0284711571932 10.725922148952211 L 825.5061702512829 2.742990246218393 L 824.9997457408755 -5.240964551703409 L 824.5740091572716 -13.229628292366254 L 824.2845371959652 -21.224389451001166 L 824.1789394416976 -29.223692490284876 L 824.2979525067312 -37.22280718444643 L 824.6763764466223 -45.21385187971108" fill="none" stroke="#5B8AEF" stroke-width="0.3268618516749059" opacity="0.12653089193931358" stroke-linecap="round"/><path d="M 400.71165021542066 180.35258528792886 L 405.9385051785517 186.40898580262345 L 412.1616972404013 191.43610033894862 L 419.1306241335498 195.36472070212332 L 426.60604981574915 198.21393302659388 L 434.38966172178 200.06200924155226 L 442.33275796900404 201.01449126623072 L 450.3310410186385 201.18022677217468 L 458.3139569901402 200.65768242769968 L 466.2339751315303 199.5292708715506 L 474.057994571164 197.8605228953018 L 481.76119736944054 195.70166517682557 L 489.32293714686335 193.0901346794847 L 496.72412026978316 190.05327966466965 L 503.9456279953427 186.61092201769517 L 510.967464705079 182.7776715403849 L 517.7684344068479 178.56497512174488 L 524.3262293603154 173.98290950149507 L 530.6178620400977 169.04171954130376 L 536.6203897649883 163.75308447052032 L 542.311875996104 158.1310755341151 L 547.6725105151153 152.192759480419 L 552.6857817260003 145.9584101345681" fill="none" stroke="#5B8AEF" stroke-width="0.9443328379859837" opacity="0.1260791788092252" stroke-linecap="round"/><path d="M 753.0120456372445 336.72551258314655 L 747.888198217123 330.5817199747234 L 742.0494516087466 325.11280435614105 L 735.6703665925705 320.28504355465157 L 728.8966878983911 316.02860408626736 L 721.8415532347618 312.25698972659893 L 714.5889372742587 308.88066602626225 L 707.199761532515 305.814710733433 L 699.7180324313283 302.9820918645317 L 692.1759570063438 300.31430283916933 L 684.5978592335373 297.75062693418715 L 677.0030756402974 295.23681266661407" fill="none" stroke="#5B8AEF" stroke-width="0.4407592237651158" opacity="0.10060121573535782" stroke-linecap="round"/><path d="M 210.41073045246802 586.5733573150696 L 209.11141670231586 578.679575979191 L 208.35546294089255 570.7153726975946 L 208.14877708451294 562.7180430834813 L 208.49281248404117 554.7254440291141 L 209.38532287255066 546.7753858402451 L 210.82103912316524 538.9052702853297 L 212.7921850803866 531.1519107802294 L 215.28878684464857 523.5514516078712 L 218.29876848746142 516.1392987148225 L 221.80786242771418 508.9499830506942 L 225.79939172243158 502.01689615599764 L 230.25400232906853 495.37186460278156 L 235.14943398081948 489.0445627336564 L 240.46041649221053 483.06179876006536 L 246.15876245956096 477.4467428176565 L 252.2136977989051 472.21819062451914 L 258.5924320245333 467.3899663465057 L 265.26092781977974 462.970558713261 L 272.1847936151499 458.96305544467805 L 279.3302021239798 455.3653982567374 L 286.6647367450256 452.17093399920054" fill="none" stroke="#d79f1e" stroke-width="0.3523277405893094" opacity="0.07566901632382954" stroke-linecap="round"/><path d="M 408.50412678369514 264.42942678203315 L 410.6319875779565 256.7176041414218 L 414.245301168708 249.58010003319947 L 419.02991411970254 243.1685885960128 L 424.6683736911898 237.4933992898571 L 430.89558316781915 232.47126208203636 L 437.51367843382684 227.97673039897455 L 444.38341805957594 223.87713560504525 L 451.4086883465193 220.05018154268825 L 458.5223672195681 216.39018524608645" fill="none" stroke="#5B8AEF" stroke-width="0.9633851851631818" opacity="0.07661665332346068" stroke-linecap="round"/><path d="M 1072.21055639545 121.41066916352634 L 1079.1995241802326 117.51781297516396 L 1086.40276849175 114.03740044378308 L 1093.8511494939526 111.11821897528378 L 1101.5471902850356 108.93396712579721 L 1109.4478278353058 107.67701593372121 L 1117.4466796229196 107.54147966630393 L 1125.3633968730794 108.6928214839342 L 1132.9512618817603 111.22744268049127 L 1139.9313955273656 115.1361169172996 L 1146.0483672751925 120.29195405944112 L 1151.1244063148001 126.47530490411907 L 1155.0858288618776 133.42563809062935 L 1157.9532376121476 140.89410293013117 L 1159.8091582502182 148.67584814474623 L 1160.7631904642055 156.61875835037452 L 1160.9266413028915 164.6170884150401 L 1160.3986578223146 172.59964649151144 L 1159.2609179753142 180.51832997050892 L 1157.5772632514638 188.3391551680732 L 1155.3956588695453 196.0359468581733 L 1152.7509901794201 203.5861605981592" fill="none" stroke="#5B8AEF" stroke-width="0.8415352544475045" opacity="0.19560747121256195" stroke-linecap="round"/><path d="M 1174.5322488129755 181.75289983942776 L 1170.7532558062192 188.80408497774928 L 1166.9243545197317 195.82829418151977 L 1162.993201165559 202.79579253501635 L 1158.9154559725553 209.67852412508546 L 1154.6535869701215 216.44878797563769 L 1150.1761025692986 223.0784284968415 L 1145.4571693974144 229.53843389306928 L 1140.4765458196264 235.79889623832636 L 1135.219741210865 241.82931954894946 L 1129.6782910860559 247.59927019988666 L 1123.8500206137603 253.07934896772994" fill="none" stroke="#5B8AEF" stroke-width="0.32660476268576677" opacity="0.1515621262470084" stroke-linecap="round"/><path d="M 1119.3696895238802 423.185913927474 L 1125.907016718392 418.57469357360935 L 1131.630039903482 412.9847914615038 L 1136.3783263527248 406.54633079175227 L 1140.0440940572066 399.435624277152 L 1142.5785925040277 391.8477182667258 L 1143.9841016504738 383.97215199887836 L 1144.2982319959294 375.9783217451099 L 1143.5779930647848 368.01080921722115 L 1141.888115133915 360.19132633286364 L 1139.294723379764 352.62334646968344" fill="none" stroke="#5B8AEF" stroke-width="0.40373254274191916" opacity="0.08963040121348129" stroke-linecap="round"/><path d="M 349.26879515371695 480.3200742603839 L 353.8278728963213 473.74627702158125 L 359.368052000124 467.97510595343675 L 365.7153508368979 463.10562985464657 L 372.68301651396865 459.1747730762113 L 380.0955645303973 456.16576461757586 L 387.8037062891897 454.0246082416048 L 395.6895060240673 452.67769972897185 L 403.6645321568307 452.0460683635849 L 411.66452744767093 452.0547486017586 L 419.643253464067 452.637784754398 L 427.5669439949584 453.74011336722714 L 435.4098858418619 455.3175363244869 L 443.1511449823849 457.3356807492666 L 450.77225621078634 459.76851112648853 L 458.25565719032033 462.5967101611233 L 465.5836793304131 465.8060857256702" fill="none" stroke="#5B8AEF" stroke-width="0.7704721896306017" opacity="0.14446137517898408" stroke-linecap="round"/><path d="M 39.13668228273126 85.10956293209901 L 39.17317045495744 77.1096461442013 L 39.372195368590134 69.11212220964796 L 39.7570749885889 61.12138584319777 L 40.35762249048302 53.14395877064056 L 41.21139636516997 45.189647350353944 L 42.36505506470905 37.273267394529576 L 43.87567723189408 29.417185631461603 L 45.81176007821503 21.65499630033976" fill="none" stroke="#5B8AEF" stroke-width="0.6268304088743546" opacity="0.17777932976269134" stroke-linecap="round"/><path d="M 358.02292691451635 245.66632613803554 L 364.5360573603368 241.0209917264214 L 371.54508752871385 237.16437454308823 L 378.86322247040596 233.9325173409233 L 386.37025393115954 231.1676523085473 L 393.9908601979911 228.73324064945442 L 401.6777530983379 226.5170101698794 L 409.40039830268955 224.42876903253335 L 417.1379844344027 222.396587728043 L 424.87518158666296 220.3629259501025 L 432.5996046696117 218.28127083082646 L 440.3002794250766 216.11341283027716 L 447.9666849694821 213.8273187751891 L 455.5881232605485 211.39551319589884 L 463.153273055193 208.79387744418588 L 470.6498498279835 206.00079013984717" fill="none" stroke="#5B8AEF" stroke-width="0.9850903249741954" opacity="0.1630225436310389" stroke-linecap="round"/><path d="M 1069.6377619493928 100.93254172286602 L 1075.0897702457173 95.07800454757975 L 1080.6717892784466 89.3472922429663 L 1086.4561849983904 83.82092217255882 L 1092.517358466955 78.59960278145024 L 1098.9252689949171 73.81016829858757 L 1105.7345874976568 69.61098009987008 L 1112.9682062749769 66.19414539734169 L 1120.5952366614729 63.77993590281458 L 1128.5073419533624 62.59731599343805 L 1136.5034686316747 62.84622992310554 L 1144.2984222035461 64.64586844580103 L 1151.5668850837867 67.98794076078262" fill="none" stroke="#5B8AEF" stroke-width="0.6410097164758526" opacity="0.10542629122986752" stroke-linecap="round"/><path d="M 225.4572144828072 429.7019062702087 L 232.45902528078682 433.5716149865459 L 239.939448032927 436.40768188442814 L 247.70277322520903 438.3392051068822 L 255.61434579791248 439.52538360392504 L 263.59160992846586 440.1280916521429 L 271.5898499147079 440.2958924938549 L 279.5886479544611 440.15722050951786 L 287.5815031166868 439.8191874405997 L 295.5688360566846 439.3691735456735 L 303.5537109229108 438.87746898935063 L 311.53945455557033 438.4000816901503 L 319.52848771649633 437.9813345664288 L 327.52187517665016 437.65613168843515 L 335.51926745822885 437.4518850371888 L 343.5190291280378 437.39013371124753 L 351.5184317627337 437.4878961172113 L 359.51384387881023 437.7587929501504" fill="none" stroke="#d79f1e" stroke-width="0.8484700239023519" opacity="0.10143844720974493" stroke-linecap="round"/><path d="M 803.5375902445695 128.13962024084273 L 811.2572840410719 126.04049478288593 L 818.5683033368341 122.79257285386846 L 825.2733147856165 118.4287647151327 L 831.1846018845183 113.03833942260175 L 836.149360770218 106.76528839404584 L 840.072985457199 99.79354762751467 L 842.9319150347039 92.32183285305575 L 844.7713885695681 84.53618341870961 L 845.6902266484808 76.5891250582381 L 845.8196658714421 68.59017228380823 L 845.3034843912138 60.606842359555486 L 844.2835308499863 52.67212782318196 L 842.8913403677504 44.79419626336425 L 841.2445479014542 36.965526224784895" fill="none" stroke="#5B8AEF" stroke-width="0.6929953278941081" opacity="0.09219901078017383" stroke-linecap="round"/><path d="M 408.7138744111703 227.04361426972022 L 416.3111052128059 224.53720565445428 L 423.94398957334545 222.14156871647089 L 431.58921100062804 219.78559984404933 L 439.22894304380475 217.4118908668453 L 446.8482973050013 214.97356343961468 L 454.43374412013657 212.4317143853327 L 461.9721020837138 209.7534389676485 L 469.44985957540626 206.91035210730863 L 476.85269418733964 203.87752509141052 L 484.1651185062531 200.63276769213354 L 491.3702194890318 197.1562004444075 L 498.449483755618 193.4300741121644 L 505.38271815771 189.43880104136994 L 512.1480866167136 185.169165270731 L 518.7222910261409 180.61067468907274 L 525.0809250897285 175.7560096290111 L 531.199023586449 170.60150957717045 L 537.0518139951006 165.1476261504372 L 542.6156521330538 159.3992607154063 L 547.8690904392757 153.36590460435838 L 552.7939922172063 147.06151387426118" fill="none" stroke="#5B8AEF" stroke-width="0.5191456307746216" opacity="0.07608724641431461" stroke-linecap="round"/><path d="M 1170.9246435998589 465.24249141348645 L 1175.967160173932 459.0317727271992 L 1179.9841727753437 452.11341961680523 L 1183.0036689047552 444.7051375538389 L 1185.1011509301409 436.98499706592133 L 1186.371246591193 429.0864619478266 L 1186.9078642533455 421.10447964487287 L 1186.7934885124153 413.1052972997899 L 1186.095048283399 405.1358442918043 L 1184.8635743227926 397.23119554031956 L 1183.1356908747453 389.420022850514 L 1180.935834878603 381.72842785362053" fill="none" stroke="#5B8AEF" stroke-width="0.4997772053814387" opacity="0.11945230921704895" stroke-linecap="round"/><path d="M 83.23626876028081 475.98452701977664 L 81.68462729135933 483.83261014573316 L 80.3994899445503 491.7287118421297 L 79.3905363167101 499.66483259328186 L 78.67328257523818 507.63261440946786 L 78.27015647650644 515.6224510378678 L 78.21171849602817 523.6222375976729 L 78.53798456801024 531.6155817320308 L 79.2997231376705 539.579233805765 L 80.55945068474873 547.4794291519025" fill="none" stroke="#5B8AEF" stroke-width="0.5590115350945907" opacity="0.18028591224005722" stroke-linecap="round"/><path d="M 610.3055021773583 502.28754743108874 L 602.3056482293832 502.23920685736556 L 594.4582792121918 503.79445587537623 L 587.0816753292742 506.89053648713775 L 580.4511657063231 511.3667337727758 L 574.7602839712032 516.9893546097946 L 570.0997952479671 523.491649963021 L 566.4608048773566 530.616097245625 L 563.757902756496 538.1456603222615 L 561.8608191770247 545.9174731025914 L 560.6232389557787 553.8211681369396 L 559.9028974074903 561.788671387884 L 559.5725642106496 569.7818484770686 L 559.5242696543539 577.7817027029799 L 559.6694997697431 585.7803843577018 L 559.9374103444377 593.775897094479 L 560.2723034989046 601.7688844318324 L 560.6310157905904 609.760838228733 L 560.9805106484606 617.7532004167423 L 561.2957806766213 625.7469858034876 L 561.5580764834094 633.7426847041305 L 561.7534407152042 641.740298899435" fill="none" stroke="#5B8AEF" stroke-width="0.47950010568811563" opacity="0.1780776707632829" stroke-linecap="round"/><path d="M 87.41445023911746 187.33258442363356 L 91.02038400845639 180.19134912075066 L 95.58052345846265 173.61828832714036 L 101.08861809358928 167.8164874437517 L 107.47531207550523 162.99879712770206 L 114.59690903254877 159.35423175149762 L 122.244703405645 157.00662845731915 L 130.1788550589805 155.98230548975792 L 138.1757853710945 156.20390328575888 L 146.06781468143424 157.5138167808945 L 153.75946769206328 159.7134699272067 L 161.220679365834 162.59969936354528 L 168.46784438007253 165.9877075182576 L 175.54365239204128 169.7203930096644 L 182.5013642076404 173.6688416026022 L 189.3946034233496 177.72879888255096" fill="none" stroke="#5B8AEF" stroke-width="0.5197432861755338" opacity="0.10440045546945206" stroke-linecap="round"/><path d="M 638.1161282947828 208.88412520703122 L 630.4927262490658 206.45848276648948 L 623.2130280478375 203.1409544547739 L 616.3809610259661 198.97888042748204 L 610.0942721574295 194.0314019717213 L 604.4394815535428 188.37248482917585 L 599.4848235431094 182.09145274840697 L 595.2729523595439 175.2899719439755 L 591.8157019976196 168.0755821613969 L 589.0928144352371 160.55322326789664 L 587.0552711685673 152.81704737560665" fill="none" stroke="#5B8AEF" stroke-width="0.8060577618452058" opacity="0.06367040876470059" stroke-linecap="round"/><path d="M 769.2049985608108 214.20540577462197 L 768.5380097142045 222.17755265476052 L 766.679664000217 229.95871909735152 L 763.5985078826055 237.3415692908002 L 759.3517309626608 244.12131012598152 L 754.0764425771365 250.13557088267908 L 747.9591577806059 255.29103659570015 L 741.1977372651944 259.56692160511903 L 733.9714115457203 262.9991536188482 L 726.4258274088155 265.6570023791975 L 718.6709508650648 267.6221715299796 L 710.7860895060658 268.9745625050174" fill="none" stroke="#d79f1e" stroke-width="1.0027072861337603" opacity="0.13400981577765653" stroke-linecap="round"/><path d="M 2.037075162882486 318.56113128297085 L -5.1269915384420965 315.00077339380124 L -12.283615704771462 311.42547892454274 L -19.461382555211443 307.8928222697396 L -26.687392592414298 304.45992568780713 L -33.98520824634642 301.18244392870866 L -41.37305802319644 298.11329491396583 L -48.862470117842264 295.3010526632746 L -56.45751514163421 292.7880283723906 L -64.15480955633281 290.6081984034596 L -71.94434723527762 288.7852604592884 L -79.81108806131851 287.3311666604221 L -87.73707269744408 286.2454560415639 L -95.7037082208832 285.51558041059803 L -103.69383373701169 285.1182213330465" fill="none" stroke="#5B8AEF" stroke-width="0.7566233711580855" opacity="0.13729754918129072" stroke-linecap="round"/><path d="M 103.49858091375724 350.3247087590046 L 95.53570572577745 351.094526101402 L 87.5540739042888 351.63633184721857 L 79.55858032257409 351.9048134755638 L 71.55872382976047 351.8568958964536 L 63.56885419831788 351.45442444087996 L 55.60769777923138 350.66703097453814 L 47.69702929577761 349.4748379763658 L 39.859532221227525 347.870581261741 L 32.11610711414521 345.86076345631506 L 24.4830712054082 343.46560942871446" fill="none" stroke="#d79f1e" stroke-width="0.4771714822282882" opacity="0.163017255013351" stroke-linecap="round"/><path d="M 181.65271625931035 118.60108511457271 L 182.78225516420545 126.52094255409322 L 184.66015702433367 134.29741248612066 L 187.22452467882732 141.875276204385 L 190.41831086080705 149.21010611541874 L 194.1895005703095 156.2654677769456 L 198.49044314720112 163.01097687191248 L 203.27683605952527 169.42115962194802 L 208.50670359142808 175.47495889172473 L 214.13958207710422 181.15568771517746 L 220.1360196887694 186.45122696717127 L 226.4574170318935 191.35428067178677" fill="none" stroke="#5B8AEF" stroke-width="0.32068878226945585" opacity="0.15777614211560048" stroke-linecap="round"/><path d="M 774.5454041168771 92.30349617651827 L 782.452899956843 91.09043824677178 L 790.0300814443889 88.52405544118882 L 797.041506356878 84.67179367742897 L 803.2859949353124 79.67115747852361 L 808.6246369026671 73.71306198210874 L 812.996670551344 67.01341111248598 L 816.4182626125031 59.78204141048535 L 818.9667588556848 52.198825278889956 L 820.7582115173811 44.401986345007764 L 821.9260279931934 36.487682542472676 L 822.605137397476 28.516559007047135 L 822.9224417183185 20.522854110819438 L 822.9922800205874 12.523158953406487 L 822.9151317475392 4.523530953057615 L 822.7780817203644 -3.475295041427537 L 822.656068860988 -11.474364541197293" fill="none" stroke="#5B8AEF" stroke-width="0.5270518851592447" opacity="0.1554292695948059" stroke-linecap="round"/><path d="M 91.55080713869576 147.2077900297976 L 98.05712484285345 142.55291839541667 L 105.2930892914288 139.1410540225329 L 113.03337760954824 137.11918935040876 L 121.01130145471744 136.52527763922544 L 128.97589458812323 137.27711287337277 L 136.74166619584798 139.19877656316245 L 144.20935776276795 142.068198571399 L 151.35710625495668 145.66120448461618 L 158.21646883096003 149.77813842274594 L 164.84770425108073 154.2532604102382 L 171.32127669337697 158.95356463808798 L 177.70643380273407 163.77329167276812 L 184.06516046542188 168.62783544424892 L 190.44952664342284 173.44861012319808 L 196.90095704441396 178.17925973833212 L 203.4505171083651 182.77308853016757" fill="none" stroke="#d79f1e" stroke-width="0.8307263764230193" opacity="0.1622046098123326" stroke-linecap="round"/>
</svg>