<svg xmlns="http://www.w3.org/2000/svg" viewBox="0 0 1200 600" width="1200" height="600">
  <defs>
    <radialGradient id="glow-524822660" cx="36.71081638276149%" cy="58.690945072421314%" r="50%">
      <stop offset="0%" stop-color="#5B8AEF" stop-opacity="0.15"/>
      <stop offset="100%" stop-color="#050507" stop-opacity="0"/>
    </radialGradient>
    <radialGradient id="glow2-524822660" cx="56.53537413875357%" cy="60.03315003124678%" r="40%">
      <stop offset="0%" stop-color="#d79f1e" stop-opacity="0.08"/>
      <stop offset="100%" stop-color="#050507" stop-opacity="0"/>
    </radialGradient>
    <filter id="blur-524822660">
      <feGaussianBlur stdDeviation="2"/>
    </filter>
  </defs>
  <rect width="1200" height="600" fill="#050507"/>
  <rect width="1200" height="600" fill="url(#glow-524822660)"/>
  <rect width="1200" height="600" fill="url(#glow2-524822660)"/>
  <path d="M 125.4652524951218 147.2493427559963 L 123.05230932749541 154.87677386153933 L 121.73109872825013 162.76691977606094 L 121.40681948119095 170.7603447597539 L 121.97645858765605 178.74003844362335 L 123.34334648079815 186.62239960558375 L 125.42368844735067 194.34717645039942 L 128.1478767077145 201.86906439971744 L 131.4590175681895 209.15167012858214 L 135.31026985262955 216.16364958103316 L 139.66189938965482 222.87657147633993 L 144.47852520551797 229.26406830608167 L 149.72680487414038 235.30191233519707 L 155.37369275736424 240.9687154228559 L 161.38533957399875 246.2469824255802 L 167.72664536654474 251.12426044158693 L 174.36141456260202 255.5941416161876 L 181.25299449244068 259.6569148156962 L 188.36522260729143 263.3197294768996" fill="none" stroke="#5B8AEF" stroke-width="0.689582417341686" opacity="0.14685120348206313" stroke-linecap="round"/><path d="M 767.532392576119 558.4610134169743 L 759.7110517001257 560.1422709527242 L 752.2842340159057 563.1158847617714 L 745.4211554965974 567.2266210994378 L 739.2296379932308 572.2926956158168 L 733.7586571061245 578.129507085525 L 729.0089036380168 584.566885588627 L 724.9466577757844 591.4587763708996 L 721.517326205124 598.6864789781237 L 718.6565708703603 606.1574949006485 L 716.2983391266348 613.8020186296251 L 714.3799921119715 621.5686102071019 L 712.8451341263835 629.4199929492739 L 711.6448221038111 637.3294335773126 L 710.7377423986975 645.2778426262086" fill="none" stroke="#5B8AEF" stroke-width="0.30706905536682766" opacity="0.10403172708304215" stroke-linecap="round"/><path d="M 614.4203254088854 281.2045735685176 L 620.0843665275711 275.55491533054976 L 625.6230238509391 269.78228377689067 L 630.9802583715949 263.84090024351275 L 636.0989876465229 257.6928427771259 L 640.9215286048337 251.3098106837228 L 645.3910469523453 244.67479706344605 L 649.4540465936396 237.78335063219217 L 653.0637324972502 230.64401118954933" fill="none" stroke="#5B8AEF" stroke-width="1.0158744636531336" opacity="0.16007409282032126" stroke-linecap="round"/><path d="M 753.1659273212617 429.8702442226327 L 756.4161047325998 437.1802611032444 L 758.4714267000062 444.9117326068003 L 759.3621105167342 452.8619956426136 L 759.1950257020567 460.86025061883834 L 758.1273985618426 468.78869134129303 L 756.3362561572296 476.5856015553712 L 753.9943935427825 484.2351557577451 L 751.2566700005164 491.7521278746364 L 748.2549785311849 499.1676419042194 L 745.0984319540712 506.5185747502269 L 741.8758496211087 513.8407986683599 L 738.6587972207562 521.1654538720801 L 735.5043795961859 528.5173005414415" fill="none" stroke="#5B8AEF" stroke-width="0.8466576541525579" opacity="0.09928932379898117" stroke-linecap="round"/><path d="M 712.7900130640669 130.87478388607258 L 705.0238690023875 128.95462597245128 L 697.6767346632629 125.78924811145966 L 690.8944691547999 121.54650435620957 L 684.7666045153827 116.40361849698817 L 679.332872329299 110.53211489655347 L 674.5924492129606 104.08786252113522 L 670.5141790959316 97.2054419547539 L 667.0465672534434 89.9960267142621" fill="none" stroke="#d79f1e" stroke-width="0.8076103905716958" opacity="0.15953881310277565" stroke-linecap="round"/><path d="M 311.75150774035205 203.7952960486502 L 305.6515511830543 208.97125296491993 L 300.3465531134443 214.95932406348194 L 296.1199666282416 221.75167024746742 L 293.27927716240515 229.23033880267732 L 292.0990067732996 237.14279492000276 L 292.7434309813573 245.11679751845162 L 295.2025937987337 252.72945265563163 L 299.28365121035125 259.61022081064755 L 304.66981815960486 265.5253882296449 L 311.01188980582344 270.4016703414827 L 318.00208199786357 274.29232749912865 L 325.406632508474 277.3209627917678 L 333.0650643529018 279.63362828514414 L 340.8743873923153 281.36985225286395 L 348.77133990100316 282.6497511064961 L 356.71813351845896 283.5708760717228 L 364.69258439146176 284.2097291644322" fill="none" stroke="#5B8AEF" stroke-width="0.5311339524719556" opacity="0.06242639664673544" stroke-linecap="round"/><path d="M 1002.5087942380965 582.6523798437102 L 1004.7073785736278 574.9604212557069 L 1006.3107948314189 567.1227521950582 L 1007.2740001143151 559.1809491514791 L 1007.5608932889859 551.1860950373425 L 1007.1456516083863 543.1968789089171 L 1006.0136368331152 535.2773749756794 L 1004.1618464940337 527.4946458566567 L 1001.5989312887222 519.916290781155" fill="none" stroke="#5B8AEF" stroke-width="0.4942258139114016" opacity="0.17363800734916612" stroke-linecap="round"/><path d="M 529.8816133895338 260.13811894698915 L 537.8655281034823 259.63106289447194 L 545.8114704825806 258.7026235006235 L 553.7013798114834 257.38000081002264 L 561.5185229105255 255.67933218589303 L 569.2456089800497 253.60758392074007 L 576.8633621935293 251.1642591411574 L 584.3493777332625 248.342987913701 L 591.6771767977073 245.13310304487442 L 598.815453299032 241.52131559395292 L 605.7275768733297 237.49359319864837 L 612.3714854181857 233.03730783440272 L 618.7001583417922 228.14364877128747 L 624.6628893154025 222.81018466844137 L 630.2075428212682 217.04331224919275 L 635.2838478304304 210.8601797539315 L 639.8475404529352 204.2895854393131 L 643.8648532933092 197.3714066657799 L 647.3165708792006 190.15436809672346 L 650.2007788080908 182.69237475560294 L 652.5336373119791 175.04006979560322 L 654.3479783829579 167.248525245377" fill="none" stroke="#5B8AEF" stroke-width="0.9145154322565141" opacity="0.0831967358957961" stroke-linecap="round"/><path d="M 241.30490284473862 405.75105576112446 L 233.6855754337589 408.1894670890783 L 226.1255298193086 410.8058979227581 L 218.6250845180026 413.588580132806 L 211.18177627649965 416.5206719495767 L 203.78964616680622 419.5794972864281 L 196.43857322123893 422.73571758117123 L 189.11374951493715 425.9523863038717 L 181.79542692500053 429.1838185667582 L 174.45911655896003 432.3742025895878 L 167.07649316872772 435.4559021008956 L 159.61735086241646 438.34747538445555 L 152.05306017665208 440.9516079504472 L 144.36204044170708 443.1534743034956 L 136.5376650360996 444.8205524396743 L 128.59853826336834 445.80557329554574 L 120.5999306685363 445.95482658326614 L 112.64321223782669 445.1237839764126 L 104.87798564638993 443.1999191205447 L 97.49120000638555 440.12820983927713" fill="none" stroke="#5B8AEF" stroke-width="0.964965251025262" opacity="0.07181033908008147" stroke-linecap="round"/><path d="M 106.4609723661379 44.78127883969866 L 101.4134781574251 50.98795284539695 L 97.39609864199339 57.90609290100363 L 94.34414869525195 65.30106426826293 L 92.14964124075246 72.99418697832978 L 90.69276826715746 80.86041359207594 L 89.86109869918266 88.8170665146122 L 89.55838236953025 96.8113371394886 L 89.70683708218682 104.80995959578006 L 90.24613434294227 112.79176130119355 L 91.13108034484974 120.74266505949096 L 92.32903230386245 128.65246348321185 L 93.81751020465242 136.51277095422466 L 95.58215873146361 144.31572011315316" fill="none" stroke="#5B8AEF" stroke-width="0.8203877209315018" opacity="0.10159642219617797" stroke-linecap="round"/><path d="M 834.6385436293848 485.00138953561026 L 826.6572357528288 484.4548325123965 L 818.664080723204 484.785699060092 L 810.7449518557577 485.9203346759521 L 802.9659218425809 487.7876032838644 L 795.3781613019802 490.32253720381254 L 788.0222467642999 493.46745712558214 L 780.9314240424299 497.17154043012744 L 774.1337812956286 501.38960314740194 L 767.6534762102704 506.08062073430983 L 761.5112286515994 511.20632019174974 L 755.7243011623355 516.7300390689195 L 750.3061792826995 522.6159506633464 L 745.2661437699009 528.8286829149189 L 740.6088981429505 535.3333015179003 L 736.3343757397016 542.0955835457459 L 732.4378014697941 549.0824790622893 L 728.9100299394191 556.2626481431311 L 725.7381320371126 563.6069700108969" fill="none" stroke="#5B8AEF" stroke-width="0.49238254697638684" opacity="0.09151387320436252" stroke-linecap="round"/><path d="M 860.2005482000302 495.30679895324016 L 853.3156879611364 491.23264879757585 L 845.9207383795542 488.1806460639831 L 838.1827350687777 486.15005384435557 L 830.2516206632339 485.10247363922724 L 822.2526199259065 484.9760331226373 L 814.2852923754743 485.6983154110293 L 806.4266883103197 487.1957606177517 L 798.7361235872255 489.3992156864787 L 791.2599130738745 492.24636801118123 L 784.035244260029 495.68208635386435 L 777.0929461630659 499.6575733847704 L 770.4592132396969 504.12899234315586 L 764.1564719784778 509.05600488567364" fill="none" stroke="#d79f1e" stroke-width="0.8243666025457748" opacity="0.12507001631197986" stroke-linecap="round"/><path d="M 344.2334802561595 166.05133263676024 L 336.3836475543938 164.50856675877029 L 328.634689107482 162.5201897854489 L 321.0204334655983 160.06598705950276 L 313.5798769740797 157.1269193337569 L 306.35738327924474 153.68663085340097 L 299.4025234036071 149.73316097110188 L 292.76946233341647 145.26074542252843 L 286.51583444663584 140.27154325648226 L 280.70111129932815 134.7770919899622 L 275.3845422900095 128.79929189551672 L 270.6228234468707 122.37075911898854 L 266.46770003846984 115.53446264641224 L 262.96371830609013 108.34265397131878" fill="none" stroke="#5B8AEF" stroke-width="1.077367217455696" opacity="0.15911679890896976" stroke-linecap="round"/><path d="M 616.2356668227519 536.4261449949938 L 619.1665005675553 528.9823412925631 L 622.735407918279 521.8225298200485 L 627.0120600122647 515.0615944656018 L 632.0453347292122 508.84338365993295 L 637.8501385936644 503.33845386063115 L 644.3938916751865 498.7363569898482 L 651.5854414513598 495.2318439256948 L 659.2694880343756 493.00576483679373 L 667.2290894136148 492.20280413812037 L 675.1978527815328 492.90906923433346" fill="none" stroke="#5B8AEF" stroke-width="0.43094339637595386" opacity="0.0915548827925487" stroke-linecap="round"/><path d="M 1148.4943359850415 372.1524502952362 L 1156.475272535452 372.70440299096424 L 1164.4743913458706 372.8231390714404 L 1172.4652311200746 372.440412402656 L 1180.4094087163996 371.4969918611963 L 1188.258130926854 369.94858633836964 L 1195.9561059325927 367.7711610673166 L 1203.447548213002 364.9643314395521 L 1210.6831893591543 361.551781483272 L 1217.6267119338875 357.5784334927013 L 1224.2591418649943 353.10508204116536 L 1230.5804458288785 348.20190794715427 L 1236.608497940186 342.9423844189855 L 1242.376245988551 337.3986417797047 L 1247.9281020754333 331.6387030655734 L 1253.3163876955985 325.7254655364764 L 1258.5983023536112 319.71702334690104 L 1263.833545784142 313.6678724789622" fill="none" stroke="#5B8AEF" stroke-width="0.4699374594585679" opacity="0.11569523050249333" stroke-linecap="round"/><path d="M 208.3216802255817 431.2397756759263 L 202.25953071591044 436.4599618145992 L 196.52321230305483 442.03621961587896 L 191.143358355889 447.95712930165905 L 186.14990039325775 454.20735950345437 L 181.57212487188343 460.7681499494224 L 177.439033308551 467.6177889274351 L 173.77999828849485 474.73196229628144 L 170.62566860743604 482.0838466984733 L 168.00903737052388 489.64382295306666 L 165.9665443068596 497.3786934810641 L 164.5390309477889 505.2503010430348 L 163.77229627652673 513.2134736484657 L 163.71690617274518 521.2132818921926 L 164.42680045576205 529.18172277526 L 165.9561525713036 537.0341798497487 L 168.35395247526364 544.6663850108125 L 171.65604501626675 551.9530979083165 L 175.87503226426668 558.750166879661 L 180.98960547517737 564.9016822108811" fill="none" stroke="#5B8AEF" stroke-width="0.4724616349546526" opacity="0.07891058373214238" stroke-linecap="round"/><path d="M 244.04802426884325 57.5719432242084 L 244.76840484752827 49.60444350209649 L 246.0421621053179 41.70649804468617 L 247.83399630726598 33.909746785813724 L 250.10303471089009 26.23827595403192 L 252.80364972936206 18.70789226380713 L 255.88632479598905 11.32567617149472 L 259.298484850297 4.08985114847313 L 262.9851955823157 -3.0100195530550184 L 266.8896383686933 -9.99252100510672 L 270.95328486993657 -16.883586025329144 L 275.115722478619 -23.71543154128062 L 279.31411503561145 -30.52524063826639 L 283.48232051751364 -37.353568622527284 L 287.5497303553316 -44.24241302570711 L 291.4399488315269 -51.23284936455379 L 295.0695028521791 -58.362108625596804 L 298.3468683065756 -65.65997651137883 L 301.1722180265873 -73.14445371153313" fill="none" stroke="#d79f1e" stroke-width="1.0432268514964855" opacity="0.17095317812215222" stroke-linecap="round"/><path d="M 320.5396521466503 254.9668143759327 L 325.02279974202276 261.5926266007174 L 330.74160727884896 267.1868415015538 L 337.33777190877146 271.7134972400609 L 344.5100264667299 275.2573319647404 L 352.03916295394674 277.9614221549633 L 359.7803136818841 279.9799823862558 L 367.64352803918655 281.4530268428532 L 375.57511205614156 282.4970455122189" fill="none" stroke="#5B8AEF" stroke-width="0.326717530948444" opacity="0.09725975341035972" stroke-linecap="round"/><path d="M 362.3139757487522 305.495204639386 L 368.95511550586184 301.03479403871944 L 376.1269614656889 297.49013248526865 L 383.62108730251725 294.6904757309893 L 391.30623846992137 292.4682130250638 L 399.10360502853445 290.6790582663517 L 406.96692328998677 289.2065685655014 L 414.8691661399119 287.9597494363544 L 422.79439181360453 286.868512513847 L 430.73296789573203 285.87906327903346 L 438.6788302424365 284.9499391930127 L 446.62791912101187 284.04883653487144 L 454.57728161575716 283.1501508683911 L 462.5245462577646 282.233098683454 L 470.467603261884 281.2802894531723" fill="none" stroke="#5B8AEF" stroke-width="0.5119672437254187" opacity="0.08549158649774807" stroke-linecap="round"/><path d="M 200.1979396679429 563.3859995582076 L 207.52400716891606 566.5998344903696 L 215.22979253276685 568.7494558352262 L 223.1504887374779 569.8730979636088 L 231.1483821301254 570.0566770469627 L 239.12281638834102 569.4176165948948 L 247.0116040167796 568.0883198810665 L 254.78628647309998 566.2030313876566 L 262.44442666969456 563.8894003173901 L 270.0014574846591 561.2642745562738 L 277.4835041122998 558.432494504467 L 284.921689954995 555.4874323031664 L 292.3479070926474 552.5123190239051 L 299.7918136940113 549.5817466378052" fill="none" stroke="#5B8AEF" stroke-width="0.3944631420515772" opacity="0.1324041489290093" stroke-linecap="round"/><path d="M 663.0426912862075 279.2562236447149 L 667.063783298607 272.3402407769066 L 670.6441679239339 265.1861618051086 L 673.7237802825551 257.80266752931834 L 676.2544016573773 250.21346760723873 L 678.2048843481258 242.45488414934573 L 679.5651857194375 234.5713836464468 L 680.3480993671011 226.60978542622104 L 680.5881247958948 218.61338699983355 L 680.3377321194904 210.61730649075892 L 679.6619704941214 202.6458984453959 L 678.6326333783608 194.71239574468936 L 677.3230002180593 186.82031990968633 L 675.8037300899057 178.96590597370738 L 674.140042516526 171.14080893544758" fill="none" stroke="#5B8AEF" stroke-width="0.8811887900257431" opacity="0.12598689284454423" stroke-linecap="round"/><path d="M 59.990943996231515 133.89787233150466 L 66.59320594612308 138.41563030919824 L 72.57877974227573 143.7234458985731 L 78.01791893498864 149.58994100572986 L 83.01656042670515 155.83602643880633 L 87.68900760027934 162.32973396302995 L 92.14318386308584 168.9750566654915 L 96.47458861358459 175.70104602671987 L 100.76500347589142 182.4532560582056 L 105.08332294353258 189.18765409926252 L 109.4870734191916 195.86649993878697 L 114.02393421468912 202.45564966559374 L 118.73298060870282 208.92286560902926 L 123.64557355932641 215.23685250333648 L 128.78592106126592 221.36684659463086 L 134.17138702793915 227.2826522305358 L 139.8126510705935 232.95505383841365 L 145.71383614470915 238.3565364794146 L 151.87272130497388 243.46223266922757" fill="none" stroke="#5B8AEF" stroke-width="0.5301455722330816" opacity="0.1797608303370703" stroke-linecap="round"/><path d="M 84.948782103578 467.0904074176636 L 77.90301985439739 463.3013132873969 L 71.617741924647 458.3520424980995 L 66.23196072507119 452.43652385048324 L 61.797928851598996 445.77774308032474 L 58.293094268511105 438.5863499923903 L 55.6471284829037 431.03659072063897 L 53.76913717635294 423.260142389137 L 52.56717581183643 415.35095223601706 L 51.95915837295448 407.3740910241107 L 51.87743422091286 399.3745084623158 L 52.26965452847639 391.38412904514576 L 53.09782957036217 383.42711163282365 L 54.33668734004794 375.52361674597205 L 55.9718825820258 367.69251615150813 L 57.99827067322575 359.95341082183063 L 60.41827841012784 352.32821819781554 L 63.24030900062337 344.8424888848957 L 66.47707194782656 337.526522398941 L 70.14371216542199 330.41626575696864 L 74.2556244976605 323.5538917528805 L 78.82588866285222 316.9878666645668 L 83.86235931678296 310.77224414127164" fill="none" stroke="#5B8AEF" stroke-width="0.9648851777729044" opacity="0.12857002171155532" stroke-linecap="round"/><path d="M 487.77424380545233 410.85781911893645 L 480.3999776406774 407.75617463075685 L 472.957797117165 404.82122164042573 L 465.4621097873594 402.02574825407567 L 457.92650363004714 399.33974009290466 L 450.36424385677293 396.7297157402368 L 442.7889299676271 394.15782548579074 L 435.21539527339746 391.58070068568884 L 427.66098172864287 388.94805259017204 L 420.1473948209967 386.20105208393846 L 412.70344216216256 383.27059669048225 L 405.3690842488105 380.0757267402573 L 398.2013522078281 376.5227537050832 L 391.28272862544515 372.50620696375245 L 384.7323161608411 367.91359370509895 L 378.7190427081043 362.6371799246406 L 373.47344335725955 356.59700712492554 L 369.28946321675977 349.7783334867534 L 366.50146173584136 342.27986379338284 L 365.42128558010955 334.35312300838245 L 366.2395821787987 326.3950836344805" fill="none" stroke="#d79f1e" stroke-width="0.6745434878275467" opacity="0.1500580439763414" stroke-linecap="round"/><path d="M 828.5998763649724 139.0610330454358 L 830.2418797344674 146.89070896047642 L 830.9723156379521 154.85729313381574 L 830.612731564093 162.84920775384435 L 829.0152045569681 170.68807932196603 L 826.0982409348213 178.13732916521013 L 821.8782628182365 184.93378299758072 L 816.4792865477559 190.8372612291648 L 810.1105913469407 195.67871983573298 L 803.0206818094236 199.38455074793396 L 795.4497122138853 201.9692014754857 L 787.5988968458737 203.50695895226596 L 779.6209224597338 204.10019136380123" fill="none" stroke="#5B8AEF" stroke-width="0.5307072297812939" opacity="0.11194742510651584" stroke-linecap="round"/><path d="M 1044.6164013094344 433.92840383291633 L 1039.6901818792085 440.2317650097222 L 1033.689906376621 445.52295522488635 L 1026.8817769223667 449.72407094980014 L 1019.522029349016 452.860010307721 L 1011.8230383443249 455.03384045510734 L 1003.9393019227008 456.3927738730341 L 995.9704418025175 457.09794646534857 L 987.9731010693803 457.30420164250654" fill="none" stroke="#5B8AEF" stroke-width="1.075058478477904" opacity="0.09645954871385337" stroke-linecap="round"/><path d="M 11.771667195377715 523.20527635664 L 14.852978527222715 515.8224909421609 L 17.37513300648797 508.23047297703977 L 19.472690196707546 500.51035291102016 L 21.256364029563812 492.71173074694633 L 22.81440665376318 484.864915903892 L 24.216279019202577 476.98870146604065 L 25.516620689334744 469.09508939418674 L 26.758771013170136 461.19211131165383 L 27.97765386446018 453.2855112462129 L 29.202057876227276 445.3797642975705 L 30.45641256358924 437.47871409406633 L 31.762168344931293 429.58599581457025 L 33.138874853223435 421.70534360869124 L 34.60503317228093 413.84084236681593 L 36.178779581924246 405.99716196549065 L 37.87844262781854 398.17980016431875 L 39.72300173218156 390.395354024065 L 41.732463393914486 382.6518364880853 L 43.9281593597798 374.9590529069956 L 46.332959039494746 367.32905038403123" fill="none" stroke="#5B8AEF" stroke-width="0.5394798000526986" opacity="0.0772869583486053" stroke-linecap="round"/><path d="M 205.4992285582699 112.76718942111692 L 198.67338333999913 108.59491940873633 L 191.69158861982402 104.68921300843758 L 184.5084606478511 101.16747018161726 L 177.0912644011517 98.16993789022352 L 169.43186619244688 95.86047494821962 L 161.5622224601336 94.42217472696454 L 153.57116254986684 94.0440722137123 L 145.61663900315938 94.89586746192434 L 137.92396281167333 97.09193964037017 L 130.76097642053003 100.65447047676943 L 124.39041983600463 105.49347954923046 L 119.01568087197069 111.41903277812777 L 114.74499991890315 118.1837415077854 L 111.58903411140054 125.53492371351764 L 109.48568457276184 133.25346766418014 L 108.33407512635166 141.17014598800628 L 108.02295428834614 149.16409393780924 L 108.44828600912469 157.15277924437248 L 109.52137524712516 165.08048253645447" fill="none" stroke="#d79f1e" stroke-width="0.9010850797412382" opacity="0.09410871600457874" stroke-linecap="round"/><path d="M 55.4028164853355 577.5683345168682 L 48.90377767986345 572.9033056203908 L 43.46256106066008 567.0387372899078 L 39.10186163255432 560.3317036312985 L 35.725827800834814 553.0789527347707 L 33.18484974740871 545.4932141067922 L 31.32269453457635 537.7129584578227 L 30.000408007430174 529.822992783618 L 29.10413366643469 521.8733580558036 L 28.544776333076353 513.8929370535244 L 28.25454323732905 505.89820349010074 L 28.182846866775986 497.89852476964893 L 28.29257594476961 489.89927733445586 L 28.55703388109133 481.9036496542849 L 28.95755096802806 473.9136818156092 L 29.481676239674808 465.9308694853824 L 30.12183540255563 457.9565233525525 L 30.87435158528028 449.99199452815003" fill="none" stroke="#5B8AEF" stroke-width="1.0253490391771072" opacity="0.09879972250144917" stroke-linecap="round"/><path d="M 811.9521744604932 40.098078753844874 L 818.832043345778 44.18065197686129 L 826.0980530651623 47.52805436644822 L 833.676920124142 50.08945517505092 L 841.4857361813766 51.827957917146854 L 849.4355227851227 52.72288414589399 L 857.4353771102925 52.77116225751433 L 865.3969205441482 51.98769167681005 L 873.2387230705499 50.40461456658443 L 880.8903436579297 48.06951234467099 L 888.2956246140922 45.042663494744914 L 895.4149361783035 41.393635836356104" fill="none" stroke="#d79f1e" stroke-width="1.055445399114604" opacity="0.11065343029361843" stroke-linecap="round"/><path d="M 1156.2343787198115 15.601571935974794 L 1150.2640114176265 20.926486421391466 L 1145.1861571907837 27.10834669568861 L 1140.9078036209792 33.86820547614703 L 1137.2873241836219 41.00207740124303 L 1134.1736943714245 48.37129102228812 L 1131.4270959461642 55.88502492031495 L 1128.9267169808031 63.48424231617753 L 1126.5717250662296 71.12976473667263" fill="none" stroke="#5B8AEF" stroke-width="0.7442255398464508" opacity="0.0695256583250713" stroke-linecap="round"/><path d="M 747.9722989480814 585.2142102016203 L 741.1121925487499 589.3299045767959 L 735.0051075080404 594.4974487038976 L 729.7126535148604 600.4966095393874 L 725.2303900512876 607.1230198981805 L 721.5083809283266 614.2044497035655 L 718.471740059924 621.6057206914666 L 716.0367882322744 629.2261543797173 L 714.1216985104602 636.9935497834161 L 712.6523946862358 644.8574639660684 L 711.5650867471356 652.7832296354261 L 710.8067363679505 660.7472050687377 L 710.334408535002 668.733249547591 L 710.1141265901455 676.7302162140696 L 710.1195906530658 684.7302143480705 L 710.3309491638514 692.7274218344321 L 710.7337102135199 700.7172768729713 L 711.3178211527841 708.6959242778032 L 712.0769144456208 716.659828933986 L 713.0077032813457 724.6054964417093 L 714.1095048634768 732.5292602742331" fill="none" stroke="#5B8AEF" stroke-width="0.44608631885893935" opacity="0.177669159582662" stroke-linecap="round"/><path d="M 109.14159329102449 371.3792211242855 L 107.51132123620572 363.5470941445132 L 106.94137679244321 355.5674222633502 L 107.39650817948691 347.58037929235473 L 108.83271319858551 339.7103529173598 L 111.20200887778884 332.06925103448265 L 114.45336994676228 324.7597605461405 L 118.53104295238441 317.8769861884254 L 123.3717299340585 311.5077044749626 L 128.9021741422895 305.7272039032436 L 135.03849658481965 300.59441256895957 L 141.68812657375 296.1466692073976 L 148.75432673536275 292.39582726511 L 156.14236494612376 289.3271318751543 L 163.76575902491945 286.90146439600903 L 171.5510480010488 285.06046587396764 L 179.44018655046057 283.7332534010812 L 187.39052607863954 282.84325262205056 L 195.37300141438337 282.31401967311257 L 203.36938507605254 282.0735028641568 L 211.3693674304392 282.0567002006234 L 219.36795603651436 282.20696766471673 L 227.36341979180085 282.4763360702512" fill="none" stroke="#5B8AEF" stroke-width="0.512459470430603" opacity="0.12253449041514401" stroke-linecap="round"/><path d="M 609.479290717039 159.2195406366231 L 616.7094500453035 155.79539167842776 L 623.3288277922634 151.3027489992185 L 629.2273872036346 145.89839918906335 L 634.343227360275 139.74793745910313 L 638.6617219875037 133.01365173940005 L 642.2099669598597 125.84357798690972 L 645.0472995895317 118.36363523655405 L 647.2539007765812 110.67397261708162" fill="none" stroke="#d79f1e" stroke-width="0.5396202263606806" opacity="0.1619766724305119" stroke-linecap="round"/><path d="M 145.71666593929598 530.002220873722 L 144.37390986517048 537.888728727354 L 143.39985439816294 545.8292083065226 L 142.80766965630949 553.807260526928 L 142.61428763178594 561.8049228974329 L 142.84063533815285 569.8017201760828 L 143.51167219380392 577.7735273449973 L 144.6561417993732 585.6912409873266 L 146.30592040757278 593.519282284096 L 148.4948214276373 601.2140020531558 L 151.25670879920236 608.7221295258876 L 154.6227993924895 615.9795005456015" fill="none" stroke="#d79f1e" stroke-width="0.533983574916601" opacity="0.19787832136167136" stroke-linecap="round"/><path d="M 842.9154349690841 439.8577626980179 L 837.070555178444 445.320123015039 L 830.878940754664 450.38607907754476 L 824.4670767840498 455.1702195878496 L 817.9274918222757 459.77823744021714 L 811.3295098252562 464.3022438026139 L 804.7272625370933 468.8200232069171 L 798.1652008980359 473.39597633661697 L 791.6817019794715 478.08257870645537 L 785.3113220991594 482.92182040123714 L 779.0861048575938 487.9464268828748" fill="none" stroke="#5B8AEF" stroke-width="1.0886422421730322" opacity="0.18869625824908554" stroke-linecap="round"/><path d="M 465.2463032236538 97.30913997502492 L 457.25473380243966 96.94196401459895 L 449.41240070715446 95.36151736172046 L 441.91543383093375 92.56947730884701 L 434.9581031856967 88.6203571165959 L 428.71149660871475 83.62236689327555 L 423.30237495264964 77.72818307277186 L 418.79845918276845 71.11647053078885 L 415.2047430716506 63.96907908266652 L 412.47109635815707 56.450623413727186 L 410.5072185352185 48.69541974802181 L 409.19945116296304 40.80303452553906 L 408.4252009285828 32.84058913642887 L 408.06310484780954 24.848787935930407 L 407.99900195165407 16.849044763883914 L 408.1287121385092 8.850096378788157 L 408.358776392381 0.8534051605973234 L 408.606089461053 -7.1427711910137415 L 408.7970473851056 -15.140491808242222 L 408.86657138244624 -23.140189703400125" fill="none" stroke="#5B8AEF" stroke-width="0.9451134286099643" opacity="0.17294299368417965" stroke-linecap="round"/><path d="M 32.091971501750855 284.8825149633374 L 38.16271766027933 279.67232868272214 L 44.52546461151894 274.823055414026 L 51.19696344579896 270.4081824482205 L 58.17719561754461 266.49968416518044 L 65.4478462465194 263.1623739561366 L 72.97297284156822 260.4471447340471 L 80.70246306480344 258.38438423197437 L 88.57809170041807 256.97922459909034" fill="none" stroke="#5B8AEF" stroke-width="0.5509724450535013" opacity="0.08372606177056491" stroke-linecap="round"/><path d="M 740.8260212935629 531.4699404553836 L 736.7178948739819 538.3345815472936 L 732.9378800344223 545.3852189520046 L 729.4844024304123 552.6014154874796 L 726.3517718180726 559.9625720166285 L 723.5307525626549 567.4486825127782 L 721.0092787124089 575.0409265567039 L 718.7732391550537 582.7220805779394 L 716.807261757656 590.4767522584764 L 715.0954385712818 598.2914602746847 L 713.6219525229367 606.1545918941689 L 712.3715850383301 614.0562740665572 L 711.3301004753321 621.9881912310917 L 710.4845154009179 629.9433773308589" fill="none" stroke="#5B8AEF" stroke-width="0.9255569364063241" opacity="0.12468789626131202" stroke-linecap="round"/><path d="M 203.145271634285 131.29017871398952 L 195.36098957040542 129.444927308364 L 187.45891490247743 128.19704272135664 L 179.47406119622502 127.70499466501755 L 171.48549261013775 128.13251302179253 L 163.6269340287947 129.6301969081983 L 156.08858083966228 132.30848576414664 L 149.10294926254994 136.20732552346618 L 142.9121091095431 141.27422775263128 L 137.72404798823524 147.3638929159694 L 133.6755438352227 154.2638649538142 L 130.817561361533 161.73594205326134 L 129.12593528031846 169.55504693817974 L 128.52680308893528 177.53258043025915 L 128.92319519656922 185.52275397637223 L 130.21463366513692 193.4178275467643 L 132.30810784365738 201.1390558081142 L 135.12230950704583 208.62773185917834" fill="none" stroke="#5B8AEF" stroke-width="0.6760407743863952" opacity="0.12403556893767582" stroke-linecap="round"/><path d="M 175.94266821441366 134.21233982509577 L 168.111102412087 135.84530555769018 L 160.61032304310118 138.62708715547902 L 153.66701942407184 142.6008177520311 L 147.52008839677833 147.72089967966627 L 142.37915021973149 153.85039840792965 L 138.38745170888888 160.78338787846374 L 135.60500199578803 168.28391943256474 L 134.01620802820466 176.12456568963887 L 133.55316160734202 184.11115369780146 L 134.12153299435408 192.09093777798972 L 135.62046364426342 199.9492586486823 L 137.9541707357192 207.60130485942156 L 141.0367605759704 214.98355654009325 L 144.79276397739636 222.04701450687386 L 149.15552587877323 228.75270675987016" fill="none" stroke="#d79f1e" stroke-width="0.7480918733627032" opacity="0.06342823919068474" stroke-linecap="round"/><path d="M 1020.1734104287688 227.2545381576077 L 1012.2782686299529 228.54555944968257 L 1004.3870490041033 229.860341871457 L 996.4924754813998 231.15483362292866 L 988.58925730896 232.39545545040804 L 980.6740596491808 233.55719810978908 L 972.7452328515667 234.62195423841018 L 964.8024535374423 235.5770755747428 L 956.8463662343426 236.41413878947353 L 948.8782709827423 237.1279020985792 L 940.8998748337999 237.7154349832271 L 932.9131089521516 238.17540319053938 L 924.9200045580931 238.5074907477937 L 916.9226174640605 238.71194041935698 L 908.9229904821188 238.78919422049637 L 900.9231441060417 238.7396164112919 L 892.9250876890297 238.56328277782148 L 884.930845295818 238.2598218106817 L 876.9424922128474 237.82829542470597 L 868.962199627336 237.2671089586973" fill="none" stroke="#5B8AEF" stroke-width="0.4467395842758657" opacity="0.09057212348588375" stroke-linecap="round"/><path d="M 978.2893867130807 454.8612433741155 L 970.2894081596519 454.842719209407 L 962.2924606351172 454.62174344187065 L 954.2994006063321 454.28858975925806 L 946.3080444810463 453.9168004656294 L 938.3157478417941 453.5658098244466 L 930.320733736152 453.28341037227983 L 922.3226586650914 453.10792488091727 L 914.322748246941 453.07006591143215 L 906.3237161862048 453.1945090362445 L 898.3295976727736 453.5012160515159 L 890.3455732640075 454.0065419267945 L 882.3778236553641 454.7241533634106 L 874.4334333764007 455.6657812599346 L 866.5203479395543 456.8418249960135" fill="none" stroke="#5B8AEF" stroke-width="0.4751060255687246" opacity="0.1920384746566594" stroke-linecap="round"/><path d="M 910.4576003320783 430.4443906203119 L 903.8126927995875 434.89918622557224 L 896.7798551964516 438.7122158934242 L 889.50033449258 442.03013366243306 L 882.0680682894496 444.99010310244506 L 874.5452129583038 447.7116187953359 L 866.9738546199483 450.2951305356257 L 859.3839657666662 452.8236849041974 L 851.7985269738723 455.3655578988175 L 844.2367359779014 457.97694008709516 L 836.7159980585917 460.70430165994486 L 829.2531619103333 463.5863281387003 L 821.8652916689836 466.6554278922074 L 814.5701478449643 469.93885241347687 L 807.386473435433 473.4594804792978" fill="none" stroke="#5B8AEF" stroke-width="0.9175345278426701" opacity="0.12124757949320952" stroke-linecap="round"/><path d="M 754.2141776318729 238.84172944298092 L 749.4031980188673 232.44997888751917 L 744.2159985470855 226.35957975117788 L 738.7788400300985 220.49124887594974 L 733.1929361673754 214.7643231704412 L 727.539977528548 209.10357599116296 L 721.8873204295687 203.4425277029606 L 716.2920776604302 197.72472582160762 L 710.8039938865867 191.90399249226883 L 705.4672391151804 185.944206547298 L 700.3213204354113 179.81888851953784 L 695.4013154761954 173.5106755236657 L 690.7376237398231 167.01067710919716 L 686.355429534139 160.3176677752974" fill="none" stroke="#d79f1e" stroke-width="0.9408212735507737" opacity="0.18042316556927895" stroke-linecap="round"/><path d="M 1024.7168517786622 8.063921988040173 L 1032.2922534282998 5.492290240167235 L 1040.0805293119438 3.6639689444841084 L 1048.021751184265 2.695983833769048 L 1056.021750494412 2.6926615377718743 L 1063.9537889578755 3.733221874384872 L 1071.6661235073802 5.85922653019273 L 1078.9956811982222 9.06509366041163 L 1085.7859437703 13.295026780715045 L 1091.9050760709897 18.448299516235355 L 1097.2595890978241 24.392135840147663 L 1101.800169284074 30.978723087898594 L 1105.5191608076796 38.061738127226754 L 1108.441938791227 45.50870857559639 L 1110.6156741335142 53.20772634812367 L 1112.0985778609806 61.06908733303373 L 1112.9514129354448 69.02349946315145 L 1113.2317769592241 77.01858520466607 L 1112.9908492382167 85.01495649627391 L 1112.2719776523302 92.98259250973517 L 1111.1104771962657 100.89782571480008 L 1109.5341438104767 108.74098662458937" fill="none" stroke="#5B8AEF" stroke-width="0.8609692263235194" opacity="0.06059726123725868" stroke-linecap="round"/><path d="M 314.68022908767693 215.30513829333015 L 310.47023469279264 222.10778095593142 L 307.62287727800657 229.58391336195947 L 306.4221003081448 237.49328341706814 L 307.0475727641842 245.46879494967445 L 309.5034530067749 253.0825096957135 L 313.6021150941336 259.9528058387956 L 319.02187727233405 265.8372070769631 L 325.4039688653996 270.6609926130045" fill="none" stroke="#5B8AEF" stroke-width="0.9624379749700605" opacity="0.14608769718841075" stroke-linecap="round"/><path d="M 1192.567982707437 545.0426819478361 L 1197.196661304678 551.5676596829279 L 1202.4736071947477 557.5804661884854 L 1208.4820421563775 562.8623890686367 L 1215.2471173908964 567.132489427094 L 1222.6899861675606 570.065696609234 L 1230.5865593408262 571.3479337632983 L 1238.5655517774508 570.7685550475277 L 1246.1792307539263 568.3125639149755 L 1253.0328019392082 564.185996090709 L 1258.895929692566 558.7432272229536 L 1263.7271981417969 552.3667983500291 L 1267.6205847386111 545.3781260292125 L 1270.7319331818105 538.0079489034575 L 1273.225795705597 530.4065904911438 L 1275.2491699283041 522.666696644657 L 1276.9233044733696 514.8438280195925" fill="none" stroke="#5B8AEF" stroke-width="0.731776257432893" opacity="0.11851345039834896" stroke-linecap="round"/><path d="M 95.33801194994618 172.98342137270768 L 99.56229438336098 179.77720072758396 L 103.80422878233702 186.55997247332212 L 108.12294948790976 193.29411321043605 L 112.56757902929684 199.9458248878789 L 117.17856755032778 206.48331560365975 L 121.98866608995938 212.87572923538244 L 127.0235495878452 219.0926374832752 L 132.3021590654241 225.1039835873699 L 137.83686139191994 230.88040723501567 L 143.63354092549713 236.39389128641253 L 149.6917416989579 241.6186595481098 L 156.004968643973 246.53222907959457 L 162.56122829211546 251.1164912259098 L 169.3438437087079 255.3586755819465 L 176.3325214731947 259.2520524072959 L 183.5045926126801 262.79625832261183" fill="none" stroke="#5B8AEF" stroke-width="0.32692009025575597" opacity="0.1809165651821143" stroke-linecap="round"/><path d="M 668.9353927359616 598.5728566528172 L 676.3113836989768 601.670397179351 L 682.8019550762475 606.347199847473 L 688.2323155416777 612.2218219813207 L 692.6048997409277 618.921113542409 L 696.0388672645903 626.1466147047112 L 698.7032305091095 633.6899010244298 L 700.7708996273535 641.4180796208043 L 702.3959904766228 649.2512832905438" fill="none" stroke="#5B8AEF" stroke-width="0.5815138214647368" opacity="0.14015286874033178" stroke-linecap="round"/><path d="M 304.1960367486793 311.3948175271018 L 309.94515996327965 305.83176240753454 L 316.5739072050539 301.35295564627876 L 323.76466340757503 297.84681457154943 L 331.2949541944618 295.1459405158171 L 339.02307500507766 293.07805542797337 L 346.86403622155325 291.4908165670185 L 354.7686935730977 290.2593978101879 L 362.70920644533953 289.2856137860007 L 370.66993604541767 288.4939167262363 L 378.6420741547675 287.82682305556295 L 386.62057982559884 287.2407793195567 L 394.60246744260695 286.70275509198655 L 402.5858608933933 286.18755706215626 L 410.5694730914559 285.67575996276435 L 418.55231804369635 285.15213178505707 L 426.5335482555211 284.60444181266786 L 434.5123584820892 284.0225592055961 L 442.4879234956992 283.3977690698863" fill="none" stroke="#5B8AEF" stroke-width="0.37651482339786124" opacity="0.10484044684322572" stroke-linecap="round"/><path d="M 576.9552717809357 443.62641109322493 L 574.9966041102651 435.869889904195 L 573.1631041721123 428.08283153939556 L 571.5143142760277 420.2545819343709 L 570.116024020289 412.37773076396616 L 569.038771271836 404.45059215561884 L 568.3552997762475 396.47984145604744 L 568.136765258501 388.48282684654765 L 568.4477029715046 380.48887177170315 L 569.3401652960515 372.538808187098 L 570.8479292654896 364.6821773689633 L 572.9820457917732 356.9720835529165 L 575.7289733981663 349.4584699931681 L 579.0519586507252 342.1812611181064 L 582.8953654314353 335.16497831893196 L 587.1907746587509 328.4159443458443 L 591.8633114350238 321.9223012947999 L 596.8369084208755 315.6562552510554 L 602.037828405178 309.5775686069782" fill="none" stroke="#5B8AEF" stroke-width="0.7367636984385382" opacity="0.1872015489764519" stroke-linecap="round"/><path d="M 1031.219484764719 52.94022031730983 L 1039.2096406019914 52.543471409179844 L 1047.1971628418053 52.990112728898666 L 1055.0736230005928 54.390603845269446 L 1062.6940380920498 56.82561387274234 L 1069.885882480161 60.32952230436475 L 1076.4670373691529 64.87797262585862 L 1082.2698166172522 70.38503654393953 L 1087.1643762573506 76.71301299218274 L 1091.0738115676304 83.69272040401145 L 1093.976572960514 91.14751592743025 L 1095.8974699139274 98.91347722622432 L 1096.8925880518348 106.85134469120554 L 1097.0338794969284 114.85009688936391 L 1096.3970463432825 122.8247093272456 L 1095.0538045026403 130.71113445892271 L 1093.0679967443618 138.4607517105785 L 1090.494441652155 146.03550016761497 L 1087.379448668736 153.4041376748648 L 1083.7621986605275 160.53964763408402 L 1079.6764641966024 167.4176396295937 L 1075.1523480146714 174.01554632584137 L 1070.2178485523032 180.31242770124365" fill="none" stroke="#5B8AEF" stroke-width="0.9062094128719576" opacity="0.14458773645786" stroke-linecap="round"/><path d="M 842.4032084841297 335.36249638319134 L 850.1083889716123 333.21070790489773 L 857.700544664349 330.6889680417783 L 865.1212545418574 327.7001447091189 L 872.2825023310457 324.13412029783893 L 879.0539704191938 319.87416490708745 L 885.2486904448685 314.81200688866244 L 890.612085492112 308.8761839830153 L 894.8256155234907 302.07573071322" fill="none" stroke="#5B8AEF" stroke-width="1.024896301294163" opacity="0.11545111303937208" stroke-linecap="round"/><path d="M 198.20377649655742 5.4357888202349605 L 195.7358760786634 -2.174038216390679 L 192.95633063498903 -9.675646519051448 L 189.7688118846642 -17.01320225760142 L 186.07507291276158 -24.109419024826604 L 181.7815968058791 -30.859682939639804 L 176.81009192552864 -37.12738899725382 L 171.11215444066394 -42.74285945114935 L 164.6869227818878 -47.509031723640234 L 157.5980786774663 -51.21690028431072 L 149.98392023213248 -53.67140454573531 L 142.05344379937506 -54.72380349550635" fill="none" stroke="#5B8AEF" stroke-width="0.9996236349919922" opacity="0.13605892985875667" stroke-linecap="round"/><path d="M 261.6499656167114 375.48606003424436 L 254.46144744258027 371.97533269362305 L 247.7433564140777 367.63168757313343 L 241.71127052181595 362.3767908292976 L 236.63314058863483 356.19515703379255 L 232.80807403011707 349.1688588745262 L 230.5215170084521 341.5025914002807 L 229.98240615750316 333.52077710211586 L 231.26326128236292 325.6239796405419 L 234.2722666085481 318.2114303525446 L 238.7750984830095 311.5989795882414 L 244.45732448170074 305.9676113974908 L 250.99668361090448 301.35927306580345 L 258.11572836774513 297.7097249088257 L 265.60395276720556 294.894321679566 L 273.31599670246766 292.76726306716563 L 281.1583393924907 291.1868640250746 L 289.0739748078632 290.02810780787405 L 297.0296090465283 289.1867494653236 L 305.00648036452714 288.57886462747376 L 312.9943461067606 288.13840931299404 L 320.98777395932103 287.8142007907267 L 328.98395350320806 287.5669909569362" fill="none" stroke="#5B8AEF" stroke-width="0.4308483128113897" opacity="0.13584476101950033" stroke-linecap="round"/><path d="M 1151.3901315403125 106.97039901603497 L 1144.1159953140525 110.30010503336041 L 1137.3748109522899 114.60782292114352 L 1131.1493382862818 119.63211292917309 L 1125.3634990376445 125.15697167749657 L 1119.916193626826 131.01588486692583 L 1114.7030052264424 137.08405318216765 L 1109.6273754856607 143.26774000593957 L 1104.6050990316744 149.4948371803649 L 1099.5653019845563 155.70776287796184 L 1094.4498582017595 161.85855428273615 L 1089.2122735412718 167.90567813827468 L 1083.8165118741827 173.8120946518616 L 1078.2359368908199 179.54421318300385 L 1072.452394058069 185.0714758239263" fill="none" stroke="#5B8AEF" stroke-width="0.706097452159085" opacity="0.19351526548784007" stroke-linecap="round"/><path d="M 719.8176566138014 387.6773540804523 L 727.7375146125555 388.80688906422694 L 735.5141591893727 390.68406756555845 L 743.0500315458828 393.3693287868154 L 750.2192086588447 396.91938505721214 L 756.8641236291575 401.37416956797273 L 762.7986509001978 406.7389981830618 L 767.8221490626728 412.9651098277089 L 771.7471060124393 419.93610064268483 L 774.4364877056687 427.4705034795474 L 775.8377903524572 435.34681929927575 L 775.9971103835359 443.3452327124282 L 775.0453439431496 451.28841473495254 L 773.1646536565735 459.06421077432867 L 770.5522186261293 466.625638100681 L 767.3940802745168 473.9758872224505" fill="none" stroke="#5B8AEF" stroke-width="0.6356825304849458" opacity="0.1764549737872812" stroke-linecap="round"/><path d="M 324.4347907250909 587.7638583014551 L 330.45537096111127 582.4957833568818 L 336.7200004823547 577.5204022698126 L 343.25208586206287 572.9017595479513 L 350.06305328233964 568.7052463762899 L 357.1511726419533 564.995992550536 L 364.5009431200188 561.836740436545 L 372.0832076530682 559.2854143988029 L 379.8560782551326 557.3926696712807 L 387.7666329292663 556.1997217480495 L 395.7532227437462 555.7367064834579 L 403.74814434300816 556.0217128371678" fill="none" stroke="#5B8AEF" stroke-width="0.3475051228178223" opacity="0.1952441431187299" stroke-linecap="round"/><path d="M 27.89879870968815 447.55495686435836 L 29.289059549166186 439.6766845411765 L 30.695593063207205 431.8013011553419 L 32.14455427106074 423.93361334899527 L 33.65942265476921 416.0783492681358 L 35.26205665289781 408.2405202148812 L 36.97353361457462 400.4257363656855 L 38.81482490780609 392.6405166273949 L 40.807339879522054 384.8926211655622 L 42.9733575228009 377.1914285586341 L 45.33635027110247 369.5483751588812 L 47.921189423588906 361.97746989228506 L 50.75420560359254 354.49589122706755 L 53.863060215976944 347.1246618181388 L 57.27636610340175 339.8893772405378 L 61.02298058120276 332.82093469958636 L 65.1308881077666 325.9561626164652 L 69.62560375776623 319.3381922912334 L 74.52807742563262 313.01634509789847 L 79.8521781407521 307.0452521011964" fill="none" stroke="#5B8AEF" stroke-width="0.5266844590318782" opacity="0.06640802461952344" stroke-linecap="round"/><path d="M 428.5544231666971 157.09508133916884 L 420.8271139056226 159.16599697813422 L 413.0054934683295 160.84595344629614 L 405.1081922873556 162.12369913969079 L 397.15466181382413 162.98471772636927 L 389.16601589040624 163.4107885071774 L 381.16607621964437 163.37971980635754 L 373.18263046365695 162.86533292743653 L 365.24889350268217 161.83780295995993 L 357.40512580667587 160.26449169670386 L 349.70030165096944 158.11142766383284 L 342.19363112713614 155.34558282967959 L 334.95562942886494 151.93804245342238 L 328.0683169496935 147.8680391592899 L 321.62406902353894 143.12760999451456 L 315.7226789876899 137.72635128521526" fill="none" stroke="#5B8AEF" stroke-width="0.9240113618895465" opacity="0.1073534361866086" stroke-linecap="round"/><path d="M 838.4389164105238 21.434055837539052 L 846.4387360447363 21.487775666913002 L 854.3877520826939 20.5860306761902 L 862.1844252420177 18.793856676077933 L 869.7512379176313 16.19706135642455 L 877.0376006101034 12.89419612851237 L 884.019646492529 8.98893873677692 L 890.6976390313 4.583894395102463 L 897.0919421405308 -0.22369208329609336 L 903.2384443090731 -5.344288834857933 L 909.1840975481387 -10.696784286587812 L 914.982951614713 -16.207981208725013 L 920.692820841663 -21.81131891148126 L 926.3725535146007 -27.44520183216435 L 932.0797838377882 -33.0512273438873" fill="none" stroke="#5B8AEF" stroke-width="0.5165359550232701" opacity="0.12287605722568747" stroke-linecap="round"/><path d="M 179.69411415033701 459.48826235695196 L 175.2378745799109 466.132201616982 L 171.18345581187836 473.02869989171717 L 167.54848064419684 480.15519661383377 L 164.35096522370955 487.48840158408694 L 161.61034153638045 495.00431681807214 L 159.34855229613143 502.67792805612 L 157.59113696336163 510.48250948936453 L 156.36820534035155 518.3884843340907" fill="none" stroke="#5B8AEF" stroke-width="0.7452266136394938" opacity="0.16643528973983382" stroke-linecap="round"/><path d="M 785.5431584574017 111.93209677558956 L 784.8327696037545 119.90049358276563 L 783.2515094088303 127.74266268295393 L 780.6730748662675 135.31575157122924 L 777.0122262544966 142.4289918625237 L 772.2504932424704 148.85751414390222 L 766.4540627970254 154.37126006578856 L 759.773542054592 158.7724692871183 L 752.4221593509552 161.92796803449082 L 744.6403020037939 163.78341844569294 L 736.6608622962323 164.35660423877323 L 728.6864396596353 163.7173987843767 L 720.8806576398055 161.9653237120978 L 713.3694037123589 159.2119504287564 L 706.2464016109304 155.57013205560204" fill="none" stroke="#5B8AEF" stroke-width="0.6276789096778626" opacity="0.1542558067358359" stroke-linecap="round"/><path d="M 149.1524337554129 2.4770636123032603 L 141.43323272363233 0.3761268138825997 L 133.46196927685853 -0.3013383602243771 L 125.50925343489813 0.567172282791645 L 117.8858619379846 2.9928478762679265 L 110.88420598087839 6.862836746835793 L 104.721567584099 11.964002102961823 L 99.50970162027693 18.033306278495708 L 95.25935549558758 24.810810083019778 L 91.90867111035845 32.0753069100947 L 89.35731345293617 39.6575608034903 L 87.49383402377104 47.43749939046375 L 86.21256551974705 55.33422979111668 L 85.42171024004837 63.29504306154155" fill="none" stroke="#d79f1e" stroke-width="0.42720088964663483" opacity="0.11864355686057526" stroke-linecap="round"/><path d="M 398.0284364884851 431.9660309851011 L 393.0701175237673 438.2441734686801 L 389.3444166441074 445.3236616532385 L 387.036030424656 452.98338443293795 L 386.2279210183312 460.9424647307745 L 386.87831238984097 468.91598284161273 L 388.8359718247488 476.6727585594556 L 391.8842354383823 484.06925022387315 L 395.78970718725236 491.0511762059198 L 400.3367606732361 497.6332962743782" fill="none" stroke="#d79f1e" stroke-width="0.4202758145147356" opacity="0.08601541311760219" stroke-linecap="round"/><path d="M 1013.4218237425303 490.2958203527591 L 1006.5869850492841 486.138299452354 L 999.6501389714308 482.15330679336796 L 992.5969893682723 478.3779815523504 L 985.4203849476326 474.8429640149604 L 978.1192577232109 471.57286596554206 L 970.6974884127303 468.5866743605026 L 963.1627677372891 465.8981832701177 L 955.5255160634388 463.5165059472484" fill="none" stroke="#d79f1e" stroke-width="0.8338099020225043" opacity="0.17363321334758458" stroke-linecap="round"/><path d="M 814.534938342187 144.3543585689526 L 813.9522365962348 152.3331090146843 L 812.2324158078343 160.14606085478837 L 809.2822517588588 167.5822246563821 L 805.0912854520698 174.39660661040836 L 799.7478630676931 180.35041524204422 L 793.4288461553738 185.25653644538025 L 786.3642628355138 189.01042276714833 L 778.7929080934954 191.5939450470048 L 770.9276376958484 193.05597157614062 L 762.9390847717432 193.48378249088108 L 754.9550946044639 192.97791589899458 L 747.0684790946756 191.63579228294182 L 739.3468699508157 189.5437233955815 L 731.841367685488 186.77470989883588 L 724.5929030199625 183.38948317191955 L 717.636336685353 179.43901676500295 L 711.0027016119079 174.96745264130303" fill="none" stroke="#d79f1e" stroke-width="0.5361970734951073" opacity="0.16961512075253538" stroke-linecap="round"/><path d="M 246.32134840186748 561.4512950933777 L 254.20654913878283 560.1008842897518 L 261.9964768240004 558.2796136730996 L 269.69644526060665 556.1092482487371 L 277.32496896635627 553.6997615667203 L 284.90749711445494 551.1492190982852 L 292.47168490528975 548.5447876699336 L 300.04401676370395 545.964130733019 L 307.6475033543619 543.476764321393 L 315.300194337519 541.1451724367986 L 323.014305119194 539.0256218127168" fill="none" stroke="#d79f1e" stroke-width="1.070811875895975" opacity="0.09948324460512178" stroke-linecap="round"/><path d="M 952.7972754802543 431.9044983163031 L 945.8265115719321 435.8298582404927 L 938.4795018183036 438.995525260267 L 930.9006315427605 441.5569165514386 L 923.1829294569945 443.6633530008391 L 915.3842572780595 445.4468081433939 L 907.5402350407335 447.01884985414273 L 899.6732499901592 448.4716217612365 L 891.7982682283036 449.8804021736648 L 883.9264051458338 451.3065058202655 L 876.0670481943606 452.7999944574272 L 868.2290928709174 454.40201079557977 L 860.4216578018489 456.14670493561704 L 852.6545059391378 458.062782163075" fill="none" stroke="#5B8AEF" stroke-width="0.9377525913704898" opacity="0.0884614509849164" stroke-linecap="round"/><path d="M 461.704745731179 335.8307519628809 L 463.39025891284604 328.01032708219657 L 466.4748907010858 320.6289283847287 L 470.7786806762358 313.8852356389255 L 476.06102787225365 307.87717371341887 L 482.0777799027483 302.60472693762887 L 488.61922270296844 297.99934681309537 L 495.52340975405093 293.958035000866 L 502.6730701524431 290.3688350638796 L 509.9860149070883 287.1252507786317 L 517.405079734404 284.1323463217392" fill="none" stroke="#5B8AEF" stroke-width="0.7096141962379283" opacity="0.15058319048517532" stroke-linecap="round"/><path d="M 578.6942562920481 57.1827502256179 L 585.1832899903775 61.861686179651095 L 592.4710975076628 65.16136216238029 L 600.3026995709782 66.79415398066972 L 608.2998071857679 66.57904982572673 L 616.0261753295175 64.5046257352256 L 623.0861370889189 60.74205481153662 L 629.2108030847628 55.59536010139942 L 634.2916931762801 49.415994771697534 L 638.357899249788 42.52643976663609 L 641.5243405448066 35.17976367977875 L 643.9414362817962 27.553647486182797 L 645.7609300286985 19.76330458583601 L 647.1183548015249 11.87930826505318 L 648.126891617037 3.943134533855206 L 648.8773671992601 -4.021586829788785 L 649.4409022278413 -12.001713913461202 L 649.8723263842737 -19.990072518158826 L 650.2134902178416 -27.982794660124306 L 650.4961427005993 -35.97779982422463" fill="none" stroke="#5B8AEF" stroke-width="0.5422938925411058" opacity="0.15985258531749835" stroke-linecap="round"/><path d="M 350.1779075479963 320.0460795872128 L 354.2441418172607 313.15654122332654 L 359.67366947344806 307.2811493699523 L 366.06541556962947 302.470163832461 L 373.0823732573094 298.62798934276 L 380.4839215315057 295.592024398176 L 388.11480620631994 293.1900254223884 L 395.8805920959612 291.26841944918556 L 403.7255538387074 289.7010728841755" fill="none" stroke="#5B8AEF" stroke-width="0.5095846747092831" opacity="0.15462942091498033" stroke-linecap="round"/><path d="M 134.44175838233986 581.3165659929236 L 134.02904211156442 589.3059129799957 L 133.80327698434152 597.3027267271909 L 133.7509382712755 605.3025555165535 L 133.8562643999985 613.3018621369181 L 134.10059436194467 621.2981301958125 L 134.4615992097232 629.2899807637274 L 134.91239619359132 637.2772695452436 L 135.42053206565507 645.2611156068559 L 135.94682175153804 653.2437855340503 L 136.44403334484727 661.2283193733848 L 136.8554269371246 669.2177345780311 L 137.11319523203227 677.2135807187557 L 137.1369380543161 685.2135454860775 L 136.8324598108031 693.20774919872 L 136.09144328855047 701.1733561758277 L 134.79294643123575 709.0672719285795 L 132.80814848770308 716.8171478710285" fill="none" stroke="#5B8AEF" stroke-width="0.7867582505972861" opacity="0.11705629694138481" stroke-linecap="round"/><path d="M 218.87668288260545 330.2046039748027 L 220.99233681103007 322.48942358448505 L 224.6962230705714 315.398497934305 L 229.72661064328628 309.1779512647368 L 235.77809687392582 303.9454074856194 L 242.55924872392447 299.70088400385373 L 249.82886097617123 296.36131251906954 L 257.4077011714514 293.7998322254882 L 265.17321194601146 291.87711477089664 L 273.0468520551981 290.46085510861457 L 280.9808326585377 289.43520810021903 L 288.947314180036 288.703653476404 L 296.9306981437572 288.188308458188 L 304.9225654260835 287.8276738208029 L 312.9185400406222 287.5739220451375 L 320.916431739752 287.3902691960169 L 328.91517822657704 287.24865479171945" fill="none" stroke="#d79f1e" stroke-width="0.4698446825937576" opacity="0.140418261606441" stroke-linecap="round"/><path d="M 269.37052992608886 455.24823388794823 L 270.2918198153337 463.19500838707523 L 272.6702699924696 470.83326569845735 L 276.3794094641583 477.9214448990392 L 281.22405608770515 484.28771532158305 L 286.9768173465838 489.84700825309375 L 293.4142624506573 494.5966714550524 L 300.34215152233946 498.5972155443566 L 307.60650342366284 501.94821411996645 L 315.0934126249349 504.76711294963525 L 322.72267754840857 507.1742516509681 L 330.43947048598204 509.2840162725825" fill="none" stroke="#5B8AEF" stroke-width="0.5448470224835198" opacity="0.14199338657874305" stroke-linecap="round"/><path d="M 1115.8603207747733 332.2056308073018 L 1122.9217307800475 328.4457785844858 L 1129.6234434478288 324.07690603902284 L 1135.8893959540128 319.10319121102503 L 1141.6464772265588 313.5483721121433 L 1146.8287465982387 307.45377744478867 L 1151.380105900856 300.8746339976158 L 1155.2548882737333 293.875629671082 L 1158.4164230777826 286.52684081285616 L 1160.8341393005999 278.9009213098765 L 1162.4800303898828 271.0720617171759 L 1163.3253382722621 263.11684615856365 L 1163.3382457958023 255.11685657133066 L 1162.4833186689818 247.16266901961762 L 1160.7234558583764 239.35863910630692 L 1158.0251128438545 231.82744099604713 L 1154.3673212373867 224.71262823929425 L 1149.7541645054569 218.17666733314968" fill="none" stroke="#5B8AEF" stroke-width="0.5873884228465094" opacity="0.0787785025866602" stroke-linecap="round"/><path d="M 805.8341719237316 227.46376107794407 L 798.061847774745 225.56877365764774 L 790.3410391936334 223.47375221292867 L 782.6801453415145 221.16925543780232 L 775.0889551808879 218.6446105231251 L 767.5788369206272 215.88814109341988 L 760.1629261667949 212.88742989585427 L 752.8563003757573 209.62963623299837 L 745.6761207337124 206.10188619820786 L 738.6417152044708 202.29174986860306 L 731.7745688815546 198.18781256649194 L 725.0981813694134 193.78033598825306 L 718.6377480065978 189.06198873899098 L 712.4196254531862 184.02860499534953 L 706.4705559156233 178.6799068698949 L 700.8166506296353 173.02010519341565 L 695.4821720855986 167.05828175899464 L 690.4882012798481 160.80846131426884" fill="none" stroke="#5B8AEF" stroke-width="0.9647310178097017" opacity="0.08752878728673272" stroke-linecap="round"/>
</svg>