<svg xmlns="http://www.w3.org/2000/svg" viewBox="0 0 1200 630">
<defs>
    <pattern id="dots" x="0" y="0" width="30" height="30" patternUnits="userSpaceOnUse">
      <circle cx="15" cy="15" r="0.6" fill="#ffffff12"/>
    </pattern>
    <radialGradient id="glow" cx="50%" cy="50%" r="45%">
      <stop offset="0%" stop-color="#5B8AEF" stop-opacity="0.06"/>
      <stop offset="100%" stop-color="#050507" stop-opacity="0"/>
    </radialGradient>
  </defs>
  <rect width="1200" height="630" fill="#050507"/>
  <rect width="1200" height="630" fill="url(#glow)"/>
  <rect width="1200" height="630" fill="url(#dots)"/>

  <!-- Checklist -->
  <rect x="470" y="200" width="200" height="260" rx="10" fill="none" stroke="#5B8AEF" stroke-width="1.5" opacity="0.3"/>
  <!-- Check items -->
  <polyline points="495,240 502,248 515,232" fill="none" stroke="#d79f1e" stroke-width="2.5" stroke-linecap="round"/>
  <line x1="530" y1="240" x2="640" y2="240" stroke="#ffffff12" stroke-width="2"/>
  <polyline points="495,280 502,288 515,272" fill="none" stroke="#d79f1e" stroke-width="2.5" stroke-linecap="round"/>
  <line x1="530" y1="280" x2="620" y2="280" stroke="#ffffff12" stroke-width="2"/>
  <polyline points="495,320 502,328 515,312" fill="none" stroke="#d79f1e" stroke-width="2.5" stroke-linecap="round"/>
  <line x1="530" y1="320" x2="635" y2="320" stroke="#ffffff12" stroke-width="2"/>
  <rect x="490" y="352" width="20" height="20" rx="3" fill="none" stroke="#5B8AEF" stroke-width="1.5" opacity="0.3"/>
  <line x1="530" y1="362" x2="610" y2="362" stroke="#ffffff12" stroke-width="2"/>
  <rect x="490" y="392" width="20" height="20" rx="3" fill="none" stroke="#5B8AEF" stroke-width="1.5" opacity="0.3"/>
  <line x1="530" y1="402" x2="630" y2="402" stroke="#ffffff12" stroke-width="2"/>
  <!-- Magnifying glass overlaid -->
  <circle cx="680" cy="320" r="55" fill="#050507" fill-opacity="0.6" stroke="#5B8AEF" stroke-width="2.5"/>
  <line x1="718" y1="358" x2="760" y2="400" stroke="#5B8AEF" stroke-width="3.5" stroke-linecap="round"/>

</svg>