<svg xmlns="http://www.w3.org/2000/svg" viewBox="0 0 1200 630">
<defs>
    <pattern id="dots" x="0" y="0" width="30" height="30" patternUnits="userSpaceOnUse">
      <circle cx="15" cy="15" r="0.6" fill="#ffffff12"/>
    </pattern>
    <radialGradient id="glow" cx="50%" cy="50%" r="45%">
      <stop offset="0%" stop-color="#5B8AEF" stop-opacity="0.06"/>
      <stop offset="100%" stop-color="#050507" stop-opacity="0"/>
    </radialGradient>
  </defs>
  <rect width="1200" height="630" fill="#050507"/>
  <rect width="1200" height="630" fill="url(#glow)"/>
  <rect width="1200" height="630" fill="url(#dots)"/>

  <!-- Central question mark -->
  <text x="600" y="340" text-anchor="middle" fill="#5B8AEF" font-family="system-ui" font-size="100" font-weight="700" opacity="0.15">?</text>
  <!-- Keyword pills scattered -->
  <rect x="430" y="220" width="90" height="32" rx="16" fill="#5B8AEF" opacity="0.2"/>
  <rect x="440" y="230" width="50" height="4" rx="2" fill="#5B8AEF" opacity="0.4"/>
  <rect x="540" y="190" width="70" height="32" rx="16" fill="#d79f1e" opacity="0.2"/>
  <rect x="550" y="200" width="40" height="4" rx="2" fill="#d79f1e" opacity="0.4"/>
  <rect x="630" y="210" width="100" height="32" rx="16" fill="#5B8AEF" opacity="0.15"/>
  <rect x="640" y="220" width="60" height="4" rx="2" fill="#5B8AEF" opacity="0.3"/>
  <rect x="460" y="370" width="80" height="32" rx="16" fill="#5B8AEF" opacity="0.15"/>
  <rect x="470" y="380" width="45" height="4" rx="2" fill="#5B8AEF" opacity="0.3"/>
  <rect x="580" y="390" width="110" height="32" rx="16" fill="#d79f1e" opacity="0.15"/>
  <rect x="590" y="400" width="65" height="4" rx="2" fill="#d79f1e" opacity="0.3"/>
  <rect x="680" y="350" width="75" height="32" rx="16" fill="#5B8AEF" opacity="0.12"/>
  <rect x="690" y="360" width="40" height="4" rx="2" fill="#5B8AEF" opacity="0.25"/>

</svg>