<svg xmlns="http://www.w3.org/2000/svg" viewBox="0 0 1200 600" width="1200" height="600">
  <defs>
    <radialGradient id="glow-383646832" cx="55.592536360766985%" cy="43.758615410774304%" r="50%">
      <stop offset="0%" stop-color="#5B8AEF" stop-opacity="0.15"/>
      <stop offset="100%" stop-color="#050507" stop-opacity="0"/>
    </radialGradient>
    <radialGradient id="glow2-383646832" cx="50.78690666276352%" cy="75.54028106645694%" r="40%">
      <stop offset="0%" stop-color="#d79f1e" stop-opacity="0.08"/>
      <stop offset="100%" stop-color="#050507" stop-opacity="0"/>
    </radialGradient>
    <filter id="blur-383646832">
      <feGaussianBlur stdDeviation="2"/>
    </filter>
  </defs>
  <rect width="1200" height="600" fill="#050507"/>
  <rect width="1200" height="600" fill="url(#glow-383646832)"/>
  <rect width="1200" height="600" fill="url(#glow2-383646832)"/>
  <path d="M 851.2954695389119 61.47827024640435 L 901.879778011646 61.47827024640435 L 901.879778011646 -29.146054344785426" fill="none" stroke="#d79f1e" stroke-width="0.5" opacity="0.1344139149572765"/><circle cx="901.879778011646" cy="-29.146054344785426" r="3.075585103163302" fill="#d79f1e" opacity="0.2344139149572765"/><rect x="849.2954695389119" y="59.47827024640435" width="4" height="4" fill="#d79f1e" opacity="0.2344139149572765" rx="0.5"/><path d="M 815.2973193746514 551.0233648824615 L 915.9177833590275 551.0233648824615 L 915.9177833590275 464.662268173258" fill="none" stroke="#d79f1e" stroke-width="0.5" opacity="0.25041055909842747"/><circle cx="915.9177833590275" cy="464.662268173258" r="3.7738097895746163" fill="#d79f1e" opacity="0.35041055909842744"/><rect x="813.2973193746514" y="549.0233648824615" width="4" height="4" fill="#d79f1e" opacity="0.35041055909842744" rx="0.5"/><path d="M 252.68002834761518 596.6182191840458 L 144.4990345018446 596.6182191840458 L 144.4990345018446 555.9167444500684 L 144.4990345018446 624.2127210200823" fill="none" stroke="#5B8AEF" stroke-width="0.5" opacity="0.1373739628295293"/><circle cx="144.4990345018446" cy="624.2127210200823" r="3.2619553055902735" fill="#5B8AEF" opacity="0.2373739628295293"/><rect x="250.68002834761518" y="594.6182191840458" width="4" height="4" fill="#5B8AEF" opacity="0.2373739628295293" rx="0.5"/><path d="M 1009.6926334359184 352.04507873954486 L 1064.7849442925235 352.04507873954486 L 991.5759969649725 352.04507873954486 L 991.5759969649725 281.84261836197345" fill="none" stroke="#5B8AEF" stroke-width="0.5" opacity="0.13867108199683534"/><circle cx="991.5759969649725" cy="281.84261836197345" r="2.3187891460576977" fill="#5B8AEF" opacity="0.23867108199683534"/><rect x="1007.6926334359184" y="350.04507873954486" width="4" height="4" fill="#5B8AEF" opacity="0.23867108199683534" rx="0.5"/><path d="M 1133.5066750336005 423.3436448608263 L 1064.8815986071163 423.3436448608263 L 1064.8815986071163 485.3870803701632 L 1064.8815986071163 603.7833113054668 L 1064.8815986071163 653.8785591599898" fill="none" stroke="#d79f1e" stroke-width="0.5" opacity="0.17916860584130911"/><circle cx="1064.8815986071163" cy="653.8785591599898" r="3.77076727420593" fill="#d79f1e" opacity="0.2791686058413091"/><rect x="1131.5066750336005" y="421.3436448608263" width="4" height="4" fill="#d79f1e" opacity="0.2791686058413091" rx="0.5"/><path d="M 771.3465474412528 210.71142256758708 L 771.3465474412528 113.3201391777583 L 771.3465474412528 51.250805413001586 L 771.3465474412528 135.69466109187093" fill="none" stroke="#5B8AEF" stroke-width="0.5" opacity="0.23707633928259664"/><circle cx="771.3465474412528" cy="135.69466109187093" r="2.197059868926676" fill="#5B8AEF" opacity="0.3370763392825966"/><rect x="769.3465474412528" y="208.71142256758708" width="4" height="4" fill="#5B8AEF" opacity="0.3370763392825966" rx="0.5"/><path d="M 1191.1302303854052 462.8910437519155 L 1095.131065126104 462.8910437519155 L 1095.131065126104 526.853894259247 L 1095.131065126104 481.8443864220029" fill="none" stroke="#5B8AEF" stroke-width="0.5" opacity="0.2783639445800167"/><circle cx="1095.131065126104" cy="481.8443864220029" r="2.8699555140314414" fill="#5B8AEF" opacity="0.37836394458001665"/><rect x="1189.1302303854052" y="460.8910437519155" width="4" height="4" fill="#5B8AEF" opacity="0.37836394458001665" rx="0.5"/><path d="M 805.394595863947 133.48634267853868 L 805.394595863947 15.419201168892528 L 661.101612477145 15.419201168892528" fill="none" stroke="#5B8AEF" stroke-width="0.5" opacity="0.13061126993531885"/><circle cx="661.101612477145" cy="15.419201168892528" r="2.2028630330240646" fill="#5B8AEF" opacity="0.23061126993531886"/><rect x="803.394595863947" y="131.48634267853868" width="4" height="4" fill="#5B8AEF" opacity="0.23061126993531886" rx="0.5"/><path d="M 911.397621273714 529.9103736551061 L 911.397621273714 602.225405071967 L 962.7475446289161 602.225405071967 L 881.8843630710078 602.225405071967 L 881.8843630710078 654.1934804498187" fill="none" stroke="#d79f1e" stroke-width="0.5" opacity="0.2649717381060923"/><circle cx="881.8843630710078" cy="654.1934804498187" r="2.6860718888631423" fill="#d79f1e" opacity="0.3649717381060923"/><rect x="909.397621273714" y="527.9103736551061" width="4" height="4" fill="#d79f1e" opacity="0.3649717381060923" rx="0.5"/><path d="M 486.1416737018813 491.5549537593289 L 619.1567190825738 491.5549537593289 L 522.077746317758 491.5549537593289 L 522.077746317758 449.1595288408732" fill="none" stroke="#d79f1e" stroke-width="0.5" opacity="0.16702889141953964"/><circle cx="522.077746317758" cy="449.1595288408732" r="2.49766511213857" fill="#d79f1e" opacity="0.26702889141953967"/><rect x="484.1416737018813" y="489.5549537593289" width="4" height="4" fill="#d79f1e" opacity="0.26702889141953967" rx="0.5"/><path d="M 154.52382776631222 140.98663420462358 L 73.65287495481451 140.98663420462358 L 73.65287495481451 236.42417419535303 L -75.69343821876376 236.42417419535303" fill="none" stroke="#5B8AEF" stroke-width="0.5" opacity="0.1947189189003403"/><circle cx="-75.69343821876376" cy="236.42417419535303" r="3.724758472165446" fill="#5B8AEF" opacity="0.2947189189003403"/><rect x="152.52382776631222" y="138.98663420462358" width="4" height="4" fill="#5B8AEF" opacity="0.2947189189003403" rx="0.5"/><path d="M 9.385010790724778 266.93817985567176 L -89.67503143924989 266.93817985567176 L -205.5264996204183 266.93817985567176 L -346.85660199581486 266.93817985567176" fill="none" stroke="#5B8AEF" stroke-width="0.5" opacity="0.10976432254992627"/><circle cx="-346.85660199581486" cy="266.93817985567176" r="2.2505103881706066" fill="#5B8AEF" opacity="0.20976432254992627"/><rect x="7.3850107907247775" y="264.93817985567176" width="4" height="4" fill="#5B8AEF" opacity="0.20976432254992627" rx="0.5"/><path d="M 196.8563900314534 82.67362931867764 L 196.8563900314534 176.37921732681767 L 329.7308868215098 176.37921732681767 L 213.50768771651562 176.37921732681767 L 325.5200001623109 176.37921732681767 L 198.45143346043835 176.37921732681767" fill="none" stroke="#5B8AEF" stroke-width="0.5" opacity="0.1163757417427263"/><circle cx="198.45143346043835" cy="176.37921732681767" r="3.356675972862484" fill="#5B8AEF" opacity="0.2163757417427263"/><rect x="194.8563900314534" y="80.67362931867764" width="4" height="4" fill="#5B8AEF" opacity="0.2163757417427263" rx="0.5"/><path d="M 991.8455398603554 373.9942164970535 L 991.8455398603554 421.95727079266555 L 1142.9623459013935 421.95727079266555" fill="none" stroke="#5B8AEF" stroke-width="0.5" opacity="0.2668405515918697"/><circle cx="1142.9623459013935" cy="421.95727079266555" r="3.6693188621054027" fill="#5B8AEF" opacity="0.3668405515918697"/><rect x="989.8455398603554" y="371.9942164970535" width="4" height="4" fill="#5B8AEF" opacity="0.3668405515918697" rx="0.5"/><path d="M 145.26924330055212 370.0860761898039 L 58.329919771444935 370.0860761898039 L 58.329919771444935 256.035152792947 L 58.329919771444935 311.66249723716754 L 58.329919771444935 268.4518280757832" fill="none" stroke="#5B8AEF" stroke-width="0.5" opacity="0.21522296765596746"/><circle cx="58.329919771444935" cy="268.4518280757832" r="3.0429148846505747" fill="#5B8AEF" opacity="0.31522296765596747"/><rect x="143.26924330055212" y="368.0860761898039" width="4" height="4" fill="#5B8AEF" opacity="0.31522296765596747" rx="0.5"/><path d="M 162.27979332314794 518.2431910737619 L 162.27979332314794 568.9275400940923 L 258.97469124709005 568.9275400940923 L 123.96242587080334 568.9275400940923 L 123.96242587080334 456.44287749027967 L 123.96242587080334 521.8997642034197" fill="none" stroke="#5B8AEF" stroke-width="0.5" opacity="0.17586421895579632"/><circle cx="123.96242587080334" cy="521.8997642034197" r="2.347374693652324" fill="#5B8AEF" opacity="0.2758642189557963"/><rect x="160.27979332314794" y="516.2431910737619" width="4" height="4" fill="#5B8AEF" opacity="0.2758642189557963" rx="0.5"/><path d="M 195.8857287633632 325.7216629226327 L 195.8857287633632 280.28081351904234 L 195.8857287633632 198.36291029973088" fill="none" stroke="#5B8AEF" stroke-width="0.5" opacity="0.20636379407083794"/><circle cx="195.8857287633632" cy="198.36291029973088" r="2.8549851741897805" fill="#5B8AEF" opacity="0.3063637940708379"/><rect x="193.8857287633632" y="323.7216629226327" width="4" height="4" fill="#5B8AEF" opacity="0.3063637940708379" rx="0.5"/><path d="M 1041.4935645840567 591.1699821200082 L 1041.4935645840567 516.3878071663844 L 1041.4935645840567 468.79144742562966 L 989.6886134099628 468.79144742562966 L 989.6886134099628 565.0613319338585" fill="none" stroke="#5B8AEF" stroke-width="0.5" opacity="0.1808133332435104"/><circle cx="989.6886134099628" cy="565.0613319338585" r="3.1987232450389875" fill="#5B8AEF" opacity="0.28081333324351043"/><rect x="1039.4935645840567" y="589.1699821200082" width="4" height="4" fill="#5B8AEF" opacity="0.28081333324351043" rx="0.5"/><path d="M 564.9476221599372 337.34282103243413 L 680.4934654200885 337.34282103243413 L 639.5624635739077 337.34282103243413 L 639.5624635739077 288.2305867635787 L 639.5624635739077 246.67924985600595" fill="none" stroke="#d79f1e" stroke-width="0.5" opacity="0.2247684045344444"/><circle cx="639.5624635739077" cy="246.67924985600595" r="3.8329851393741485" fill="#d79f1e" opacity="0.32476840453444444"/><rect x="562.9476221599372" y="335.34282103243413" width="4" height="4" fill="#d79f1e" opacity="0.32476840453444444" rx="0.5"/><path d="M 588.7424767896265 497.403701626418 L 500.88917964179495 497.403701626418 L 500.88917964179495 610.8834083428994" fill="none" stroke="#5B8AEF" stroke-width="0.5" opacity="0.151525806007686"/><circle cx="500.88917964179495" cy="610.8834083428994" r="2.335769597597313" fill="#5B8AEF" opacity="0.25152580600768604"/><rect x="586.7424767896265" y="495.403701626418" width="4" height="4" fill="#5B8AEF" opacity="0.25152580600768604" rx="0.5"/>
</svg>