<svg xmlns="http://www.w3.org/2000/svg" viewBox="0 0 1200 630">
<defs>
    <pattern id="dots" x="0" y="0" width="30" height="30" patternUnits="userSpaceOnUse">
      <circle cx="15" cy="15" r="0.6" fill="#ffffff12"/>
    </pattern>
    <radialGradient id="glow" cx="50%" cy="50%" r="45%">
      <stop offset="0%" stop-color="#5B8AEF" stop-opacity="0.06"/>
      <stop offset="100%" stop-color="#050507" stop-opacity="0"/>
    </radialGradient>
  </defs>
  <rect width="1200" height="630" fill="#050507"/>
  <rect width="1200" height="630" fill="url(#glow)"/>
  <rect width="1200" height="630" fill="url(#dots)"/>

  <!-- Bar chart -->
  <rect x="430" y="380" width="40" height="70" rx="4" fill="#5B8AEF" opacity="0.15"/>
  <rect x="490" y="350" width="40" height="100" rx="4" fill="#5B8AEF" opacity="0.2"/>
  <rect x="550" y="310" width="40" height="140" rx="4" fill="#5B8AEF" opacity="0.3"/>
  <rect x="610" y="270" width="40" height="180" rx="4" fill="#5B8AEF" opacity="0.4"/>
  <rect x="670" y="220" width="40" height="230" rx="4" fill="#5B8AEF" opacity="0.5"/>
  <rect x="730" y="180" width="40" height="270" rx="4" fill="#d79f1e" opacity="0.4"/>
  <!-- Baseline -->
  <line x1="410" y1="450" x2="790" y2="450" stroke="#ffffff12" stroke-width="1.5"/>
  <!-- Growth arrow -->
  <path d="M440,370 Q600,300 760,185" fill="none" stroke="#d79f1e" stroke-width="2.5" stroke-linecap="round"/>
  <polygon points="765,178 770,195 755,190" fill="#d79f1e"/>

</svg>