<svg xmlns="http://www.w3.org/2000/svg" viewBox="0 0 1200 600" width="1200" height="600">
  <defs>
    <radialGradient id="glow-724100599" cx="63.778427426600096%" cy="64.02975886782154%" r="50%">
      <stop offset="0%" stop-color="#5B8AEF" stop-opacity="0.15"/>
      <stop offset="100%" stop-color="#050507" stop-opacity="0"/>
    </radialGradient>
    <radialGradient id="glow2-724100599" cx="63.61796860751601%" cy="57.19838652163669%" r="40%">
      <stop offset="0%" stop-color="#d79f1e" stop-opacity="0.08"/>
      <stop offset="100%" stop-color="#050507" stop-opacity="0"/>
    </radialGradient>
    <filter id="blur-724100599">
      <feGaussianBlur stdDeviation="2"/>
    </filter>
  </defs>
  <rect width="1200" height="600" fill="#050507"/>
  <rect width="1200" height="600" fill="url(#glow-724100599)"/>
  <rect width="1200" height="600" fill="url(#glow2-724100599)"/>
  <path d="M 490.81386555489803 154.3191905852031 L 485.73387402732084 148.1390865343198 L 481.8046922810161 141.17047614167294 L 479.0751341168519 133.65053516926866 L 477.49949495351495 125.80723476529595 L 476.9565270651716 117.82568191686927 L 477.28131047246666 109.83227740199916 L 478.29609042101106 101.89689954987189 L 479.8317304700305 94.0456697328402 L 481.73867904915994 86.27627161480324 L 483.8903032918055 78.57104526391257 L 486.18202106194445 70.90631893728946 L 488.5287106859671 63.25824415937937 L 490.8617678392863 55.605999761861334 L 493.1264028965185 47.93322789912784 L 495.2793471280338 40.22837026669977 L 497.2869469213682 32.48436981023002 L 499.1235648361685 24.69804624676089 L 500.77020578631874 16.869344337677347 L 502.2133079165352 9.000579743297576" fill="none" stroke="#d79f1e" stroke-width="0.3994521253274065" opacity="0.16928883227952235" stroke-linecap="round"/><path d="M 437.80556658180694 499.07877021426276 L 429.998225578191 497.3336551884673 L 422.07355739638524 496.23837704649816 L 414.0838022615091 495.8336390019304 L 406.09050951550694 496.16116163734586 L 398.16654609710764 497.2615269148195 L 390.3976859712785 499.17066607823915 L 382.88310149497 501.9149365001224 L 375.73392068502676 505.5050916147016" fill="none" stroke="#5B8AEF" stroke-width="1.0533032312771786" opacity="0.18154886821357016" stroke-linecap="round"/><path d="M 1151.1121133114732 170.6442129661535 L 1155.9967568916522 164.30857905196498 L 1160.9852233687352 158.05436429653642 L 1166.1523458151341 151.9469224733244 L 1171.5795136085515 146.0693507177358 L 1177.3507294140495 140.5292182169405 L 1183.5446266377949 135.466053477207 L 1190.220389169902 131.05763033339315 L 1197.396071857076 127.52074215690345" fill="none" stroke="#5B8AEF" stroke-width="0.48055234112802536" opacity="0.11286318775865398" stroke-linecap="round"/><path d="M 214.7960080834087 238.25392892502896 L 206.81613924461547 237.68674878110951 L 198.82231240456701 237.37253157706 L 190.82233831411062 237.39289212779704 L 182.83484445099498 237.84004063410129 L 174.89440975655657 238.81446193074814 L 167.0571973911937 240.42010894681476 L 159.4059396467699 242.7563997952313 L 152.0524146050669 245.90690284411843 L 145.13518443606984 249.92584882398887 L 138.81098259376867 254.8252846137339 L 133.2401443942725 260.5668664301878 L 128.56928922026955 267.06171915703925 L 124.91633490877352 274.17901673393754 L 122.36218403158489 281.7603301621343 L 120.95026480114839 289.6347497653002 L 120.69168502147146 297.6305697043398 L 121.57215559472922 305.5819703086124 L 123.55742511238925 313.33172546230924 L 126.59572958410119 320.73231367792937 L 130.61759676525102 327.6478457888511 L 135.5346747794099 333.9583405240264" fill="none" stroke="#5B8AEF" stroke-width="0.6843867206873311" opacity="0.09797151589671686" stroke-linecap="round"/><path d="M 581.4218879590844 178.83546416593504 L 577.5201946268933 185.8195023346119 L 573.4046361186355 192.67969024494698 L 569.1033478104131 199.42497888884864 L 564.6504084291394 206.07113047203583 L 560.0858012003926 212.64108944049767 L 555.4556198388705 219.1650008868168 L 550.8126424346085 225.67981176845515 L 546.2173547362494 232.2283483201825 L 541.739428153717 238.85769018204556 L 537.4595266552005 245.61656902124636 L 533.4710993494589 252.55144087491567 L 529.881482359393 259.70089189332475 L 526.8111964099322 267.08826924855333 L 524.3899189214376 274.713058775072 L 522.7475871455963 282.5426658110644" fill="none" stroke="#5B8AEF" stroke-width="0.37429864074769365" opacity="0.14956345583757547" stroke-linecap="round"/><path d="M 1105.8825697311586 484.1747357902 L 1103.401287535527 476.5692615337422 L 1100.3999223129529 469.1536154526024 L 1096.915340742213 461.9523869965083 L 1092.9781030539402 454.98832500755066 L 1088.6144903406523 448.28318637449973 L 1083.8483138031745 441.8579578794502 L 1078.7024216264776 435.7326175863882 L 1073.199852531727 429.92557588191477 L 1067.3646059009477 424.45292599744573 L 1061.2220197952454 419.327632256202 L 1054.7987755902275 414.5587818829249 L 1048.122580145351 410.15101437750775 L 1041.221607372896 406.1042162859502 L 1034.1238027613952 402.41352939907443 L 1026.8561603589396 399.06967325533407 L 1019.4440698671825 396.0595379523943" fill="none" stroke="#5B8AEF" stroke-width="1.0738440696028266" opacity="0.19410218496532283" stroke-linecap="round"/><path d="M 595.9167220610738 186.17384023320574 L 594.3229468939938 194.01347547451635 L 592.7637638754334 201.86006379777078 L 591.2765546162018 209.7206114007852 L 589.9034023424305 217.60188368595826 L 588.6903936802955 225.50938708371822 L 587.6864894846374 233.44614815898942 L 586.9418753688716 241.4114196432894 L 586.5057378879806 249.39952230273002" fill="none" stroke="#5B8AEF" stroke-width="0.5976016504213222" opacity="0.07052371513588526" stroke-linecap="round"/><path d="M 286.4079467423297 229.1804491678162 L 279.7593768451217 224.73112131723704 L 273.6471963398334 219.56960511840816 L 268.2371831817182 213.67623955796472 L 263.72005615943254 207.07354590578484 L 260.2989064373047 199.84196692337824 L 258.1671146276372 192.13123001435102 L 257.4781152942419 184.1609552437687 L 258.3130113970657 176.2046402363366 L 260.65649854761125 168.5555835640908 L 264.3922136587003 161.48137459002302 L 269.3224995163703 155.18119353217566 L 275.2065119222664 149.7610092172966 L 281.8020501182694 145.23344078544875 L 288.89700232995455 141.53727343075502 L 296.3243597731085 138.56500806379572 L 303.9631140819982 136.18815455370742 L 311.7310652906512 134.27532052536455 L 319.57498649140416 132.702774756117" fill="none" stroke="#5B8AEF" stroke-width="0.4939092290559361" opacity="0.10021026561046498" stroke-linecap="round"/><path d="M 948.6191146767787 120.73018631000546 L 943.4150796788193 126.80620636757713 L 937.5845512196817 132.28388268944806 L 931.2107893835176 137.11866914345606 L 924.3821624950093 141.28638492281792 L 917.1862526016187 144.78193649677618 L 909.7051479386075 147.61620413076452 L 902.0123639961768 149.8118988306442 L 894.1714172845388 151.3992093438252 L 886.2357687425357 152.4118703027859 L 878.2497132541421 152.88401195133872 L 870.2497947392311 152.84790440663403 L 862.266412070562 152.3325393267224 L 854.3253913320483 151.36290556570944 L 846.4493977614825 149.95979285590843 L 838.6591311825791 148.13997236211753 L 830.9742913052439 145.91663341815973 L 823.4143199641447 143.2999879852135 L 815.9989335903116 140.2979811686374 L 808.7484574637994 136.91706473387072 L 801.6839685702558 133.1630007129729" fill="none" stroke="#5B8AEF" stroke-width="0.7469310676897556" opacity="0.16015459111898886" stroke-linecap="round"/><path d="M 555.6819925809662 473.6246541485305 L 562.950768642112 470.2832630351001 L 570.6953159828604 468.2777739458982 L 578.6713461076487 467.65894969906435 L 586.6358083919441 468.41216980104974 L 594.3669573016144 470.46870488134954 L 601.6766534359623 473.7196035914757 L 608.4169858278902 478.0286544436155 L 614.4835076418096 483.2437587648387" fill="none" stroke="#d79f1e" stroke-width="0.5347180337806782" opacity="0.0666996534572447" stroke-linecap="round"/><path d="M 158.99062778753722 477.7406125691443 L 154.90566597327884 470.86216165516294 L 152.05430266728314 463.3875561607424 L 150.44781405169954 455.55051626496544 L 150.03577234598987 447.5611344595467 L 150.73019198205992 439.59133011006355 L 152.4271584690832 431.77338250586973 L 155.02135091537446 424.205677070825 L 158.41351689390947 416.9604572691855 L 162.51298621508965 410.0906427677086 L 167.23746274026965 403.63469035439084 L 172.51175174765578 397.6195531600647 L 178.26642233716484 392.0622366848008" fill="none" stroke="#5B8AEF" stroke-width="0.7253516612692512" opacity="0.07409022648543595" stroke-linecap="round"/><path d="M 128.0564284548426 322.1965202699399 L 132.27491897287277 328.99389753983525 L 137.37097091068534 335.1607650304756 L 143.23229681783 340.60547426148463 L 149.7325130702511 345.2688623722642 L 156.73925880464813 349.12962838608956 L 164.12448343502948 352.2050888652388 L 171.77416577536238 354.5465328837878 L 179.59494780844972 356.2303881005265 L 187.51654519790867 357.347659240097 L 195.4903860310674 357.99408198679635 L 203.48588129385826 358.2625135473275" fill="none" stroke="#5B8AEF" stroke-width="0.3927276939585468" opacity="0.13848493052575966" stroke-linecap="round"/><path d="M 111.52854194470147 30.102232298861367 L 109.48097587043844 22.36870314513555 L 107.14417330993592 14.717601669319873 L 104.41920379837178 7.195996710200716 L 101.19489524481253 -0.1254672384535862 L 97.35239954071257 -7.1422490338333855 L 92.77582664675236 -13.703878446278793 L 87.37214666802419 -19.603051497435388 L 81.10264593041153 -24.572292938648953 L 74.02356879927972 -28.298774787724124 L 66.32341064036314 -30.468467007295914 L 58.33206463048743 -30.84047366105852" fill="none" stroke="#5B8AEF" stroke-width="0.8258750172918081" opacity="0.11534908241375773" stroke-linecap="round"/><path d="M 1172.123435126675 339.287087013613 L 1172.7765893159178 347.2603792824989 L 1172.6420974024136 355.25924869793516 L 1171.6991383414593 363.20348108435013 L 1169.9229758825722 371.00381741810145 L 1167.2885730468522 378.5576192224348 L 1163.7771641931793 385.74580451931934 L 1159.3857279503948 392.4327535789098 L 1154.1382681486527 398.47131016381496 L 1148.096132829971 403.71464887028253 L 1141.3629502506249 408.034863257693 L 1134.0796991926209 411.34458439792263 L 1126.4084858178164 413.6144930652973 L 1118.5091159159467 414.8793864020789 L 1110.516805307611 415.230058813149 L 1102.528649821285 414.7948899651415 L 1094.601360372832 413.7187477810199 L 1086.757553738539 412.14563065765617 L 1078.995827172834 410.2076934246095 L 1071.3007320933368 408.0201121764041 L 1063.6506713588462 405.67990475854407 L 1056.0232681714235 403.26687334215217 L 1048.398536155861 400.84541475467734" fill="none" stroke="#d79f1e" stroke-width="1.093803055209016" opacity="0.08580584967779267" stroke-linecap="round"/><path d="M 971.9233468975515 357.8456535739105 L 965.4524958810227 362.54970365037536 L 958.3561783026842 366.24324894282313 L 950.8765945788813 369.08152787883745 L 943.1730691927631 371.2392342132196 L 935.3429637617143 372.8791881572859 L 927.4428987420961 374.1397327561817 L 919.5047628926733 375.1327076985186 L 911.5462197323003 375.94608999761283 L 903.5770793947481 376.64808877282513 L 895.6029744943962 377.2912458595342 L 887.6274074563242 377.9160101520636 L 879.6528607825635 378.55366628824646 L 871.6813877299362 379.2286606372869 L 863.7149248398632 379.96041812518143 L 855.7554617617432 380.76474859709174 L 847.805142505533 381.6549304461175 L 839.8663378648656 382.6425441749193 L 831.9417099937699 383.73811393748684 L 824.0342802069323 384.95160236604073 L 816.1475060396477 386.2927933420961" fill="none" stroke="#5B8AEF" stroke-width="0.6073176333249164" opacity="0.08203568635603212" stroke-linecap="round"/><path d="M 431.1949378024763 146.65982310970307 L 433.9025653601127 139.13195800669226 L 437.2956400692017 131.887163736422 L 441.18564082769655 124.89660624084917 L 445.4154549505864 118.10626954184806 L 449.8576898316456 111.45295839163863 L 454.40971738336975 104.87427728002177 L 458.9883510094532 98.31408565796545 L 463.5253743040889 91.72504782047106 L 467.964218320435 85.06947393097448 L 472.25768157691726 78.3192018427371" fill="none" stroke="#5B8AEF" stroke-width="0.37373848449147234" opacity="0.17086290856397846" stroke-linecap="round"/><path d="M 184.06327226388422 575.7084695509209 L 177.1221341168956 579.6859814898621 L 169.79860315623563 582.9055923775712 L 162.12680532591062 585.1735249274105 L 154.20537694152333 586.2919936802253 L 146.20797800966952 586.0880075905436 L 138.37712325370407 584.4516354473642 L 130.99372959266125 581.3717818719368 L 124.32587845388592 576.9514016630484 L 118.5753956890279 571.3897519104056 L 113.84613539031389 564.9373029933658 L 110.14526730890917 557.8448016402436 L 107.40929841947516 550.3271907008527 L 105.53730814689318 542.5492955858901 L 104.4182091132667 534.6279562197894 L 103.94766401896406 526.6418065020451 L 104.03609113242224 518.642295226623" fill="none" stroke="#5B8AEF" stroke-width="0.4880874906611105" opacity="0.09348800590889901" stroke-linecap="round"/><path d="M 579.6833119260535 568.7117705907261 L 587.3716662434999 566.5006152616271 L 595.3613824791195 566.0951100529334 L 603.2249429457241 567.5663057530537 L 610.542981618615 570.7983809350495 L 617.0007091684813 575.5204307962538 L 622.4402526103864 581.3865510766117 L 626.8525804221548 588.0597334719532 L 630.3305028055946 595.2641804246879 L 633.0155911892115 602.8001143662883 L 635.0589075648456 610.5347674411887 L 636.5992070105092 618.3850844804991 L 637.7541640536372 626.3012751192173 L 638.6190451698963 634.2543865012324 L 639.2688188058021 642.2279549760171 L 639.7614318068297 650.2127738488043 L 640.1411568736694 658.2037568217316" fill="none" stroke="#5B8AEF" stroke-width="0.9310488852816863" opacity="0.07516692054232904" stroke-linecap="round"/><path d="M 657.9223939487349 450.8375481939118 L 656.4863852176085 458.70761038706684 L 655.0638708451628 466.58012287420746 L 653.6806256274914 474.4596300077653 L 652.356786153121 482.34933526500396 L 651.1071936178618 490.25114002694437 L 649.9418937352633 498.16581476338274 L 648.8667438343489 506.0932388526165 L 647.8840799612514 514.0326577049324 L 646.9934003572109 521.9829212127003 L 646.1920272958384 529.94268259207 L 645.4757170005179 537.9105492802631 L 644.8391964489482 545.8851866756203 L 644.2766151590432 553.8653810524665 L 643.7819084576795 561.8500704815943 L 643.3490755098777 569.8383528776603 L 642.9723801908817 577.8294792461172 L 642.6464857381575 585.8228385402865 L 642.3665352921781 593.817938774042" fill="none" stroke="#5B8AEF" stroke-width="0.9424837238353136" opacity="0.08053147109250142" stroke-linecap="round"/><path d="M 935.9197501726076 201.62057550699478 L 931.3165105329057 195.07762626223692 L 925.6820259981187 189.39849041008068 L 919.3158743708738 184.55368768355737 L 912.4564316009916 180.43688736210495 L 905.2760873187019 176.9094724463642 L 897.8926172207351 173.82980212108077 L 890.3844368898905 171.0680584473274 L 882.8038796598165 168.51166409559409 L 875.1869664993129 166.06572176075733 L 867.5600063084923 163.6512905135197 L 859.9438507605119 161.20299015021342 L 852.3565682450484 158.6666258170501 L 844.8151040817351 155.99710933021936 L 837.3363070625401 153.15675809389663 L 829.9375614842143 150.1139692633656 L 822.6371669281875 146.84223588083944 L 815.4545441622023 143.31946279681154 L 808.4103045061 139.52753879079603" fill="none" stroke="#5B8AEF" stroke-width="0.5238995094894895" opacity="0.09843631715440951" stroke-linecap="round"/><path d="M 1018.5839847748093 70.51605511015097 L 1015.4414787767028 77.87300121922806 L 1011.9745586119441 85.08274910463915 L 1008.1569649887034 92.11311032777644 L 1003.9696384511552 98.92972946543878 L 999.4009176706242 105.49682855328146 L 994.4466793204047 111.77819165130516 L 989.1103323264654 117.73834271988346 L 983.4025833455206 123.3438401617278 L 977.3409110398233 128.56458042134062 L 970.9487246533146 133.37498094521936 L 964.254232521811 137.7549096091632 L 957.2890979436517 141.6902495319818" fill="none" stroke="#5B8AEF" stroke-width="0.6572289241278679" opacity="0.10017031683594468" stroke-linecap="round"/><path d="M 1119.79172561308 369.76618951641314 L 1114.7278653622166 375.9595181335402 L 1108.7695685142644 381.2979353776008 L 1102.0812583930685 385.6872983977563 L 1094.8428215710853 389.0939143687983 L 1087.2280524932296 391.5465235694117 L 1079.3855932729277 393.12634424844566 L 1071.4280330035936 393.949286870938 L 1063.4304705185496 394.1467566099286 L 1055.4359746689368 393.8500478124108 L 1047.4640614303776 393.1802722403833 L 1039.5191165672077 392.2433351447418 L 1031.597181831719 391.12845844902307 L 1023.6907070722484 389.9087630453031 L 1015.7915021131398 388.6428400563366 L 1007.8923362328173 387.3766732445974 L 999.9876276465873 386.14558341571376 L 992.0735778154074 384.9760470675823 L 984.148005032871 383.88733403435526 L 976.2100455141295 382.89295046710225" fill="none" stroke="#5B8AEF" stroke-width="0.7093562444715558" opacity="0.15607256722453636" stroke-linecap="round"/><path d="M 75.60125015471189 515.1056751213529 L 81.2260773686884 509.41697414372106 L 86.26037692899457 503.19959302808235 L 90.82833064036791 496.63196035787684 L 95.05613549815905 489.84037246663684 L 99.0584368146595 482.9134984117735 L 102.93391905925955 475.9148815933022 L 106.76539261507568 468.89207514636934 L 110.62162917722348 461.8828355601692 L 114.55958171369542 454.91917776986287 L 118.62640013936524 448.0299842109162 L 122.86103615982324 441.24265352984287 L 127.29540432225897 434.58409670422543 L 131.95514074591688 428.08126220978875 L 136.86003275774698 421.7612911376805 L 142.02420810052107 415.6513571749372 L 147.45618194692855 409.7782268229064 L 153.1588655920122 404.16757630410774 L 159.12963986886726 398.8431181593905 L 165.36058479647295 393.8256162601238 L 171.8389314229934 389.1318943907912 L 178.547762448739 384.77396067537137 L 185.46694025874936 380.75836875966826" fill="none" stroke="#5B8AEF" stroke-width="0.714113168611244" opacity="0.13895474920000636" stroke-linecap="round"/><path d="M 0.03727376462764748 313.2300810484356 L 3.1866335833728936 320.58409578407986 L 6.359662349556677 327.9279291460898 L 9.609815521599762 335.23795680392107 L 12.991058892272235 342.48828047037097 L 16.558415892969098 349.6488645268275 L 20.368137950728762 356.68349442772626 L 24.477264363100577 363.54753697764886 L 28.942268471139496 370.18558927596615 L 33.81643298166436 376.5292885377802" fill="none" stroke="#d79f1e" stroke-width="0.8646434730685519" opacity="0.17177597504657507" stroke-linecap="round"/><path d="M 544.2777947263223 38.44798264952748 L 537.4184430008122 34.3310306330787 L 531.5238841144673 28.92231770527307 L 526.6622264019852 22.569028455863407 L 522.7722659157029 15.578448550364733 L 519.717743120148 8.184539537438205 L 517.3356202081291 0.5474268348500084 L 515.4666143238039 -7.231185959495648 L 513.9696662471342 -15.089884735740664 L 512.7262409525864 -22.992662319405703 L 511.63951148777454 -30.91850732611065 L 510.6315122524981 -38.85474935503606 L 509.6398213610118 -46.79304571985787 L 508.6144439658498 -54.72706117216768 L 507.515126572914 -62.65117003497294 L 506.3091374685428 -70.55974704225673 L 504.969474014179 -78.44678082112708 L 503.47343677623684 -86.30565304191616 L 501.8015112344936 -94.12899407902215 L 499.93650599338116 -101.90856703970728 L 497.8629062130253 -109.63515645230765 L 495.5664102251291 -117.29845249106125 L 493.0336252877981 -124.88693062974157" fill="none" stroke="#5B8AEF" stroke-width="0.3980615068683687" opacity="0.16569031717520688" stroke-linecap="round"/><path d="M 179.61890500952438 427.46824753818487 L 180.4123484328504 419.5076918079622 L 182.45850488533935 411.77378957351823 L 185.62301424415642 404.4262811170441 L 189.7580607520253 397.5778221387219 L 194.71551013459091 391.2989929788148 L 200.35511845005593 385.62494521305376 L 206.54933511104397 380.5621712741209 L 213.18588563715159 376.0949353150047 L 220.168816550574 372.1912606540769" fill="none" stroke="#5B8AEF" stroke-width="0.5788123906957043" opacity="0.07703747201572986" stroke-linecap="round"/><path d="M 599.7756340539901 214.5407727055907 L 599.5970808756109 222.53877988003677 L 599.6526953070615 230.53858656738956 L 599.9743892824074 238.53211601227346 L 600.589610391534 246.50842486956358 L 601.5193041524107 254.45422058245396 L 602.7760580268296 262.35488952243196 L 604.3626764369079 270.1959763106776 L 606.2714015883688 277.9649381651457 L 608.483898468355 285.65290652850746 L 610.9719859501374 293.25615719404504 L 613.6989621748077 300.77703484695786 L 616.6212859029339 308.22418356495933 L 619.6903616222593 315.612063790643 L 622.8542306805048 322.95984798605025 L 626.0590660473589 330.2898568722223 L 629.250469281986 337.62572392349927 L 632.3746460677584 344.99047235173776" fill="none" stroke="#d79f1e" stroke-width="0.3783880975462441" opacity="0.12818074123383535" stroke-linecap="round"/><path d="M 1003.1331895865189 429.75869031146107 L 1000.9987291011986 422.04869170986547 L 997.476088567016 414.8660039352971 L 992.7736360747358 408.3939918402954 L 987.1258832114639 402.72805082441783 L 980.758077600201 397.88542223065105 L 973.8641762891391 393.82658930561706 L 966.5984196107864 390.47863770934595 L 959.0764893734859 387.75456621520635 L 951.3815278031266 385.56651538611374 L 943.5715101908567 383.8334184770999 L 935.6860444234723 382.4845561300055" fill="none" stroke="#5B8AEF" stroke-width="0.9568795102913303" opacity="0.06146456559256863" stroke-linecap="round"/><path d="M 260.89419958223317 24.406189296583733 L 265.86973662607124 30.670694953488763 L 270.765068692634 36.99807387039287 L 275.64868809611505 43.334497271803436 L 280.58480358129543 49.63011192940143 L 285.631991876983 55.83703470223131 L 290.84208759086675 61.907858588012424 L 296.2591927134119 67.79470596936139 L 301.9187643629013 73.44884151286365 L 307.8468064473376 78.82083528102386 L 314.0592426716385 83.86123567771791 L 320.56157812083654 88.52166845870542 L 327.3489573293051 92.75622669781943 L 334.4066942148978 96.52296932955637 L 341.71128687485026 99.78531910727317 L 349.23185125444445 102.5131591708361 L 356.93183323439865 104.68347654587157 L 364.7708108920551 106.28048289612892" fill="none" stroke="#5B8AEF" stroke-width="0.7848235054336598" opacity="0.07020912977410905" stroke-linecap="round"/><path d="M 642.9837352796382 313.819422439588 L 646.1388861607222 321.170954451189 L 649.1435723406635 328.58525556188516 L 651.9435033502988 336.079278936634 L 654.487601651525 343.66397166829415 L 656.7301587119815 351.3432253970491 L 658.6332320229247 359.1135736500668 L 660.1690099856984 366.96477649097335 L 661.3217664198268 374.8812878819571 L 662.0890141037131 382.8444110752508 L 662.481576041317 390.83477371565357 L 662.5225024294526 398.83466902939074 L 662.2449995706874 406.8298545909257 L 661.6897178590834 414.8105602126586 L 660.9018135276956 422.77166608838843 L 659.9281523960456 430.71219403057927 L 658.8149071677913 438.634358195867 L 657.6056690494034 446.54243907387007" fill="none" stroke="#5B8AEF" stroke-width="0.6854600721902494" opacity="0.13709689150429188" stroke-linecap="round"/><path d="M 41.14995228180194 203.6240001225956 L 39.02185143077701 211.33575652226662 L 37.47629602896002 219.18504047049493 L 36.43491572865617 227.11697132433744 L 35.83316110660066 235.09430743201366 L 35.62049295746387 243.09148019858202 L 35.759318977112876 251.09027556640262 L 36.22353329233225 259.0767957767036 L 36.997077166111225 267.03930981909866 L 38.0726896743794 274.96667115387186 L 39.45088539991789 282.8470630566967 L 41.13912815641307 290.66689914162464 L 43.151131502775506 298.4097566589903 L 45.50618894953132 306.0552588938 L 48.228409203214355 313.577859301268 L 51.34570111340573 320.9455245452008 L 54.88832256329623 328.11837845858673 L 58.8867901593067 335.0474661967853 L 63.368968327713056 341.6739342504819 L 68.35625856077175 347.9290870169008 L 73.85904034677785 353.73592717447355" fill="none" stroke="#d79f1e" stroke-width="0.7497889833756672" opacity="0.12147906902315053" stroke-linecap="round"/><path d="M 605.1653922559532 507.373822902969 L 611.9043865469629 511.684966132524 L 617.832505819907 517.0568747212611 L 622.889252231497 523.2560130266122 L 627.0855796543815 530.0670948907472 L 630.4842579292201 537.3092621067219 L 633.1786287429363 544.841882229773 L 635.274387551919 552.5624906911944 L 636.8765362088031 560.4004189685675 L 638.0815312489025 568.309147498068 L 638.9735270033498 576.2592634452758 L 639.6233575796527 584.2328272797291 L 640.0891116174022 592.2192578451519 L 640.417495266278 600.2125152649496" fill="none" stroke="#5B8AEF" stroke-width="0.7046592908001781" opacity="0.14675140211673054" stroke-linecap="round"/><path d="M 463.05071788982053 246.70778710707455 L 455.8344216096016 250.16105628223283 L 448.71819741487997 253.81610118078868 L 441.7566087285211 257.75771036511424 L 435.0250602396082 262.08047047196897 L 428.6287174025733 266.88534282314663 L 422.7131387675709 272.27105813432894 L 417.47434271163905 278.31713255368174 L 413.162485042108 285.0556697419524 L 410.0685172966218 292.4331600733517 L 408.48119129236875 300.27410364898225 L 408.61191284566087 308.27303556990177 L 410.51329843315693 316.0437969771039 L 414.04401287925043 323.22251939130456 L 418.91407348579304 329.5693697667744 L 424.7819336663195 335.00703626094196 L 431.3396454388602 339.5892209263915 L 438.3514528632479 343.4407864059467 L 445.65400145865306 346.70770911879845" fill="none" stroke="#5B8AEF" stroke-width="0.9537696390663133" opacity="0.09709135536900318" stroke-linecap="round"/><path d="M 1059.4856812895675 587.9227168801813 L 1067.4848133810085 588.0405548353573 L 1075.4227025451835 587.0456098030699 L 1083.1187637336557 584.8614298234681 L 1090.366763913574 581.4752087155215 L 1096.962757403904 576.9483036054575 L 1102.7366017919617 571.4109106283881 L 1107.5761987399894 565.0408006308573 L 1111.4361810267787 558.0336231145051 L 1114.3303586690595 550.5754909237403 L 1116.3141382567885 542.8253542444739 L 1117.4649958516354 534.9085665880831 L 1117.8665513724136 526.9186508711476 L 1117.598152700597 518.9231545042567 L 1116.7294258141696 510.9704622810659 L 1115.3183414767757 503.0958930234645 L 1113.411394213351 495.3264945824964 L 1111.044872940662 487.684532984457 L 1108.2465919383524 480.1898933378754" fill="none" stroke="#5B8AEF" stroke-width="1.0803520340380968" opacity="0.16826301907573968" stroke-linecap="round"/><path d="M 264.95411743640625 541.9258768399832 L 262.25356753677613 549.4562838834044 L 260.10578831226536 557.1625828915379 L 258.49561268145226 564.998866094558 L 257.3997407588367 572.9234521865393 L 256.7875388819165 580.8999933455816 L 256.6218621632111 588.8982776131529 L 256.8598341752295 596.8947374124326 L 257.4535330325439 604.872677100524 L 258.35054348738424 612.8222288013376 L 259.4943415656917 620.7400394808159 L 260.82448503243046 628.6286843807903" fill="none" stroke="#5B8AEF" stroke-width="0.4328407373897921" opacity="0.11016381550122231" stroke-linecap="round"/><path d="M 981.4099653537431 278.64385018062023 L 989.3861146375432 279.26113666397725 L 997.341859240644 280.10145077800365 L 1005.2622538755406 281.2272166628573 L 1013.1234076432423 282.71121849592544 L 1020.8883480665706 284.6362380340504 L 1028.501731133283 287.09314631062404 L 1035.883640825983 290.1765550232052 L 1042.9232827512221 293.97700783364985 L 1049.4742037318715 298.56889571395453 L 1055.3535779751094 303.9941107795489 L 1060.3485923345502 310.2430972212832 L 1064.2323078261586 317.2371485493935" fill="none" stroke="#5B8AEF" stroke-width="0.40147210327045624" opacity="0.1152030557278558" stroke-linecap="round"/><path d="M 962.4594998371133 28.406881181712674 L 964.9025424275426 36.024724899021976 L 966.9913166001328 43.74722594828835 L 968.6503874741672 51.57330311599701 L 969.8057985628228 59.489427497044325 L 970.3870880307232 67.4682809581945 L 970.3299484364564 75.46807689726488 L 969.5793864498772 83.4327901189887 L 968.0931221219762 91.2935164434201 L 965.8448507878333 98.97109913643429 L 962.8269000834 106.38001090170796 L 959.0517845576966 113.43327275475106 L 954.5522290731843 120.04795343047503 L 949.3794249461816 126.15058380300002 L 943.5995872409918 131.68172076583744 L 937.2892294876681 136.59897457513662 L 930.5298508109378 140.87808662141026 L 923.4028331846757 144.51204035735 L 915.9852334274792 147.50857399507834" fill="none" stroke="#5B8AEF" stroke-width="0.6513165900257027" opacity="0.11208195873167458" stroke-linecap="round"/><path d="M 866.8928429795861 334.00597895216475 L 865.5084302315195 341.8852810369303 L 862.3922157079814 349.2534020350743 L 857.8390175112789 355.8312729810222 L 852.2103456582795 361.51616991687354 L 845.8373881544284 366.35201654948173 L 838.975255671637 370.4643319299724 L 831.8011706932845 374.0044597134538 L 824.4317280563689 377.1175474445034" fill="none" stroke="#5B8AEF" stroke-width="0.9706882103675456" opacity="0.18347220624958735" stroke-linecap="round"/><path d="M 385.1274710079317 18.702615154302965 L 390.98644979234706 24.149850012813374 L 397.27757456930004 29.09168661885454 L 404.01007935473547 33.41295718595509 L 411.1645990984433 36.99246095559897 L 418.6886650454511 39.71062791608497 L 426.4951371089343 41.459625892658174 L 434.4648931358064 42.15459990090284 L 442.4543486598287 41.74399007434142 L 450.30719652576846 40.216645845162525 L 457.8685402969137 37.60396898520384 L 464.9988437825791 33.976466786402625 L 471.58514039441644 29.43546503118386 L 477.54771319123677 24.10182409439232 L 482.84165712522116 18.103978012353394 L 487.4539366565852 11.567398056094877 L 491.3973785284013 4.606847344864672 L 494.7033079729292 -2.6781255794366396 L 497.4143033543458 -10.204778490388348 L 499.5780320103012 -17.906614524958137 L 501.2425864299402 -25.731527213548347 L 502.4533265229664 -33.639378276077224" fill="none" stroke="#5B8AEF" stroke-width="0.8123271963150833" opacity="0.11726480973757097" stroke-linecap="round"/><path d="M 424.7827014069924 261.4312736603577 L 418.10063443602166 265.8301349897772 L 411.8319266775838 270.80037673835454 L 406.1553028920919 276.43739211867666 L 401.30755657800296 282.8013025261413 L 397.5792714186438 289.87943008719174 L 395.2836714171053 297.54299457331285 L 394.6883813777357 305.5208156899479 L 395.923596331819 313.4248807211334 L 398.9166178659712 320.8438983175609" fill="none" stroke="#5B8AEF" stroke-width="0.5595090211646208" opacity="0.1275412277074257" stroke-linecap="round"/><path d="M 1152.1780706719394 128.416891642109 L 1153.9762431714116 120.62159975134941 L 1155.53339958133 112.77460899596747 L 1156.8497962201127 104.88365848988764 L 1157.9228329007244 96.95594808384595 L 1158.7465940202057 88.99847250310863 L 1159.3113344459596 81.01843063282253 L 1159.6029026373844 73.02374564905054 L 1159.6021033060956 65.0237456889837 L 1159.2840185069604 57.030071811437836 L 1158.6173333181607 49.057899531623804" fill="none" stroke="#5B8AEF" stroke-width="0.8372912539808506" opacity="0.15275028416549336" stroke-linecap="round"/><path d="M 981.1584842303574 565.3222298088122 L 987.0355572660183 570.7499376614428 L 992.8410165501425 576.2541762555061 L 998.6232176866789 581.78284246144 L 1004.4355515406306 587.2798211925439 L 1010.3349795620882 592.6832228081598 L 1016.3800216129375 597.9232100794673 L 1022.6279398448097 602.919560524326 L 1029.130804956257 607.579254220517 L 1035.930133660048 611.7945987115166 L 1043.0499192341802 615.4427014209233 L 1050.4882398425086 618.3874232291281 L 1058.2083161774667 620.4851413661569 L 1066.1308954040603 621.5954288957392 L 1074.130895293622 621.5967581858351 L 1082.0416846814194 620.4053677116782 L 1089.6692758096558 617.9929304419342 L 1096.8155523679145 614.3969978295399" fill="none" stroke="#5B8AEF" stroke-width="1.068810755372425" opacity="0.0758180842436003" stroke-linecap="round"/><path d="M 903.5483165194971 568.2778715939623 L 909.2814674461914 573.8573859502253 L 914.5523980683341 579.8754662401981 L 919.3773243106184 586.2566954914095 L 923.7883102800248 592.9307649230007 L 927.8305774710851 599.8343926618114 L 931.5596305991701 606.9121156549724 L 935.0385470561014 614.1160826375238 L 938.3356314674808 621.4050629766549 L 941.522497132237 628.7429023885525 L 944.6725280613634 636.096629684662 L 947.8596048941242 643.4343773814747 L 951.1569401345877 650.7232442558249 L 954.6358554760214 657.9272117770687 L 958.3643421025073 665.0052332150212" fill="none" stroke="#5B8AEF" stroke-width="0.31094877496871576" opacity="0.11278645302764441" stroke-linecap="round"/><path d="M 24.091348808301312 251.6497105600544 L 25.464266735434542 259.5310236717989 L 26.97047893636321 267.3879521305399 L 28.629350238022564 275.2140716034671 L 30.462395750688902 283.00123695091503 L 32.49359343574919 290.7390813512765 L 34.74964242426591 298.4143821897722 L 37.26012343528118 306.010268253513 L 40.0574922642175 313.5052484159214 L 43.17680455729107 320.87205850023065" fill="none" stroke="#5B8AEF" stroke-width="0.904881590886452" opacity="0.06249692713026746" stroke-linecap="round"/><path d="M 967.3470428992748 300.87500405538594 L 973.187670031877 306.3419112887228 L 978.0117192567749 312.7238035688982 L 981.484325227311 319.9308145841108 L 983.2829738090225 327.72599663968253 L 983.1835739168234 335.72537909468684 L 981.1453050195933 343.4613638350146 L 977.341203355091 350.4990346518496 L 972.1050666933794 356.54741235664613" fill="none" stroke="#5B8AEF" stroke-width="0.9601022235397727" opacity="0.08201437007729634" stroke-linecap="round"/><path d="M 1107.1065494358104 569.8881838330478 L 1111.2526460879621 563.0464090230284 L 1114.4342317209316 555.7062787203647 L 1116.698181327407 548.0333045786554 L 1118.117761356493 540.1602624384773 L 1118.7757112203644 532.1873644724532 L 1118.7525844681345 524.1873979004398 L 1118.1202469825148 516.2124277246786 L 1116.9392129193748 508.30008555932056 L 1115.2583780480675 500.4786538402938 L 1113.1160444966986 492.7708391723948 L 1110.54152759993 485.19641756092807 L 1107.5569441653377 477.77400139623103 L 1104.1789803229324 470.5221491997641 L 1100.4205492353092 463.4599826936849 L 1096.2923032759763 456.60742220148546" fill="none" stroke="#5B8AEF" stroke-width="0.8806647921822335" opacity="0.17632424682207604" stroke-linecap="round"/><path d="M 49.74331019899962 417.9072572933078 L 57.11381374951154 421.01783238674165 L 64.83490765932471 423.1118020225879 L 72.76839990178487 424.14121974092404 L 80.76837731873356 424.1222111031236 L 88.70699548398557 423.13309956930607 L 96.49384466365092 421.2987114279507 L 104.0830221481922 418.7680227651295 L 111.4686732189433 415.6935865141864 L 118.67408011883659 412.2176533435155 L 125.73957335927938 408.4654799374404 L 132.7124185711171 404.54381834421855 L 139.6396718471055 400.5421734261495" fill="none" stroke="#5B8AEF" stroke-width="0.4376236949756852" opacity="0.14265032927629087" stroke-linecap="round"/><path d="M 362.16218451138684 229.9175414396066 L 355.219247834758 225.94316975287143 L 348.8536980687351 221.09757627257554 L 343.2887754081818 215.35026074425627 L 338.78264195719953 208.74005943703884 L 335.5971508140074 201.40162321556463 L 333.9466447709691 193.5737352627453 L 333.94086740661197 185.57373734886673 L 335.54902172687383 177.73703908478745 L 338.6073741510634 170.34471330398924 L 342.8673826765446 163.57327864338535 L 348.0572018917777 157.4851117178488 L 353.92877609566887 152.0514558244194 L 360.28011955314315 147.18725637484926" fill="none" stroke="#d79f1e" stroke-width="0.97185694047802" opacity="0.06022357202145437" stroke-linecap="round"/><path d="M 1049.3979211195362 415.43012802276303 L 1043.0132665882757 410.6097352466032 L 1036.3132233724905 406.2383028833369 L 1029.3491035829002 402.3011674327541 L 1022.166457250742 398.77844239847525 L 1014.8050812099535 395.6463276518376 L 1007.2991587411262 392.8784533967543 L 999.6775558115513 390.44716386568354 L 991.9642581349303 388.3246561620855 L 984.1789077289968 386.4839174362389 L 976.3373887947165 384.8994361951627 L 968.4524165148417 383.5476920826896 L 960.5340931657656 382.4074485387588 L 952.590408830726 381.4598836674988 L 944.6276757382406 380.68859792418596 L 936.6508942679819 380.0795352215527 L 928.6640546559275 379.6208490419923 L 920.67038178623 379.3027389159958 L 912.6725318469851 379.1172763879199 L 904.6727497250295 379.05823401975454 L 896.6729953745739 379.120926382663 L 888.6750464145977 379.30206840875" fill="none" stroke="#5B8AEF" stroke-width="0.4841980037205843" opacity="0.14459167219912245" stroke-linecap="round"/><path d="M 923.7727977911815 124.70623819376632 L 918.0338067924012 130.2797453764941 L 911.6728079117789 135.1313114371309 L 904.7986000831287 139.2234095210634 L 897.5210626910449 142.54567523993995 L 889.9433901247 145.11060769075894 L 882.1570939540458 146.94734173325233 L 874.2398516347457 148.0950673352513 L 866.2556292963177 148.5972561946928 L 858.2562540314001 148.49727934225047 L 850.2836716905321 147.83551592676235 L 842.3723351845972 146.64776397881064" fill="none" stroke="#5B8AEF" stroke-width="0.3293166890876911" opacity="0.08535640687931162" stroke-linecap="round"/><path d="M 1088.390245236638 487.4258460884103 L 1088.5720206133055 479.4279114980028 L 1087.7399032736676 471.4713053915606 L 1085.9883697267387 463.66540184142735 L 1083.4111702212442 456.0918925683836 L 1080.095797088895 448.8112125868642 L 1076.1216522784855 441.8681460434776 L 1071.5603151489906 435.29591631597333 L 1066.4767080017423 429.1187860459818 L 1060.9304029303723 423.3535020065526 L 1054.9766684259318 418.0099970284848 L 1048.6671019201578 413.0917279722807 L 1042.049855204669 408.5959470716638 L 1035.1695534741984 404.51410335862397 L 1028.0670492079832 400.83246878300463 L 1020.7791504227479 397.53299438604904 L 1013.338431855705 394.5943370045116 L 1005.7731922494224 391.9929624256526" fill="none" stroke="#5B8AEF" stroke-width="0.36675175468751775" opacity="0.09207066588665855" stroke-linecap="round"/><path d="M 445.111549666669 94.9076238530258 L 451.31234793063754 89.85291309081941 L 457.2373838249125 84.47760382980445 L 462.86209492372797 78.78878804311718 L 468.1643880875549 72.79832168357274 L 473.1254483689762 66.52234519508073 L 477.7304230427174 59.980616963626744 L 481.9689028424244 53.195685940581974 L 485.83514243469676 46.191958974519856 L 489.3279938857536 38.99473807052849 L 492.4505638975505 31.629308244549122 L 495.2096397392796 24.120147139632884 L 497.6149529460649 16.4903064874787 L 499.6783601173268 8.76098886911259 L 501.4130166629673 0.9513175143969121 L 502.8326055026239 -6.921723037151292" fill="none" stroke="#5B8AEF" stroke-width="0.5798496918193297" opacity="0.10045272646492939" stroke-linecap="round"/><path d="M 350.6556112089453 134.42879437209518 L 358.33933503615947 132.20160148707137 L 366.0327270079661 130.00803818318857 L 373.715567128592 127.77779880569992 L 381.3697155545357 125.45099587600768 L 388.977471560203 122.97671849498659 L 396.52055596727865 120.31178366881684 L 403.97951068684654 117.4197265304747 L 411.33338272885715 114.27003353119126 L 418.55961421928174 110.83760313178091 L 425.63409778272785 107.10240804845117 L 432.5313811572672 103.04932501805283 L 439.22501815218465 98.66808960092753 L 445.68806619306787 93.95332449317976 L 451.8937245684616 88.9045816667025 L 457.81609340803203 83.5263340591555 L 463.43101389981337 77.82785462416811" fill="none" stroke="#d79f1e" stroke-width="0.6591749666068587" opacity="0.10694251535783639" stroke-linecap="round"/><path d="M 980.4956422096565 395.129308847305 L 973.3089473814399 391.61485050410545 L 965.8486067168135 388.72637042494244 L 958.2004214238407 386.38004100980174 L 950.4252060846912 384.4969514129278 L 942.5651542212963 383.0071243408344 L 934.649143099847 381.8509375371166 L 926.6967998975786 380.9790214899341 L 918.7214589052561 380.3513782344286 L 910.7322401963105 379.9361862058039 L 902.7354793174114 379.7085561425232 L 894.7356982257153 379.6493743468351" fill="none" stroke="#5B8AEF" stroke-width="0.6187685234093891" opacity="0.11728778392881517" stroke-linecap="round"/><path d="M 1113.8594124065057 317.57215807101323 L 1116.4852186368316 325.12895247345546 L 1117.9373256858362 332.99606027227395 L 1118.1525275568226 340.99316525812503 L 1117.1000456826703 348.9236306861173 L 1114.785642707775 356.5815376370926 L 1111.2566508729774 363.76110702737867 L 1106.6060061598148 370.2704467597888 L 1100.9715136110658 375.94957466098026 L 1094.5266931506994 380.6892254111562 L 1087.4626686095894 384.4441631313582 L 1079.9653620336944 387.2352908796068 L 1072.1952518619325 389.1393360257844 L 1064.2755991980753 390.27030980260577 L 1056.2905645248666 390.75941231502554 L 1048.2905915155684 390.7386313019997 L 1040.301029385154 390.3301010531232 L 1032.3307856112942 389.64074324671907 L 1024.3793446831694 388.76063690851777" fill="none" stroke="#5B8AEF" stroke-width="0.3658906739511949" opacity="0.17122934080251928" stroke-linecap="round"/><path d="M 336.8356465999203 398.35620243025767 L 338.31328013523097 390.4938491479811 L 341.5292282463338 383.16870903009294 L 346.2527525158817 376.7120598623751 L 352.14827475581046 371.3043970105966 L 358.8708564885723 366.9677053168816 L 366.1330875519423 363.6121129724179 L 373.7269223499427 361.0954339979202 L 381.5152497922367 359.26733234549215 L 389.4130393269042 357.9926086632391 L 397.3695400577168 357.1594843504392 L 405.35515319163653 356.67991905210226 L 413.3528185577233 356.4866609549988 L 421.3527040237695 356.52946901665473 L 429.3490402293141 356.7715584379377 L 437.3382656188682 357.1866218968251 L 445.31794422660874 357.7564721553738 L 453.2861288985107 358.4692365164824" fill="none" stroke="#5B8AEF" stroke-width="0.31152863652050894" opacity="0.14247408921945565" stroke-linecap="round"/><path d="M 242.6910002914681 53.820949352262986 L 249.48002074178274 58.052875784186114 L 256.1219842496508 62.51205965123502 L 262.6710113728684 67.10664817898804 L 269.1807844919636 71.75668623667161 L 275.7013785455493 76.39153825031161 L 282.2771841397008 80.94771875462945 L 288.94557783359596 85.36728044593086 L 295.7361133996859 89.59677530059935 L 302.67010599510377 93.58673102550281 L 309.76054771390335 97.29154360271991 L 317.0123276992939 100.6696624643778 L 324.4227373636666 103.68393328933226 L 331.9822286500537 106.30196527749403 L 339.6753701688515 108.49640679454338 L 347.481922822117 110.24504502808196 L 355.37794228690836 111.53068751790406 L 363.3368160371139 112.34082863418506" fill="none" stroke="#5B8AEF" stroke-width="0.7427341783618249" opacity="0.19892172776112416" stroke-linecap="round"/><path d="M 350.00359078403727 55.1751536574099 L 355.3922548561069 61.088046309774384 L 361.2542018607881 66.53208684179735 L 367.5848177475545 71.42323215697876 L 374.35872952873996 75.6793006691995 L 381.53003792997384 79.22504964711547 L 389.0344203050644 81.99709675501794 L 396.79293174476726 83.94786589563911 L 404.7169372234387 85.04792824568311 L 412.71337912918784 85.2865007671082 L 420.6896126421632 84.6703036018365 L 428.55729138983145 83.22129320729495 L 436.2351267279962 80.97388480648557 L 443.65063254235076 77.97217304196293 L 450.74111977353 74.26744756974715 L 457.4542155059755 69.91608620954946 L 463.74809811805034 64.97776243873183" fill="none" stroke="#5B8AEF" stroke-width="0.6653885138991236" opacity="0.1789958911756966" stroke-linecap="round"/><path d="M 427.1296538538903 184.04616116734508 L 424.5223165568616 176.4829745228464 L 423.35017606006545 168.5693099699499 L 423.562424865267 160.57212606280544 L 425.0066490371778 152.70356732938617 L 427.4724244940937 145.0930514864179 L 430.736440591351 137.78920325984276 L 434.59300636366584 130.78014480354423 L 438.867359817558 124.01775598366702 L 443.4170796483587 117.43747867482823 L 448.1278310595022 110.97150456860037 L 452.9076029168869 104.5563832921666 L 457.68144635907106 98.13684913542942 L 462.3873868694419 91.66737281096154 L 466.97354104918963 85.11243651534565" fill="none" stroke="#5B8AEF" stroke-width="0.5946965572865198" opacity="0.07249786231317458" stroke-linecap="round"/><path d="M 247.55747180784002 149.21433718372805 L 253.37609827389153 143.72401970214605 L 259.9592572605653 139.1784704772255 L 267.0889847749914 135.54983635816143 L 274.5833746175064 132.75088639640657 L 282.30531729131656 130.6600489224766 L 290.16014311691026 129.14290975628722 L 298.0874522448917 128.06691254931053 L 306.0515206056166 127.30953870126628 L 314.03274478669783 126.7617608527509 L 322.02101214604966 126.32865047938799 L 330.0110001097123 125.92853507037951 L 337.99905725879324 125.4915648391089 L 345.9812542639836 124.95815039392615 L 353.95224523578423 124.27748680045808 L 361.90466248866386 123.40624639959115 L 369.8288449603398 122.30745972530704 L 377.7127628351631 120.94957941281965 L 385.54204850750637 119.30571632215776 L 393.30007987982026 117.35303887152915" fill="none" stroke="#5B8AEF" stroke-width="0.9557153514845835" opacity="0.1355586809178622" stroke-linecap="round"/><path d="M 911.8686020895227 287.79765930389874 L 919.3834623355716 290.541174472866 L 926.6523870831072 293.88224211879367 L 933.5458102398997 297.9418870763481 L 939.8767586490042 302.8326019771839 L 945.3895411772879 308.62994868027573 L 949.7623106644951 315.3291193014609 L 952.639553664343 322.79380099057704 L 953.7067489499982 330.7222998536832 L 952.7943105608256 338.6700955346229 L 949.9577316831754 346.1503241588608 L 945.4708615352597 352.77361611043165 L 939.7274338147389 358.3425511988623 L 933.1191374061161 362.8514777424848 L 925.9593917658408 366.42051716038964 L 918.4658686478991 369.22178674414505 L 910.7766470942057 371.4299243979648 L 902.9746464718422 373.1987619508903 L 895.1082343130902 374.6546327379586" fill="none" stroke="#5B8AEF" stroke-width="0.9914930436254912" opacity="0.12503010717454838" stroke-linecap="round"/><path d="M 485.37632044655095 59.90887259128917 L 488.4060294681977 52.50476135197407 L 491.23025984025287 45.01986169963663 L 493.82857858864395 37.4535720090578 L 496.18645246487705 29.80893789199389 L 498.2943833737953 22.09164385306891 L 500.1470605725974 14.30912580316766 L 501.74252943697644 6.4698350761441334 L 503.081392112231 -1.4173346783882304 L 504.16606119701436 -9.34346191535051 L 505.00008625153674 -17.29986827805151" fill="none" stroke="#5B8AEF" stroke-width="0.7222937209635478" opacity="0.17284071526156772" stroke-linecap="round"/><path d="M 1035.8523515220043 585.2360151639376 L 1043.327991655222 588.0846647735996 L 1051.0312797623887 590.2432180710608 L 1058.9213567545105 591.5648402025308 L 1066.9140920975951 591.9056946221967 L 1074.8775395914006 591.1418202782089 L 1082.6358522704218 589.1902608057511 L 1089.9849296362454 586.0293967037787 L 1096.7191698925324 581.7108311814548 L 1102.662830261678 576.3561228405413 L 1107.6954706253998 570.1373986169212 L 1111.7627204667956 563.2484597488759 L 1114.8706869617565 555.8768558347876 L 1117.0694602200701 548.1849512488918 L 1118.4336939946638 540.3021302939127" fill="none" stroke="#5B8AEF" stroke-width="0.7918828802611133" opacity="0.1365315689596029" stroke-linecap="round"/>
</svg>