<svg xmlns="http://www.w3.org/2000/svg" viewBox="0 0 1200 600" width="1200" height="600">
  <defs>
    <radialGradient id="glow-1597457016" cx="54.49365516402463%" cy="54.862341761990606%" r="50%">
      <stop offset="0%" stop-color="#5B8AEF" stop-opacity="0.15"/>
      <stop offset="100%" stop-color="#050507" stop-opacity="0"/>
    </radialGradient>
    <radialGradient id="glow2-1597457016" cx="66.03349533213%" cy="64.95604710884209%" r="40%">
      <stop offset="0%" stop-color="#d79f1e" stop-opacity="0.08"/>
      <stop offset="100%" stop-color="#050507" stop-opacity="0"/>
    </radialGradient>
    <filter id="blur-1597457016">
      <feGaussianBlur stdDeviation="2"/>
    </filter>
  </defs>
  <rect width="1200" height="600" fill="#050507"/>
  <rect width="1200" height="600" fill="url(#glow-1597457016)"/>
  <rect width="1200" height="600" fill="url(#glow2-1597457016)"/>
  <path d="M 0 121.53690104444367 L 0 139.04290801754544 L 4 138.83203776332348 L 8 138.61558493656673 L 12 138.39358433278383 L 16 138.16607203298204 L 20 137.9330853965698 L 24 137.6946630539809 L 28 137.4508448990221 L 32 137.20167208094563 L 36 136.94718699624812 L 40 136.68743328019767 L 44 136.42245579809128 L 48 136.15230063624378 L 52 135.87701509271082 L 56 135.5966476677472 L 60 135.31124805400327 L 64 135.02086712646107 L 68 134.72555693211194 L 72 134.42537067937874 L 76 134.1203627272841 L 80 133.81058857436713 L 84 133.49610484735143 L 88 133.17696928956593 L 92 132.85324074912194 L 96 132.52497916684803 L 100 132.192245563986 L 104 131.85510202965028 L 108 131.51361170805308 L 112 131.1678387854984 L 116 130.8178484771478 L 120 130.46370701356022 L 124 130.10548162700888 L 128 129.74324053757843 L 132 129.37705293904497 L 136 129.00698898454203 L 140 128.63311977201573 L 144 128.2555173294717 L 148 127.87425460001755 L 152 127.48940542670364 L 156 127.1010445371653 L 160 126.70924752807007 L 164 126.31409084937309 L 168 125.91565178838385 L 172 125.51400845364805 L 176 125.10923975864745 L 180 124.70142540532183 L 184 124.2906458674158 L 188 123.87698237365481 L 192 123.46051689075317 L 196 123.04133210625828 L 200 122.61951141123437 L 204 122.19513888278945 L 208 121.7682992664495 L 212 121.33907795838302 L 216 120.90756098748061 L 220 120.47383499729237 L 224 120.03798722782781 L 228 119.60010549722168 L 232 119.16027818326967 L 236 118.71859420483814 L 240 118.27514300315153 L 244 117.83001452296158 L 248 117.38329919360226 L 252 116.93508790993496 L 256 116.48547201318682 L 260 116.03454327168774 L 264 115.582393861509 L 268 115.12911634700825 L 272 114.67480366128466 L 276 114.21954908654885 L 280 113.76344623441103 L 284 113.3065890260925 L 288 112.84907167256361 L 292 112.3909886546138 L 296 111.93243470285631 L 300 111.47350477767337 L 304 111.0142940491051 L 308 110.55489787668685 L 312 110.09541178923932 L 316 109.63593146461525 L 320 109.17655270940796 L 324 108.71737143862487 L 328 108.25848365533136 L 332 107.7999854302688 L 336 107.341972881451 L 340 106.8845421537439 L 344 106.4277893984323 L 348 105.97181075277848 L 352 105.51670231957667 L 356 105.06256014670794 L 360 104.60948020669998 L 364 104.15755837629571 L 368 103.70689041603556 L 372 103.25757194985754 L 376 102.80969844471929 L 380 102.363365190247 L 384 101.91866727841472 L 388 101.47569958325927 L 392 101.03455674063444 L 396 100.59533312800909 L 400 100.15812284431343 L 404 99.72301968983766 L 408 99.29011714618747 L 412 98.85950835630052 L 416 98.43128610452807 L 420 98.00554279678646 L 424 97.58237044078201 L 428 97.16186062631424 L 432 96.74410450566106 L 436 96.32919277405045 L 440 95.91721565022284 L 444 95.50826285708794 L 448 95.1024236024807 L 452 94.69978656002002 L 456 94.30043985007467 L 460 93.90447102084033 L 464 93.51196702953158 L 468 93.12301422369349 L 472 92.73769832263596 L 476 92.35610439899561 L 480 91.9783168604284 L 484 91.6044194314375 L 488 91.2344951353402 L 492 90.86862627637703 L 496 90.50689442196808 L 500 90.14938038511947 L 504 89.7961642069837 L 508 89.44732513957842 L 512 89.10294162866624 L 516 88.76309129680013 L 520 88.42785092653759 L 524 88.09729644382719 L 528 87.77150290157142 L 532 87.45054446336867 L 536 87.13449438743858 L 540 86.82342501073364 L 544 86.51740773324089 L 548 86.21651300247667 L 552 85.92081029817794 L 556 85.63036811719357 L 560 85.3452539585786 L 564 85.06553430889484 L 568 84.7912746277209 L 572 84.52253933337467 L 576 84.25939178885153 L 580 84.00189428798116 L 584 83.75010804180589 L 588 83.50409316518353 L 592 83.26390866361773 L 596 83.02961242031849 L 600 82.80126118349563 L 604 82.57891055388804 L 608 82.36261497253142 L 612 82.15242770876692 L 616 81.94840084849343 L 620 81.75058528266621 L 624 81.55903069604383 L 628 81.37378555618648 L 632 81.19489710270739 L 636 81.02241133678035 L 640 80.85637301090479 L 644 80.69682561893141 L 648 80.5438113863501 L 652 80.39737126084209 L 656 80.25754490309886 L 660 80.12437067790935 L 664 79.99788564551771 L 668 79.87812555325311 L 672 79.7651248274338 L 676 79.65891656554697 L 680 79.55953252870613 L 684 79.46700313438747 L 688 79.38135744944732 L 692 79.30262318342153 L 696 79.23082668210868 L 700 79.16599292143842 L 704 79.10814550162624 L 708 79.0573066416159 L 712 79.01349717381085 L 716 78.97673653909564 L 720 78.94704278214873 L 724 78.92443254704712 L 728 78.90892107316455 L 732 78.90052219136346 L 736 78.8992483204821 L 740 78.90511046411712 L 744 78.91811820770276 L 748 78.93827971588698 L 752 78.96560173020534 L 756 79.0000895670529 L 760 79.04174711595505 L 764 79.09057683813705 L 768 79.14657976539328 L 772 79.20975549925585 L 776 79.28010221046333 L 780 79.35761663872931 L 784 79.44229409281125 L 788 79.53412845087924 L 792 79.63311216118493 L 796 79.73923624303043 L 800 79.85249028803709 L 804 79.97286246171362 L 808 80.10033950532357 L 812 80.23490673805183 L 816 80.3765480594694 L 820 80.52524595229619 L 824 80.6809814854613 L 828 80.84373431746012 L 832 81.01348270000737 L 836 81.19020348198579 L 840 81.37387211368913 L 844 81.56446265135912 L 848 81.76194776201497 L 852 81.9662987285748 L 856 82.17748545526779 L 860 82.39547647333585 L 864 82.62023894702382 L 868 82.85173867985682 L 872 83.08994012120354 L 876 83.33480637312388 L 880 83.58629919750003 L 884 83.84437902344882 L 888 84.10900495501448 L 892 84.3801347791395 L 896 84.65772497391279 L 900 84.9417307170925 L 904 85.23210589490243 L 908 85.52880311109985 L 912 85.83177369631292 L 916 86.14096771764572 L 920 86.45633398854893 L 924 86.77782007895419 L 928 87.10537232566972 L 932 87.43893584303532 L 936 87.77845453383449 L 940 88.12387110046106 L 944 88.47512705633854 L 948 88.83216273758927 L 952 89.19491731495125 L 956 89.56332880594006 L 960 89.9373340872531 L 964 90.31686890741413 L 968 90.70186789965467 L 972 91.09226459503027 L 976 91.48799143576841 L 980 91.8889797888455 L 984 92.29515995978993 L 988 92.70646120670844 L 992 93.12281175453288 L 996 93.54413880948402 L 1000 93.97036857374988 L 1004 94.40142626037513 L 1008 94.83723610835857 L 1012 95.27772139795528 L 1016 95.72280446618085 L 1020 96.17240672251366 L 1024 96.62644866479219 L 1028 97.08484989530434 L 1032 97.54752913706501 L 1036 98.01440425027849 L 1040 98.4853922489823 L 1044 98.96040931786924 L 1048 99.43937082928358 L 1052 99.92219136038813 L 1056 100.40878471049862 L 1060 100.89906391858175 L 1064 101.39294128091262 L 1068 101.89032836888897 L 1072 102.39113604699733 L 1076 102.8952744909281 L 1080 103.40265320583512 L 1084 103.9131810447366 L 1088 104.42676622705274 L 1092 104.94331635727664 L 1096 105.46273844377457 L 1100 105.98493891771145 L 1104 106.50982365209737 L 1108 107.03729798095172 L 1112 107.56726671858026 L 1116 108.09963417896176 L 1120 108.63430419523904 L 1124 109.17118013931152 L 1128 109.71016494152452 L 1132 110.25116111045101 L 1136 110.7940707527619 L 1140 111.33879559318112 L 1144 111.8852369945199 L 1148 112.43329597778788 L 1152 112.98287324237505 L 1156 113.53386918630187 L 1160 114.08618392653166 L 1164 114.63971731934235 L 1168 115.19436898075288 L 1172 115.75003830699913 L 1176 116.30662449505645 L 1180 116.86402656320354 L 1184 117.4221433716233 L 1188 117.98087364303689 L 1192 118.54011598336614 L 1196 119.09976890242046 L 1200 119.65973083460293" fill="none" stroke="#5B8AEF" stroke-width="0.736858222743896" opacity="0.14261888074810564"/><path d="M 0 205.0459862663625 L 0 219.9302172919701 L 4 219.44712299713842 L 8 218.95240980190746 L 12 218.4462635038608 L 16 217.9288753020106 L 20 217.40044171859589 L 24 216.86116451857694 L 28 216.3112506268599 L 32 215.75091204328618 L 36 215.180365755422 L 40 214.59983364918486 L 44 214.0095424173442 L 48 213.40972346593435 L 52 212.80061281861978 L 56 212.18245101905168 L 60 211.55548303125744 L 64 210.91995813810485 L 68 210.27612983788316 L 72 209.62425573904488 L 76 208.96459745315212 L 80 208.29742048607233 L 84 207.62299412746998 L 88 206.94159133863894 L 92 206.25348863872452 L 96 205.55896598938165 L 100 204.85830667791785 L 104 204.15179719897102 L 108 203.4397271347703 L 112 202.72238903403144 L 116 202.00007828953744 L 120 201.27309301445524 L 124 200.5417339174414 L 128 199.80630417658847 L 132 199.0671093122658 L 136 198.3244570589076 L 140 197.57865723580278 L 144 196.83002161694054 L 148 196.07886379996654 L 152 195.32549907430518 L 156 194.57024428850283 L 160 193.8134177168485 L 164 193.0553389253277 L 168 192.2963286369664 L 172 191.53670859662083 L 176 190.7768014352715 L 180 190.01693053387714 L 184 189.25741988684734 L 188 188.4985939651898 L 192 187.74077757939165 L 196 186.98429574209095 L 200 186.22947353059777 L 204 185.4766359493215 L 208 184.72610779216302 L 212 183.97821350493015 L 216 183.23327704783338 L 220 182.49162175812086 L 224 181.7535702129099 L 228 181.01944409227323 L 232 180.28956404263778 L 236 179.56424954055328 L 240 178.84381875688865 L 244 178.12858842151297 L 248 177.4188736885189 L 252 176.7149880020444 L 256 176.01724296275043 L 260 175.32594819501057 L 264 174.64141121486833 L 268 173.96393729881862 L 272 173.29382935346814 L 276 172.63138778613057 L 280 171.97691037641007 L 284 171.33069214882863 L 288 170.6930252465502 L 292 170.0641988062555 L 296 169.44449883422013 L 300 168.8342080836486 L 304 168.23360593331597 L 308 167.64296826756853 L 312 167.06256735773454 L 316 166.49267174499457 L 320 165.93354612476188 L 324 165.38545123262116 L 328 164.84864373187392 L 332 164.32337610273888 L 336 163.80989653325327 L 340 163.30844881192218 L 344 162.81927222216072 L 348 162.3426014385746 L 352 161.87866642512208 L 356 161.42769233520144 L 360 160.98989941370567 L 364 160.56550290108646 L 368 160.1547129394679 L 372 159.75773448084985 L 376 159.37476719743998 L 380 159.00600539415277 L 384 158.65163792331236 L 388 158.31184810159579 L 392 157.98681362925166 L 396 157.67670651162925 L 400 157.38169298305067 L 404 157.1019334330591 L 408 156.8375823350744 L 412 156.58878817748655 L 416 156.35569339721613 L 420 156.13843431577058 L 424 155.93714107782333 L 428 155.75193759234224 L 432 155.5829414762924 L 436 155.43026400093757 L 440 155.29401004076325 L 444 155.17427802504344 L 448 155.07115989207168 L 452 154.98474104607635 L 456 154.91510031683882 L 460 154.86230992203159 L 464 154.82643543229338 L 468 154.80753573905554 L 472 154.8056630251346 L 476 154.82086273810336 L 480 154.85317356645206 L 484 154.90262741855094 L 488 154.96924940442258 L 492 155.05305782033307 L 496 155.1540641362081 L 500 155.27227298588073 L 504 155.40768216017491 L 508 155.56028260282807 L 512 155.73005840925552 L 516 155.91698682815735 L 520 156.1210382659676 L 524 156.34217629414488 L 528 156.5803576593013 L 532 156.83553229616643 L 536 157.10764334338103 L 540 157.3966271621149 L 544 157.70241335750123 L 548 158.0249248028789 L 552 158.36407766683368 L 556 158.7197814430266 L 560 159.09193898279835 L 564 159.48044653053637 L 568 159.88519376178954 L 572 160.30606382411636 L 576 160.74293338064882 L 580 161.19567265635507 L 584 161.664145486981 L 588 162.14820937065215 L 592 162.64771552211332 L 596 163.1625089295847 L 600 163.69242841421087 L 604 164.2373066920778 L 608 164.79697043877343 L 612 165.371240356464 L 616 165.95993124345927 L 620 166.5628520662381 L 624 167.17980603390387 L 628 167.81059067504012 L 632 168.45499791693342 L 636 169.11281416713206 L 640 169.78382039730585 L 644 170.46779222937272 L 648 171.16450002385682 L 652 171.8737089704406 L 656 172.5951791806749 L 660 173.32866578280692 L 664 174.07391901868837 L 668 174.8306843427223 L 672 175.59870252280874 L 676 176.37770974324656 L 680 177.16743770954912 L 684 177.9676137551303 L 688 178.77796094981628 L 692 179.59819821013903 L 696 180.42804041136415 L 700 181.26719850120816 L 704 182.11537961519673 L 708 182.9722871936173 L 712 183.83762110001553 L 716 184.71107774118894 L 720 185.5923501886254 L 724 186.48112830133775 L 728 187.37709885004242 L 732 188.27994564263145 L 736 189.18934965088448 L 740 190.10498913836923 L 744 191.02653978947671 L 748 191.9536748395373 L 752 192.88606520596443 L 756 193.82337962036993 L 760 194.76528476159797 L 764 195.71144538962014 L 768 196.66152448023803 L 772 197.61518336053524 L 776 198.57208184502477 L 780 199.53187837243237 L 784 200.49423014306203 L 788 201.45879325668338 L 792 202.4252228508862 L 796 203.39317323984272 L 800 204.36229805342083 L 804 205.3322503765902 L 808 206.3026828890626 L 812 207.2732480051096 L 816 208.24359801349806 L 820 209.21338521748638 L 824 210.18226207482186 L 828 211.1498813376826 L 832 212.1158961925043 L 836 213.07996039963402 L 840 214.0417284327535 L 844 215.00085561801322 L 848 215.95699827281936 L 852 216.90981384421644 L 856 217.8589610468075 L 860 218.80410000015448 L 864 219.74489236560186 L 868 220.6810014824663 L 872 221.61209250353605 L 876 222.53783252982294 L 880 223.45789074451193 L 884 224.3719385460513 L 888 225.27964968032936 L 892 226.18070037188133 L 896 227.0747694540729 L 900 227.96153849820575 L 904 228.84069194149146 L 908 229.71191721384037 L 912 230.57490486341305 L 916 231.42934868088176 L 920 232.2749458223504 L 924 233.11139693088163 L 928 233.93840625658112 L 932 234.7556817751883 L 936 235.56293530512477 L 940 236.35988262295163 L 944 237.14624357718765 L 948 237.92174220044092 L 952 238.6861068198076 L 956 239.43907016549161 L 960 240.18036947760038 L 964 240.90974661107214 L 968 241.62694813869135 L 972 242.33172545214904 L 976 243.0238348611067 L 980 243.7030376902224 L 984 244.36910037409834 L 988 245.02179455011145 L 992 245.66089714908745 L 996 246.2861904837816 L 1000 246.89746233512926 L 1004 247.49450603622978 L 1008 248.07712055403024 L 1012 248.64511056867417 L 1016 249.19828655048252 L 1020 249.73646483453564 L 1024 250.25946769282478 L 1028 250.76712340394351 L 1032 251.25926632029007 L 1036 251.73573693275344 L 1040 252.1963819328558 L 1044 252.64105427232582 L 1048 253.06961322007874 L 1052 253.48192441657926 L 1056 253.87785992556488 L 1060 254.2572982831087 L 1064 254.62012454400136 L 1068 254.96623032543317 L 1072 255.29551384795832 L 1076 255.60787997372466 L 1080 255.90324024195337 L 1084 256.18151290165395 L 1088 256.4426229415615 L 1092 256.6865021172838 L 1096 256.91308897564744 L 1100 257.1223288762332 L 1104 257.3141740100921 L 1108 257.4885834156344 L 1112 257.64552299168605 L 1116 257.7849655077064 L 1120 257.9068906111642 L 1124 258.01128483206924 L 1128 258.0981415846572 L 1132 258.1674611662288 L 1136 258.2192507531427 L 1140 258.2535243939657 L 1144 258.2703029997819 L 1148 258.2696143316674 L 1152 258.2514929853337 L 1156 258.2159803729488 L 1160 258.1631247021431 L 1164 258.0929809522089 L 1168 258.0056108475051 L 1172 257.90108282807734 L 1176 257.7794720175073 L 1180 257.6408601880045 L 1184 257.48533572275585 L 1188 257.31299357554917 L 1192 257.1239352276878 L 1196 256.9182686422152 L 1200 256.6961082154683" fill="none" stroke="#5B8AEF" stroke-width="0.7000666401349318" opacity="0.19778306717415484"/><path d="M 0 260.8008299119774 L 0 272.2998930655354 L 4 271.57830232624457 L 8 270.84781686627366 L 12 270.10863111713934 L 16 269.3609422524712 L 20 268.604950135109 L 24 267.8408572634502 L 28 267.0688687170614 L 32 266.289192101569 L 36 265.5020374928437 L 40 264.707617380494 L 44 263.9061466106829 L 48 263.09784232828514 L 52 262.28292391839835 L 56 261.4616129472255 L 60 260.63413310234347 L 64 259.800710132375 L 68 258.9615717860781 L 72 258.1169477508725 L 76 257.2670695908166 L 80 256.41217068405325 L 84 255.55248615974094 L 88 254.6882528344874 L 92 253.81970914830242 L 96 252.94709510008732 L 100 252.0706521826787 L 104 251.19062331746332 L 108 250.30725278858245 L 112 249.42078617674292 L 116 248.53147029265287 L 120 247.63955311010028 L 124 246.74528369869157 L 128 245.8489121562698 L 132 244.9506895410291 L 136 244.05086780334506 L 140 243.1496997173377 L 144 242.24743881218805 L 148 241.34433930322368 L 152 240.44065602279474 L 156 239.5366443509569 L 160 238.63256014598144 L 164 237.72865967471006 L 168 236.82519954277404 L 172 235.922436624696 L 176 235.02062799389358 L 180 234.12003085260366 L 184 233.2209024617456 L 188 232.32350007074365 L 192 231.42808084732604 L 196 230.5349018073205 L 200 229.6442197444653 L 204 228.7562911602539 L 208 227.8713721938334 L 212 226.9897185519742 L 216 226.1115854391311 L 220 225.23722748761423 L 224 224.36689868788838 L 228 223.5008523190197 L 232 222.63934087928934 L 236 221.78261601699103 L 240 220.93092846143358 L 244 220.08452795416457 L 248 219.24366318043565 L 252 218.40858170092707 L 256 217.57952988375013 L 260 216.75675283674587 L 264 215.94049434009824 L 268 215.1309967792801 L 272 214.32850107835023 L 276 213.53324663361917 L 280 212.7454712477018 L 284 211.96541106397504 L 288 211.19330050145746 L 292 210.42937219012938 L 296 209.67385690671037 L 300 208.92698351091147 L 304 208.18897888218012 L 308 207.46006785695383 L 312 206.74047316644038 L 316 206.0304153749414 L 320 205.3301128187353 L 324 204.639781545537 L 328 203.95963525455025 L 332 203.289885237129 L 336 202.63074031806406 L 340 201.98240679751046 L 344 201.3450883935719 L 348 200.71898618555736 L 352 200.10429855792532 L 356 199.50122114493132 L 360 198.90994677599292 L 364 198.33066542178787 L 368 197.7635641410995 L 372 197.20882702842368 L 376 196.66663516235246 L 380 196.1371665547471 L 384 195.62059610071537 L 388 195.11709552940636 L 392 194.62683335563582 L 396 194.1499748323557 L 400 193.68668190398077 L 404 193.2371131605845 L 408 192.8014237929773 L 412 192.3797655486791 L 416 191.972286688798 L 420 191.57913194582713 L 424 191.20044248237127 L 428 190.83635585081382 L 432 190.48700595393598 L 436 190.15252300649854 L 440 189.8330334977963 L 444 189.52866015519612 L 448 189.2395219086684 L 452 188.9657338563209 L 456 188.70740723094562 L 460 188.4646493675868 L 464 188.23756367213957 L 468 188.02624959098753 L 472 187.8308025816879 L 476 187.65131408471188 L 480 187.48787149624837 L 484 187.34055814207846 L 488 187.20945325252757 L 492 187.09463193850272 L 496 186.99616516862096 L 500 186.91411974743588 L 504 186.84855829476746 L 508 186.79953922614186 L 512 186.76711673434613 L 516 186.7513407721028 L 520 186.75225703586977 L 524 186.76990695076938 L 528 186.8043276566515 L 532 186.85555199529412 L 536 186.92360849874544 L 540 187.00852137881014 L 544 187.11031051768407 L 548 187.2289914597386 L 552 187.36457540445798 L 556 187.51706920053167 L 560 187.6864753411032 L 564 187.87279196017712 L 568 188.07601283018522 L 572 188.2961273607131 L 576 188.53312059838686 L 580 188.78697322792146 L 584 189.05766157432913 L 588 189.3451576062888 L 592 189.64942894067482 L 596 189.9704388482446 L 600 190.30814626048362 L 604 190.66250577760604 L 608 191.03346767770938 L 612 191.42097792708032 L 616 191.82497819164976 L 620 192.2454058495941 L 624 192.68219400507897 L 628 193.13527150314295 L 632 193.6045629457163 L 636 194.089988708772 L 640 194.5914649606032 L 644 195.10890368122344 L 648 195.64221268288443 L 652 196.19129563170563 L 656 196.75605207041065 L 660 197.33637744216398 L 664 197.9321631155025 L 668 198.54329641035457 L 672 199.16966062514058 L 676 199.8111350649474 L 680 200.46759507076953 L 684 201.13891204980962 L 688 201.82495350682976 L 692 202.52558307654593 L 696 203.24066055705694 L 700 203.97004194429888 L 704 204.7135794675163 L 708 205.47112162574078 L 712 206.2425132252671 L 716 207.02759541811724 L 720 207.82620574148248 L 724 208.63817815813235 L 728 209.46334309778055 L 732 210.30152749939705 L 736 211.1525548544541 L 740 212.01624525109614 L 744 212.89241541922115 L 748 213.78087877646138 L 752 214.68144547505227 L 756 215.59392244957584 L 760 216.51811346556747 L 764 217.45381916897162 L 768 218.4008371364347 L 772 219.35896192642113 L 776 220.32798513113934 L 780 221.30769542926382 L 784 222.29787863943915 L 788 223.29831777455234 L 792 224.30879309675856 L 796 225.32908217324604 L 800 226.35895993272518 L 804 227.39819872262706 L 808 228.44656836699593 L 812 229.50383622506087 L 816 230.56976725047033 L 820 231.64412405117454 L 824 232.72666694993978 L 828 233.8171540454777 L 832 234.91534127417506 L 836 236.0209824724056 L 840 237.13382943940908 L 844 238.25363200072013 L 848 239.38013807212985 L 852 240.5130937241638 L 856 241.65224324705886 L 860 242.7973292162217 L 864 243.94809255815173 L 868 245.10427261681087 L 872 246.26560722042245 L 876 247.4318327486817 L 880 248.6026842003598 L 884 249.77789526128342 L 888 250.9571983726725 L 892 252.14032479981677 L 896 253.32700470107392 L 900 254.51696719717052 L 904 255.7099404407874 L 908 256.90565168641115 L 912 258.10382736043306 L 916 259.3041931314766 L 920 260.50647398093525 L 924 261.71039427370164 L 928 262.91567782906935 L 932 264.12204799178835 L 936 265.3292277032549 L 940 266.53693957281814 L 944 267.7449059491833 L 948 268.9528489918922 L 952 270.1604907428639 L 956 271.3675531979744 L 960 272.5737583786578 L 964 273.77882840350895 L 968 274.9824855598689 L 972 276.1844523753749 L 976 277.38445168945407 L 980 278.58220672474386 L 984 279.7774411584182 L 988 280.96987919340296 L 992 282.15924562945855 L 996 283.3452659341138 L 1000 284.5276663134303 L 1004 285.70617378257936 L 1008 286.88051623621226 L 1012 288.050422518605 L 1016 289.2156224935601 L 1020 290.3758471140451 L 1024 291.5308284915503 L 1028 292.68029996514736 L 1032 293.82399617022986 L 1036 294.96165310691777 L 1040 296.09300820810785 L 1044 297.2178004071516 L 1048 298.335770205143 L 1052 299.44665973779723 L 1056 300.5502128419051 L 1060 301.64617512134157 L 1064 302.7342940126147 L 1068 303.8143188499354 L 1072 304.88600092979067 L 1076 305.94909357500444 L 1080 307.00335219826803 L 1084 308.0485343651229 L 1088 309.08439985638057 L 1092 310.11071072996134 L 1096 311.12723138213653 L 1100 312.1337286081573 L 1104 313.12997166225443 L 1108 314.11573231699305 L 1112 315.0907849219657 L 1116 316.05490646180954 L 1120 317.0078766135314 L 1124 317.9494778031249 L 1128 318.8794952614665 L 1132 319.7977170794732 L 1136 320.70393426250945 L 1140 321.5979407840267 L 1144 322.4795336384241 L 1148 323.34851289311246 L 1152 324.20468173977207 L 1156 325.047846544787 L 1160 325.8778168988446 L 1164 326.69440566568653 L 1168 327.49742902999816 L 1172 328.28670654442374 L 1176 329.0620611756951 L 1180 329.82331934986104 L 1184 330.5703109966064 L 1188 331.3028695926481 L 1192 332.02083220419667 L 1196 332.72403952847327 L 1200 333.41233593426915" fill="none" stroke="#5B8AEF" stroke-width="0.8426125521504378" opacity="0.16602078847401813"/><path d="M 0 321.5665596963682 L 0 329.2394753645798 L 4 328.0028962505578 L 8 326.74525733129815 L 12 325.4675032318326 L 16 324.1705964101451 L 20 322.8555164438607 L 24 321.52325930376094 L 28 320.17483661466184 L 32 318.81127490420045 L 36 317.4336148400844 L 40 316.04291045636813 L 44 314.64022836932776 L 48 313.22664698351264 L 52 311.80325568856233 L 56 310.3711540473804 L 60 308.9314509762674 L 64 307.4852639176172 L 68 306.0337180057891 L 72 304.5779452267735 L 76 303.119083572271 L 80 301.65827618881127 L 84 300.19667052254226 L 88 298.7354174603207 L 92 297.27567046774107 L 96 295.81858472473914 L 100 294.3653162594129 L 104 292.9170210806984 L 108 291.47485431054594 L 112 290.0399693162369 L 116 288.61351684348574 L 120 287.19664415096753 L 124 285.7904941469138 L 128 284.39620452841547 L 132 283.01490692407094 L 136 281.6477260406146 L 140 280.2957788141598 L 144 278.9601735666831 L 148 277.64200916837774 L 152 276.3423742064959 L 156 275.06234616129825 L 160 273.80299058971974 L 164 272.56536031736 L 168 271.35049463939635 L 172 270.1594185310141 L 176 268.9931418679392 L 180 267.8526586576534 L 184 266.73894628186275 L 188 265.652964750782 L 192 264.5956559697902 L 196 263.5679430190019 L 200 262.5707294462906 L 204 261.6048985742905 L 208 260.6713128218913 L 212 259.77081304073306 L 216 258.90421786719384 L 220 258.07232309035373 L 224 257.27590103640654 L 228 256.51569996997785 L 232 255.79244351279698 L 236 255.10683008015528 L 240 254.4595323355744 L 244 253.85119666408923 L 248 253.28244266454143 L 252 252.75386266126353 L 256 252.26602123551777 L 260 251.8194547770432 L 264 251.41467105604602 L 268 251.05214881595506 L 272 250.7323373872493 L 276 250.45565632264723 L 280 250.22249505393413 L 284 250.03321257068612 L 288 249.88813712113338 L 292 249.78756593539129 L 296 249.73176497126798 L 300 249.72096868284285 L 304 249.75537981199415 L 308 249.83516920303418 L 312 249.9604756405966 L 316 250.13140571090145 L 320 250.3480336865075 L 324 250.61040143464245 L 328 250.91851834918705 L 332 251.2723613063685 L 336 251.6718746442035 L 340 252.11697016571344 L 344 252.60752716591523 L 348 253.1433924825755 L 352 253.72438057069851 L 356 254.35027360069805 L 360 255.02082158019005 L 364 255.73574249932247 L 368 256.4947224995418 L 372 257.29741606568035 L 376 258.1434462412287 L 380 259.03240486664305 L 384 259.963852840518 L 388 260.9373204034398 L 392 261.95230744431933 L 396 263.00828382898425 L 400 264.10468975079743 L 404 265.24093610304936 L 408 266.41640487285775 L 412 267.63044955629204 L 416 268.882395594423 L 420 270.1715408299842 L 424 271.4971559843171 L 428 272.85848515425283 L 432 274.2547463285753 L 436 275.68513192369 L 440 277.14880933811213 L 444 278.6449215253724 L 448 280.1725875849261 L 452 281.7309033706372 L 456 283.318942116396 L 460 284.93575507841746 L 464 286.5803721937534 L 468 288.25180275454187 L 472 289.94903609750196 L 476 291.6710423081761 L 480 293.41677293940614 L 484 295.1851617435217 L 488 296.9751254177084 L 492 298.7855643620145 L 496 300.6153634494438 L 500 302.4633928075755 L 504 304.32850861114076 L 508 306.20955388498135 L 512 308.1053593168035 L 516 310.0147440791367 L 520 311.93651665989876 L 524 313.8694757009612 L 528 315.81241084410533 L 532 317.764103583752 L 536 319.7233281258436 L 540 321.688852252253 L 544 323.6594381900887 L 548 325.63384348526296 L 552 327.61082187968606 L 556 329.58912419144707 L 560 331.56749919733926 L 564 333.54469451708655 L 568 335.51945749862705 L 572 337.4905361038065 L 576 339.456679793837 L 580 341.4166404138744 L 584 343.3691730760697 L 588 345.3130370404495 L 592 347.24699659298375 L 596 349.16982192019975 L 600 351.0802899797044 L 604 352.97718536597955 L 608 354.85930117081887 L 612 356.72543983777865 L 616 358.57441401001887 L 620 360.40504737091544 L 624 362.21617547683206 L 628 364.00664658144177 L 632 365.7753224509983 L 636 367.5210791699627 L 640 369.2428079363959 L 644 370.9394158465383 L 648 372.6098266680041 L 652 374.25298160102506 L 656 375.8678400271898 L 660 377.45338024513217 L 664 379.0086001926313 L 668 380.5325181545978 L 672 382.02417345642954 L 676 383.48262714223097 L 680 384.9069626374022 L 684 386.29628639511395 L 688 387.64972852619877 L 692 388.9664434119975 L 696 390.24561029971557 L 700 391.4864338798553 L 704 392.68814484530384 L 708 393.85000043166855 L 712 394.97128493846753 L 716 396.05131023079565 L 720 397.0894162211007 L 724 398.0849713307192 L 728 399.0373729308373 L 732 399.9460477625541 L 736 400.8104523357444 L 740 401.63007330643035 L 744 402.404427832387 L 748 403.1330639067262 L 752 403.81556066921416 L 756 404.45152869510025 L 760 405.0406102612451 L 764 405.58247958935806 L 768 406.0768430661671 L 772 406.52343944036295 L 776 406.92203999617595 L 780 407.2724487034609 L 784 407.57450234418314 L 788 407.8280706152153 L 792 408.0330562073727 L 796 408.18939486063215 L 800 408.2970553954963 L 804 408.3560397204832 L 808 408.36638281573954 L 812 408.3281526927905 L 816 408.2414503304606 L 820 408.10640958701345 L 824 407.9231970885791 L 828 407.69201209395345 L 832 407.4130863358702 L 836 407.08668383886675 L 840 406.7131007138787 L 844 406.29266492971703 L 848 405.82573606159826 L 852 405.3127050169149 L 856 404.75399373844994 L 860 404.1500548852549 L 864 403.50137149143046 L 868 402.8084566030595 L 872 402.07185289356454 L 876 401.292132257772 L 880 400.46989538498474 L 884 399.6057713113786 L 888 398.70041695205373 L 892 397.7545166130855 L 896 396.7687814839374 L 900 395.7439491106082 L 904 394.6807828499049 L 908 393.5800713052419 L 912 392.4426277443836 L 916 391.2692894995602 L 920 390.060917350398 L 924 388.81839489012015 L 928 387.54262787548384 L 932 386.2345435609341 L 936 384.89509001746364 L 940 383.5252354366814 L 944 382.1259674206009 L 948 380.69829225767376 L 952 379.2432341855981 L 956 377.7618346414477 L 960 376.2551514996709 L 964 374.7242582985223 L 968 373.17024345549476 L 972 371.5942094723296 L 976 369.9972721301895 L 980 368.3805596755859 L 984 366.74521199765985 L 988 365.0923797974202 L 992 363.423223749552 L 996 361.73891365740724 L 1000 360.04062760180375 L 1004 358.3295510842539 L 1008 356.6068761652543 L 1012 354.8738005982694 L 1016 353.1315269600443 L 1020 351.3812617778868 L 1024 349.6242146545578 L 1028 347.8615973914144 L 1032 346.09462311044734 L 1036 344.3245053758595 L 1040 342.5524573158277 L 1044 340.77969074509537 L 1048 339.00741528903455 L 1052 337.2368375098269 L 1056 335.46916003539786 L 1060 333.70558069174734 L 1064 331.9472916393106 L 1068 330.19547851398335 L 1072 328.45131957344086 L 1076 326.71598484937607 L 1080 324.9906353062783 L 1084 323.2764220073681 L 1088 321.57448528830065 L 1092 319.8859539392403 L 1096 318.2119443959079 L 1100 316.55355994019015 L 1104 314.9118899108987 L 1108 313.2880089252542 L 1112 311.68297611166537 L 1116 310.0978343543652 L 1120 308.53360955045457 L 1124 306.99130987989787 L 1128 305.47192508900247 L 1132 303.9764257879072 L 1136 302.50576276259056 L 1140 301.0608663019028 L 1144 299.6426455401112 L 1148 298.25198781543935 L 1152 296.8897580450666 L 1156 295.55679811704493 L 1160 294.2539262995741 L 1164 292.98193666806617 L 1168 291.74159855041637 L 1172 290.53365599088295 L 1176 289.3588272329655 L 1180 288.2178042216581 L 1184 287.11125212543726 L 1188 286.0398088783318 L 1192 285.0040847424065 L 1196 284.0046618909747 L 1200 283.0420940128433" fill="none" stroke="#5B8AEF" stroke-width="1.4498237240825889" opacity="0.14681099979524082"/><path d="M 0 407.493226242947 L 0 452.16682443306456 L 4 451.92937846104314 L 8 451.6771301657671 L 12 451.4101050232875 L 16 451.12833267640275 L 20 450.8318469295219 L 24 450.5206857423962 L 28 450.1948912227207 L 32 449.85450961760614 L 36 449.4995913039259 L 40 449.13019077753734 L 44 448.7463666413832 L 48 448.3481815924735 L 52 447.935702407753 L 56 447.5089999288575 L 60 447.06814904576174 L 64 446.61322867932495 L 68 446.14432176273715 L 72 445.66151522187175 L 76 445.16489995454884 L 80 444.65457080871545 L 84 444.1306265595481 L 88 443.59316988548323 L 92 443.04230734318213 L 96 442.4781493414373 L 100 441.90081011402606 L 104 441.31040769152 L 108 440.7070638720559 L 112 440.09090419107747 L 116 439.46205789005495 L 120 438.8206578841907 L 124 438.1668407291204 L 128 437.5007465866167 L 132 436.8225191893067 L 136 436.13230580441086 L 140 435.43025719651337 L 144 434.7165275893743 L 148 433.9912746267931 L 152 433.25465933253383 L 156 432.5068460693234 L 160 431.7480024969327 L 164 430.9782995293525 L 168 430.1979112910752 L 172 429.40701507249366 L 176 428.6057912844302 L 180 427.79442341180595 L 184 426.9730979664646 L 188 426.142004439162 L 192 425.30133525073506 L 196 424.4512857024623 L 200 423.5920539256299 L 204 422.7238408303157 L 208 421.84685005340646 L 212 420.96128790586016 L 216 420.06736331922906 L 220 419.1652877914566 L 224 418.25527533196356 L 228 417.3375424060373 L 232 416.41230787853937 L 236 415.479792956946 L 240 414.540221133738 L 244 413.59381812815263 L 248 412.6408118273169 L 252 411.68143222677446 L 256 410.7159113704234 L 260 409.7444832898817 L 264 408.76738394329567 L 268 407.78485115360644 L 272 406.7971245462944 L 276 405.8044454866148 L 280 404.8070570163427 L 284 403.80520379004474 L 288 402.7991320108935 L 292 401.7890893660424 L 296 400.7753249615783 L 300 399.75808925706895 L 304 398.7376339997229 L 308 397.7142121581794 L 312 396.68807785594663 L 316 395.65948630450464 L 320 394.6286937360922 L 324 393.5959573361954 L 328 392.5615351757548 L 332 391.5256861431112 L 336 390.48866987570665 L 340 389.4507466915597 L 344 388.41217752053274 L 348 387.37322383541107 L 352 386.33414758281 L 356 385.2952111139305 L 360 384.2566771151813 L 364 383.2188085386848 L 368 382.18186853268764 L 372 381.14612037189255 L 376 380.11182738773147 L 380 379.0792528985975 L 384 378.0486601400555 L 388 377.02031219504926 L 392 375.99447192412396 L 396 374.97140189568324 L 400 373.9513643162986 L 404 372.9346209610911 L 408 371.9214331042022 L 412 370.9120614493743 L 416 369.90676606065847 L 420 368.90580629326786 L 424 367.90944072459615 L 428 366.9179270854186 L 432 365.93152219129473 L 436 364.95048187419104 L 440 363.9750609143415 L 444 363.005512972365 L 448 362.04209052165726 L 452 361.0850447810752 L 456 360.13462564793303 L 460 359.19108163132614 L 464 358.2546597858028 L 468 357.3256056453993 L 472 356.4041631580583 L 476 355.4905746204462 L 480 354.58508061318844 L 484 353.6879199365393 L 488 352.79932954650343 L 492 351.9195444914268 L 496 351.0487978490737 L 500 350.18732066420705 L 504 349.3353418866878 L 508 348.49308831011143 L 512 347.66078451099736 L 516 346.83865278854717 L 520 346.02691310498847 L 524 345.2257830265203 L 528 344.43547766487586 L 532 343.6562096195182 L 536 342.88818892048454 L 540 342.13162297189416 L 544 341.38671649613616 L 548 340.65367147875065 L 552 339.93268711401925 L 556 339.2239597512791 L 560 338.52768284197464 L 564 337.84404688746224 L 568 337.1732393875804 L 572 336.5154447900006 L 576 335.8708444403719 L 580 335.23961653327257 L 584 334.62193606398193 L 588 334.0179747810862 L 592 333.4279011399298 L 596 332.85188025692577 L 600 332.29007386473694 L 604 331.7426402683406 L 608 331.2097343019873 L 612 330.69150728706694 L 616 330.1881069908924 L 620 329.69967758641195 L 624 329.226359612862 L 628 328.7682899373698 L 632 328.32560171751743 L 636 327.89842436487646 L 640 327.4868835095233 L 644 327.0911009655452 L 648 326.7111946975458 L 652 326.34727878815954 L 656 325.9994634065831 L 660 325.6678547781338 L 664 325.35255515484124 L 668 325.0536627870821 L 672 324.77127189626395 L 676 324.50547264856743 L 680 324.256351129752 L 684 324.02398932103324 L 688 323.8084650760383 L 692 323.6098520988449 L 696 323.42821992311076 L 700 323.26363389229886 L 704 323.11615514100356 L 708 322.98584057738293 L 712 322.8727428667023 L 716 322.77691041599354 L 720 322.69838735983325 L 724 322.6372135472456 L 728 322.59342452973215 L 732 322.5670515504312 L 736 322.55812153441207 L 740 322.56665708010524 L 744 322.5926764518704 L 748 322.6361935737058 L 752 322.6972180241006 L 756 322.77575503202996 L 760 322.8718054740963 L 764 322.9853658728163 L 768 323.11642839605446 L 772 323.264980857603 L 776 323.43100671890954 L 780 323.61448509195054 L 784 323.8153907432505 L 788 324.03369409904593 L 792 324.26936125159335 L 796 324.5223539666185 L 800 324.79262969190563 L 804 325.0801415670256 L 808 325.38483843419795 L 812 325.7066648502862 L 816 326.0455610999226 L 820 326.401463209759 L 824 326.7743029638393 L 828 327.1640079200911 L 832 327.57050142793065 L 836 327.99370264697774 L 840 328.4335265668746 L 844 328.88988402820416 L 848 329.36268174450254 L 852 329.85182232535874 L 856 330.35720430059695 L 860 330.87872214553425 L 864 331.41626630730684 L 868 331.96972323225873 L 872 332.53897539438486 L 876 333.1239013248216 L 880 333.72437564237646 L 884 334.3402690850898 L 888 334.9714485428187 L 892 335.6177770908357 L 896 336.2791140244336 L 900 336.95531489452577 L 904 337.6462315442336 L 908 338.3517121464522 L 912 339.07160124238175 L 916 339.8057397810178 L 920 340.55396515958694 L 924 341.3161112649188 L 928 342.0920085157435 L 932 342.8814839059023 L 936 343.684361048461 L 940 344.50046022071353 L 944 345.3295984100648 L 948 346.1715893607796 L 952 347.026243621586 L 956 347.8933685941201 L 960 348.7727685821993 L 964 349.6642448419115 L 968 350.5675956325061 L 972 351.482616268074 L 976 352.40909917000334 L 980 353.34683392019474 L 984 354.2956073150249 L 988 355.255203420043 L 992 356.22540362538393 L 996 357.2059867018859 L 1000 358.1967288578966 L 1004 359.1974037967524 L 1008 360.2077827749158 L 1012 361.22763466075605 L 1016 362.25672599395574 L 1020 363.29482104553 L 1024 364.34168187844017 L 1028 365.39706840878716 L 1032 366.4607384675675 L 1036 367.53244786297654 L 1040 368.6119504432404 L 1044 369.6989981599628 L 1048 370.79334113196745 L 1052 371.89472770962 L 1056 373.0029045396124 L 1060 374.11761663019314 L 1064 375.23860741682427 L 1068 376.36561882824924 L 1072 377.49839135295406 L 1076 378.6366641060029 L 1080 379.78017489623164 L 1084 380.9286602937801 L 1088 382.0818556979476 L 1092 383.23949540534943 L 1096 384.4013126783614 L 1100 385.56703981382975 L 1104 386.7364082120307 L 1108 387.9091484458609 L 1112 389.0849903302397 L 1116 390.2636629917048 L 1120 391.4448949381842 L 1124 392.6284141289239 L 1128 393.8139480445543 L 1132 395.0012237572759 L 1136 396.1899680011459 L 1140 397.3799072424466 L 1144 398.5707677501178 L 1148 399.76227566623356 L 1152 400.9541570765052 L 1156 402.14613808079093 L 1160 403.3379448635952 L 1164 404.52930376453634 L 1168 405.71994134876616 L 1172 406.90958447732174 L 1176 408.09796037739085 L 1180 409.2847967124717 L 1184 410.46982165241 L 1188 411.65276394329317 L 1192 412.8333529771832 L 1196 414.01131886167104 L 1200 415.18639248923233" fill="none" stroke="#5B8AEF" stroke-width="0.976651216613432" opacity="0.1773119234653711"/><path d="M 0 453.0799048780836 L 0 444.1251815762249 L 4 444.39395426287103 L 8 444.6687418489935 L 12 444.9493951508163 L 16 445.23576223664145 L 20 445.52768849516093 L 24 445.8250167049393 L 28 446.12758710503607 L 32 446.4352374667369 L 36 446.74780316636435 L 40 447.06511725913396 L 44 447.38701055402703 L 48 447.71331168964474 L 52 448.0438472110129 L 56 448.37844164730313 L 60 448.71691759043676 L 64 449.0590957745387 L 68 449.40479515620535 L 72 449.7538329955529 L 76 450.1060249380107 L 80 450.461185096825 L 84 450.8191261362355 L 88 451.1796593552916 L 92 451.5425947722695 L 96 451.9077412096556 L 100 452.2749063796585 L 104 452.6438969702125 L 108 453.01451873143674 L 112 453.38657656251104 L 116 453.7598745989317 L 120 454.1342163001099 L 124 454.50940453727435 L 128 454.8852416816398 L 132 455.26152969280486 L 136 455.6380702073393 L 140 456.01466462752313 L 144 456.3911142102 L 148 456.76722015570493 L 152 457.1427836968295 L 156 457.5176061877845 L 160 457.8914891931238 L 164 458.26423457658865 L 168 458.6356445898352 L 172 459.00552196100733 L 176 459.3736699831158 L 180 459.7398926021853 L 184 460.1039945051323 L 188 460.4657812073348 L 192 460.82505913985693 L 196 461.18163573628954 L 200 461.53531951917097 L 204 461.88592018594863 L 208 462.23324869444605 L 212 462.5771173477974 L 216 462.91733987881275 L 220 463.2537315337383 L 224 463.58610915537446 L 228 463.91429126551685 L 232 464.2380981466833 L 236 464.55735192309305 L 240 464.87187664086116 L 244 465.18149834737557 L 248 465.4860451698209 L 252 465.78534739281525 L 256 466.07923753512756 L 260 466.36755042544024 L 264 466.6501232771265 L 268 466.92679576200794 L 272 467.1974100830623 L 276 467.46181104604847 L 280 467.71984613001825 L 284 467.9713655566847 L 288 468.216222358616 L 292 468.454272446226 L 296 468.68537467353275 L 300 468.9093909026552 L 304 469.1261860670213 L 308 469.33562823325923 L 312 469.5375886617459 L 316 469.73194186578445 L 320 469.91856566938816 L 324 470.0973412636419 L 328 470.2681532616199 L 332 470.4308897518337 L 336 470.58544235018843 L 340 470.7317062504237 L 344 470.8695802730182 L 348 470.9989669125353 L 352 471.1197723833907 L 356 471.2319066640204 L 360 471.3352835394314 L 364 471.4298206421144 L 368 471.51543949130354 L 372 471.59206553056225 L 376 471.65962816368267 L 380 471.71806078887954 L 384 471.7673008312655 L 388 471.8072897735931 L 392 471.8379731852493 L 396 471.85930074949056 L 400 471.87122628890563 L 404 471.8737077890958 L 408 471.8667074205608 L 412 471.8501915587811 L 416 471.8241308024885 L 420 471.7884999901158 L 424 471.7432782144169 L 428 471.6884488352547 L 432 471.6239994905459 L 436 471.5499221053614 L 440 471.46621289917624 L 444 471.37287239126584 L 448 471.26990540424623 L 452 471.157321065756 L 456 471.03513280827866 L 460 470.90335836710625 L 464 470.76201977644234 L 468 470.61114336364886 L 472 470.4507597416356 L 476 470.2809037993976 L 480 470.10161469070334 L 484 469.9129358209376 L 488 469.71491483210474 L 492 469.5076035859987 L 496 469.2910581455465 L 500 469.0653387543315 L 504 468.830509814307 L 508 468.5866398617076 L 512 468.3338015411691 L 516 468.0720715780668 L 520 467.80153074908515 L 524 467.5222638510293 L 528 467.2343596678926 L 532 466.93791093619296 L 536 466.63301430859394 L 540 466.31977031582363 L 544 465.9982833269093 L 548 465.668661507743 L 552 465.3310167779965 L 556 464.9854647664032 L 560 464.632124764425 L 564 464.2711196783255 L 568 463.90257597966746 L 572 463.5266236542577 L 576 463.14339614955816 L 580 462.75303032058775 L 584 462.35566637433664 L 588 461.9514478127162 L 592 461.5405213740699 L 596 461.1230369732677 L 600 460.6991476404115 L 604 460.26900945817647 L 608 459.8327814978141 L 612 459.39062575384565 L 616 458.9427070774719 L 620 458.4891931087284 L 624 458.0302542074154 L 628 457.5660633828295 L 632 457.0967962223292 L 636 456.6226308187639 L 640 456.14374769679574 L 644 455.6603297381474 L 648 455.1725621058067 L 652 454.6806321672193 L 656 454.1847294165037 L 660 453.68504539572064 L 664 453.18177361522993 L 668 452.6751094731689 L 672 452.16525017408725 L 676 451.6523946467719 L 680 451.1367434612962 L 684 450.6184987453315 L 688 450.0978640997524 L 692 449.5750445135757 L 696 449.0502462782656 L 700 448.5236769014451 L 704 447.9955450200463 L 708 447.4660603129401 L 712 446.9354334130804 L 716 446.40387581920044 L 720 445.87159980709924 L 724 445.33881834055563 L 728 444.80574498190765 L 732 444.2725938023359 L 736 443.73957929188754 L 740 443.2069162692812 L 744 442.6748197915299 L 748 442.1435050634207 L 752 441.6131873468892 L 756 441.0840818703289 L 760 440.5564037378716 L 764 440.0303678386804 L 768 439.5061887562911 L 772 438.98408067804263 L 776 438.46425730463386 L 780 437.9469317598462 L 784 437.43231650046965 L 788 436.9206232264711 L 792 436.41206279144325 L 796 435.9068451133722 L 800 435.4051790857607 L 804 434.90727248914783 L 808 434.41333190305875 L 812 433.9235626184255 L 816 433.43816855051483 L 820 432.95735215239944 L 824 432.48131432901107 L 828 432.01025435181117 L 832 431.54436977411524 L 836 431.0838563471082 L 840 430.6289079365851 L 844 430.17971644045406 L 848 429.73647170703543 L 852 429.2993614541931 L 856 428.8685711893318 L 860 428.4442841302946 L 864 428.02668112719476 L 868 427.61594058521507 L 872 427.2122383884072 L 876 426.81574782452475 L 880 426.42663951092084 L 884 426.0450813215427 L 888 425.6712383150541 L 892 425.3052726641166 L 896 424.9473435858596 L 900 424.597607273569 L 904 424.2562168296238 L 908 423.92332219970905 L 912 423.5990701083337 L 916 423.28360399568027 L 920 422.9770639558144 L 924 422.6795866762793 L 928 422.3913053791028 L 932 422.11234976324005 L 936 421.8428459484787 L 940 421.58291642082906 L 944 421.3326799794233 L 948 421.0922516849464 L 952 420.8617428096207 L 956 420.64126078876603 L 960 420.43090917395546 L 964 420.2307875877875 L 968 420.0409916802941 L 972 419.86161308700173 L 976 419.6927393886666 L 980 419.5344540726982 L 984 419.38683649628933 L 988 419.24996185126867 L 992 419.12390113069 L 996 419.0087210971738 L 1000 418.90448425301344 L 1004 418.8112488120603 L 1008 418.7290686733985 L 1012 418.65799339682246 L 1016 418.59806818012606 L 1020 418.54933383821435 L 1024 418.5118267840467 L 1028 418.48557901141993 L 1032 418.470618079598 L 1036 418.4669670997964 L 1040 418.47464472352596 L 1044 418.4936651328022 L 1048 418.52403803222376 L 1052 418.5657686429241 L 1056 418.6188576983993 L 1060 418.6833014422132 L 1064 418.7590916275817 L 1068 418.84621551883714 L 1072 418.9446558947709 L 1076 419.0543910538539 L 1080 419.17539482133355 L 1084 419.3076365582031 L 1088 419.45108117204046 L 1092 419.6056891297127 L 1096 419.77141647193946 L 1100 419.948214829711 L 1104 420.13603144255285 L 1108 420.33480917863056 L 1112 420.5444865566853 L 1116 420.7649977697915 L 1120 420.9962727109273 L 1124 421.2382370003462 L 1128 421.49081201473894 L 1132 421.75391491817334 L 1136 422.02745869479975 L 1140 422.31135218330706 L 1144 422.60550011311653 L 1148 422.9098031422968 L 1152 423.2241578971852 L 1156 423.54845701369817 L 1160 423.8825891803138 L 1164 424.22643918270796 L 1168 424.579887950026 L 1172 424.94281260276995 L 1176 425.315086502281 L 1180 425.69657930179767 L 1184 426.0871569990659 L 1188 426.4866819904812 L 1192 426.89501312673923 L 1196 427.31200576997065 L 1200 427.73751185233715" fill="none" stroke="#d79f1e" stroke-width="1.364149406023393" opacity="0.14341879112339523"/><circle cx="100" cy="366.19617319172113" r="2.7793201363083533" fill="#5B8AEF" opacity="0.6300296401744847"/><circle cx="162.17664335024386" cy="373.56028308436197" r="2.0711196887172383" fill="#5B8AEF" opacity="0.5212912405940198"/><circle cx="233.344820334271" cy="379.3974339012131" r="2.0887642635911536" fill="#5B8AEF" opacity="0.6041467264779595"/><circle cx="371.75333101849697" cy="380.57807574797675" r="2.7959767446368824" fill="#5B8AEF" opacity="0.6221720668124837"/><circle cx="497.33384232843946" cy="370.0863628537786" r="2.7913396550767775" fill="#5B8AEF" opacity="0.6318374313096691"/><circle cx="581.7893147570032" cy="358.73000067541625" r="3.078127671768017" fill="#5B8AEF" opacity="0.6387669107591579"/><circle cx="683.2477492016033" cy="343.6772177220995" r="3.297692759799628" fill="#5B8AEF" opacity="0.6733320928520208"/><circle cx="821.2436329113524" cy="327.15833848170155" r="3.4204377438502562" fill="#5B8AEF" opacity="0.5195741336883857"/><circle cx="956.5676064307652" cy="321.8878222820498" r="2.7505735192683405" fill="#5B8AEF" opacity="0.4583707514490796"/><circle cx="1026.4928343456672" cy="324.42165870335094" r="1.8326391439571228" fill="#5B8AEF" opacity="0.4999138731043385"/>
</svg>