<svg xmlns="http://www.w3.org/2000/svg" viewBox="0 0 1200 600" width="1200" height="600">
  <defs>
    <radialGradient id="glow-2023886452" cx="63.770133198131866%" cy="44.6286610023252%" r="50%">
      <stop offset="0%" stop-color="#5B8AEF" stop-opacity="0.15"/>
      <stop offset="100%" stop-color="#050507" stop-opacity="0"/>
    </radialGradient>
    <radialGradient id="glow2-2023886452" cx="67.92909955975092%" cy="64.37630073371172%" r="40%">
      <stop offset="0%" stop-color="#d79f1e" stop-opacity="0.08"/>
      <stop offset="100%" stop-color="#050507" stop-opacity="0"/>
    </radialGradient>
    <filter id="blur-2023886452">
      <feGaussianBlur stdDeviation="2"/>
    </filter>
  </defs>
  <rect width="1200" height="600" fill="#050507"/>
  <rect width="1200" height="600" fill="url(#glow-2023886452)"/>
  <rect width="1200" height="600" fill="url(#glow2-2023886452)"/>
  <circle cx="442.96040980283186" cy="371.8188720903447" r="2.8315268535313787" fill="#d79f1e" opacity="0.6751828416135082"/><circle cx="442.96040980283186" cy="371.8188720903447" r="8.494580560594136" fill="#d79f1e" opacity="0.06751828416135082"/><circle cx="491.8795163239723" cy="161.09116477011293" r="4.660052427398066" fill="#d79f1e" opacity="0.7727903648618564"/><circle cx="491.8795163239723" cy="161.09116477011293" r="13.980157282194197" fill="#d79f1e" opacity="0.07727903648618564"/><circle cx="470.3374450981326" cy="97.58758352957088" r="2.4543031791477943" fill="#d79f1e" opacity="0.7564081060031467"/><circle cx="470.3374450981326" cy="97.58758352957088" r="7.362909537443382" fill="#d79f1e" opacity="0.07564081060031468"/><circle cx="810.1581973629809" cy="433.3029598245877" r="2.190381432040772" fill="#d79f1e" opacity="0.6025867109198992"/><circle cx="810.1581973629809" cy="433.3029598245877" r="6.571144296122316" fill="#d79f1e" opacity="0.06025867109198993"/><circle cx="235.6888959536743" cy="70.74198157095442" r="2.5040355252586473" fill="#d79f1e" opacity="0.36278526459950267"/><circle cx="235.6888959536743" cy="70.74198157095442" r="7.512106575775942" fill="#d79f1e" opacity="0.03627852645995027"/><circle cx="562.439617590252" cy="301.2243874004224" r="3.4856586574975674" fill="#5B8AEF" opacity="0.7007038846149594"/><circle cx="562.439617590252" cy="301.2243874004224" r="10.456975972492703" fill="#5B8AEF" opacity="0.07007038846149594"/><circle cx="350.7925451317767" cy="138.60278297150637" r="2.9747783508965644" fill="#d79f1e" opacity="0.4736645529389682"/><circle cx="350.7925451317767" cy="138.60278297150637" r="8.924335052689694" fill="#d79f1e" opacity="0.047366455293896825"/><circle cx="662.6937900961814" cy="380.5523753168771" r="2.0314329229441626" fill="#5B8AEF" opacity="0.6419312633769266"/><circle cx="662.6937900961814" cy="380.5523753168771" r="6.094298768832488" fill="#5B8AEF" opacity="0.06419312633769267"/><circle cx="784.5866380932679" cy="312.75066163984627" r="5.836418174131037" fill="#5B8AEF" opacity="0.6757237479443307"/><circle cx="784.5866380932679" cy="312.75066163984627" r="17.50925452239311" fill="#5B8AEF" opacity="0.06757237479443307"/><circle cx="681.1859367607096" cy="305.55652488281794" r="2.2376142126683214" fill="#5B8AEF" opacity="0.536177872976371"/><circle cx="681.1859367607096" cy="305.55652488281794" r="6.712842638004965" fill="#5B8AEF" opacity="0.0536177872976371"/><circle cx="998.3431168451641" cy="518.199146156292" r="4.608745406665255" fill="#5B8AEF" opacity="0.3406717721096574"/><circle cx="998.3431168451641" cy="518.199146156292" r="13.826236219995765" fill="#5B8AEF" opacity="0.03406717721096574"/><circle cx="226.5856017854929" cy="495.7888655903697" r="5.862199811200704" fill="#d79f1e" opacity="0.46958399334437395"/><circle cx="226.5856017854929" cy="495.7888655903697" r="17.586599433602114" fill="#d79f1e" opacity="0.0469583993344374"/><circle cx="492.206368899069" cy="296.51173230098175" r="3.4390398550029095" fill="#5B8AEF" opacity="0.47035885628795193"/><circle cx="492.206368899069" cy="296.51173230098175" r="10.317119565008728" fill="#5B8AEF" opacity="0.047035885628795196"/><circle cx="540.2990737465672" cy="395.3226731788938" r="2.73473431390465" fill="#5B8AEF" opacity="0.5836325116379337"/><circle cx="540.2990737465672" cy="395.3226731788938" r="8.20420294171395" fill="#5B8AEF" opacity="0.05836325116379337"/><circle cx="104.17604540669176" cy="395.4439155084286" r="3.7157329179885483" fill="#5B8AEF" opacity="0.703288976477128"/><circle cx="104.17604540669176" cy="395.4439155084286" r="11.147198753965645" fill="#5B8AEF" opacity="0.0703288976477128"/><circle cx="241.88151426700946" cy="107.35859336674147" r="2.965655956866991" fill="#5B8AEF" opacity="0.6580420591673077"/><circle cx="241.88151426700946" cy="107.35859336674147" r="8.896967870600973" fill="#5B8AEF" opacity="0.06580420591673078"/><circle cx="314.8079238807819" cy="363.12769121636063" r="5.55921894477644" fill="#d79f1e" opacity="0.5089052513283236"/><circle cx="314.8079238807819" cy="363.12769121636063" r="16.67765683432932" fill="#d79f1e" opacity="0.05089052513283237"/><circle cx="226.76287628093868" cy="430.9207632629763" r="4.543901340357913" fill="#d79f1e" opacity="0.3686294145736049"/><circle cx="226.76287628093868" cy="430.9207632629763" r="13.631704021073741" fill="#d79f1e" opacity="0.036862941457360486"/><line x1="442.96040980283186" y1="371.8188720903447" x2="562.439617590252" y2="301.2243874004224" stroke="#5B8AEF" stroke-width="0.5" opacity="0.045917772512754716"/><line x1="442.96040980283186" y1="371.8188720903447" x2="492.206368899069" y2="296.51173230098175" stroke="#5B8AEF" stroke-width="0.5" opacity="0.08251529427202309"/><line x1="491.8795163239723" y1="161.09116477011293" x2="562.439617590252" y2="301.2243874004224" stroke="#5B8AEF" stroke-width="0.5" opacity="0.032328733387465246"/><line x1="491.8795163239723" y1="161.09116477011293" x2="350.7925451317767" y2="138.60278297150637" stroke="#5B8AEF" stroke-width="0.5" opacity="0.04284901225228777"/><line x1="491.8795163239723" y1="161.09116477011293" x2="492.206368899069" y2="296.51173230098175" stroke="#5B8AEF" stroke-width="0.5" opacity="0.048434278516661905"/><line x1="470.3374450981326" y1="97.58758352957088" x2="350.7925451317767" y2="138.60278297150637" stroke="#5B8AEF" stroke-width="0.5" opacity="0.05521106761630539"/><line x1="810.1581973629809" y1="433.3029598245877" x2="662.6937900961814" y2="380.5523753168771" stroke="#5B8AEF" stroke-width="0.5" opacity="0.032538469013233234"/><line x1="810.1581973629809" y1="433.3029598245877" x2="784.5866380932679" y2="312.75066163984627" stroke="#5B8AEF" stroke-width="0.5" opacity="0.057574066420063526"/><line x1="810.1581973629809" y1="433.3029598245877" x2="681.1859367607096" y2="305.55652488281794" stroke="#5B8AEF" stroke-width="0.5" opacity="0.013852800063973091"/><line x1="562.439617590252" y1="301.2243874004224" x2="662.6937900961814" y2="380.5523753168771" stroke="#5B8AEF" stroke-width="0.5" opacity="0.054117761373164014"/><line x1="562.439617590252" y1="301.2243874004224" x2="681.1859367607096" y2="305.55652488281794" stroke="#5B8AEF" stroke-width="0.5" opacity="0.06088101297096987"/><line x1="562.439617590252" y1="301.2243874004224" x2="492.206368899069" y2="296.51173230098175" stroke="#5B8AEF" stroke-width="0.5" opacity="0.0972066143713091"/><line x1="562.439617590252" y1="301.2243874004224" x2="540.2990737465672" y2="395.3226731788938" stroke="#5B8AEF" stroke-width="0.5" opacity="0.0774990432764552"/><line x1="350.7925451317767" y1="138.60278297150637" x2="241.88151426700946" y2="107.35859336674147" stroke="#5B8AEF" stroke-width="0.5" opacity="0.06502194832900855"/><line x1="662.6937900961814" y1="380.5523753168771" x2="784.5866380932679" y2="312.75066163984627" stroke="#5B8AEF" stroke-width="0.5" opacity="0.04538927847328274"/><line x1="662.6937900961814" y1="380.5523753168771" x2="681.1859367607096" y2="305.55652488281794" stroke="#5B8AEF" stroke-width="0.5" opacity="0.09206844899187505"/><line x1="662.6937900961814" y1="380.5523753168771" x2="492.206368899069" y2="296.51173230098175" stroke="#5B8AEF" stroke-width="0.5" opacity="0.007443188038789938"/><line x1="662.6937900961814" y1="380.5523753168771" x2="540.2990737465672" y2="395.3226731788938" stroke="#5B8AEF" stroke-width="0.5" opacity="0.05753796231590605"/><line x1="681.1859367607096" y1="305.55652488281794" x2="492.206368899069" y2="296.51173230098175" stroke="#5B8AEF" stroke-width="0.5" opacity="0.008103081411586865"/><line x1="681.1859367607096" y1="305.55652488281794" x2="540.2990737465672" y2="395.3226731788938" stroke="#5B8AEF" stroke-width="0.5" opacity="0.024709431233604643"/><line x1="226.5856017854929" y1="495.7888655903697" x2="104.17604540669176" y2="395.4439155084286" stroke="#5B8AEF" stroke-width="0.5" opacity="0.03128845978112023"/><line x1="226.5856017854929" y1="495.7888655903697" x2="314.8079238807819" y2="363.12769121636063" stroke="#5B8AEF" stroke-width="0.5" opacity="0.030511640807674947"/><line x1="492.206368899069" y1="296.51173230098175" x2="540.2990737465672" y2="395.3226731788938" stroke="#5B8AEF" stroke-width="0.5" opacity="0.06758011743572533"/><line x1="104.17604540669176" y1="395.4439155084286" x2="226.76287628093868" y2="430.9207632629763" stroke="#5B8AEF" stroke-width="0.5" opacity="0.05428713498387639"/><line x1="314.8079238807819" y1="363.12769121636063" x2="226.76287628093868" y2="430.9207632629763" stroke="#5B8AEF" stroke-width="0.5" opacity="0.06665940394254634"/>
</svg>