<svg xmlns="http://www.w3.org/2000/svg" viewBox="0 0 1200 630">
<defs>
    <pattern id="dots" x="0" y="0" width="30" height="30" patternUnits="userSpaceOnUse">
      <circle cx="15" cy="15" r="0.6" fill="#ffffff12"/>
    </pattern>
    <radialGradient id="glow" cx="50%" cy="50%" r="45%">
      <stop offset="0%" stop-color="#5B8AEF" stop-opacity="0.06"/>
      <stop offset="100%" stop-color="#050507" stop-opacity="0"/>
    </radialGradient>
  </defs>
  <rect width="1200" height="630" fill="#050507"/>
  <rect width="1200" height="630" fill="url(#glow)"/>
  <rect width="1200" height="630" fill="url(#dots)"/>

  <!-- Document -->
  <rect x="510" y="190" width="140" height="180" rx="8" fill="none" stroke="#5B8AEF" stroke-width="2" opacity="0.5"/>
  <!-- Document lines -->
  <line x1="530" y1="225" x2="630" y2="225" stroke="#ffffff12" stroke-width="2"/>
  <line x1="530" y1="250" x2="610" y2="250" stroke="#ffffff12" stroke-width="2"/>
  <line x1="530" y1="275" x2="625" y2="275" stroke="#ffffff12" stroke-width="2"/>
  <line x1="530" y1="300" x2="590" y2="300" stroke="#ffffff12" stroke-width="2"/>
  <line x1="530" y1="325" x2="615" y2="325" stroke="#ffffff12" stroke-width="2"/>
  <line x1="530" y1="350" x2="580" y2="350" stroke="#ffffff12" stroke-width="2"/>
  <!-- AI sparkle overlapping top-right -->
  <path d="M660,210 L666,235 L691,241 L666,247 L660,272 L654,247 L629,241 L654,235 Z" fill="#d79f1e" opacity="0.6"/>
  <!-- Small sparkles -->
  <path d="M690,270 L693,280 L703,283 L693,286 L690,296 L687,286 L677,283 L687,280 Z" fill="#d79f1e" opacity="0.3"/>
  <!-- AI arrow going into doc -->
  <path d="M670,300 C655,310 645,330 640,350" fill="none" stroke="#d79f1e" stroke-width="1.5" stroke-dasharray="3,3" opacity="0.4"/>

</svg>