<svg xmlns="http://www.w3.org/2000/svg" viewBox="0 0 1200 600" width="1200" height="600">
  <defs>
    <radialGradient id="glow-419204027" cx="34.02982136422294%" cy="39.20766849499553%" r="50%">
      <stop offset="0%" stop-color="#5B8AEF" stop-opacity="0.15"/>
      <stop offset="100%" stop-color="#050507" stop-opacity="0"/>
    </radialGradient>
    <radialGradient id="glow2-419204027" cx="74.96329654239271%" cy="58.12498799437889%" r="40%">
      <stop offset="0%" stop-color="#d79f1e" stop-opacity="0.08"/>
      <stop offset="100%" stop-color="#050507" stop-opacity="0"/>
    </radialGradient>
    <filter id="blur-419204027">
      <feGaussianBlur stdDeviation="2"/>
    </filter>
  </defs>
  <rect width="1200" height="600" fill="#050507"/>
  <rect width="1200" height="600" fill="url(#glow-419204027)"/>
  <rect width="1200" height="600" fill="url(#glow2-419204027)"/>
  <polygon points="115.62429379031654,-19.073062041342748 115.62429379031654,19.073062041342748 82.58878127879753,38.1461240826855 49.55326876727851,19.073062041342748 49.55326876727851,-19.07306204134274 82.58878127879748,-38.1461240826855 " fill="none" stroke="#5B8AEF" stroke-width="0.5" opacity="0.08522156752889118"/><polygon points="198.21307506911407,-19.073062041342748 198.21307506911407,19.073062041342748 165.17756255759505,38.1461240826855 132.14205004607604,19.073062041342748 132.14205004607604,-19.07306204134274 165.17756255759502,-38.1461240826855 " fill="#5B8AEF" opacity="0.14240009534284476"/><polygon points="363.3906376267091,-19.073062041342748 363.3906376267091,19.073062041342748 330.3551251151901,38.1461240826855 297.3196126036711,19.073062041342748 297.3196126036711,-19.07306204134274 330.35512511519005,-38.1461240826855 " fill="none" stroke="#5B8AEF" stroke-width="0.5" opacity="0.15460011187689385"/><polygon points="611.1569814631018,-19.073062041342748 611.1569814631018,19.073062041342748 578.1214689515828,38.1461240826855 545.0859564400637,19.073062041342748 545.0859564400637,-19.07306204134274 578.1214689515828,-38.1461240826855 " fill="none" stroke="#5B8AEF" stroke-width="0.5" opacity="0.05697656023175295"/><polygon points="693.7457627418992,-19.073062041342748 693.7457627418992,19.073062041342748 660.7102502303802,38.1461240826855 627.6747377188613,19.073062041342748 627.6747377188613,-19.07306204134274 660.7102502303802,-38.1461240826855 " fill="none" stroke="#5B8AEF" stroke-width="0.5" opacity="0.09492008278841157"/><polygon points="1024.1008878570894,-19.073062041342748 1024.1008878570894,19.073062041342748 991.0653753455704,38.1461240826855 958.0298628340513,19.073062041342748 958.0298628340513,-19.07306204134274 991.0653753455704,-38.1461240826855 " fill="none" stroke="#5B8AEF" stroke-width="0.5" opacity="0.040389892216953396"/><polygon points="1106.689669135887,-19.073062041342748 1106.689669135887,19.073062041342748 1073.654156624368,38.1461240826855 1040.6186441128489,19.073062041342748 1040.6186441128489,-19.07306204134274 1073.654156624368,-38.1461240826855 " fill="none" stroke="#5B8AEF" stroke-width="0.5" opacity="0.06639181019104635"/><polygon points="1271.867231693482,-19.073062041342748 1271.867231693482,19.073062041342748 1238.8317191819629,38.1461240826855 1205.7962066704438,19.073062041342748 1205.7962066704438,-19.07306204134274 1238.8317191819629,-38.1461240826855 " fill="none" stroke="#d79f1e" stroke-width="0.5" opacity="0.15844114443214663"/><polygon points="74.32990315091777,52.450920613692574 74.32990315091777,90.59704469637808 41.29439063939876,109.67010673772083 8.258878127879747,90.59704469637808 8.258878127879747,52.45092061369259 41.29439063939872,33.37785857234982 " fill="none" stroke="#5B8AEF" stroke-width="0.5" opacity="0.13470483957543264"/><polygon points="156.9186844297153,52.450920613692574 156.9186844297153,90.59704469637808 123.8831719181963,109.67010673772083 90.84765940667728,90.59704469637808 90.84765940667728,52.45092061369259 123.88317191819625,33.37785857234982 " fill="none" stroke="#5B8AEF" stroke-width="0.5" opacity="0.041729783416599865"/><polygon points="239.50746570851283,52.450920613692574 239.50746570851283,90.59704469637808 206.4719531969938,109.67010673772083 173.4364406854748,90.59704469637808 173.4364406854748,52.45092061369259 206.47195319699378,33.37785857234982 " fill="none" stroke="#5B8AEF" stroke-width="0.5" opacity="0.12589360967552923"/><polygon points="487.2738095449054,52.450920613692574 487.2738095449054,90.59704469637808 454.2382970333864,109.67010673772083 421.2027845218674,90.59704469637808 421.2027845218674,52.45092061369259 454.23829703338635,33.37785857234982 " fill="none" stroke="#5B8AEF" stroke-width="0.5" opacity="0.06220210705986345"/><polygon points="900.217715938893,52.450920613692574 900.217715938893,90.59704469637808 867.182203427374,109.67010673772083 834.1466909158551,90.59704469637808 834.1466909158551,52.45092061369259 867.182203427374,33.37785857234982 " fill="none" stroke="#5B8AEF" stroke-width="0.5" opacity="0.11067192308170345"/><polygon points="982.8064972176905,52.450920613692574 982.8064972176905,90.59704469637808 949.7709847061715,109.67010673772083 916.7354721946524,90.59704469637808 916.7354721946524,52.45092061369259 949.7709847061715,33.37785857234982 " fill="none" stroke="#5B8AEF" stroke-width="0.5" opacity="0.07798762718121877"/><polygon points="1230.5728410540833,52.450920613692574 1230.5728410540833,90.59704469637808 1197.5373285425642,109.67010673772083 1164.501816031045,90.59704469637808 1164.501816031045,52.45092061369259 1197.5373285425642,33.37785857234982 " fill="#5B8AEF" opacity="0.05714264926367563"/><polygon points="1313.1616223328806,52.450920613692574 1313.1616223328806,90.59704469637808 1280.1261098213615,109.67010673772083 1247.0905973098425,90.59704469637808 1247.0905973098425,52.45092061369259 1280.1261098213615,33.37785857234982 " fill="#5B8AEF" opacity="0.11357567853926478"/><polygon points="198.21307506911407,123.9749032687279 198.21307506911407,162.1210273514134 165.17756255759505,181.19408939275615 132.14205004607604,162.1210273514134 132.14205004607604,123.97490326872791 165.17756255759502,104.90184122738515 " fill="none" stroke="#5B8AEF" stroke-width="0.5" opacity="0.1542108023698492"/><polygon points="280.8018563479116,123.9749032687279 280.8018563479116,162.1210273514134 247.7663438363926,181.19408939275615 214.73083132487358,162.1210273514134 214.73083132487358,123.97490326872791 247.76634383639256,104.90184122738515 " fill="none" stroke="#5B8AEF" stroke-width="0.5" opacity="0.06927433864645396"/><polygon points="528.5682001843043,123.9749032687279 528.5682001843043,162.1210273514134 495.5326876727852,181.19408939275615 462.49717516126617,162.1210273514134 462.49717516126617,123.97490326872791 495.53268767278513,104.90184122738515 " fill="none" stroke="#5B8AEF" stroke-width="0.5" opacity="0.1319078762139696"/><polygon points="611.1569814631018,123.9749032687279 611.1569814631018,162.1210273514134 578.1214689515828,181.19408939275615 545.0859564400637,162.1210273514134 545.0859564400637,123.97490326872791 578.1214689515828,104.90184122738515 " fill="none" stroke="#5B8AEF" stroke-width="0.5" opacity="0.11719841359052732"/><polygon points="776.3345440206967,123.9749032687279 776.3345440206967,162.1210273514134 743.2990315091777,181.19408939275615 710.2635189976586,162.1210273514134 710.2635189976586,123.97490326872791 743.2990315091777,104.90184122738515 " fill="none" stroke="#5B8AEF" stroke-width="0.5" opacity="0.09075568417588048"/><polygon points="941.5121065782917,123.9749032687279 941.5121065782917,162.1210273514134 908.4765940667727,181.19408939275615 875.4410815552537,162.1210273514134 875.4410815552537,123.97490326872791 908.4765940667727,104.90184122738515 " fill="none" stroke="#5B8AEF" stroke-width="0.5" opacity="0.07388454638136763"/><polygon points="1024.1008878570894,123.9749032687279 1024.1008878570894,162.1210273514134 991.0653753455704,181.19408939275615 958.0298628340513,162.1210273514134 958.0298628340513,123.97490326872791 991.0653753455704,104.90184122738515 " fill="none" stroke="#5B8AEF" stroke-width="0.5" opacity="0.06253489152646385"/><polygon points="1189.2784504146846,123.9749032687279 1189.2784504146846,162.1210273514134 1156.2429379031655,181.19408939275615 1123.2074253916464,162.1210273514134 1123.2074253916464,123.97490326872791 1156.2429379031655,104.90184122738515 " fill="none" stroke="#5B8AEF" stroke-width="0.5" opacity="0.11200862977281614"/><polygon points="156.9186844297153,195.49888592376323 156.9186844297153,233.64501000644873 123.8831719181963,252.71807204779148 90.84765940667728,233.64501000644873 90.84765940667728,195.49888592376323 123.88317191819625,176.42582388242047 " fill="none" stroke="#5B8AEF" stroke-width="0.5" opacity="0.08045295132345191"/><polygon points="239.50746570851283,195.49888592376323 239.50746570851283,233.64501000644873 206.4719531969938,252.71807204779148 173.4364406854748,233.64501000644873 173.4364406854748,195.49888592376323 206.47195319699378,176.42582388242047 " fill="none" stroke="#5B8AEF" stroke-width="0.5" opacity="0.09341667261599408"/><polygon points="404.6850282661079,195.49888592376323 404.6850282661079,233.64501000644873 371.6495157545889,252.71807204779148 338.6140032430699,233.64501000644873 338.6140032430699,195.49888592376323 371.64951575458883,176.42582388242047 " fill="none" stroke="#5B8AEF" stroke-width="0.5" opacity="0.11084528911432498"/><polygon points="487.2738095449054,195.49888592376323 487.2738095449054,233.64501000644873 454.2382970333864,252.71807204779148 421.2027845218674,233.64501000644873 421.2027845218674,195.49888592376323 454.23829703338635,176.42582388242047 " fill="none" stroke="#5B8AEF" stroke-width="0.5" opacity="0.0523308223357102"/><polygon points="569.8625908237029,195.49888592376323 569.8625908237029,233.64501000644873 536.827078312184,252.71807204779148 503.79156580066496,233.64501000644873 503.79156580066496,195.49888592376323 536.827078312184,176.42582388242047 " fill="#5B8AEF" opacity="0.09748250904375805"/><polygon points="982.8064972176905,195.49888592376323 982.8064972176905,233.64501000644873 949.7709847061715,252.71807204779148 916.7354721946524,233.64501000644873 916.7354721946524,195.49888592376323 949.7709847061715,176.42582388242047 " fill="none" stroke="#d79f1e" stroke-width="0.5" opacity="0.07908560017081237"/><polygon points="1313.1616223328806,195.49888592376323 1313.1616223328806,233.64501000644873 1280.1261098213615,252.71807204779148 1247.0905973098425,233.64501000644873 1247.0905973098425,195.49888592376323 1280.1261098213615,176.42582388242047 " fill="none" stroke="#5B8AEF" stroke-width="0.5" opacity="0.07102315557702592"/><polygon points="33.035512511519016,267.0228685787986 33.035512511519016,305.168992661484 2.3357764378869285e-15,324.2420547028268 -33.035512511519016,305.168992661484 -33.035512511519016,267.0228685787986 -4.0887893519105284e-14,247.9498065374558 " fill="none" stroke="#5B8AEF" stroke-width="0.5" opacity="0.056739004858182285"/><polygon points="115.62429379031654,267.0228685787986 115.62429379031654,305.168992661484 82.58878127879753,324.2420547028268 49.55326876727851,305.168992661484 49.55326876727851,267.0228685787986 82.58878127879748,247.9498065374558 " fill="none" stroke="#5B8AEF" stroke-width="0.5" opacity="0.0762978258898006"/><polygon points="280.8018563479116,267.0228685787986 280.8018563479116,305.168992661484 247.7663438363926,324.2420547028268 214.73083132487358,305.168992661484 214.73083132487358,267.0228685787986 247.76634383639256,247.9498065374558 " fill="none" stroke="#5B8AEF" stroke-width="0.5" opacity="0.14010605567139855"/><polygon points="363.3906376267091,267.0228685787986 363.3906376267091,305.168992661484 330.3551251151901,324.2420547028268 297.3196126036711,305.168992661484 297.3196126036711,267.0228685787986 330.35512511519005,247.9498065374558 " fill="none" stroke="#5B8AEF" stroke-width="0.5" opacity="0.06093893759927663"/><polygon points="528.5682001843043,267.0228685787986 528.5682001843043,305.168992661484 495.5326876727852,324.2420547028268 462.49717516126617,305.168992661484 462.49717516126617,267.0228685787986 495.53268767278513,247.9498065374558 " fill="none" stroke="#5B8AEF" stroke-width="0.5" opacity="0.05204515288213508"/><polygon points="611.1569814631018,267.0228685787986 611.1569814631018,305.168992661484 578.1214689515828,324.2420547028268 545.0859564400637,305.168992661484 545.0859564400637,267.0228685787986 578.1214689515828,247.9498065374558 " fill="none" stroke="#5B8AEF" stroke-width="0.5" opacity="0.10089936728631116"/><polygon points="1106.689669135887,267.0228685787986 1106.689669135887,305.168992661484 1073.654156624368,324.2420547028268 1040.6186441128489,305.168992661484 1040.6186441128489,267.0228685787986 1073.654156624368,247.9498065374558 " fill="#5B8AEF" opacity="0.08193915182814893"/><polygon points="1189.2784504146846,267.0228685787986 1189.2784504146846,305.168992661484 1156.2429379031655,324.2420547028268 1123.2074253916464,305.168992661484 1123.2074253916464,267.0228685787986 1156.2429379031655,247.9498065374558 " fill="none" stroke="#5B8AEF" stroke-width="0.5" opacity="0.13503440298840141"/><polygon points="74.32990315091777,338.5468512338339 74.32990315091777,376.6929753165193 41.29439063939876,395.7660373578621 8.258878127879747,376.6929753165193 8.258878127879747,338.5468512338339 41.29439063939872,319.4737891924911 " fill="#5B8AEF" opacity="0.07624876163725218"/><polygon points="156.9186844297153,338.5468512338339 156.9186844297153,376.6929753165193 123.8831719181963,395.7660373578621 90.84765940667728,376.6929753165193 90.84765940667728,338.5468512338339 123.88317191819625,319.4737891924911 " fill="none" stroke="#5B8AEF" stroke-width="0.5" opacity="0.04496523006119078"/><polygon points="239.50746570851283,338.5468512338339 239.50746570851283,376.6929753165193 206.4719531969938,395.7660373578621 173.4364406854748,376.6929753165193 173.4364406854748,338.5468512338339 206.47195319699378,319.4737891924911 " fill="none" stroke="#5B8AEF" stroke-width="0.5" opacity="0.059280806379057846"/><polygon points="322.0962469873104,338.5468512338339 322.0962469873104,376.6929753165193 289.0607344757914,395.7660373578621 256.02522196427236,376.6929753165193 256.02522196427236,338.5468512338339 289.0607344757913,319.4737891924911 " fill="none" stroke="#5B8AEF" stroke-width="0.5" opacity="0.04417896596909453"/><polygon points="487.2738095449054,338.5468512338339 487.2738095449054,376.6929753165193 454.2382970333864,395.7660373578621 421.2027845218674,376.6929753165193 421.2027845218674,338.5468512338339 454.23829703338635,319.4737891924911 " fill="none" stroke="#5B8AEF" stroke-width="0.5" opacity="0.043407150154657265"/><polygon points="569.8625908237029,338.5468512338339 569.8625908237029,376.6929753165193 536.827078312184,395.7660373578621 503.79156580066496,376.6929753165193 503.79156580066496,338.5468512338339 536.827078312184,319.4737891924911 " fill="#5B8AEF" opacity="0.09668339348243707"/><polygon points="735.0401533812981,338.5468512338339 735.0401533812981,376.6929753165193 702.004640869779,395.7660373578621 668.9691283582599,376.6929753165193 668.9691283582599,338.5468512338339 702.004640869779,319.4737891924911 " fill="none" stroke="#5B8AEF" stroke-width="0.5" opacity="0.1459600555272587"/><polygon points="817.6289346600954,338.5468512338339 817.6289346600954,376.6929753165193 784.5934221485765,395.7660373578621 751.5579096370575,376.6929753165193 751.5579096370575,338.5468512338339 784.5934221485765,319.4737891924911 " fill="none" stroke="#5B8AEF" stroke-width="0.5" opacity="0.13290129306395598"/><polygon points="900.217715938893,338.5468512338339 900.217715938893,376.6929753165193 867.182203427374,395.7660373578621 834.1466909158551,376.6929753165193 834.1466909158551,338.5468512338339 867.182203427374,319.4737891924911 " fill="none" stroke="#5B8AEF" stroke-width="0.5" opacity="0.1433428344798008"/><polygon points="982.8064972176905,338.5468512338339 982.8064972176905,376.6929753165193 949.7709847061715,395.7660373578621 916.7354721946524,376.6929753165193 916.7354721946524,338.5468512338339 949.7709847061715,319.4737891924911 " fill="none" stroke="#5B8AEF" stroke-width="0.5" opacity="0.14062354090652593"/><polygon points="1147.9840597752857,338.5468512338339 1147.9840597752857,376.6929753165193 1114.9485472637666,395.7660373578621 1081.9130347522475,376.6929753165193 1081.9130347522475,338.5468512338339 1114.9485472637666,319.4737891924911 " fill="none" stroke="#5B8AEF" stroke-width="0.5" opacity="0.11937661698059021"/><polygon points="1230.5728410540833,338.5468512338339 1230.5728410540833,376.6929753165193 1197.5373285425642,395.7660373578621 1164.501816031045,376.6929753165193 1164.501816031045,338.5468512338339 1197.5373285425642,319.4737891924911 " fill="none" stroke="#5B8AEF" stroke-width="0.5" opacity="0.08852743992979054"/><polygon points="280.8018563479116,410.07083388886923 280.8018563479116,448.2169579715547 247.7663438363926,467.29002001289746 214.73083132487358,448.2169579715547 214.73083132487358,410.07083388886923 247.76634383639256,390.99777184752645 " fill="none" stroke="#5B8AEF" stroke-width="0.5" opacity="0.14873738841560546"/><polygon points="445.97941890550663,410.07083388886923 445.97941890550663,448.2169579715547 412.9439063939876,467.29002001289746 379.9083938824686,448.2169579715547 379.9083938824686,410.07083388886923 412.94390639398756,390.99777184752645 " fill="none" stroke="#5B8AEF" stroke-width="0.5" opacity="0.15117277681416494"/><polygon points="858.9233252994943,410.07083388886923 858.9233252994943,448.2169579715547 825.8878127879752,467.29002001289746 792.8523002764562,448.2169579715547 792.8523002764562,410.07083388886923 825.8878127879752,390.99777184752645 " fill="none" stroke="#5B8AEF" stroke-width="0.5" opacity="0.12822842328261044"/><polygon points="1024.1008878570894,410.07083388886923 1024.1008878570894,448.2169579715547 991.0653753455704,467.29002001289746 958.0298628340513,448.2169579715547 958.0298628340513,410.07083388886923 991.0653753455704,390.99777184752645 " fill="none" stroke="#5B8AEF" stroke-width="0.5" opacity="0.15745452910543165"/><polygon points="1189.2784504146846,410.07083388886923 1189.2784504146846,448.2169579715547 1156.2429379031655,467.29002001289746 1123.2074253916464,448.2169579715547 1123.2074253916464,410.07083388886923 1156.2429379031655,390.99777184752645 " fill="none" stroke="#5B8AEF" stroke-width="0.5" opacity="0.13846925840641802"/><polygon points="1271.867231693482,410.07083388886923 1271.867231693482,448.2169579715547 1238.8317191819629,467.29002001289746 1205.7962066704438,448.2169579715547 1205.7962066704438,410.07083388886923 1238.8317191819629,390.99777184752645 " fill="#5B8AEF" opacity="0.05536462547973014"/><polygon points="487.2738095449054,481.5948165439045 487.2738095449054,519.74094062659 454.2382970333864,538.8140026679328 421.2027845218674,519.74094062659 421.2027845218674,481.5948165439045 454.23829703338635,462.52175450256175 " fill="none" stroke="#5B8AEF" stroke-width="0.5" opacity="0.12499360841000154"/><polygon points="900.217715938893,481.5948165439045 900.217715938893,519.74094062659 867.182203427374,538.8140026679328 834.1466909158551,519.74094062659 834.1466909158551,481.5948165439045 867.182203427374,462.52175450256175 " fill="none" stroke="#d79f1e" stroke-width="0.5" opacity="0.04490894373734898"/><polygon points="1147.9840597752857,481.5948165439045 1147.9840597752857,519.74094062659 1114.9485472637666,538.8140026679328 1081.9130347522475,519.74094062659 1081.9130347522475,481.5948165439045 1114.9485472637666,462.52175450256175 " fill="none" stroke="#5B8AEF" stroke-width="0.5" opacity="0.15891529830122147"/><polygon points="1313.1616223328806,481.5948165439045 1313.1616223328806,519.74094062659 1280.1261098213615,538.8140026679328 1247.0905973098425,519.74094062659 1247.0905973098425,481.5948165439045 1280.1261098213615,462.52175450256175 " fill="none" stroke="#5B8AEF" stroke-width="0.5" opacity="0.10004132068717914"/><polygon points="33.035512511519016,553.1187991989399 33.035512511519016,591.2649232816253 2.3357764378869285e-15,610.337985322968 -33.035512511519016,591.2649232816253 -33.035512511519016,553.1187991989399 -4.0887893519105284e-14,534.0457371575972 " fill="none" stroke="#5B8AEF" stroke-width="0.5" opacity="0.10878129323422037"/><polygon points="198.21307506911407,553.1187991989399 198.21307506911407,591.2649232816253 165.17756255759505,610.337985322968 132.14205004607604,591.2649232816253 132.14205004607604,553.1187991989399 165.17756255759502,534.0457371575972 " fill="none" stroke="#5B8AEF" stroke-width="0.5" opacity="0.12622011469966737"/><polygon points="445.97941890550663,553.1187991989399 445.97941890550663,591.2649232816253 412.9439063939876,610.337985322968 379.9083938824686,591.2649232816253 379.9083938824686,553.1187991989399 412.94390639398756,534.0457371575972 " fill="#5B8AEF" opacity="0.08491649346655071"/><polygon points="858.9233252994943,553.1187991989399 858.9233252994943,591.2649232816253 825.8878127879752,610.337985322968 792.8523002764562,591.2649232816253 792.8523002764562,553.1187991989399 825.8878127879752,534.0457371575972 " fill="none" stroke="#5B8AEF" stroke-width="0.5" opacity="0.11689222216461423"/><polygon points="941.5121065782917,553.1187991989399 941.5121065782917,591.2649232816253 908.4765940667727,610.337985322968 875.4410815552537,591.2649232816253 875.4410815552537,553.1187991989399 908.4765940667727,534.0457371575972 " fill="none" stroke="#5B8AEF" stroke-width="0.5" opacity="0.050563817401679145"/><polygon points="1024.1008878570894,553.1187991989399 1024.1008878570894,591.2649232816253 991.0653753455704,610.337985322968 958.0298628340513,591.2649232816253 958.0298628340513,553.1187991989399 991.0653753455704,534.0457371575972 " fill="#5B8AEF" opacity="0.11405391506573834"/><polygon points="1189.2784504146846,553.1187991989399 1189.2784504146846,591.2649232816253 1156.2429379031655,610.337985322968 1123.2074253916464,591.2649232816253 1123.2074253916464,553.1187991989399 1156.2429379031655,534.0457371575972 " fill="#d79f1e" opacity="0.08817276377611456"/><polygon points="1271.867231693482,553.1187991989399 1271.867231693482,591.2649232816253 1238.8317191819629,610.337985322968 1205.7962066704438,591.2649232816253 1205.7962066704438,553.1187991989399 1238.8317191819629,534.0457371575972 " fill="none" stroke="#5B8AEF" stroke-width="0.5" opacity="0.1296161738082842"/><polygon points="156.9186844297153,624.6427818539752 156.9186844297153,662.7889059366606 123.8831719181963,681.8619679780033 90.84765940667728,662.7889059366606 90.84765940667728,624.6427818539752 123.88317191819625,605.5697198126325 " fill="#5B8AEF" opacity="0.046490043814522236"/><polygon points="404.6850282661079,624.6427818539752 404.6850282661079,662.7889059366606 371.6495157545889,681.8619679780033 338.6140032430699,662.7889059366606 338.6140032430699,624.6427818539752 371.64951575458883,605.5697198126325 " fill="none" stroke="#5B8AEF" stroke-width="0.5" opacity="0.11736223202075913"/><polygon points="652.4513721025005,624.6427818539752 652.4513721025005,662.7889059366606 619.4158595909815,681.8619679780033 586.3803470794626,662.7889059366606 586.3803470794626,624.6427818539752 619.4158595909815,605.5697198126325 " fill="none" stroke="#5B8AEF" stroke-width="0.5" opacity="0.0832402817547509"/><polygon points="982.8064972176905,624.6427818539752 982.8064972176905,662.7889059366606 949.7709847061715,681.8619679780033 916.7354721946524,662.7889059366606 916.7354721946524,624.6427818539752 949.7709847061715,605.5697198126325 " fill="none" stroke="#5B8AEF" stroke-width="0.5" opacity="0.14755049270929324"/><polygon points="1065.3952784964881,624.6427818539752 1065.3952784964881,662.7889059366606 1032.359765984969,681.8619679780033 999.32425347345,662.7889059366606 999.32425347345,624.6427818539752 1032.359765984969,605.5697198126325 " fill="none" stroke="#5B8AEF" stroke-width="0.5" opacity="0.10879363374262752"/>
</svg>