<svg xmlns="http://www.w3.org/2000/svg" viewBox="0 0 1200 600" width="1200" height="600">
  <defs>
    <radialGradient id="glow-1478640355" cx="40.90514893220046%" cy="32.83810349313454%" r="50%">
      <stop offset="0%" stop-color="#5B8AEF" stop-opacity="0.15"/>
      <stop offset="100%" stop-color="#050507" stop-opacity="0"/>
    </radialGradient>
    <radialGradient id="glow2-1478640355" cx="65.004056834152%" cy="73.18321159257704%" r="40%">
      <stop offset="0%" stop-color="#d79f1e" stop-opacity="0.08"/>
      <stop offset="100%" stop-color="#050507" stop-opacity="0"/>
    </radialGradient>
    <filter id="blur-1478640355">
      <feGaussianBlur stdDeviation="2"/>
    </filter>
  </defs>
  <rect width="1200" height="600" fill="#050507"/>
  <rect width="1200" height="600" fill="url(#glow-1478640355)"/>
  <rect width="1200" height="600" fill="url(#glow2-1478640355)"/>
  <circle cx="698.1832642099741" cy="340.677055968287" r="1.0606795642807518" fill="#d79f1e" opacity="0.6382361493251454"/><circle cx="698.1832642099741" cy="340.677055968287" r="4.242718257123007" fill="#d79f1e" opacity="0.03829416895950872"/><circle cx="821.3105355488651" cy="340.7099844611762" r="3.3621172641227566" fill="#5B8AEF" opacity="0.6917124149816634"/><circle cx="821.3105355488651" cy="340.7099844611762" r="13.448469056491026" fill="#5B8AEF" opacity="0.0415027448988998"/><circle cx="686.6686690070986" cy="523.476006148139" r="2.590014655883431" fill="#5B8AEF" opacity="0.7723869054449661"/><circle cx="686.6686690070986" cy="523.476006148139" r="10.360058623533725" fill="#5B8AEF" opacity="0.04634321432669797"/><circle cx="924.3653990441773" cy="436.103828268174" r="1.6271102273031652" fill="#5B8AEF" opacity="0.7346513608166256"/><circle cx="924.3653990441773" cy="436.103828268174" r="6.508440909212661" fill="#5B8AEF" opacity="0.044079081648997535"/><circle cx="791.586257932515" cy="490.0873857969825" r="3.1518810275718017" fill="#5B8AEF" opacity="0.6469534191987261"/><circle cx="791.586257932515" cy="490.0873857969825" r="12.607524110287207" fill="#5B8AEF" opacity="0.038817205151923564"/><circle cx="828.0033947099016" cy="531.9659308213583" r="3.9424743978038777" fill="#5B8AEF" opacity="0.49929589945790165"/><circle cx="828.0033947099016" cy="531.9659308213583" r="15.76989759121551" fill="#5B8AEF" opacity="0.029957753967474098"/><circle cx="720.04282428885" cy="469.761219746322" r="2.8237888258061323" fill="#5B8AEF" opacity="0.5821674590381642"/><circle cx="720.04282428885" cy="469.761219746322" r="11.29515530322453" fill="#5B8AEF" opacity="0.03493004754228985"/><circle cx="913.4239435724094" cy="440.7424189340055" r="1.0390100367548922" fill="#5B8AEF" opacity="0.4409728888613046"/><circle cx="913.4239435724094" cy="440.7424189340055" r="4.156040147019569" fill="#5B8AEF" opacity="0.026458373331678275"/><circle cx="879.139366084309" cy="493.4798572647757" r="3.410900415578345" fill="#5B8AEF" opacity="0.3341160819093306"/><circle cx="879.139366084309" cy="493.4798572647757" r="13.64360166231338" fill="#5B8AEF" opacity="0.020046964914559838"/><circle cx="913.7267009884708" cy="433.03834676418376" r="2.803895663844373" fill="#5B8AEF" opacity="0.7690765896668084"/><circle cx="913.7267009884708" cy="433.03834676418376" r="11.215582655377492" fill="#5B8AEF" opacity="0.0461445953800085"/><circle cx="842.4790289450805" cy="526.6223245889984" r="3.7926251887309483" fill="#5B8AEF" opacity="0.3917410990650491"/><circle cx="842.4790289450805" cy="526.6223245889984" r="15.170500754923793" fill="#5B8AEF" opacity="0.023504465943902948"/><circle cx="915.9247026852913" cy="460.91469240417456" r="1.570013233725919" fill="#5B8AEF" opacity="0.4883373626919172"/><circle cx="915.9247026852913" cy="460.91469240417456" r="6.280052934903676" fill="#5B8AEF" opacity="0.02930024176151503"/><line x1="698.1832642099741" y1="340.677055968287" x2="686.6686690070986" y2="523.476006148139" stroke="#5B8AEF" stroke-width="0.3" opacity="0.12"/><line x1="821.3105355488651" y1="340.7099844611762" x2="924.3653990441773" y2="436.103828268174" stroke="#5B8AEF" stroke-width="0.3" opacity="0.12"/><line x1="686.6686690070986" y1="523.476006148139" x2="791.586257932515" y2="490.0873857969825" stroke="#5B8AEF" stroke-width="0.3" opacity="0.12"/><line x1="924.3653990441773" y1="436.103828268174" x2="828.0033947099016" y2="531.9659308213583" stroke="#5B8AEF" stroke-width="0.3" opacity="0.12"/><line x1="791.586257932515" y1="490.0873857969825" x2="828.0033947099016" y2="531.9659308213583" stroke="#5B8AEF" stroke-width="0.3" opacity="0.12"/><line x1="828.0033947099016" y1="531.9659308213583" x2="913.4239435724094" y2="440.7424189340055" stroke="#5B8AEF" stroke-width="0.3" opacity="0.12"/><line x1="720.04282428885" y1="469.761219746322" x2="913.4239435724094" y2="440.7424189340055" stroke="#5B8AEF" stroke-width="0.3" opacity="0.12"/><line x1="913.4239435724094" y1="440.7424189340055" x2="879.139366084309" y2="493.4798572647757" stroke="#5B8AEF" stroke-width="0.3" opacity="0.12"/><line x1="879.139366084309" y1="493.4798572647757" x2="842.4790289450805" y2="526.6223245889984" stroke="#5B8AEF" stroke-width="0.3" opacity="0.12"/><line x1="913.7267009884708" y1="433.03834676418376" x2="915.9247026852913" y2="460.91469240417456" stroke="#5B8AEF" stroke-width="0.3" opacity="0.12"/><line x1="842.4790289450805" y1="526.6223245889984" x2="915.9247026852913" y2="460.91469240417456" stroke="#5B8AEF" stroke-width="0.3" opacity="0.12"/><circle cx="728.1495131217639" cy="477.41580674304436" r="3.169896090016652" fill="#5B8AEF" opacity="0.5219300285083848"/><circle cx="728.1495131217639" cy="477.41580674304436" r="12.679584360066608" fill="#5B8AEF" opacity="0.031315801710503084"/><circle cx="722.4142511945283" cy="415.7176660446998" r="3.7601353338733947" fill="#5B8AEF" opacity="0.7515975441092614"/><circle cx="722.4142511945283" cy="415.7176660446998" r="15.040541335493579" fill="#5B8AEF" opacity="0.04509585264655568"/><circle cx="735.575073554914" cy="478.34527337846595" r="3.493082212979478" fill="#5B8AEF" opacity="0.7814748433332308"/><circle cx="735.575073554914" cy="478.34527337846595" r="13.972328851917911" fill="#5B8AEF" opacity="0.046888490599993844"/><circle cx="524.2359079067762" cy="493.4405745442214" r="2.093982605773016" fill="#d79f1e" opacity="0.6279002629350406"/><circle cx="524.2359079067762" cy="493.4405745442214" r="8.375930423092065" fill="#d79f1e" opacity="0.03767401577610244"/><circle cx="447.4522564781141" cy="558.220866861856" r="1.529577343039949" fill="#d79f1e" opacity="0.7733280073727146"/><circle cx="447.4522564781141" cy="558.220866861856" r="6.118309372159796" fill="#d79f1e" opacity="0.046399680442362874"/><circle cx="569.9127148696746" cy="486.8369914995679" r="2.2976791333862017" fill="#5B8AEF" opacity="0.3542285922235942"/><circle cx="569.9127148696746" cy="486.8369914995679" r="9.190716533544807" fill="#5B8AEF" opacity="0.02125371553341565"/><circle cx="687.5904681103259" cy="426.8361352509056" r="1.7818145643835024" fill="#d79f1e" opacity="0.42434272776560056"/><circle cx="687.5904681103259" cy="426.8361352509056" r="7.1272582575340095" fill="#d79f1e" opacity="0.025460563665936034"/><circle cx="632.5561008102055" cy="585.0953265023862" r="2.715225018893939" fill="#5B8AEF" opacity="0.517182519946798"/><circle cx="632.5561008102055" cy="585.0953265023862" r="10.860900075575756" fill="#5B8AEF" opacity="0.031030951196807877"/><line x1="728.1495131217639" y1="477.41580674304436" x2="722.4142511945283" y2="415.7176660446998" stroke="#5B8AEF" stroke-width="0.3" opacity="0.12"/><line x1="722.4142511945283" y1="415.7176660446998" x2="524.2359079067762" y2="493.4405745442214" stroke="#5B8AEF" stroke-width="0.3" opacity="0.12"/><line x1="735.575073554914" y1="478.34527337846595" x2="447.4522564781141" y2="558.220866861856" stroke="#5B8AEF" stroke-width="0.3" opacity="0.12"/><line x1="524.2359079067762" y1="493.4405745442214" x2="447.4522564781141" y2="558.220866861856" stroke="#5B8AEF" stroke-width="0.3" opacity="0.12"/><line x1="447.4522564781141" y1="558.220866861856" x2="569.9127148696746" y2="486.8369914995679" stroke="#5B8AEF" stroke-width="0.3" opacity="0.12"/><line x1="569.9127148696746" y1="486.8369914995679" x2="632.5561008102055" y2="585.0953265023862" stroke="#5B8AEF" stroke-width="0.3" opacity="0.12"/><line x1="687.5904681103259" y1="426.8361352509056" x2="632.5561008102055" y2="585.0953265023862" stroke="#5B8AEF" stroke-width="0.3" opacity="0.12"/><circle cx="953.9096526586961" cy="295.7297377734118" r="2.67125010149146" fill="#d79f1e" opacity="0.7266792246730436"/><circle cx="953.9096526586961" cy="295.7297377734118" r="10.68500040596584" fill="#d79f1e" opacity="0.043600753480382615"/><circle cx="821.882989221198" cy="380.97480841957724" r="1.379785353029047" fill="#5B8AEF" opacity="0.49390548495291986"/><circle cx="821.882989221198" cy="380.97480841957724" r="5.519141412116188" fill="#5B8AEF" opacity="0.02963432909717519"/><circle cx="984.9369035497946" cy="345.7335555673268" r="2.8837350364233063" fill="#5B8AEF" opacity="0.7106162604459637"/><circle cx="984.9369035497946" cy="345.7335555673268" r="11.534940145693225" fill="#5B8AEF" opacity="0.04263697562675782"/><circle cx="839.7391305024453" cy="453.0858177007576" r="3.9257801849980747" fill="#5B8AEF" opacity="0.6794328660608422"/><circle cx="839.7391305024453" cy="453.0858177007576" r="15.703120739992299" fill="#5B8AEF" opacity="0.04076597196365053"/><circle cx="780.1534720604092" cy="415.6448608337179" r="2.873349219967308" fill="#5B8AEF" opacity="0.6957035208100935"/><circle cx="780.1534720604092" cy="415.6448608337179" r="11.493396879869232" fill="#5B8AEF" opacity="0.0417422112486056"/><circle cx="756.6900944601233" cy="316.31997549735013" r="3.573131494956618" fill="#5B8AEF" opacity="0.5912688161205821"/><circle cx="756.6900944601233" cy="316.31997549735013" r="14.292525979826472" fill="#5B8AEF" opacity="0.03547612896723493"/><circle cx="916.2410644890001" cy="431.75549238536297" r="2.4441165474448896" fill="#5B8AEF" opacity="0.35408591616623375"/><circle cx="916.2410644890001" cy="431.75549238536297" r="9.776466189779558" fill="#5B8AEF" opacity="0.021245154969974023"/><circle cx="716.4413448499708" cy="342.4968436092589" r="2.892466847734743" fill="#5B8AEF" opacity="0.47301944488334446"/><circle cx="716.4413448499708" cy="342.4968436092589" r="11.569867390938972" fill="#5B8AEF" opacity="0.028381166693000667"/><circle cx="965.9316339371408" cy="398.02263565269425" r="3.2222699579886487" fill="#d79f1e" opacity="0.7546771780376682"/><circle cx="965.9316339371408" cy="398.02263565269425" r="12.889079831954595" fill="#d79f1e" opacity="0.04528063068226009"/><line x1="953.9096526586961" y1="295.7297377734118" x2="984.9369035497946" y2="345.7335555673268" stroke="#5B8AEF" stroke-width="0.3" opacity="0.12"/><line x1="821.882989221198" y1="380.97480841957724" x2="984.9369035497946" y2="345.7335555673268" stroke="#5B8AEF" stroke-width="0.3" opacity="0.12"/><line x1="984.9369035497946" y1="345.7335555673268" x2="839.7391305024453" y2="453.0858177007576" stroke="#5B8AEF" stroke-width="0.3" opacity="0.12"/><line x1="839.7391305024453" y1="453.0858177007576" x2="756.6900944601233" y2="316.31997549735013" stroke="#5B8AEF" stroke-width="0.3" opacity="0.12"/><line x1="780.1534720604092" y1="415.6448608337179" x2="756.6900944601233" y2="316.31997549735013" stroke="#5B8AEF" stroke-width="0.3" opacity="0.12"/><line x1="756.6900944601233" y1="316.31997549735013" x2="916.2410644890001" y2="431.75549238536297" stroke="#5B8AEF" stroke-width="0.3" opacity="0.12"/><line x1="916.2410644890001" y1="431.75549238536297" x2="716.4413448499708" y2="342.4968436092589" stroke="#5B8AEF" stroke-width="0.3" opacity="0.12"/><line x1="716.4413448499708" y1="342.4968436092589" x2="965.9316339371408" y2="398.02263565269425" stroke="#5B8AEF" stroke-width="0.3" opacity="0.12"/><circle cx="826.5524347436393" cy="172.9481343985294" r="2.9529524645549023" fill="#5B8AEF" opacity="0.41838495410903587"/><circle cx="826.5524347436393" cy="172.9481343985294" r="11.81180985821961" fill="#5B8AEF" opacity="0.025103097246542153"/><circle cx="861.4777133155045" cy="299.0527726239771" r="3.5627722910432014" fill="#5B8AEF" opacity="0.47378814014316917"/><circle cx="861.4777133155045" cy="299.0527726239771" r="14.251089164172805" fill="#5B8AEF" opacity="0.02842728840859015"/><circle cx="958.2863187223144" cy="207.20682079308054" r="2.7390859628743893" fill="#d79f1e" opacity="0.36589130920632335"/><circle cx="958.2863187223144" cy="207.20682079308054" r="10.956343851497557" fill="#d79f1e" opacity="0.0219534785523794"/><circle cx="1005.0637853821106" cy="333.12825492263227" r="2.162237193510978" fill="#5B8AEF" opacity="0.5723457875067115"/><circle cx="1005.0637853821106" cy="333.12825492263227" r="8.648948774043912" fill="#5B8AEF" opacity="0.03434074725040269"/><circle cx="933.3138621567348" cy="199.1551556620538" r="3.874048105382383" fill="#5B8AEF" opacity="0.33431114253323113"/><circle cx="933.3138621567348" cy="199.1551556620538" r="15.496192421529532" fill="#5B8AEF" opacity="0.020058668551993866"/><line x1="826.5524347436393" y1="172.9481343985294" x2="861.4777133155045" y2="299.0527726239771" stroke="#5B8AEF" stroke-width="0.3" opacity="0.12"/><line x1="861.4777133155045" y1="299.0527726239771" x2="958.2863187223144" y2="207.20682079308054" stroke="#5B8AEF" stroke-width="0.3" opacity="0.12"/><line x1="958.2863187223144" y1="207.20682079308054" x2="933.3138621567348" y2="199.1551556620538" stroke="#5B8AEF" stroke-width="0.3" opacity="0.12"/><line x1="1005.0637853821106" y1="333.12825492263227" x2="933.3138621567348" y2="199.1551556620538" stroke="#5B8AEF" stroke-width="0.3" opacity="0.12"/><circle cx="169.85413086128148" cy="569.1886927789025" r="1.0391460466846574" fill="white" opacity="0.1301762429439352"/><circle cx="576.9212697525143" cy="157.89036525315154" r="0.9178250796244598" fill="white" opacity="0.1598962340550014"/><circle cx="608.0460992679215" cy="115.3951979779616" r="0.6294565541341233" fill="white" opacity="0.1205572497893857"/><circle cx="845.577681644623" cy="12.047700589544931" r="0.6809384113088894" fill="white" opacity="0.05597728784474418"/><circle cx="882.2144529233753" cy="89.15514158511307" r="0.6072861613274022" fill="white" opacity="0.15472126805909037"/><circle cx="802.8181530548344" cy="82.34919630100447" r="0.8905896413096179" fill="white" opacity="0.13251902951510577"/><circle cx="1178.6324830626288" cy="438.07141680180627" r="0.3884029172772555" fill="white" opacity="0.08521825228129432"/><circle cx="105.32873370932822" cy="130.01372633968188" r="1.0209314547110961" fill="white" opacity="0.1803048742610518"/><circle cx="272.1736439839814" cy="11.217219387747916" r="0.4704083331722805" fill="white" opacity="0.05991042997218223"/><circle cx="516.7723397336771" cy="496.35695195587215" r="0.9283886964565091" fill="white" opacity="0.1491540021026293"/><circle cx="1050.506711122816" cy="133.14692058281364" r="0.8337256471317847" fill="white" opacity="0.18630337698212984"/><circle cx="406.85550924709787" cy="210.27195798711477" r="0.3543971859171973" fill="white" opacity="0.1725319456879664"/><circle cx="355.2894212097346" cy="74.65113600466918" r="0.3821904406334229" fill="white" opacity="0.15776294861350346"/><circle cx="575.0187772209844" cy="370.29437654199745" r="0.7501153884688929" fill="white" opacity="0.10425012437824632"/><circle cx="654.7234014862792" cy="568.1043899469564" r="0.7406424513275933" fill="white" opacity="0.10206489928628545"/><circle cx="838.0984367980149" cy="160.21363211805635" r="0.9806866775642553" fill="white" opacity="0.10643559170720893"/><circle cx="503.91858448456907" cy="479.8247160761732" r="0.8520041229911168" fill="white" opacity="0.18749283344368117"/><circle cx="736.4135035948891" cy="50.87745965033651" r="0.4299524576077016" fill="white" opacity="0.0708040648702551"/><circle cx="31.34619501947714" cy="17.749846176127832" r="0.46221957624061943" fill="white" opacity="0.05457835176707169"/><circle cx="1186.8651933906904" cy="21.652658666322314" r="0.7216456065055195" fill="white" opacity="0.0870703509250052"/><circle cx="731.1039724997729" cy="432.2329018415105" r="0.7511750003561262" fill="white" opacity="0.14341830976466569"/><circle cx="252.25771789078496" cy="47.7322952112799" r="0.3489141546417559" fill="white" opacity="0.1437869494984797"/><circle cx="618.0817675860978" cy="450.1339097740752" r="0.30082876384296864" fill="white" opacity="0.11169385789506783"/><circle cx="709.3571392397197" cy="82.71960098423045" r="0.39111165594826997" fill="white" opacity="0.07130028548245332"/><circle cx="751.184828742959" cy="581.7083414558825" r="0.796126465357899" fill="white" opacity="0.19953186316393867"/><circle cx="656.1935705394454" cy="322.67002822955607" r="0.7202192721982577" fill="white" opacity="0.09224521927174424"/><circle cx="523.2024016432475" cy="531.3822090306237" r="1.0210495702554703" fill="white" opacity="0.1025238656916301"/><circle cx="148.88543381769463" cy="158.74308699683428" r="0.8267508743921066" fill="white" opacity="0.10661485777544549"/><circle cx="607.3170552995601" cy="588.8742098532963" r="0.578460005800454" fill="white" opacity="0.0644970290430342"/><circle cx="412.5370102061597" cy="554.7652674628259" r="1.0198003302886154" fill="white" opacity="0.06577834264178684"/><circle cx="1092.8382440902471" cy="66.18421239135051" r="1.0440768819041908" fill="white" opacity="0.06877890570032359"/><circle cx="136.5448427091096" cy="254.58570600235169" r="0.5959477086998279" fill="white" opacity="0.1237137721263402"/><circle cx="458.9450191980903" cy="544.4688311519421" r="0.6835268942562522" fill="white" opacity="0.11309595590601487"/><circle cx="829.847299135219" cy="421.7782828126933" r="0.8701323105814551" fill="white" opacity="0.16507698922188813"/><circle cx="1191.6628181895533" cy="138.49265591171226" r="0.6280905441977506" fill="white" opacity="0.16583306217372096"/><circle cx="850.2076298232225" cy="519.8172194509847" r="1.0573430836002078" fill="white" opacity="0.17472613787964272"/><circle cx="177.5947452418482" cy="217.4416398710765" r="1.0221884175772724" fill="white" opacity="0.09138766647846795"/><circle cx="420.08402888667024" cy="376.13674913353134" r="0.4737902496819339" fill="white" opacity="0.06738620079932092"/><circle cx="79.01467349334371" cy="399.80870131394295" r="0.5464573112532763" fill="white" opacity="0.1640056688403737"/><circle cx="1146.2096012878276" cy="372.38442225958426" r="0.3866465557770089" fill="white" opacity="0.10037430203537191"/>
</svg>