<svg xmlns="http://www.w3.org/2000/svg" viewBox="0 0 1200 600" width="1200" height="600">
  <defs>
    <radialGradient id="glow-287775731" cx="53.40530014755451%" cy="42.879579948670965%" r="50%">
      <stop offset="0%" stop-color="#5B8AEF" stop-opacity="0.15"/>
      <stop offset="100%" stop-color="#050507" stop-opacity="0"/>
    </radialGradient>
    <radialGradient id="glow2-287775731" cx="70.3251479847008%" cy="74.76217886654761%" r="40%">
      <stop offset="0%" stop-color="#d79f1e" stop-opacity="0.08"/>
      <stop offset="100%" stop-color="#050507" stop-opacity="0"/>
    </radialGradient>
    <filter id="blur-287775731">
      <feGaussianBlur stdDeviation="2"/>
    </filter>
  </defs>
  <rect width="1200" height="600" fill="#050507"/>
  <rect width="1200" height="600" fill="url(#glow-287775731)"/>
  <rect width="1200" height="600" fill="url(#glow2-287775731)"/>
  <path d="M 1130.5994538267141 592.5102327915422 L 1128.9476090738042 584.6826272245579 L 1127.3915196728692 576.8354248073714 L 1125.8609181822455 568.9832111655439 L 1124.2987501138537 561.1372165870283 L 1122.6584656661598 553.3071803846437 L 1120.9017459352312 545.5024423501569 L 1118.9966603439086 537.7325872105977 L 1116.9162104046004 530.007839444487 L 1114.6372067443613 522.3393231397109 L 1112.139430836498 514.73924975098" fill="none" stroke="#d79f1e" stroke-width="0.41751081352937536" opacity="0.17490334767610924" stroke-linecap="round"/><path d="M 906.3644823182208 233.92716116920448 L 906.5094553716915 225.92847485120404 L 904.858912396826 218.10059468553197 L 901.5958103317063 210.79633805582546 L 897.0244545333273 204.23107293059044 L 891.4779173439421 198.46601220178928 L 885.2490237933946 193.44596388170834 L 878.5630779143183 189.05300045116815 L 871.5804177444123 185.14884152105174 L 864.4109651078443 181.59934171234522 L 857.1297069880283 178.28523848634063 L 849.7889893315175 175.10500826080795 L 842.4271344728114 171.9740191136941 L 835.074120710105 168.8223229663077 L 827.7552130782879 165.59221599022644 L 820.4932511878409 162.2360411584134 L 813.3100774452779 158.7143916891797 L 806.2274115601716 154.99473525881524 L 799.2673540027914 151.05042305033646" fill="none" stroke="#5B8AEF" stroke-width="0.6034024105888802" opacity="0.1878415597918637" stroke-linecap="round"/><path d="M 126.47215096581363 208.7206412147361 L 119.14242496265189 211.92612350583906 L 112.34746548085326 216.14850738709794 L 106.25670215762622 221.33527922904668 L 101.01109965018745 227.37544928741028 L 96.70539010167468 234.11791658683754 L 93.3833541248062 241.39555885397266 L 91.04538371721817 249.0463035480036 L 89.66265453814741 256.9259012545713 L 89.19170465246775 264.9120271116548 L 89.58562268773956 272.9023230124014 L 90.80073350018593 280.80950365492345 L 92.79926240482244 288.5558500335288 L 95.54898007558604 296.06844297678686 L 99.02079870941957 303.27583330711906 L 103.18513754971303 310.1065200971295 L 108.00781088426258 316.4894521748054 L 113.44624440472711 322.35660146926585" fill="none" stroke="#5B8AEF" stroke-width="0.9108636564625725" opacity="0.08419628137918016" stroke-linecap="round"/><path d="M 578.2112496803568 198.2366888775661 L 577.0685850625906 206.1546632126663 L 576.1988100994187 214.10724087738853 L 575.6658926854437 222.08947108140308 L 575.5335006658722 230.08837552846043 L 575.8611189003558 238.08166435674843 L 576.6994021479891 246.03762320510464 L 578.0853168664504 253.91666124240032 L 580.037935693999 261.674707369764 L 582.5558547733629 269.26813107121615 L 585.6169569297806 276.65931863398134 L 589.1806570236931 283.8217233726601 L 593.1920682649488 290.7433257777053 L 597.5870435222283 297.4279493638096 L 602.2969755079699 303.89452037862793 L 607.2525424323815 310.1748353753203 L 612.3860475217004 316.3105607193962 L 617.6324055518245 322.35007455908175 L 622.9290718146796 328.3455167029051 L 628.2152962446454 334.3501675067431 L 633.4310799400321 340.4161052283933 L 638.5161750115622 346.59201067727287 L 643.409437170287 352.9209904881106" fill="none" stroke="#5B8AEF" stroke-width="0.42383716745480765" opacity="0.12497421737991936" stroke-linecap="round"/><path d="M 796.9101194277919 234.18861144883027 L 801.4639241817733 227.6111604028235 L 804.763001749374 220.32308197274645 L 806.6495873515131 212.54871416785056 L 807.0760908260932 204.5600913337088 L 806.1206518642656 196.61735022057778 L 803.9619959308051 188.91409087398068 L 800.8294394846538 181.5529027829402 L 796.9551395565875 174.5536313874744" fill="none" stroke="#d79f1e" stroke-width="0.32980209888415507" opacity="0.12141638694397006" stroke-linecap="round"/><path d="M 125.81391899185903 77.26824808738579 L 122.5010813807202 69.9864140490254 L 118.96350556730755 62.811070338487355 L 115.10826779143233 55.801281347978104 L 110.83285918611273 49.039559580738704 L 106.03012733816149 42.64160937800385 L 100.59922078391286 36.76749208269733 L 94.46574830334613 31.631295500582244 L 87.6134567061829 27.502603229723814 L 80.12473733276359 24.6885168511323 L 72.21588559072035 23.484330768178545 L 64.2390926591481 24.09324334549899 L 56.623897762362404 26.544530085961867 L 49.765798814334644 30.663568665419522 L 43.92019461149999 36.1251537378872" fill="none" stroke="#5B8AEF" stroke-width="0.7245883448163926" opacity="0.10656835264832171" stroke-linecap="round"/><path d="M 84.46699366181483 18.381237060940467 L 76.7872333895748 16.140415300754352 L 68.8042307376596 15.619196863326362 L 60.91679271431764 16.956478220386074 L 53.558051365027545 20.094778039435905 L 47.0773742924898 24.785281709777035 L 41.65792434728986 30.66997051135969 L 37.312780046048815 37.387091993169626 L 33.939559710045465 44.641151860910824 L 31.385451744790267 52.222479746038864 L 29.493007085070204 59.99542341043635 L 28.122898382358752 67.87722537082297 L 27.16113785524645 75.81920350529857 L 26.51849457808535 83.79334983066279 L 26.1269462785992 91.78376220607682 L 25.935544414819397 99.78147221123089 L 25.90665748851936 107.78142005765395 L 26.01288016390854 115.78071482302127 L 26.23461318696235 123.7776413868011 L 26.55822120177123 131.77109357298144 L 26.974655847606904 139.7602476074051 L 27.478441147462412 147.74436937323816" fill="none" stroke="#d79f1e" stroke-width="0.39249049950972686" opacity="0.07371191681069877" stroke-linecap="round"/><path d="M 131.73788996959937 59.35835952840669 L 130.35470395055276 51.47884200277645 L 129.0355936958667 43.588344671430214 L 127.7413641262607 35.69372816262135 L 126.42596211078684 27.802611794344465 L 125.0350447483028 19.924455354495073 L 123.50442757586194 12.072244769479592 L 121.758545897698 4.265075169307488 L 119.70921588126114 -3.467986739388892 L 117.25525291486663 -11.082319655643882 L 114.28394426853174 -18.510059885903388 L 110.6760007634809 -25.650280027072807 L 106.31630868993015 -32.35796852787685 L 101.11309437709944 -38.43469139589985 L 95.02690111472756 -43.62682502024535 L 88.10642932625817 -47.64018648228676 L 80.52006937925319 -50.17930892015356 L 72.56337393779725 -51.01057160541882 L 64.62364935693314 -50.030381021898336" fill="none" stroke="#5B8AEF" stroke-width="0.5223840543173179" opacity="0.06511685114592167" stroke-linecap="round"/><path d="M 13.201366743632297 537.6854301140111 L 20.266277436550233 541.4387002749633 L 27.944970761724125 543.6831754514644 L 35.929066483586574 544.1873733333895 L 43.82189338518174 542.8822742944443 L 51.24511366504901 539.8996914076552 L 57.94415953696219 535.5267308080153 L 63.828572194477786 530.1069810281758 L 68.94130318364209 523.9539344793158 L 73.39946008445389 517.311281617112 L 77.34448078597147 510.3516256152252 L 80.9133264345755 503.1917833867651 L 84.22637193266192 495.91004392921724 L 87.38470233555891 488.5598773279669 L 90.47160246776306 481.17942696408" fill="none" stroke="#d79f1e" stroke-width="0.5530631547109518" opacity="0.06595848670506779" stroke-linecap="round"/><path d="M 648.6618404503267 29.776224321581527 L 656.4511807452869 31.600005495217605 L 664.4508575094131 31.52809117467936 L 672.194122787223 29.517657679767296 L 679.2469114558113 25.741658209927206 L 685.3206002934444 20.534902607480404 L 690.3161114995164 14.2863133434938 L 694.2908484061526 7.343585743837845 L 697.3907742239817 -0.03140306455750963 L 699.7904324347869 -7.663024155211519" fill="none" stroke="#5B8AEF" stroke-width="0.9729694377039417" opacity="0.19278501634150047" stroke-linecap="round"/><path d="M 296.0092352218969 513.6081872105636 L 293.513197487634 521.2088316325278 L 291.93462693775933 529.0515425808586 L 291.2762615152494 537.0244062427083 L 291.51358747542366 545.0208852421572 L 292.59780390557876 552.9470744105143 L 294.4607119095375 560.7271498451606 L 297.0205900494287 568.3065313442612 L 300.188105105696 575.6527445434762" fill="none" stroke="#5B8AEF" stroke-width="0.4198951799980808" opacity="0.07647771652623905" stroke-linecap="round"/><path d="M 1017.4353416158982 17.8932692007596 L 1019.417105341481 25.64392159497546 L 1021.0286053220683 33.47993255799532 L 1022.2265047897808 41.389738931431644 L 1022.9725218673842 49.35487913860465 L 1023.2337655510626 57.35061248444218 L 1022.9830137842407 65.34668174073528 L 1022.1989149379273 73.30816332390872 L 1020.8661195284724 81.1963606082403 L 1018.9753655460863 88.96971569971086 L 1016.5235437334727 96.58473833915141 L 1013.5137574237918 103.99697055151884" fill="none" stroke="#5B8AEF" stroke-width="0.5935665284719163" opacity="0.1474582836997967" stroke-linecap="round"/><path d="M 558.966041244085 471.12759466801197 L 565.3436348456366 466.2978638418223 L 572.4373801721329 462.5993807415752 L 580.0553578501529 460.15675590398973 L 587.9766492093894 459.0373171150937 L 595.9737852355431 459.2513623887953 L 603.8302932466628 460.7597661381983 L 611.3521930271988 463.48392173059233 L 618.3752677364773 467.3149035405065 L 624.7703688748353 472.1214284213506" fill="none" stroke="#5B8AEF" stroke-width="0.6694039461991768" opacity="0.12541825701734902" stroke-linecap="round"/><path d="M 858.1856543469175 363.14630432200914 L 853.1525411617513 369.3646458746504 L 847.2245175137632 374.7366599875223 L 840.6907449932909 379.352915683508 L 833.7625900442242 383.35299930784936 L 826.5838304976215 386.8836382545644 L 819.2493251630852 390.0781697534948 L 811.8217308942881 393.0498432513966 L 804.3435982318042 395.89194315855906 L 796.8453452673364 398.6805274733771 L 789.3503082756573 401.4777440351331 L 781.8779102949734 404.33488743690185 L 774.445671809962 407.29492647413025" fill="none" stroke="#5B8AEF" stroke-width="0.5241344922334582" opacity="0.06415060531541267" stroke-linecap="round"/><path d="M 942.6164515980596 77.35100429381757 L 944.5628464829324 85.11061426804571 L 945.7516422498231 93.02179399199477 L 946.084813873497 101.01485327296965 L 945.4808672530015 108.9920237286884 L 943.8846043368492 116.83115280675038 L 941.275892264207 124.3938653705102 L 937.6751367392604 131.53771304872723 L 933.1434588425511 138.13042838009684 L 927.7768022460252 144.06330263925358 L 921.6950130580145 149.26059426784212 L 915.028510743987 153.68300841591386 L 907.9056931633871 157.32518766925895 L 900.4434945188675 160.20886438306206 L 892.7420807307693 162.37409547107364 L 884.8833250838688 163.87074495652783 L 876.9319614130306 164.75154900628795 L 868.9381922639864 165.06723047832625 L 860.9407859606174 164.8635335985408" fill="none" stroke="#5B8AEF" stroke-width="0.9921685032044392" opacity="0.14493015585696797" stroke-linecap="round"/><path d="M 714.0500355111668 519.4734180902473 L 706.0586268054235 519.8440754762116 L 698.2901200952311 521.7546522199455 L 691.0036051191909 525.0571814785503 L 684.382673076147 529.5475332333011 L 678.5293380852315 535.0008321875238 L 673.4729332235524 541.2002490854899 L 669.1872587563072 547.955468871759 L 665.6098614476024 555.1110421189329 L 662.6592492755944 562.5470281201568 L 660.2480086563384 570.1749976190504 L 658.2915046099016 577.9320648429615 L 656.7128335395 585.7747555579825" fill="none" stroke="#d79f1e" stroke-width="0.6300953710126204" opacity="0.1966631621758748" stroke-linecap="round"/><path d="M 1069.350913664955 90.40298345051845 L 1062.530659345698 94.58438644719993 L 1055.9881236644867 99.18821386143661 L 1049.654790466073 104.07584013580254 L 1043.4581591022938 109.13565828880232 L 1037.3292979788264 114.27735658112248 L 1031.2068171425665 119.42665055307914 L 1025.0386608360948 124.52114245894515 L 1018.7826663274158 129.50737678029208 L 1012.4064475659537 134.33892252735683 L 1005.8869009938722 138.97524784968488 L 999.2094778430305 143.38115525504452 L 992.3672899847127 147.5265702296264 L 985.3600870939907 151.38650645296718" fill="none" stroke="#5B8AEF" stroke-width="0.585156135766374" opacity="0.08226036189229244" stroke-linecap="round"/><path d="M 928.7607381719913 40.86322832892799 L 933.0420470506136 47.62121577237814 L 937.0572286817671 54.54063167755742 L 940.7191219340499 61.6533342447175 L 943.93322827924 68.97928267490786 L 946.5987593903508 76.52215639091958 L 948.6113157142254 84.26487019444042 L 949.867568746758 92.16561878671018 L 950.272054887242 100.15538667834235 L 949.7457016456436 108.13805241511594 L 948.2350377021496 115.99412614502882 L 945.7203651774603 123.58862560803313 L 942.2208139893926 130.78259123778795 L 937.7944989731088 137.44650415563294 L 932.5330963054096 143.47291618671142 L 926.5517520011543 148.78549750975517 L 919.9766396828721 153.34267843681664 L 912.9330033448948 157.13572301054973" fill="none" stroke="#5B8AEF" stroke-width="0.81731141829738" opacity="0.16055515734504683" stroke-linecap="round"/><path d="M 79.51098609692929 370.5716655452604 L 87.37616433840496 372.03418776041394 L 95.3343187936154 372.8513644041173 L 103.33139876209282 373.06749394346156 L 111.3249740727442 372.74694168103815 L 119.28687225535582 371.96708443145604 L 127.20291445397841 370.8111104223943 L 135.0705626775285 369.36193430112087 L 142.89556336761973 367.6977936219499 L 150.68851603053884 365.88951023887574 L 158.46195162416035 363.9990872513361 L 166.22817231882186 362.079239308969 L 173.99787109087563 360.17351608889055" fill="none" stroke="#5B8AEF" stroke-width="0.3177350949578616" opacity="0.1413746119855785" stroke-linecap="round"/><path d="M 710.6114351705701 423.195455886049 L 706.1386165344029 429.8282451521086 L 701.6671914303569 436.4619739330362 L 697.2588629491044 443.13779897578394 L 692.9659553594967 449.88842445992157 L 688.8324997777178 456.7378437749775 L 684.8948192835691 463.7016553983631 L 681.181775714146 470.78779027229587 L 677.7148619285377 477.9975412252178 L 674.5083103762644 485.3267995193846 L 671.5693508123414 492.76739873461094 L 668.8986953733604 500.308459636516 L 666.4912686427452 507.9376336767853 L 664.3371458514833 515.6421618907752 L 662.4226241338112 523.409697316672" fill="none" stroke="#5B8AEF" stroke-width="1.0591769024539632" opacity="0.15024530588194973" stroke-linecap="round"/><path d="M 429.2993156375826 416.7989604253317 L 428.057512818826 408.8959277315281 L 428.2007647011945 400.89721040321865 L 429.86166812331993 393.0715219464519 L 433.0467267109415 385.7328979750648 L 437.6191727381707 379.1683921042413 L 443.33292308569924 373.56901205229656 L 449.9005749296588 369.00108590835174 L 457.0568688868468 365.42513053973846 L 464.59235382897333 362.7387823331605 L 472.35816221986425 360.81726729653764 L 480.25546945039446 359.53955899390536" fill="none" stroke="#5B8AEF" stroke-width="0.4758979265465857" opacity="0.19078067365604484" stroke-linecap="round"/><path d="M 474.67720269908995 149.8728818026711 L 469.80320242038607 143.52905635715365 L 466.1058825716799 136.4347046646899 L 463.6235306932647 128.82957947494262 L 462.3000073799872 120.93982117451218 L 462.0060495028562 112.94522370081329 L 462.5720362018875 104.96527012597844 L 463.81834301685853 97.06294645993205 L 465.5757032491983 89.25835261952045 L 467.69514160139886 81.54421099058848 L 470.05060277167263 73.89883312711224" fill="none" stroke="#5B8AEF" stroke-width="0.8836326348519106" opacity="0.15282573545017547" stroke-linecap="round"/><path d="M 470.54093408889185 190.73961600230058 L 462.8965212573601 188.38102479967276 L 455.6570635721674 184.9765788206178 L 449.0259285046869 180.50130813418656 L 443.2301470023781 174.98688007884886 L 438.49323891364037 168.54004350896037 L 434.99502715517906 161.3454264591819 L 432.8310687818168 153.64365496436625 L 431.9904918400042 145.68793812646328 L 432.36395444202867 137.69666002562803 L 433.7762093295858 129.82230061469366 L 436.0256511684556 122.14506078428964 L 438.91533994059915 114.68518821164153 L 442.2700545476029 107.42255164455686 L 445.9418151384653 100.31493782813509 L 449.80874567899235 93.31159232796595 L 453.77124307730753 86.36187187543366 L 457.74773961462057 79.42015196688526 L 461.671057464714 72.44823852456986 L 465.48562524874745 65.41623506744514 L 469.14549109334985 58.30248907819921 L 472.61294670038933 51.09299869307418 L 475.85755933298265 43.78051013825127" fill="none" stroke="#d79f1e" stroke-width="0.7144283535026146" opacity="0.16036249925399315" stroke-linecap="round"/><path d="M 746.005977665077 261.2333084741762 L 753.9954788479032 260.8235880211621 L 761.9449936994374 259.9262510581224 L 769.8132971382671 258.4806366577716 L 777.541813725917 256.4142312390745 L 785.0473456103666 253.64529802725642 L 792.2136296806964 250.08940536530258 L 798.8834571400929 245.67200775337304 L 804.8553599797951 240.34881543361263 L 809.8916272256357 234.1330280958353 L 813.7452682546943 227.12236116471126 L 816.2079118047311 219.51083130892917 L 817.1660354502661 211.56841359894523 L 816.6380260115517 203.58585723944307 L 814.7683202803464 195.80741263408024 L 811.7819011290678 188.38573488219174 L 807.9271836342749 181.37565977308358" fill="none" stroke="#5B8AEF" stroke-width="0.35333006086448676" opacity="0.07531917253291195" stroke-linecap="round"/><path d="M 477.4994241434612 466.4107895765504 L 473.41597921457867 459.5314380436817 L 469.6624979781758 452.4666394897262 L 466.3724534992997 445.17447881356054 L 463.7045012797892 437.6324611157287 L 461.83985876756344 429.85280120660667 L 460.97113256901827 421.9001089082739 L 461.2787948120421 413.906027100823 L 462.8955084715257 406.0710901551138 L 465.8674074148975 398.64358608777155 L 470.1306390816137 391.8741802234502 L 475.51998313215984 385.96190733522496 L 481.8088921473376 381.01725129068393 L 488.76047264470924 377.05801795725154 L 496.16617571583 374.0322020305315 L 503.8627964385673 371.8499945586511 L 511.7322507012441 370.41065804218323 L 519.6930180488785 369.61934063631026 L 527.6898759239394 369.3951440126194 L 535.6850286950697 369.6735899971253 L 543.6514165070818 370.40616438148913 L 551.5679709065975 371.5586254174937 L 559.4163116733123 373.10896319021356" fill="none" stroke="#5B8AEF" stroke-width="0.8549277390143497" opacity="0.14268799383318426" stroke-linecap="round"/><path d="M 405.7644212645313 41.314096488670494 L 413.7294758028681 42.061027677817215 L 421.72728521086884 41.873825452151536 L 429.64451056474485 40.725982825332366 L 437.3620551991609 38.61896958004982 L 444.7634743626752 35.58268988839363 L 451.74313511312573 31.67317127242307 L 458.2130210918529 26.967793984439727 L 464.10730881130087 21.55878554662369 L 469.3842492538817 15.54597426025732 L 474.0253854211798 9.029851557560768 L 478.0325983037382 2.1058176961575636 L 481.42377486405576 -5.139865262456691" fill="none" stroke="#5B8AEF" stroke-width="0.7300214251643147" opacity="0.07942971700775889" stroke-linecap="round"/><path d="M 255.13910495449747 261.4684851195051 L 249.0990733036356 266.71424699520884 L 244.0111491542118 272.8878219603089 L 240.1816246910464 279.9116914341828 L 237.90627183009028 287.58129177306216 L 237.4035593490678 295.5654811596827 L 238.7490392339066 303.4515247735295 L 241.84405681701082 310.82857473677876 L 246.44003784948626 317.37662470215975 L 252.20773634846512 322.9204188925024 L 258.8154625159867 327.4301810697186" fill="none" stroke="#5B8AEF" stroke-width="0.8137652008392686" opacity="0.16881834407747648" stroke-linecap="round"/><path d="M 677.5957583811114 175.95555566994267 L 685.5422347396253 175.0316977352041 L 693.2404854889281 172.8552475517956 L 700.4784716645902 169.44767420395345 L 707.0467752487956 164.88068525873868 L 712.7599209787735 159.2806883062364 L 717.4814863882754 152.8226065412078 L 721.1448562195889 145.71066436772085 L 723.7607488732182 138.15043251779136 L 725.407979578112 130.32185467728578 L 726.2119656213979 122.3623568010249 L 726.3199943970136 114.36308622280097 L 725.8808287086975 106.37514947429038 L 725.0317205892653 98.42033864049212 L 723.8921923452447 90.50191232075666 L 722.5624315918326 82.61320289914117 L 721.1242200010478 74.74354296874188 L 719.6429656653435 66.88187103505263 L 718.1700390121836 59.01863461011848 L 716.745037019525 51.14657202646744 L 715.3978345229145 43.26082251021175" fill="none" stroke="#5B8AEF" stroke-width="0.895967957282424" opacity="0.16560387305244983" stroke-linecap="round"/><path d="M 650.187068549072 247.03055212601578 L 656.6271597824937 251.77662680992097 L 663.2794494471648 256.22039122956676 L 670.104713132057 260.3936124831899 L 677.0678374142323 264.3325082968642 L 684.1375654429887 268.0766965399171 L 691.2858732156463 271.6685896323355 L 698.4870805868187 275.1532147767913 L 705.7167452822637 278.5784079671729 L 712.9503314011797 281.99531180840484 L 720.1615892742185 285.45909007621236 L 727.3205316015429 289.02974054273 L 734.3908443020268 292.7728246076925 L 741.3265414666356 296.7598165616395 L 748.0676947349218 301.06758310748137 L 754.5352088726903 305.7762199460754 L 760.6250060475729 310.9641261102992 L 766.2028062522313 316.69894475406755 L 771.1020933540663 323.0232617838972 L 775.1296016577985 329.93551010577977" fill="none" stroke="#d79f1e" stroke-width="0.3650102302734788" opacity="0.11611896095616694" stroke-linecap="round"/><path d="M 940.4103095365735 138.036190596426 L 935.0847204486346 144.0059561585252 L 929.0589583963628 149.26810321931714 L 922.4565790584093 153.78568964104332 L 915.3990893926434 157.55289545140312 L 907.9975722164236 160.58893621037237 L 900.3478613559946 162.93028704948964 L 892.5289996253205 164.62303665784853 L 884.604085823231 165.71653619120565 L 876.6224850143506 166.25879860708787 L 868.6225606720249 166.29359109283885 L 860.6343789837223 165.8589034870022 L 852.6820991198954 164.98640995271467 L 844.7859469177048 163.7015829605319 L 836.963774159474 162.02420007627651 L 829.2322526095443 159.96906637673962 L 821.607763789047 157.54684214556045 L 814.1070390858933 154.76491315158881" fill="none" stroke="#5B8AEF" stroke-width="0.9699053611000559" opacity="0.09451759584924094" stroke-linecap="round"/><path d="M 1049.1060129595483 362.3799055639561 L 1044.7071704189207 369.06198490370997 L 1039.1055537510567 374.773542546447 L 1032.5947807049813 379.42218044829485 L 1025.4534642423625 383.0279534834053 L 1017.910156430775 385.6922558798391 L 1010.1311465621848 387.5596084079855 L 1002.2256898803938 388.7858851517619 L 994.259273581189 389.51814968576787 L 986.2676848575273 389.88490528810456 L 978.2684188088984 389.9932689501533 L 970.2686700248823 389.9298702700966 L 962.2704031867275 389.7633542478262 L 954.2733205794675 389.54732236902476 L 946.2764616976809 389.32316165705333 L 938.2789775038352 389.12254618111035 L 930.2804404911885 388.96955710528755 L 922.2809148756453 388.88243692239513 L 914.2809183147757 388.8750189662133 L 906.281347441781 388.9578793785615 L 898.2834038218735 389.1392570309374" fill="none" stroke="#5B8AEF" stroke-width="1.0624766092572717" opacity="0.11065350350488606" stroke-linecap="round"/><path d="M 816.5576804506395 342.4676669493633 L 816.505187583255 350.4674947286892 L 814.8620654882308 358.2969359463524 L 811.7841904219849 365.6811545967298 L 807.527120310262 372.45443696673885 L 802.3730956749384 378.57293597045515 L 796.5754919739328 384.08544822224064 L 790.3353611315472 389.09152124107567 L 783.8016805785448 393.7079071035571 L 777.0818151156182 398.0488065679729" fill="none" stroke="#5B8AEF" stroke-width="0.6091087469407863" opacity="0.19428893282743587" stroke-linecap="round"/><path d="M 1186.0647506947 495.1324629109038 L 1179.3434432093845 499.47112925989194 L 1171.9353690548444 502.491135438832 L 1164.083742108022 504.0247436964825 L 1156.0837421885847 504.02587903796734 L 1148.2141964822442 502.58704257199196 L 1140.6758250677817 499.90880501389245 L 1133.5658708136912 496.2415784726571 L 1126.8907207753887 491.8322279574281 L 1120.5969564133923 486.89375348086514 L 1114.601750169822 481.5968202080123 L 1108.8142443068728 476.0737073279122 L 1103.1477344982723 470.42652514659085 L 1097.5254175441044 464.7353431896616 L 1091.8824274521705 459.0646586787462 L 1086.1660090233497 453.46800250325737" fill="none" stroke="#d79f1e" stroke-width="0.5853532662081314" opacity="0.08031117610647864" stroke-linecap="round"/><path d="M 1098.5177400980692 393.8289141253703 L 1091.6906077499852 397.9990776595432 L 1084.3301093594043 401.13325433648015 L 1076.6241203237992 403.2821454419422 L 1068.7252755220663 404.5503137265709 L 1060.742381558824 405.07319418291706 L 1052.742758582395 404.9955267187608 L 1044.7609801768594 404.45588472176195 L 1036.809290914587 403.5780248945318 L 1028.8867426823172 402.46751622398625 L 1020.9859383329914 401.21161390546195 L 1013.0974125236725 399.880764343825 L 1005.2121462607788 398.53073620957315 L 997.3227845659975 397.20485082654875 L 989.4240368347581 395.93607808163296 L 981.5126118287302 394.7489157616462 L 973.5869244143094 393.6610375474648 L 965.6467227020447 392.68471958258385 L 957.6927213204617 391.8280621120771 L 949.726284269856 391.0960233707952 L 941.7491739728353 390.49128267498844" fill="none" stroke="#5B8AEF" stroke-width="0.97308010862818" opacity="0.07284332653174332" stroke-linecap="round"/><path d="M 686.0785707300894 61.26913030690939 L 691.3871513247909 55.284234980376205 L 695.6164737484261 48.49359201840736 L 698.862953757885 41.181932319803764 L 701.2808522272676 33.556070598545176 L 703.0387182849641 25.751590672041537 L 704.2938497556657 17.850663828230466 L 705.1813613226609 9.900046039753285 L 705.8119720250119 1.924939135010228 L 706.2739413937387 -6.061711245616067 L 706.6364882566307 -14.053492009138496 L 706.9533939940443 -22.0472127168937" fill="none" stroke="#5B8AEF" stroke-width="0.7359546592626509" opacity="0.1452023735387262" stroke-linecap="round"/><path d="M 1034.9373410618573 95.94561331716628 L 1030.5231966760257 102.61759423298363 L 1025.8674890434895 109.12331375048093 L 1020.9464769448444 115.43074111232895 L 1015.7440124140625 121.50810590358141 L 1010.2512754024359 127.3244484073468 L 1004.4664428160198 132.8503611778435 L 998.394228697847 138.05883655006733 L 992.0452509888213 142.92612347917833 L 985.4352095792967 147.4324914806148 L 978.5838955393493 151.56280574541586 L 971.5140852696112 155.30683869798256 L 964.2503979708182 158.65927763483924 L 956.8182043890902 161.61942941536006 L 949.2426674948774 164.1906627311876 L 941.5479745500213 166.37965804511163 L 933.7567912745596 168.19554988334622" fill="none" stroke="#5B8AEF" stroke-width="0.7662176868255333" opacity="0.11906357994259503" stroke-linecap="round"/><path d="M 780.993715106041 280.6848936158628 L 788.9184602038309 281.7796151032986 L 796.8485607725247 282.8348425529051 L 804.7816683033813 283.86722082847416 L 812.71533204648 284.89531596582356 L 820.646778266367 285.94038096908304 L 828.5725994078582 287.027284475882 L 836.4882937359323 288.18563818028105 L 844.38756329584 289.451158002297 L 852.2612275832234 290.86728324025523 L 860.0955347480957 292.4870459532573 L 867.8695442153465 294.37510760561236 L 875.5511132772884 296.6097209382979 L 883.0908679003952 299.28406202038536 L 890.4134616644236 302.5058038733296" fill="none" stroke="#5B8AEF" stroke-width="0.6511316323425302" opacity="0.1336812904168299" stroke-linecap="round"/><path d="M 1004.0171713586976 58.2995128158012 L 1005.3086807233702 66.19457478901984 L 1005.9322495234088 74.17023538558603 L 1005.8558107468172 82.16987019684042 L 1005.0585056298537 90.13004007885073 L 1003.5314569066674 97.98294541363066 L 1001.27805025417 105.65902243633444 L 998.31374667332 113.08956106287827 L 994.6654531567274 120.20924886620143" fill="none" stroke="#d79f1e" stroke-width="0.583217485380926" opacity="0.0894989922686941" stroke-linecap="round"/><path d="M 54.415195833153646 78.09818390668286 L 48.39689067823277 83.36885777842383 L 43.44874645774003 89.65502264845422 L 39.539089953352835 96.63460616165204 L 36.549795071082215 104.05512609672604 L 34.33188351533122 111.74153412199156 L 32.74080251048537 119.58171659665494 L 31.652270202463583 127.50731420279119 L 30.966196738313716 135.47784136238292 L 30.605038499974295 143.46968499992235 L 30.510257739685084 151.46912351818594 L 30.638601149969922 159.46809395000005 L 30.95884893274821 167.4616814648538 L 31.449196565637852 175.4466397740073 L 32.09523607195493 183.42051166639922 L 32.888441857233964 191.38109107886663 L 33.82505918680066 199.32607364511279 L 34.90530561110354 207.25280485430494" fill="none" stroke="#5B8AEF" stroke-width="0.7536065859969736" opacity="0.15738081639510618" stroke-linecap="round"/><path d="M 848.8362767029723 395.6512734273687 L 840.8500680859244 396.12081780758035 L 832.8850329552266 396.86795592516694 L 824.9478486445894 397.86850838205 L 817.0441937765618 399.1063450946673 L 809.1795559635794 400.5717706542263 L 801.3597699293045 402.2602452255951 L 793.5914000723163 404.1713783358302 L 785.8820365792213 406.3081316045382 L 778.2405454919609 408.6761717146965 L 770.6772943103012 411.2833217991996 L 763.2043614842896 414.13906600656804 L 755.8357277498512 417.25406791470505 L 748.5874379846945 420.6396691139493 L 741.4777132475895 424.30734060449976 L 734.5269838270893 428.26806787647826 L 727.7578062347378 432.53166198511553 L 721.1946218702465 437.1060046698841 L 714.8633152712512 441.9962558648145 L 708.7905387905174 447.204075544397 L 703.0027913188866 452.7269352388516" fill="none" stroke="#5B8AEF" stroke-width="0.4892143451558493" opacity="0.08554132876244436" stroke-linecap="round"/><path d="M 188.24855153832985 346.70285235471226 L 196.2427165292474 347.0083455592 L 204.24251863461666 347.06461522180155 L 212.24141475062336 346.9317208075733 L 220.2368433276873 346.66131025106836 L 228.2285268475773 346.2966261166201 L 236.2173037390809 345.8730180692716 L 244.20439521879155 345.4187387557061 L 252.19099338985592 344.9558676570715 L 260.17806621634946 344.5012605032687 L 268.1662961285771 344.0674600083492 L 276.15609216164245 343.66353012580424 L 284.1476358329071 343.2957941467788 L 292.140936683801 342.9684693736577 L 300.13588450367644 342.68419950633256 L 308.13229244750505 342.44449135904836 L 316.12992951745235 342.250065801559 L 324.12854311265625 342.1011344260209 L 332.12787330240377 341.99761382230395" fill="none" stroke="#5B8AEF" stroke-width="0.6163789292408055" opacity="0.1259591459696922" stroke-linecap="round"/><path d="M 870.9956253278049 11.73744220833175 L 873.3801243297185 19.373813369418226 L 875.8272094890791 26.990359451655024 L 878.2691366157092 34.608560808158295 L 880.6316610757589 42.25175897225602 L 882.8330385736444 49.942918645010394 L 884.7830560840781 57.70161903289767 L 886.3823929910976 65.54012153387612 L 887.5227940656215 73.45842219684823 L 888.0887455256617 81.43837827096783 L 887.961516308194 89.43736650237702 L 887.0264111266457 97.382527186683 L 885.1836442152804 105.16739777715381 L 882.36214624649 112.65332786045754 L 878.533879793264 119.67788307506746 L 873.724493629992 126.0708326863602 L 868.0157056884923 131.67527201951276 L 861.5368657567367 136.36831294610707 L 854.4473374845836 140.07487319495533 L 846.9152235387224 142.7706587032188" fill="none" stroke="#d79f1e" stroke-width="0.6523171623946713" opacity="0.16644265219869217" stroke-linecap="round"/><path d="M 891.8225508610823 430.80616110507685 L 887.9764249360318 423.7913684945534 L 882.8349858214297 417.6622899479169 L 876.6679749119297 412.56641157004043 L 869.7590832189312 408.53314793194096 L 862.3557689612534 405.5014919484785 L 854.6473852571538 403.361206764123 L 846.7661678614385 401.98773948694696 L 838.7989961249516 401.2637405081321 L 830.8009063293401 401.0889274041163 L 822.8062996397489 401.382634535018 L 814.8369891553187 402.0826991054343 L 806.9075561913307 403.1429315656145 L 799.0287775200056 404.5303199929383 L 791.2097843517247 406.2224623729929 L 783.4594278371723 408.2053829204013 L 775.7871625554238 410.47173360961006" fill="none" stroke="#5B8AEF" stroke-width="0.5770289630987816" opacity="0.14540063545359327" stroke-linecap="round"/><path d="M 38.674201834329494 398.65511478793576 L 46.144715181009126 401.51718228138895 L 53.88983243131375 403.5204692750655 L 61.81351736996708 404.62283808492833 L 69.81088286897533 404.8281307425479 L 77.78515091478077 404.1869996064719 L 85.66200725006007 402.7887384458262 L 93.39717068683093 400.74735494279616 L 100.97631555402732 398.1867762812334 L 108.40946060029445 395.2290145056412 L 115.72299618189176 391.98676261895656 L 122.95189760339365 388.5599588255934 L 130.13345872137606 385.03502195967894 L 137.30289079720612 381.4854806216947 L 144.49060111758945 377.97309961299777 L 151.72079029333156 374.54901367906126 L 159.01101359643528 371.2546785123116 L 166.37241715076942 368.1226284312566 L 173.81042463975348 365.177115811386 L 181.32569702798435 362.4347298190985 L 188.91521948046292 359.9050759014007 L 196.5733949773698 357.5915616787137 L 204.29305014258102 355.4922941564032" fill="none" stroke="#5B8AEF" stroke-width="0.6195191727576401" opacity="0.08624239399388545" stroke-linecap="round"/><path d="M 838.1048064856348 213.7413020309719 L 836.5970741771093 205.88466513686583 L 833.757603223644 198.4055338568022 L 829.8542226126511 191.4224385684845 L 825.1543358479349 184.9485630368693 L 819.8877544757704 178.92667623534524 L 814.2359856181666 173.26474116151928 L 808.3368261280991 167.86104637824866 L 802.2941793774627 162.61829707592426 L 796.187720190208 157.45001339617212 L 790.0805382122311 152.28258383323907 L 784.024573162309 147.05522433592859" fill="none" stroke="#5B8AEF" stroke-width="0.9507576971551208" opacity="0.14019003287897913" stroke-linecap="round"/><path d="M 726.9241291689333 106.91947113113453 L 725.9097184997919 98.98404606411184 L 724.6312872023374 91.08685584114717 L 723.1849806683718 83.21867959694619 L 721.6489174462793 75.36753256114724 L 720.0853422138402 67.52181828566515 L 718.5429595441155 59.67191027982629 L 717.0591449203456 51.81072117369951 L 715.6619291237014 43.93367934204674 L 714.3717404819942 36.03840143251058 L 713.2029201025509 28.124245828745998 L 712.1650309518271 20.191857404645106 L 711.2639794832879 12.24276272342238 L 710.5029657485309 4.27904135112971 L 709.8832767217413 -3.6969216321141705 L 709.4049378163436 -11.682608320908251 L 709.0672384666275 -19.67547758977543 L 708.8691484227616 -27.673024734651865 L 708.8096416046243 -35.67280341525267 L 708.8879438286797 -43.67242020368123 L 709.1037195317379 -51.669509727124726 L 709.4572109461124 -59.66169615012335 L 709.9493412391221 -67.64654478830693" fill="none" stroke="#5B8AEF" stroke-width="0.8431000581677537" opacity="0.1617465962105182" stroke-linecap="round"/><path d="M 1024.016438156374 122.13804708893319 L 1018.0182746702044 127.43163139384231 L 1011.8577353402426 132.53533153824674 L 1005.5169703919364 137.4133126647305 L 998.9862679845967 142.03391068520008 L 992.26316698098 146.3697973183085 L 985.3514531950118 150.39822288431523 L 978.2600598464803 154.1012136183576 L 971.0019133979854 157.46563186408744 L 963.5927824398593 160.48304440554384 L 956.0501941075061 163.14938295281212 L 948.3924776195291 165.4644160389182 L 940.6379795424178 167.43107807701142" fill="none" stroke="#5B8AEF" stroke-width="0.6743334887429762" opacity="0.0658181417481127" stroke-linecap="round"/><path d="M 334.41795480177643 481.2831767281904 L 327.9721419459346 486.02147775571746 L 322.091235669193 491.4450320667004 L 316.88369726426873 497.5180497483179 L 312.45204957075646 504.17841750997997 L 308.8838112645865 511.3385624380091 L 306.24281167651 518.8900603805222 L 304.5626234079436 526.7116310272767 L 303.84348853903487 534.6792432819186 L 304.05327619554265 542.6764921300648 L 305.1320195052996 550.6034280369367 L 306.9988178247957 558.3825709225204 L 309.55958714148574 565.9616513751016 L 312.7142990931834 573.3133717521165 L 316.3627967803419 580.4329549299998 L 320.4087951360574 587.3343966131229 L 324.76210049500526 594.0462318652544" fill="none" stroke="#5B8AEF" stroke-width="0.5940325254080968" opacity="0.07205637268352152" stroke-linecap="round"/><path d="M 306.9818008257923 321.563239545358 L 313.4528962369192 326.2669534163426 L 320.54589773947146 329.9668628320973 L 328.0186047409464 332.8231979087484 L 335.7139725452949 335.0098195851699 L 343.53674978488357 336.68438109785717 L 351.43149728634717 337.9778113774372 L 359.36671137015395 338.99387114150363 L 367.32469318329265 339.81272733263455 L 375.29550368786136 340.49550101421374 L 383.273493551775 341.08852523909087 L 391.25535678221524 341.626911132801 L 399.23905382164185 342.13738305431144 L 407.2232194319339 342.6404730138909 L 415.2068364284156 343.15219525640924 L 423.18905310112035 343.68531530854995" fill="none" stroke="#d79f1e" stroke-width="0.8815135418351336" opacity="0.13522471380197665" stroke-linecap="round"/><path d="M 1047.1464346382518 95.06348254860542 L 1041.7852441292864 101.00129665200919 L 1036.3996794542454 106.9170124270401 L 1030.9345299369013 112.75928430988449 L 1025.3448347190338 118.4825095694169 L 1019.5954974020201 124.04534341694414 L 1013.6607672969208 129.40994765021495 L 1007.5236361385832 134.54177199886166 L 1001.175145725831 139.40969450021623 L 994.6135855208597 143.98636661830994 L 987.8435665875709 148.24862466339718 L 980.8749793012555 152.17784738971395 L 973.7218679890653 155.76016487360857 L 966.4012778494049 158.98645686397546 L 958.9321418310165 161.85211684708807 L 951.3342745583675 164.35659541701222 L 943.6275276545592 166.5027669294134 L 935.8311399322295 168.2961822419123 L 927.9632924349041 169.74427607824714 L 920.0408573721859 170.85559181961523 L 912.0793149890515 171.6390730775618 L 904.0928045019609 172.1034546443717" fill="none" stroke="#5B8AEF" stroke-width="0.8915234333796069" opacity="0.08266338529189275" stroke-linecap="round"/><path d="M 201.51721658255775 249.9295515240773 L 194.93109987484527 254.47081420227494 L 189.08778468001665 259.9348482005115 L 184.21823808225503 266.28209295175816 L 180.54957545632593 273.3913063074756 L 178.27242267725964 281.0603724318998 L 177.5106109615116 289.0240175087317 L 178.3018994036357 296.98478773537187 L 180.5940363487877 304.6493887181151 L 184.25535124175656 311.76238901718193 L 189.0961486684512 318.13158679034825 L 194.8961269648459 323.64160056177843 L 201.43239345921404 328.254324303192 L 208.50256564996926 331.9976737649804 L 215.93907234552995 334.946973371138 L 223.61390052067387 337.2046297847707 L 231.43593217024917 338.88267056885263 L 239.3442524052087 340.0903423211636 L 247.30040238674016 340.92680957777117 L 255.281402420483 341.47784357073044 L 263.2742886851654 341.8151404130685 L 271.27221830404017 341.99713440067717 L 279.2718816698904 342.0705239985349" fill="none" stroke="#5B8AEF" stroke-width="0.7272322716318222" opacity="0.06592698076084581" stroke-linecap="round"/><path d="M 739.183974051468 532.525941511861 L 732.8370462794105 527.6559817731891 L 725.6920489839893 524.057507978867 L 717.978737988496 521.9350486773009 L 709.9963838273318 521.4039911985449 L 702.067591745323 522.4690058089024 L 694.48831462134 525.0291929657069 L 687.4899507802506 528.9051320193728 L 681.2214599704557 533.8756473817388 L 675.7504944544236 539.7124732590788 L 671.077394762504 546.2057112240221 L 667.1548371424619 553.1780524174413 L 663.9073526840785 560.4892660439577 L 661.2473156096764 568.0340790146553 L 659.0862226889659 575.7366550375228 L 657.3415771795613 583.5441009737118 L 655.9403725979565 591.4204342399271 L 654.8202753440504 599.3416325168163 L 653.929422152668 607.2918765754225 L 653.2254880152874 615.2608461907637 L 652.6744472901829 623.2418457596947 L 652.2492777264318 631.2305396981342 L 651.9287416144149 639.2241156564205" fill="none" stroke="#5B8AEF" stroke-width="0.5834485930779244" opacity="0.12267683724066096" stroke-linecap="round"/><path d="M 1080.7557910125497 531.2897739611984 L 1084.093186176402 524.0191623280348 L 1086.357179245286 516.3462010102616 L 1087.5781689315797 508.43992602225586 L 1087.817777667768 500.44351509900144 L 1087.153268789102 492.47116112102395 L 1085.665624335304 484.6106958689486 L 1083.4322095189007 476.92877825302287 L 1080.5233284697558 469.4763685057045 L 1077.0014403516088 462.29331176896244 L 1072.9218935131266 455.41164790092665 L 1068.3343341306243 448.85769497829943 L 1063.2842406452235 442.6531357039664" fill="none" stroke="#5B8AEF" stroke-width="0.5977812172369013" opacity="0.0838681568223369" stroke-linecap="round"/><path d="M 13.377150899440586 214.8875834489649 L 17.28165427035354 221.870051023292 L 20.893514954718206 229.0082904698741 L 24.295639646967828 236.24883931498147 L 27.562827629648964 243.5512692315109 L 30.762065251353015 250.8837230254242 L 33.95360109039639 258.21953238691265 L 37.19224908355649 265.53466459189707 L 40.5286217590003 272.805745486135 L 44.01013424078973 280.00845822781395 L 47.681684204465775 287.1161808493173 L 51.585935765375446 294.09878922650233 L 55.76313912376119 300.9216165072336 L 60.25042060738218 307.54462978570075" fill="none" stroke="#5B8AEF" stroke-width="0.43467167100620996" opacity="0.09972651678124746" stroke-linecap="round"/><path d="M 340.16190205708233 150.54393669150022 L 345.288180963259 144.40217272859115 L 351.06559548257167 138.8685047342103 L 357.30748075715974 133.86461942188737 L 363.86952382703754 129.28863966351113 L 370.6435850588442 125.03280902452497 L 377.5490444119521 120.99367160143882 L 384.5246806453784 117.07697667600611 L 391.52216309967287 113.1994466243055 L 398.5012586839467 109.28891918857902 L 405.4264921155839 105.28377975064008 L 412.26493037269194 101.13218220225924 L 418.9848078293247 96.79130130457975 L 425.5547797449017 92.22671271101188 L 431.9436545279669 87.41191479144001 L 438.12049915008214 82.3279605711263 L 444.0550364508272 76.96314305083115 L 449.7182608064081 71.31266608880797 L 455.0831945975009 65.37823389885152 L 460.1256983710896 59.16750481980258 L 464.8252396403191 52.693378480379764 L 469.16552560264284 45.97311674699055 L 473.13491819217995 39.02733223621511" fill="none" stroke="#5B8AEF" stroke-width="0.4261955217114629" opacity="0.167839714655578" stroke-linecap="round"/><path d="M 252.20010683508593 163.59778864476726 L 254.10022986594737 155.82671841811316 L 257.35584654934325 148.51912236942556 L 261.82020043020464 141.88063275005896 L 267.29438581028967 136.0468265804589 L 273.5598416428711 131.07248610055896 L 280.4089255555382 126.93847478499085 L 287.6653859705266 123.57042160166573 L 295.1925320481539 120.8607958108859 L 302.8918055027943 118.68796625690096 L 310.69616240231267 116.92955407969679 L 318.5619357874685 115.47023607001738 L 326.46131693243296 114.20541294934795 L 334.3763109692158 113.04228380875676 L 342.29427051651743 111.89951672518488 L 350.20478238706886 110.70628500172754 L 358.09759653019364 109.40110880592493 L 365.9613093498354 107.93072766819172" fill="none" stroke="#5B8AEF" stroke-width="1.0846505805778552" opacity="0.08031637495398353" stroke-linecap="round"/><path d="M 633.4616580202531 95.04317319721132 L 639.4904142198695 100.30188964569827 L 646.2965877168679 104.50617345257407 L 653.7489160426627 107.41526309102724 L 661.6248408515665 108.818761721056 L 669.6211976626867 108.5773538726903 L 677.3877382452418 106.65880041252208 L 684.5798894760351 103.15552185188785 L 690.9173028373756 98.27318717598709 L 696.2282508485437 92.29039257624774 L 700.4636963998987 85.5035670310089 L 703.6794005165362 78.17831979734913 L 705.9993471209276 70.52209045433875" fill="none" stroke="#5B8AEF" stroke-width="0.6690518209566604" opacity="0.08954153531675299" stroke-linecap="round"/><path d="M 380.93222788578464 163.97703819162075 L 382.5128152746282 156.1347334598325 L 385.28755990444887 148.63134807460258 L 389.02129518291264 141.5560939540529 L 393.4855061538386 134.91750823064282 L 398.4819258461204 128.6696453753475 L 403.8492898632228 122.73741109913128 L 409.4603159634042 117.03509699842769 L 415.21497204335554 111.4777654983749 L 421.0334844638724 105.98732715409936 L 426.85051031372404 100.49531383818707 L 432.61080142977187 94.9438233844098 L 438.26623153608324 89.28554535018182" fill="none" stroke="#5B8AEF" stroke-width="0.8659475206238905" opacity="0.19812334389338426" stroke-linecap="round"/><path d="M 1019.9686885904375 306.874569741485 L 1026.3417369882893 311.7102965864007 L 1031.9686902909034 317.39689456148204 L 1036.604990552748 323.9164589550609 L 1039.989036066607 331.1654751614251 L 1041.878314224152 338.93918907714277 L 1042.0967374337006 346.9362067275879 L 1040.5803602941787 354.79117969830753 L 1037.403273954117 362.13325858563866 L 1032.7688268734719 368.65414044752663" fill="none" stroke="#5B8AEF" stroke-width="0.6578057667044018" opacity="0.10500164312543425" stroke-linecap="round"/><path d="M 62.281501322184454 182.59636097708548 L 58.67864782593295 189.73915081611534 L 55.94258603299681 197.25672794343734 L 53.98416027036144 205.01331021478896 L 52.71144040511946 212.91142290989646 L 52.04142879496319 220.88331631374072 L 51.90518961218092 228.8821561599356 L 52.249031384585315 236.8747635464866 L 53.03371857628388 244.83618716360334 L 54.23289159874466 252.745800558846 L 55.83129077950375 260.5844943313408 L 57.823025798690175 268.3325903305748 L 60.20993708784055 275.96820782346475 L 62.99999354665319 283.4659131362013 L 66.20562006883979 290.7955760616198 L 69.84182925144991 297.921443221503 L 73.9240411476744 304.80152650837704 L 78.46552131094445 311.387493250369 L 83.47446456063548 317.62532039781183 L 88.95090905905491 323.4570058879366 L 94.88386975302217 328.82356692866273" fill="none" stroke="#d79f1e" stroke-width="0.9910120296715814" opacity="0.07610048950468212" stroke-linecap="round"/><path d="M 358.77403540479673 557.6065242093086 L 360.1681761674076 565.4841108660219 L 362.10777279137625 573.2454229288298 L 364.47353088217534 580.8876208231413 L 367.1546187281471 588.424978978502 L 370.05000972204147 595.8826402065598 L 373.06824778493575 603.2914349125626 L 376.12642077217004 610.683834927453 L 379.1488866710537 618.0909058660957 L 382.06608486484316 625.5400638519455 L 384.8136071312625 633.0534599812289 L 387.3315957848816 640.646860612056 L 389.5644661269931 648.3289365056747 L 391.4609055604126 656.1009064924523 L 392.9740754652485 663.9564979303453 L 394.06193124096484 671.8821884246329" fill="none" stroke="#5B8AEF" stroke-width="0.9391760680075623" opacity="0.10981923340345698" stroke-linecap="round"/><path d="M 348.2625046504021 423.9578296541971 L 342.5266807792565 418.38106316104034 L 337.59091759060965 412.0851722990893 L 333.73458915253315 405.0759832605712 L 331.264178315231 397.46697082169715 L 330.4564944275866 389.50784733115876 L 331.4766003481385 381.57315238359746 L 334.30622903673515 374.0902918687495 L 338.7331604006926 367.42678838343414 L 344.4186284814856 361.79869343911383 L 351.0002424587912 357.2509074443978 L 358.16991048350195 353.7018427203556 L 365.70259635333076 351.0076557211885 L 373.4496559860831 349.0118934491281 L 381.3190641315009 347.5723048131518 L 389.25611625653374 346.5707043116983 L 397.2290945944303 345.9137291040744 L 405.2198780507009 345.52982839426556 L 413.21818527955753 345.3652638998573 L 421.21817111741905 345.3803169399273" fill="none" stroke="#5B8AEF" stroke-width="1.069794394061805" opacity="0.06870439186166245" stroke-linecap="round"/><path d="M 501.5714951332526 556.0593522880503 L 494.637286629678 552.0697718052234 L 487.2325198305347 549.0416653588933 L 479.47069678002225 547.1041146027753 L 471.504786846149 546.3663619847393 L 463.52280603944996 546.9030019026438 L 455.73642588043856 548.7393798646533 L 448.36210853034424 551.8409026551706 L 441.5968288416767 556.1106790818823 L 435.5936206204694 561.3985416985572 L 430.44390502247666 567.5206679027277" fill="none" stroke="#d79f1e" stroke-width="0.7102705439600491" opacity="0.14925874917267765" stroke-linecap="round"/><path d="M 325.5485048170893 346.8602304099408 L 333.44611612963234 345.5844030093917 L 341.39078116797754 344.6450961221096 L 349.362394417076 343.9717594999084 L 357.3490507531414 343.5098931019247 L 365.34372481208624 343.2180255099678 L 373.3422608784884 343.0649869708207 L 381.3421736589748 343.02763051742477 L 389.3419382140828 343.08900692036036 L 397.3405703123694 343.2369412174639" fill="none" stroke="#d79f1e" stroke-width="1.0395865905748618" opacity="0.10561369831935209" stroke-linecap="round"/><path d="M 947.7416875528831 547.2713506535027 L 955.2565019933506 550.0149912869206 L 962.7045221527923 552.9350932893431 L 970.1036971719054 555.9768376961814 L 977.4771472317636 559.0804217879656 L 984.8521532605407 562.1803066367145 L 992.2586456027726 565.204190097508 L 999.7270498931402 568.0717565493305 L 1007.2853065888117 570.6933506678655 L 1014.9548579304033 572.9688686789327 L 1022.7454330811986 574.7873677357951 L 1030.6486255797306 576.0281531044826 L 1038.6306360078356 576.5643522518369 L 1046.625221390692 576.270065731221 L 1054.5288111201023 575.0318131765447 L 1062.2005954597769 572.7638349920103 L 1069.4704430658896 569.4247758754482 L 1076.1558592771837 565.0310064138393 L 1082.0856353671772 559.660926756838 L 1087.1238518816872 553.4467192970794 L 1091.186400397117 546.5550069148206 L 1094.2450289451688 539.1627953780041 L 1096.3194984852744 531.4364394369945" fill="none" stroke="#5B8AEF" stroke-width="0.6083489683961258" opacity="0.12736680913128276" stroke-linecap="round"/><path d="M 31.66775052979018 319.9415770917859 L 37.05316223459854 325.8574321246373 L 42.66525342643607 331.5586979888555 L 48.54400518845994 336.98458756757907 L 54.71922473941357 342.0705155554216 L 61.20793653726952 346.74989790829306 L 68.01207530570314 350.957473887393 L 75.11718182790727 354.6340839167723 L 82.49285131391731 357.7323898463313 L 90.09543127386259 360.222525977678" fill="none" stroke="#5B8AEF" stroke-width="0.9494301180585427" opacity="0.11220168086337004" stroke-linecap="round"/><path d="M 857.991314892653 530.0147004099631 L 865.4504416763066 527.1230870842603 L 873.021557420715 524.5388644961748 L 880.6832354304892 522.236976124741 L 888.4163764653448 520.1879447108694 L 896.2042052062369 518.3577197240072 L 904.0321304675531 516.7073906346291 L 911.8874411240962 515.1927637864582 L 919.7587871031606 513.7638087564213 L 927.6353672114506 512.3639924121494 L 935.5057134285854 510.9295411503661 L 943.3559266176959 509.388712514367 L 951.1671876115394 507.6612283071858 L 958.9123554299534 505.65813683034224 L 966.5515021666687 503.2825448757058 L 974.0263778025774 500.43188982331884 L 981.2541322289851 497.00266746955657" fill="none" stroke="#5B8AEF" stroke-width="0.5874175691452891" opacity="0.17930328423124892" stroke-linecap="round"/><path d="M 340.626937309572 458.46768098811975 L 332.6766086627272 459.3577789642765 L 324.76748387285676 460.5601703557367 L 316.91297120858917 462.0789299834791 L 309.1270791424698 463.9173762662787 L 301.4242400207945 466.0775312296063 L 293.81900681201114 468.559552148136 L 286.32561204531993 471.3611650533255 L 278.95738770550247 474.477135219762 L 271.7260572288696 477.89881018061385 L 264.6409241945179 481.6137650774515 L 257.70799446294575 485.6055673442331 L 250.929076891282 489.8536582750618 L 244.3009105845221 494.3333247146455 L 237.8143637528884 499.0157076764528" fill="none" stroke="#d79f1e" stroke-width="1.0829543165783186" opacity="0.11215309198580362" stroke-linecap="round"/><path d="M 1069.7980976988551 248.31401233017166 L 1075.5270555332813 242.7301926579969 L 1080.7023120276083 236.62964184533038 L 1085.2302243582237 230.03433973502027 L 1089.0119838676194 222.9846379673498 L 1091.9451867808084 215.54176750830916 L 1093.9260115944862 207.79087510436506 L 1094.8528432510536 199.84474503492973 L 1094.63262883306 191.84777650866255 L 1093.1913566057704 183.97867653682056 L 1090.4892686179157 176.4488212589356 L 1086.539130809844 169.4920683312227 L 1081.4221265076028 163.34257510243992 L 1075.2926101856733 158.2016579022508 L 1068.364009343138 154.2023466659479 L 1060.8762070364066 151.38582103756983 L 1053.0557128494893 149.70062945427955 L 1045.0843911215522 149.02385038418308 L 1037.0861731415828 149.1926968970031" fill="none" stroke="#5B8AEF" stroke-width="0.6161818353068931" opacity="0.16137771951098823" stroke-linecap="round"/>
</svg>