<svg xmlns="http://www.w3.org/2000/svg" viewBox="0 0 1200 600" width="1200" height="600">
  <defs>
    <radialGradient id="glow-617070765" cx="50.96018170051285%" cy="67.7738405194943%" r="50%">
      <stop offset="0%" stop-color="#5B8AEF" stop-opacity="0.15"/>
      <stop offset="100%" stop-color="#050507" stop-opacity="0"/>
    </radialGradient>
    <radialGradient id="glow2-617070765" cx="68.70320835556053%" cy="54.82283190583011%" r="40%">
      <stop offset="0%" stop-color="#d79f1e" stop-opacity="0.08"/>
      <stop offset="100%" stop-color="#050507" stop-opacity="0"/>
    </radialGradient>
    <filter id="blur-617070765">
      <feGaussianBlur stdDeviation="2"/>
    </filter>
  </defs>
  <rect width="1200" height="600" fill="#050507"/>
  <rect width="1200" height="600" fill="url(#glow-617070765)"/>
  <rect width="1200" height="600" fill="url(#glow2-617070765)"/>
  <circle cx="727.3795347322614" cy="204.23470353904867" r="1.9498130734776207" fill="#5B8AEF" opacity="0.705674369961803"/><circle cx="727.3795347322614" cy="204.23470353904867" r="7.799252293910483" fill="#5B8AEF" opacity="0.04234046219770818"/><circle cx="601.801939169784" cy="149.13562450052035" r="1.1964920653013942" fill="#5B8AEF" opacity="0.6454225940375694"/><circle cx="601.801939169784" cy="149.13562450052035" r="4.785968261205577" fill="#5B8AEF" opacity="0.03872535564225416"/><circle cx="510.84316401316" cy="186.3795862469727" r="3.585468154673217" fill="#5B8AEF" opacity="0.7621479112944323"/><circle cx="510.84316401316" cy="186.3795862469727" r="14.341872618692868" fill="#5B8AEF" opacity="0.04572887467766593"/><circle cx="692.2874456701276" cy="209.07412535002183" r="3.992248728867736" fill="#5B8AEF" opacity="0.592807871612165"/><circle cx="692.2874456701276" cy="209.07412535002183" r="15.968994915470944" fill="#5B8AEF" opacity="0.035568472296729894"/><circle cx="633.4592817507029" cy="259.1067961692376" r="2.4787256072641934" fill="#5B8AEF" opacity="0.48577154571459236"/><circle cx="633.4592817507029" cy="259.1067961692376" r="9.914902429056774" fill="#5B8AEF" opacity="0.02914629274287554"/><circle cx="657.7416654479418" cy="135.1219958323622" r="2.290636679292953" fill="#5B8AEF" opacity="0.691968338467166"/><circle cx="657.7416654479418" cy="135.1219958323622" r="9.162546717171812" fill="#5B8AEF" opacity="0.04151810030802996"/><circle cx="687.4391409509997" cy="85.43584909543202" r="1.1646135655066994" fill="#5B8AEF" opacity="0.6175471156451604"/><circle cx="687.4391409509997" cy="85.43584909543202" r="4.6584542620267975" fill="#5B8AEF" opacity="0.03705282693870962"/><circle cx="508.94395928315066" cy="106.42365473621695" r="3.2953546355922496" fill="#5B8AEF" opacity="0.5053708241811817"/><circle cx="508.94395928315066" cy="106.42365473621695" r="13.181418542368998" fill="#5B8AEF" opacity="0.030322249450870902"/><circle cx="600.7855782288991" cy="161.1500688647619" r="3.09798851241264" fill="#5B8AEF" opacity="0.7071499923743074"/><circle cx="600.7855782288991" cy="161.1500688647619" r="12.39195404965056" fill="#5B8AEF" opacity="0.04242899954245844"/><circle cx="782.2734713471837" cy="272.49649487086407" r="3.0887167808081566" fill="#5B8AEF" opacity="0.42487708177644623"/><circle cx="782.2734713471837" cy="272.49649487086407" r="12.354867123232626" fill="#5B8AEF" opacity="0.025492624906586773"/><circle cx="685.7884203948958" cy="189.66225813592888" r="3.1634647199713926" fill="#5B8AEF" opacity="0.7127724014282097"/><circle cx="685.7884203948958" cy="189.66225813592888" r="12.65385887988557" fill="#5B8AEF" opacity="0.04276634408569258"/><line x1="727.3795347322614" y1="204.23470353904867" x2="510.84316401316" y2="186.3795862469727" stroke="#5B8AEF" stroke-width="0.3" opacity="0.12"/><line x1="601.801939169784" y1="149.13562450052035" x2="692.2874456701276" y2="209.07412535002183" stroke="#5B8AEF" stroke-width="0.3" opacity="0.12"/><line x1="510.84316401316" y1="186.3795862469727" x2="633.4592817507029" y2="259.1067961692376" stroke="#5B8AEF" stroke-width="0.3" opacity="0.12"/><line x1="692.2874456701276" y1="209.07412535002183" x2="657.7416654479418" y2="135.1219958323622" stroke="#5B8AEF" stroke-width="0.3" opacity="0.12"/><line x1="633.4592817507029" y1="259.1067961692376" x2="657.7416654479418" y2="135.1219958323622" stroke="#5B8AEF" stroke-width="0.3" opacity="0.12"/><line x1="657.7416654479418" y1="135.1219958323622" x2="508.94395928315066" y2="106.42365473621695" stroke="#5B8AEF" stroke-width="0.3" opacity="0.12"/><line x1="687.4391409509997" y1="85.43584909543202" x2="600.7855782288991" y2="161.1500688647619" stroke="#5B8AEF" stroke-width="0.3" opacity="0.12"/><line x1="508.94395928315066" y1="106.42365473621695" x2="782.2734713471837" y2="272.49649487086407" stroke="#5B8AEF" stroke-width="0.3" opacity="0.12"/><line x1="600.7855782288991" y1="161.1500688647619" x2="685.7884203948958" y2="189.66225813592888" stroke="#5B8AEF" stroke-width="0.3" opacity="0.12"/><line x1="782.2734713471837" y1="272.49649487086407" x2="685.7884203948958" y2="189.66225813592888" stroke="#5B8AEF" stroke-width="0.3" opacity="0.12"/><circle cx="374.82711867188436" cy="208.2320560739525" r="2.451627950860014" fill="#5B8AEF" opacity="0.7790903774458404"/><circle cx="374.82711867188436" cy="208.2320560739525" r="9.806511803440056" fill="#5B8AEF" opacity="0.046745422646750426"/><circle cx="276.606093708708" cy="74.38768533728444" r="3.6165433831589966" fill="#5B8AEF" opacity="0.41285665310586644"/><circle cx="276.606093708708" cy="74.38768533728444" r="14.466173532635986" fill="#5B8AEF" opacity="0.024771399186351985"/><circle cx="402.4831045430541" cy="84.33508057349133" r="3.404619407097166" fill="#5B8AEF" opacity="0.42833406153523085"/><circle cx="402.4831045430541" cy="84.33508057349133" r="13.618477628388664" fill="#5B8AEF" opacity="0.02570004369211385"/><circle cx="479.7651879395196" cy="204.31884350456244" r="2.9111731447797142" fill="#5B8AEF" opacity="0.6256271438792473"/><circle cx="479.7651879395196" cy="204.31884350456244" r="11.644692579118857" fill="#5B8AEF" opacity="0.03753762863275484"/><circle cx="422.6661614713567" cy="28.760276561956985" r="2.7186540792317384" fill="#5B8AEF" opacity="0.4626418270928049"/><circle cx="422.6661614713567" cy="28.760276561956985" r="10.874616316926954" fill="#5B8AEF" opacity="0.027758509625568292"/><circle cx="246.13462362724107" cy="51.72257919410364" r="1.6299591565644178" fill="#5B8AEF" opacity="0.5683939853535938"/><circle cx="246.13462362724107" cy="51.72257919410364" r="6.519836626257671" fill="#5B8AEF" opacity="0.034103639121215626"/><line x1="374.82711867188436" y1="208.2320560739525" x2="402.4831045430541" y2="84.33508057349133" stroke="#5B8AEF" stroke-width="0.3" opacity="0.12"/><line x1="276.606093708708" y1="74.38768533728444" x2="479.7651879395196" y2="204.31884350456244" stroke="#5B8AEF" stroke-width="0.3" opacity="0.12"/><line x1="402.4831045430541" y1="84.33508057349133" x2="422.6661614713567" y2="28.760276561956985" stroke="#5B8AEF" stroke-width="0.3" opacity="0.12"/><line x1="479.7651879395196" y1="204.31884350456244" x2="422.6661614713567" y2="28.760276561956985" stroke="#5B8AEF" stroke-width="0.3" opacity="0.12"/><line x1="422.6661614713567" y1="28.760276561956985" x2="246.13462362724107" y2="51.72257919410364" stroke="#5B8AEF" stroke-width="0.3" opacity="0.12"/><circle cx="750.3575104523252" cy="239.92723060768435" r="2.482603623290827" fill="#5B8AEF" opacity="0.4095631078861482"/><circle cx="750.3575104523252" cy="239.92723060768435" r="9.930414493163308" fill="#5B8AEF" opacity="0.02457378647316889"/><circle cx="706.7653462322266" cy="204.2578658108869" r="1.0573915266699119" fill="#5B8AEF" opacity="0.4310955803520491"/><circle cx="706.7653462322266" cy="204.2578658108869" r="4.2295661066796475" fill="#5B8AEF" opacity="0.025865734821122945"/><circle cx="644.5241868703272" cy="212.81426884830663" r="1.1693792753710315" fill="#d79f1e" opacity="0.46431194830886646"/><circle cx="644.5241868703272" cy="212.81426884830663" r="4.677517101484126" fill="#d79f1e" opacity="0.027858716898531987"/><circle cx="505.02193700756027" cy="136.6053064989882" r="3.5089262004517607" fill="#5B8AEF" opacity="0.6658725001690315"/><circle cx="505.02193700756027" cy="136.6053064989882" r="14.035704801807043" fill="#5B8AEF" opacity="0.03995235001014189"/><circle cx="581.9390052845417" cy="166.71632731646127" r="1.6478293895012837" fill="#5B8AEF" opacity="0.48481551142633683"/><circle cx="581.9390052845417" cy="166.71632731646127" r="6.591317558005135" fill="#5B8AEF" opacity="0.02908893068558021"/><circle cx="567.0531262024552" cy="175.4031722319327" r="1.6448668044269397" fill="#5B8AEF" opacity="0.32538901102980083"/><circle cx="567.0531262024552" cy="175.4031722319327" r="6.579467217707759" fill="#5B8AEF" opacity="0.019523340661788048"/><circle cx="578.3378274544783" cy="216.71913406658877" r="1.605425130392157" fill="#5B8AEF" opacity="0.5430636725588998"/><circle cx="578.3378274544783" cy="216.71913406658877" r="6.421700521568628" fill="#5B8AEF" opacity="0.032583820353533986"/><circle cx="553.159619194064" cy="303.28831221130133" r="1.1280813031494996" fill="#5B8AEF" opacity="0.6332332309024563"/><circle cx="553.159619194064" cy="303.28831221130133" r="4.5123252125979985" fill="#5B8AEF" opacity="0.037993993854147375"/><line x1="750.3575104523252" y1="239.92723060768435" x2="706.7653462322266" y2="204.2578658108869" stroke="#5B8AEF" stroke-width="0.3" opacity="0.12"/><line x1="706.7653462322266" y1="204.2578658108869" x2="505.02193700756027" y2="136.6053064989882" stroke="#5B8AEF" stroke-width="0.3" opacity="0.12"/><line x1="644.5241868703272" y1="212.81426884830663" x2="581.9390052845417" y2="166.71632731646127" stroke="#5B8AEF" stroke-width="0.3" opacity="0.12"/><line x1="505.02193700756027" y1="136.6053064989882" x2="567.0531262024552" y2="175.4031722319327" stroke="#5B8AEF" stroke-width="0.3" opacity="0.12"/><line x1="581.9390052845417" y1="166.71632731646127" x2="567.0531262024552" y2="175.4031722319327" stroke="#5B8AEF" stroke-width="0.3" opacity="0.12"/><line x1="567.0531262024552" y1="175.4031722319327" x2="553.159619194064" y2="303.28831221130133" stroke="#5B8AEF" stroke-width="0.3" opacity="0.12"/><line x1="578.3378274544783" y1="216.71913406658877" x2="553.159619194064" y2="303.28831221130133" stroke="#5B8AEF" stroke-width="0.3" opacity="0.12"/><circle cx="568.404102496991" cy="398.3145860015948" r="2.586930809815848" fill="#5B8AEF" opacity="0.741417203490351"/><circle cx="568.404102496991" cy="398.3145860015948" r="10.347723239263392" fill="#5B8AEF" opacity="0.04448503220942106"/><circle cx="689.2242594571896" cy="547.8999393749516" r="3.802442999930327" fill="#5B8AEF" opacity="0.6689376974333718"/><circle cx="689.2242594571896" cy="547.8999393749516" r="15.209771999721308" fill="#5B8AEF" opacity="0.04013626184600231"/><circle cx="591.3892796688664" cy="539.563071140816" r="2.036276833171154" fill="#5B8AEF" opacity="0.5471588562462287"/><circle cx="591.3892796688664" cy="539.563071140816" r="8.145107332684615" fill="#5B8AEF" opacity="0.03282953137477372"/><circle cx="749.1989802798252" cy="544.6551833975386" r="1.7832373142164375" fill="#d79f1e" opacity="0.3598965671658034"/><circle cx="749.1989802798252" cy="544.6551833975386" r="7.13294925686575" fill="#d79f1e" opacity="0.021593794029948203"/><circle cx="558.8234354550128" cy="450.1339363167686" r="1.504242016703003" fill="#d79f1e" opacity="0.6707404930008298"/><circle cx="558.8234354550128" cy="450.1339363167686" r="6.016968066812012" fill="#d79f1e" opacity="0.04024442958004979"/><circle cx="471.14034102817084" cy="390.2885816946107" r="1.1911149975802353" fill="#5B8AEF" opacity="0.5548518966673184"/><circle cx="471.14034102817084" cy="390.2885816946107" r="4.764459990320941" fill="#5B8AEF" opacity="0.0332911138000391"/><circle cx="627.3571946319925" cy="548.0609279815392" r="2.3884756636752167" fill="#5B8AEF" opacity="0.6045161868466605"/><circle cx="627.3571946319925" cy="548.0609279815392" r="9.553902654700867" fill="#5B8AEF" opacity="0.036270971210799634"/><circle cx="451.9922211542689" cy="441.9881012486238" r="2.8984921620686035" fill="#d79f1e" opacity="0.5008128611840368"/><circle cx="451.9922211542689" cy="441.9881012486238" r="11.593968648274414" fill="#d79f1e" opacity="0.030048771671042206"/><circle cx="486.9155741235779" cy="546.517004699687" r="3.157696692346454" fill="#5B8AEF" opacity="0.539506830805683"/><circle cx="486.9155741235779" cy="546.517004699687" r="12.630786769385816" fill="#5B8AEF" opacity="0.03237040984834098"/><circle cx="684.6440327282269" cy="427.98618358931793" r="3.945040662747361" fill="#5B8AEF" opacity="0.7207809739377261"/><circle cx="684.6440327282269" cy="427.98618358931793" r="15.780162650989444" fill="#5B8AEF" opacity="0.043246858436263566"/><circle cx="489.35820487763647" cy="515.3803936743086" r="1.4623741393267988" fill="#5B8AEF" opacity="0.6562496969738275"/><circle cx="489.35820487763647" cy="515.3803936743086" r="5.849496557307195" fill="#5B8AEF" opacity="0.03937498181842965"/><circle cx="743.0550455316227" cy="503.91430803756896" r="2.8048546890750785" fill="#5B8AEF" opacity="0.41755004926470574"/><circle cx="743.0550455316227" cy="503.91430803756896" r="11.219418756300314" fill="#5B8AEF" opacity="0.025053002955882343"/><line x1="568.404102496991" y1="398.3145860015948" x2="689.2242594571896" y2="547.8999393749516" stroke="#5B8AEF" stroke-width="0.3" opacity="0.12"/><line x1="689.2242594571896" y1="547.8999393749516" x2="749.1989802798252" y2="544.6551833975386" stroke="#5B8AEF" stroke-width="0.3" opacity="0.12"/><line x1="591.3892796688664" y1="539.563071140816" x2="749.1989802798252" y2="544.6551833975386" stroke="#5B8AEF" stroke-width="0.3" opacity="0.12"/><line x1="749.1989802798252" y1="544.6551833975386" x2="558.8234354550128" y2="450.1339363167686" stroke="#5B8AEF" stroke-width="0.3" opacity="0.12"/><line x1="558.8234354550128" y1="450.1339363167686" x2="471.14034102817084" y2="390.2885816946107" stroke="#5B8AEF" stroke-width="0.3" opacity="0.12"/><line x1="471.14034102817084" y1="390.2885816946107" x2="627.3571946319925" y2="548.0609279815392" stroke="#5B8AEF" stroke-width="0.3" opacity="0.12"/><line x1="627.3571946319925" y1="548.0609279815392" x2="486.9155741235779" y2="546.517004699687" stroke="#5B8AEF" stroke-width="0.3" opacity="0.12"/><line x1="451.9922211542689" y1="441.9881012486238" x2="486.9155741235779" y2="546.517004699687" stroke="#5B8AEF" stroke-width="0.3" opacity="0.12"/><line x1="486.9155741235779" y1="546.517004699687" x2="684.6440327282269" y2="427.98618358931793" stroke="#5B8AEF" stroke-width="0.3" opacity="0.12"/><line x1="684.6440327282269" y1="427.98618358931793" x2="489.35820487763647" y2="515.3803936743086" stroke="#5B8AEF" stroke-width="0.3" opacity="0.12"/><line x1="489.35820487763647" y1="515.3803936743086" x2="743.0550455316227" y2="503.91430803756896" stroke="#5B8AEF" stroke-width="0.3" opacity="0.12"/><circle cx="593.959188924152" cy="536.0441241115537" r="0.6914585905109805" fill="white" opacity="0.05834950963424031"/><circle cx="641.6673814140574" cy="51.83971303135144" r="0.39340922389803884" fill="white" opacity="0.11165488518851571"/><circle cx="269.2429070683396" cy="582.769548791819" r="0.577075392136851" fill="white" opacity="0.0511466832604011"/><circle cx="578.4444604899942" cy="358.02372766566634" r="0.9730545024727726" fill="white" opacity="0.05506682372887937"/><circle cx="864.8512902040272" cy="577.8172295437274" r="0.7989025885699794" fill="white" opacity="0.097963642933389"/><circle cx="199.57425175214848" cy="122.22459917991637" r="0.8717845558057467" fill="white" opacity="0.1218180175972255"/><circle cx="1163.3740525522148" cy="13.850622537476301" r="1.083217316485577" fill="white" opacity="0.1125196574546954"/><circle cx="143.06272852377163" cy="427.63914951479023" r="1.0082478601058238" fill="white" opacity="0.11033464973342355"/><circle cx="355.66455719790633" cy="227.10641260589773" r="0.803302223097208" fill="white" opacity="0.16258692402047428"/><circle cx="1187.4560968891979" cy="187.3102083743132" r="0.9968961961087288" fill="white" opacity="0.18769399988823288"/><circle cx="184.44897224402473" cy="216.93825266181412" r="0.9416166494794267" fill="white" opacity="0.13456771263599754"/><circle cx="636.3701856864477" cy="536.8554160636177" r="0.47197037496230115" fill="white" opacity="0.18239224838669982"/><circle cx="132.14908211126414" cy="514.8115220082977" r="0.8830005246135408" fill="white" opacity="0.06684072120899369"/><circle cx="1136.010876454418" cy="467.400284701679" r="0.8287799748260434" fill="white" opacity="0.05094441899608095"/><circle cx="982.8005370603877" cy="564.3131869678913" r="0.5823111591312621" fill="white" opacity="0.050684659835269985"/><circle cx="856.6228110606888" cy="429.79274849863384" r="0.4689653553855444" fill="white" opacity="0.16263649340841757"/><circle cx="652.3577221913067" cy="488.1184346452907" r="0.3087081112008114" fill="white" opacity="0.19197967850695352"/><circle cx="419.65333093872914" cy="356.76654361037845" r="0.8003979461735105" fill="white" opacity="0.16030275091077328"/><circle cx="66.67645893370567" cy="515.6226493956627" r="0.6598245238698202" fill="white" opacity="0.1195198775127157"/><circle cx="564.6508497021398" cy="243.41547193164726" r="0.6784490069274087" fill="white" opacity="0.16108614292977663"/><circle cx="998.4337660476723" cy="538.152981613834" r="0.7495493116087976" fill="white" opacity="0.12036503919882935"/><circle cx="201.71051779841562" cy="74.33631898571565" r="0.5273509238973962" fill="white" opacity="0.10380836441358941"/><circle cx="57.44559357755146" cy="344.0456289537463" r="0.5331811008198099" fill="white" opacity="0.17651777722710638"/><circle cx="1074.254847818173" cy="500.6136400162306" r="0.31793033704996587" fill="white" opacity="0.15409527477067675"/><circle cx="634.2645661133641" cy="242.2813336561813" r="0.8631663459181629" fill="white" opacity="0.11314547123068268"/><circle cx="287.47979266917326" cy="236.43769539726793" r="0.3111287225089635" fill="white" opacity="0.17008235152814646"/><circle cx="992.6570684614857" cy="593.6748160951188" r="0.956845480882025" fill="white" opacity="0.12537447203666646"/><circle cx="550.0121620250923" cy="227.2035778626816" r="0.5807108507867488" fill="white" opacity="0.10761296991613367"/><circle cx="409.4830436676196" cy="90.75746084133046" r="0.5141924803211319" fill="white" opacity="0.18744064198687704"/><circle cx="918.9589875372866" cy="471.8517695888187" r="0.5835886390337668" fill="white" opacity="0.17642304509711593"/><circle cx="336.9515778203269" cy="172.5842131174096" r="0.5971598190707899" fill="white" opacity="0.1934523355185298"/><circle cx="427.2244794421012" cy="380.9129916973938" r="0.30620194413056684" fill="white" opacity="0.09426406295702983"/><circle cx="768.8489504013438" cy="222.1546976930251" r="1.0386721688968465" fill="white" opacity="0.13683924674374948"/><circle cx="57.76017757959672" cy="587.6522901410481" r="0.39605386745932225" fill="white" opacity="0.19575319790549262"/><circle cx="191.97758091240078" cy="483.60119735989775" r="0.6804320370687321" fill="white" opacity="0.11023381515882621"/><circle cx="1197.8509951372869" cy="540.8376361899253" r="0.9108685920996911" fill="white" opacity="0.1378301411577641"/><circle cx="89.45950832658424" cy="572.978222450697" r="0.35997963848522846" fill="white" opacity="0.06458450398155698"/><circle cx="174.06734422504314" cy="574.9271951499056" r="0.8351585126180008" fill="white" opacity="0.05171029451382826"/><circle cx="759.359151292294" cy="274.62788479152505" r="0.9278129215481752" fill="white" opacity="0.13470733628361828"/><circle cx="209.6073501788114" cy="435.367227641571" r="0.5893266291773537" fill="white" opacity="0.10862310945923585"/>
</svg>