<svg xmlns="http://www.w3.org/2000/svg" viewBox="0 0 1200 600" width="1200" height="600">
  <defs>
    <radialGradient id="glow-1887409163" cx="63.16298028135811%" cy="40.2095887857534%" r="50%">
      <stop offset="0%" stop-color="#5B8AEF" stop-opacity="0.15"/>
      <stop offset="100%" stop-color="#050507" stop-opacity="0"/>
    </radialGradient>
    <radialGradient id="glow2-1887409163" cx="74.4190416179686%" cy="60.832473198339564%" r="40%">
      <stop offset="0%" stop-color="#d79f1e" stop-opacity="0.08"/>
      <stop offset="100%" stop-color="#050507" stop-opacity="0"/>
    </radialGradient>
    <filter id="blur-1887409163">
      <feGaussianBlur stdDeviation="2"/>
    </filter>
  </defs>
  <rect width="1200" height="600" fill="#050507"/>
  <rect width="1200" height="600" fill="url(#glow-1887409163)"/>
  <rect width="1200" height="600" fill="url(#glow2-1887409163)"/>
  <circle cx="751.3256276731033" cy="408.72160401601417" r="3.1391184624001003" fill="#5B8AEF" opacity="0.6844942501208253"/><circle cx="751.3256276731033" cy="408.72160401601417" r="12.556473849600401" fill="#5B8AEF" opacity="0.04106965500724952"/><circle cx="676.8653177082842" cy="305.76855154045325" r="1.159824111107655" fill="#5B8AEF" opacity="0.3968897482831449"/><circle cx="676.8653177082842" cy="305.76855154045325" r="4.63929644443062" fill="#5B8AEF" opacity="0.02381338489698869"/><circle cx="815.547886172099" cy="397.72066576300216" r="1.7475801868120115" fill="#5B8AEF" opacity="0.5361982493829905"/><circle cx="815.547886172099" cy="397.72066576300216" r="6.990320747248046" fill="#5B8AEF" opacity="0.03217189496297943"/><circle cx="730.3346772353792" cy="412.11893279669755" r="1.622690716582672" fill="#5B8AEF" opacity="0.6694464538104117"/><circle cx="730.3346772353792" cy="412.11893279669755" r="6.490762866330688" fill="#5B8AEF" opacity="0.0401667872286247"/><circle cx="731.877764236125" cy="301.89441382041866" r="2.470334201804518" fill="#5B8AEF" opacity="0.7613245720795004"/><circle cx="731.877764236125" cy="301.89441382041866" r="9.881336807218071" fill="#5B8AEF" opacity="0.04567947432477003"/><circle cx="849.1980133807277" cy="436.1793293786139" r="1.368971000597333" fill="#5B8AEF" opacity="0.34458513462198204"/><circle cx="849.1980133807277" cy="436.1793293786139" r="5.475884002389332" fill="#5B8AEF" opacity="0.02067510807731892"/><circle cx="765.362804273778" cy="290.6063557093061" r="3.6944440997645467" fill="#5B8AEF" opacity="0.46626184883819044"/><circle cx="765.362804273778" cy="290.6063557093061" r="14.777776399058187" fill="#5B8AEF" opacity="0.027975710930291425"/><circle cx="777.6843033627068" cy="348.89648079355084" r="1.926428463275744" fill="#5B8AEF" opacity="0.7740838506138343"/><circle cx="777.6843033627068" cy="348.89648079355084" r="7.705713853102976" fill="#5B8AEF" opacity="0.04644503103683006"/><circle cx="816.3146093098048" cy="388.59784937864066" r="2.83995560735462" fill="#5B8AEF" opacity="0.3560737662278459"/><circle cx="816.3146093098048" cy="388.59784937864066" r="11.35982242941848" fill="#5B8AEF" opacity="0.021364425973670755"/><line x1="751.3256276731033" y1="408.72160401601417" x2="815.547886172099" y2="397.72066576300216" stroke="#5B8AEF" stroke-width="0.3" opacity="0.12"/><line x1="676.8653177082842" y1="305.76855154045325" x2="815.547886172099" y2="397.72066576300216" stroke="#5B8AEF" stroke-width="0.3" opacity="0.12"/><line x1="815.547886172099" y1="397.72066576300216" x2="731.877764236125" y2="301.89441382041866" stroke="#5B8AEF" stroke-width="0.3" opacity="0.12"/><line x1="730.3346772353792" y1="412.11893279669755" x2="849.1980133807277" y2="436.1793293786139" stroke="#5B8AEF" stroke-width="0.3" opacity="0.12"/><line x1="731.877764236125" y1="301.89441382041866" x2="849.1980133807277" y2="436.1793293786139" stroke="#5B8AEF" stroke-width="0.3" opacity="0.12"/><line x1="849.1980133807277" y1="436.1793293786139" x2="777.6843033627068" y2="348.89648079355084" stroke="#5B8AEF" stroke-width="0.3" opacity="0.12"/><line x1="765.362804273778" y1="290.6063557093061" x2="816.3146093098048" y2="388.59784937864066" stroke="#5B8AEF" stroke-width="0.3" opacity="0.12"/><line x1="777.6843033627068" y1="348.89648079355084" x2="816.3146093098048" y2="388.59784937864066" stroke="#5B8AEF" stroke-width="0.3" opacity="0.12"/><circle cx="662.2567801560539" cy="143.19617792181492" r="3.8869128794814056" fill="#5B8AEF" opacity="0.7121361649186053"/><circle cx="662.2567801560539" cy="143.19617792181492" r="15.547651517925622" fill="#5B8AEF" opacity="0.04272816989511632"/><circle cx="582.2745940565478" cy="169.46166165613644" r="1.546689720613272" fill="#5B8AEF" opacity="0.45932906403175044"/><circle cx="582.2745940565478" cy="169.46166165613644" r="6.186758882453088" fill="#5B8AEF" opacity="0.027559743841905026"/><circle cx="624.9078308348114" cy="60.66868317344628" r="3.2928493420094482" fill="#5B8AEF" opacity="0.7672675039466785"/><circle cx="624.9078308348114" cy="60.66868317344628" r="13.171397368037793" fill="#5B8AEF" opacity="0.04603605023680071"/><circle cx="637.7236209519783" cy="57.325015988817896" r="3.33763376126887" fill="#5B8AEF" opacity="0.7642050950621279"/><circle cx="637.7236209519783" cy="57.325015988817896" r="13.35053504507548" fill="#5B8AEF" opacity="0.04585230570372767"/><circle cx="655.7799473664629" cy="172.44371481819252" r="3.337202140752786" fill="#5B8AEF" opacity="0.4120793743115288"/><circle cx="655.7799473664629" cy="172.44371481819252" r="13.348808563011143" fill="#5B8AEF" opacity="0.024724762458691728"/><circle cx="549.5867541756419" cy="113.11174273170144" r="3.4503792759265655" fill="#5B8AEF" opacity="0.3186327118513327"/><circle cx="549.5867541756419" cy="113.11174273170144" r="13.801517103706262" fill="#5B8AEF" opacity="0.01911796271107996"/><circle cx="514.7531730657225" cy="214.4465997882404" r="2.4745175146844787" fill="#5B8AEF" opacity="0.3192265380263452"/><circle cx="514.7531730657225" cy="214.4465997882404" r="9.898070058737915" fill="#5B8AEF" opacity="0.01915359228158071"/><circle cx="503.0150871272269" cy="93.10635425760705" r="2.9919180143586908" fill="#5B8AEF" opacity="0.6489261334058485"/><circle cx="503.0150871272269" cy="93.10635425760705" r="11.967672057434763" fill="#5B8AEF" opacity="0.038935568004350905"/><circle cx="659.6748131139552" cy="213.11612688615736" r="3.0556465350350583" fill="#5B8AEF" opacity="0.44000254689715923"/><circle cx="659.6748131139552" cy="213.11612688615736" r="12.222586140140233" fill="#5B8AEF" opacity="0.026400152813829552"/><circle cx="432.44374218976293" cy="164.7101116202353" r="3.6571679197518003" fill="#5B8AEF" opacity="0.42778364686657844"/><circle cx="432.44374218976293" cy="164.7101116202353" r="14.628671679007201" fill="#5B8AEF" opacity="0.025667018811994704"/><circle cx="514.6120538071785" cy="233.25234755559467" r="3.4975584035262273" fill="#5B8AEF" opacity="0.7880189166814177"/><circle cx="514.6120538071785" cy="233.25234755559467" r="13.990233614104909" fill="#5B8AEF" opacity="0.04728113500088506"/><line x1="662.2567801560539" y1="143.19617792181492" x2="582.2745940565478" y2="169.46166165613644" stroke="#5B8AEF" stroke-width="0.3" opacity="0.12"/><line x1="582.2745940565478" y1="169.46166165613644" x2="624.9078308348114" y2="60.66868317344628" stroke="#5B8AEF" stroke-width="0.3" opacity="0.12"/><line x1="624.9078308348114" y1="60.66868317344628" x2="655.7799473664629" y2="172.44371481819252" stroke="#5B8AEF" stroke-width="0.3" opacity="0.12"/><line x1="637.7236209519783" y1="57.325015988817896" x2="549.5867541756419" y2="113.11174273170144" stroke="#5B8AEF" stroke-width="0.3" opacity="0.12"/><line x1="655.7799473664629" y1="172.44371481819252" x2="549.5867541756419" y2="113.11174273170144" stroke="#5B8AEF" stroke-width="0.3" opacity="0.12"/><line x1="549.5867541756419" y1="113.11174273170144" x2="514.7531730657225" y2="214.4465997882404" stroke="#5B8AEF" stroke-width="0.3" opacity="0.12"/><line x1="514.7531730657225" y1="214.4465997882404" x2="503.0150871272269" y2="93.10635425760705" stroke="#5B8AEF" stroke-width="0.3" opacity="0.12"/><line x1="503.0150871272269" y1="93.10635425760705" x2="659.6748131139552" y2="213.11612688615736" stroke="#5B8AEF" stroke-width="0.3" opacity="0.12"/><line x1="659.6748131139552" y1="213.11612688615736" x2="432.44374218976293" y2="164.7101116202353" stroke="#5B8AEF" stroke-width="0.3" opacity="0.12"/><line x1="432.44374218976293" y1="164.7101116202353" x2="514.6120538071785" y2="233.25234755559467" stroke="#5B8AEF" stroke-width="0.3" opacity="0.12"/><circle cx="843.8329507800904" cy="503.57246515507455" r="1.6887682320963444" fill="#5B8AEF" opacity="0.7774507766018858"/><circle cx="843.8329507800904" cy="503.57246515507455" r="6.755072928385378" fill="#5B8AEF" opacity="0.04664704659611314"/><circle cx="596.1705629696" cy="329.0711778817098" r="1.0417401804783104" fill="#5B8AEF" opacity="0.4456526066854841"/><circle cx="596.1705629696" cy="329.0711778817098" r="4.166960721913242" fill="#5B8AEF" opacity="0.026739156401129047"/><circle cx="877.0654919916137" cy="463.1192265372347" r="3.225046481576304" fill="#5B8AEF" opacity="0.7866400724214688"/><circle cx="877.0654919916137" cy="463.1192265372347" r="12.900185926305216" fill="#5B8AEF" opacity="0.04719840434528813"/><circle cx="862.8674668087007" cy="378.979727057265" r="1.2365300838074322" fill="#5B8AEF" opacity="0.3532492099112129"/><circle cx="862.8674668087007" cy="378.979727057265" r="4.946120335229729" fill="#5B8AEF" opacity="0.021194952594672772"/><circle cx="862.7317408857549" cy="458.2160024243481" r="3.0977315023065226" fill="#5B8AEF" opacity="0.37486317286959997"/><circle cx="862.7317408857549" cy="458.2160024243481" r="12.39092600922609" fill="#5B8AEF" opacity="0.022491790372175996"/><circle cx="722.2570058527667" cy="485.63486947009096" r="3.531208069311086" fill="#5B8AEF" opacity="0.4082430517339348"/><circle cx="722.2570058527667" cy="485.63486947009096" r="14.124832277244344" fill="#5B8AEF" opacity="0.02449458310403609"/><line x1="843.8329507800904" y1="503.57246515507455" x2="596.1705629696" y2="329.0711778817098" stroke="#5B8AEF" stroke-width="0.3" opacity="0.12"/><line x1="596.1705629696" y1="329.0711778817098" x2="862.8674668087007" y2="378.979727057265" stroke="#5B8AEF" stroke-width="0.3" opacity="0.12"/><line x1="877.0654919916137" y1="463.1192265372347" x2="862.7317408857549" y2="458.2160024243481" stroke="#5B8AEF" stroke-width="0.3" opacity="0.12"/><line x1="862.8674668087007" y1="378.979727057265" x2="722.2570058527667" y2="485.63486947009096" stroke="#5B8AEF" stroke-width="0.3" opacity="0.12"/><line x1="862.7317408857549" y1="458.2160024243481" x2="722.2570058527667" y2="485.63486947009096" stroke="#5B8AEF" stroke-width="0.3" opacity="0.12"/><circle cx="186.32210953455515" cy="208.43221471106273" r="2.7108943060556867" fill="#5B8AEF" opacity="0.4859603790500948"/><circle cx="186.32210953455515" cy="208.43221471106273" r="10.843577224222747" fill="#5B8AEF" opacity="0.02915762274300569"/><circle cx="335.40994382249653" cy="287.9194663315636" r="1.844464092442982" fill="#d79f1e" opacity="0.5973983903869048"/><circle cx="335.40994382249653" cy="287.9194663315636" r="7.377856369771928" fill="#d79f1e" opacity="0.035843903423214286"/><circle cx="298.6038664815034" cy="288.09155295048447" r="3.228361155478452" fill="#5B8AEF" opacity="0.5092839042699355"/><circle cx="298.6038664815034" cy="288.09155295048447" r="12.913444621913808" fill="#5B8AEF" opacity="0.03055703425619613"/><circle cx="334.5029657401624" cy="325.5323798048926" r="1.248015286050744" fill="#5B8AEF" opacity="0.5804983573874917"/><circle cx="334.5029657401624" cy="325.5323798048926" r="4.992061144202976" fill="#5B8AEF" opacity="0.034829901443249496"/><circle cx="275.29109379988677" cy="276.2445796636141" r="1.547160669019055" fill="#5B8AEF" opacity="0.33736068799037516"/><circle cx="275.29109379988677" cy="276.2445796636141" r="6.18864267607622" fill="#5B8AEF" opacity="0.02024164127942251"/><line x1="186.32210953455515" y1="208.43221471106273" x2="298.6038664815034" y2="288.09155295048447" stroke="#5B8AEF" stroke-width="0.3" opacity="0.12"/><line x1="335.40994382249653" y1="287.9194663315636" x2="298.6038664815034" y2="288.09155295048447" stroke="#5B8AEF" stroke-width="0.3" opacity="0.12"/><line x1="298.6038664815034" y1="288.09155295048447" x2="334.5029657401624" y2="325.5323798048926" stroke="#5B8AEF" stroke-width="0.3" opacity="0.12"/><line x1="334.5029657401624" y1="325.5323798048926" x2="275.29109379988677" y2="276.2445796636141" stroke="#5B8AEF" stroke-width="0.3" opacity="0.12"/><circle cx="625.7568036326006" cy="147.29932655920243" r="0.379708640687032" fill="white" opacity="0.13683575505243417"/><circle cx="788.2813300882844" cy="322.1573968986782" r="0.4324929014465273" fill="white" opacity="0.12653648970953024"/><circle cx="790.2603845997994" cy="153.14198441484103" r="0.9097760803111719" fill="white" opacity="0.14498408559941878"/><circle cx="780.213355450059" cy="322.93252457069815" r="1.0025872796320299" fill="white" opacity="0.12207664541065537"/><circle cx="1137.4353350780138" cy="437.83832808855846" r="0.76504024586875" fill="white" opacity="0.1871398092653322"/><circle cx="70.19457950731487" cy="80.14888972050923" r="0.38318604346513097" fill="white" opacity="0.14521859721057984"/><circle cx="1111.7065457216029" cy="225.95697148980432" r="0.6450931055215621" fill="white" opacity="0.1962170939176423"/><circle cx="165.5797905128355" cy="49.76957461320309" r="0.4029873654725903" fill="white" opacity="0.1453721558420789"/><circle cx="158.5859025635691" cy="76.63219295285278" r="0.7763559447956998" fill="white" opacity="0.14644328399861384"/><circle cx="178.19331762296767" cy="447.54464460888164" r="0.6771225886312884" fill="white" opacity="0.18112758613709712"/><circle cx="490.7216495325424" cy="579.3818467200649" r="0.6609304321747881" fill="white" opacity="0.15458254281179168"/><circle cx="150.3763022601494" cy="87.25604316557573" r="0.4497566451084598" fill="white" opacity="0.07998768835327946"/><circle cx="24.625228543125665" cy="538.1080621565264" r="0.5429342196522906" fill="white" opacity="0.16164306800888995"/><circle cx="280.3522033059747" cy="339.74048175836936" r="0.8577025505517155" fill="white" opacity="0.1450188355031511"/><circle cx="652.5464116840374" cy="273.7705868081053" r="0.9163366451004225" fill="white" opacity="0.11937391302519194"/><circle cx="138.84971520809907" cy="423.5817512607117" r="0.4846579183752918" fill="white" opacity="0.11480640003681482"/><circle cx="409.32334997194044" cy="548.7714892014728" r="0.3032253455385684" fill="white" opacity="0.16407171250976235"/><circle cx="426.17721260812937" cy="580.206152414999" r="0.7330715185185297" fill="white" opacity="0.0936897014238358"/><circle cx="342.4946432665431" cy="553.7346903950603" r="0.3252552930383269" fill="white" opacity="0.13732064284259482"/><circle cx="1184.3540439309338" cy="519.2081736024508" r="1.009031648518998" fill="white" opacity="0.1802968735249233"/><circle cx="396.4266670851161" cy="171.4968497732174" r="1.0300721846195275" fill="white" opacity="0.18560129382442742"/><circle cx="807.5624572148371" cy="351.1092048842037" r="0.4232086517490487" fill="white" opacity="0.11896436492398585"/><circle cx="272.65021944076295" cy="416.11907045176207" r="0.45095611035402683" fill="white" opacity="0.10987751002417762"/><circle cx="90.48781082522488" cy="214.31826977725993" r="0.6295468618765225" fill="white" opacity="0.10514516725910136"/><circle cx="998.6089897335548" cy="210.6452259284655" r="0.7190829062923243" fill="white" opacity="0.1112011353304615"/><circle cx="459.8519925306793" cy="366.21923156372236" r="0.6288331886422044" fill="white" opacity="0.10613778303663143"/><circle cx="61.75597331568411" cy="566.3217583514386" r="0.7930568168373112" fill="white" opacity="0.12611010962916078"/><circle cx="1060.9002984412482" cy="475.6579510288583" r="1.0775772560283436" fill="white" opacity="0.18892663781946833"/><circle cx="320.01465443522426" cy="43.14854640660275" r="0.830159274363033" fill="white" opacity="0.1975482911558581"/><circle cx="353.03565205681866" cy="335.1020594756594" r="0.9137514765438397" fill="white" opacity="0.0726999260590877"/><circle cx="541.2582006963241" cy="463.28955155950484" r="0.7099907474638851" fill="white" opacity="0.10896736728445039"/><circle cx="116.3355980610175" cy="226.19830576060264" r="0.4532332245974025" fill="white" opacity="0.08577608910192554"/><circle cx="709.8362884995697" cy="509.25040613359323" r="1.0621011830689857" fill="white" opacity="0.16898447008290535"/><circle cx="975.9094671234067" cy="255.2069715481284" r="0.9180944125252284" fill="white" opacity="0.10864837090887519"/><circle cx="425.3589237226913" cy="303.7155036366151" r="0.7619594941204225" fill="white" opacity="0.07872831536397726"/><circle cx="1094.3705789252979" cy="343.1599987406097" r="0.6867984445704141" fill="white" opacity="0.07277335530276101"/><circle cx="814.2605880341774" cy="238.85154521039294" r="0.8038938014320536" fill="white" opacity="0.07683512534798828"/><circle cx="943.613789111196" cy="58.47679593529403" r="0.3260123793156875" fill="white" opacity="0.12313609226752822"/><circle cx="786.4219227742506" cy="296.62803341477553" r="0.33647680284291354" fill="white" opacity="0.0998047589090675"/><circle cx="548.6638775787613" cy="296.89523312118615" r="0.7242440903672223" fill="white" opacity="0.1757050253570569"/>
</svg>