<svg xmlns="http://www.w3.org/2000/svg" viewBox="0 0 1200 600" width="1200" height="600">
  <defs>
    <radialGradient id="glow-980478534" cx="36.39135208278492%" cy="49.45445536610412%" r="50%">
      <stop offset="0%" stop-color="#5B8AEF" stop-opacity="0.15"/>
      <stop offset="100%" stop-color="#050507" stop-opacity="0"/>
    </radialGradient>
    <radialGradient id="glow2-980478534" cx="58.273503583983285%" cy="52.77473600710497%" r="40%">
      <stop offset="0%" stop-color="#d79f1e" stop-opacity="0.08"/>
      <stop offset="100%" stop-color="#050507" stop-opacity="0"/>
    </radialGradient>
    <filter id="blur-980478534">
      <feGaussianBlur stdDeviation="2"/>
    </filter>
  </defs>
  <rect width="1200" height="600" fill="#050507"/>
  <rect width="1200" height="600" fill="url(#glow-980478534)"/>
  <rect width="1200" height="600" fill="url(#glow2-980478534)"/>
  <circle cx="791.5827880760575" cy="342.4242435220742" r="5.8688406291738335" fill="#d79f1e" opacity="0.3083994339259339"/><circle cx="791.5827880760575" cy="342.4242435220742" r="17.606521887521502" fill="#d79f1e" opacity="0.03083994339259339"/><circle cx="432.11486579483136" cy="242.0997294141444" r="2.584602196041775" fill="#5B8AEF" opacity="0.6616059019051519"/><circle cx="432.11486579483136" cy="242.0997294141444" r="7.753806588125325" fill="#5B8AEF" opacity="0.06616059019051519"/><circle cx="101.61810536944219" cy="233.30628194534512" r="2.989005461795724" fill="#5B8AEF" opacity="0.3103883815512007"/><circle cx="101.61810536944219" cy="233.30628194534512" r="8.967016385387172" fill="#5B8AEF" opacity="0.03103883815512007"/><circle cx="282.85976054280053" cy="218.76712746860792" r="2.659261374110012" fill="#5B8AEF" opacity="0.4009759749756083"/><circle cx="282.85976054280053" cy="218.76712746860792" r="7.9777841223300365" fill="#5B8AEF" opacity="0.04009759749756083"/><circle cx="294.67974330050856" cy="227.2826084528503" r="3.323335558792267" fill="#5B8AEF" opacity="0.48504996257137967"/><circle cx="294.67974330050856" cy="227.2826084528503" r="9.970006676376801" fill="#5B8AEF" opacity="0.04850499625713797"/><circle cx="360.21954933191626" cy="304.59951762324175" r="4.200772448536368" fill="#5B8AEF" opacity="0.47408128998898025"/><circle cx="360.21954933191626" cy="304.59951762324175" r="12.602317345609103" fill="#5B8AEF" opacity="0.04740812899889803"/><circle cx="671.2209571670838" cy="286.4432802360707" r="5.26842439699379" fill="#5B8AEF" opacity="0.7223119604505188"/><circle cx="671.2209571670838" cy="286.4432802360707" r="15.80527319098137" fill="#5B8AEF" opacity="0.07223119604505189"/><circle cx="698.0081270905249" cy="236.5809279012405" r="5.630460301242052" fill="#5B8AEF" opacity="0.4972454484539318"/><circle cx="698.0081270905249" cy="236.5809279012405" r="16.891380903726155" fill="#5B8AEF" opacity="0.04972454484539318"/><circle cx="296.8445036825" cy="219.49541158950672" r="4.661521540331432" fill="#5B8AEF" opacity="0.7779980801874763"/><circle cx="296.8445036825" cy="219.49541158950672" r="13.984564620994295" fill="#5B8AEF" opacity="0.07779980801874764"/><circle cx="524.5661187006934" cy="273.5801550250408" r="3.6805458821731367" fill="#5B8AEF" opacity="0.3653476831807511"/><circle cx="524.5661187006934" cy="273.5801550250408" r="11.04163764651941" fill="#5B8AEF" opacity="0.03653476831807511"/><circle cx="700.9033352792744" cy="134.93355635317675" r="5.069013565345208" fill="#5B8AEF" opacity="0.681908173617864"/><circle cx="700.9033352792744" cy="134.93355635317675" r="15.207040696035623" fill="#5B8AEF" opacity="0.06819081736178641"/><circle cx="559.8019105195076" cy="480.32773909174267" r="4.40259095765771" fill="#5B8AEF" opacity="0.6761887340229884"/><circle cx="559.8019105195076" cy="480.32773909174267" r="13.207772872973129" fill="#5B8AEF" opacity="0.06761887340229884"/><circle cx="296.4296666795526" cy="361.57286918795336" r="3.7934370161003605" fill="#5B8AEF" opacity="0.7610957945515848"/><circle cx="296.4296666795526" cy="361.57286918795336" r="11.380311048301081" fill="#5B8AEF" opacity="0.07610957945515849"/><circle cx="364.9995792494154" cy="423.65928227252294" r="3.512976285774715" fill="#5B8AEF" opacity="0.43191348553258624"/><circle cx="364.9995792494154" cy="423.65928227252294" r="10.538928857324144" fill="#5B8AEF" opacity="0.043191348553258624"/><circle cx="225.49880004743991" cy="225.3841833795347" r="5.433083831999955" fill="#d79f1e" opacity="0.5852577039903298"/><circle cx="225.49880004743991" cy="225.3841833795347" r="16.299251495999865" fill="#d79f1e" opacity="0.058525770399032985"/><circle cx="758.5604081854972" cy="505.28324937693924" r="3.6297689851512054" fill="#d79f1e" opacity="0.786633015557487"/><circle cx="758.5604081854972" cy="505.28324937693924" r="10.889306955453616" fill="#d79f1e" opacity="0.0786633015557487"/><circle cx="789.4723473440262" cy="291.57314356024057" r="3.748531808028245" fill="#d79f1e" opacity="0.5321498471927595"/><circle cx="789.4723473440262" cy="291.57314356024057" r="11.245595424084735" fill="#d79f1e" opacity="0.05321498471927595"/><line x1="791.5827880760575" y1="342.4242435220742" x2="671.2209571670838" y2="286.4432802360707" stroke="#5B8AEF" stroke-width="0.5" opacity="0.05044236992082704"/><line x1="791.5827880760575" y1="342.4242435220742" x2="698.0081270905249" y2="236.5809279012405" stroke="#5B8AEF" stroke-width="0.5" opacity="0.044042690860446376"/><line x1="791.5827880760575" y1="342.4242435220742" x2="758.5604081854972" y2="505.28324937693924" stroke="#5B8AEF" stroke-width="0.5" opacity="0.02537009782584203"/><line x1="791.5827880760575" y1="342.4242435220742" x2="789.4723473440262" y2="291.57314356024057" stroke="#5B8AEF" stroke-width="0.5" opacity="0.1118288435573515"/><line x1="432.11486579483136" y1="242.0997294141444" x2="282.85976054280053" y2="218.76712746860792" stroke="#5B8AEF" stroke-width="0.5" opacity="0.03669910889138689"/><line x1="432.11486579483136" y1="242.0997294141444" x2="294.67974330050856" y2="227.2826084528503" stroke="#5B8AEF" stroke-width="0.5" opacity="0.046326341424912744"/><line x1="432.11486579483136" y1="242.0997294141444" x2="360.21954933191626" y2="304.59951762324175" stroke="#5B8AEF" stroke-width="0.5" opacity="0.07855227413549005"/><line x1="432.11486579483136" y1="242.0997294141444" x2="524.5661187006934" y2="273.5801550250408" stroke="#5B8AEF" stroke-width="0.5" opacity="0.07675202125460999"/><line x1="432.11486579483136" y1="242.0997294141444" x2="296.4296666795526" y2="361.57286918795336" stroke="#5B8AEF" stroke-width="0.5" opacity="0.014408992859665381"/><line x1="432.11486579483136" y1="242.0997294141444" x2="364.9995792494154" y2="423.65928227252294" stroke="#5B8AEF" stroke-width="0.5" opacity="0.0048244605012889965"/><line x1="101.61810536944219" y1="233.30628194534512" x2="296.8445036825" y2="219.49541158950672" stroke="#5B8AEF" stroke-width="0.5" opacity="0.003214275931617294"/><line x1="282.85976054280053" y1="218.76712746860792" x2="294.67974330050856" y2="227.2826084528503" stroke="#5B8AEF" stroke-width="0.5" opacity="0.1390740312813074"/><line x1="282.85976054280053" y1="218.76712746860792" x2="360.21954933191626" y2="304.59951762324175" stroke="#5B8AEF" stroke-width="0.5" opacity="0.06333771542274542"/><line x1="282.85976054280053" y1="218.76712746860792" x2="296.8445036825" y2="219.49541158950672" stroke="#5B8AEF" stroke-width="0.5" opacity="0.13949722969284675"/><line x1="282.85976054280053" y1="218.76712746860792" x2="296.4296666795526" y2="361.57286918795336" stroke="#5B8AEF" stroke-width="0.5" opacity="0.04241323269531647"/><line x1="282.85976054280053" y1="218.76712746860792" x2="225.49880004743991" y2="225.3841833795347" stroke="#5B8AEF" stroke-width="0.5" opacity="0.1066939763421214"/><line x1="294.67974330050856" y1="227.2826084528503" x2="360.21954933191626" y2="304.59951762324175" stroke="#5B8AEF" stroke-width="0.5" opacity="0.07398177210173784"/><line x1="294.67974330050856" y1="227.2826084528503" x2="296.8445036825" y2="219.49541158950672" stroke="#5B8AEF" stroke-width="0.5" opacity="0.1439381335253737"/><line x1="294.67974330050856" y1="227.2826084528503" x2="296.4296666795526" y2="361.57286918795336" stroke="#5B8AEF" stroke-width="0.5" opacity="0.049273753655883455"/><line x1="294.67974330050856" y1="227.2826084528503" x2="225.49880004743991" y2="225.3841833795347" stroke="#5B8AEF" stroke-width="0.5" opacity="0.09809476041363353"/><line x1="360.21954933191626" y1="304.59951762324175" x2="296.8445036825" y2="219.49541158950672" stroke="#5B8AEF" stroke-width="0.5" opacity="0.07041830161957724"/><line x1="360.21954933191626" y1="304.59951762324175" x2="524.5661187006934" y2="273.5801550250408" stroke="#5B8AEF" stroke-width="0.5" opacity="0.024563770815215467"/><line x1="360.21954933191626" y1="304.59951762324175" x2="296.4296666795526" y2="361.57286918795336" stroke="#5B8AEF" stroke-width="0.5" opacity="0.08585367934564223"/><line x1="360.21954933191626" y1="304.59951762324175" x2="364.9995792494154" y2="423.65928227252294" stroke="#5B8AEF" stroke-width="0.5" opacity="0.060633239470990356"/><line x1="671.2209571670838" y1="286.4432802360707" x2="698.0081270905249" y2="236.5809279012405" stroke="#5B8AEF" stroke-width="0.5" opacity="0.10754836584724443"/><line x1="671.2209571670838" y1="286.4432802360707" x2="700.9033352792744" y2="134.93355635317675" stroke="#5B8AEF" stroke-width="0.5" opacity="0.03420757796459859"/><line x1="671.2209571670838" y1="286.4432802360707" x2="789.4723473440262" y2="291.57314356024057" stroke="#5B8AEF" stroke-width="0.5" opacity="0.06122804462115547"/><line x1="698.0081270905249" y1="236.5809279012405" x2="524.5661187006934" y2="273.5801550250408" stroke="#5B8AEF" stroke-width="0.5" opacity="0.01699162203583932"/><line x1="698.0081270905249" y1="236.5809279012405" x2="700.9033352792744" y2="134.93355635317675" stroke="#5B8AEF" stroke-width="0.5" opacity="0.07373355367620008"/><line x1="698.0081270905249" y1="236.5809279012405" x2="789.4723473440262" y2="291.57314356024057" stroke="#5B8AEF" stroke-width="0.5" opacity="0.06995757908810062"/><line x1="296.8445036825" y1="219.49541158950672" x2="296.4296666795526" y2="361.57286918795336" stroke="#5B8AEF" stroke-width="0.5" opacity="0.0434414525875573"/><line x1="296.8445036825" y1="219.49541158950672" x2="225.49880004743991" y2="225.3841833795347" stroke="#5B8AEF" stroke-width="0.5" opacity="0.096308762619381"/><line x1="296.4296666795526" y1="361.57286918795336" x2="364.9995792494154" y2="423.65928227252294" stroke="#5B8AEF" stroke-width="0.5" opacity="0.0806237610939821"/>
</svg>